0
SECTION
2
HEADER
9
$ACADVER
1
AC1015
9
$INSUNITS
70
4
0
ENDSEC
0
SECTION
2
ENTITIES
0
LWPOLYLINE
8
01_deck_front_t4.0
100
AcDbEntity
100
AcDbPolyline
90
5
70
1
43
0.0
10
128
20
-81
10
128
20
81
10
0
20
81
10
0
20
-81
10
128
20
-81
0
LWPOLYLINE
8
01_deck_front_t4.0
100
AcDbEntity
100
AcDbPolyline
90
41
70
1
43
0.0
10
16
20
47
10
15.8478
20
46.2346
10
15.4142
20
45.5858
10
14.7654
20
45.1522
10
14
20
45
10
13.2346
20
45.1522
10
12.5858
20
45.5858
10
12.1522
20
46.2346
10
12
20
47
10
12
20
58
10
4
20
58
10
3.2346
20
58.1522
10
2.5858
20
58.5858
10
2.1522
20
59.2346
10
2
20
60
10
2.1522
20
60.7654
10
2.5858
20
61.4142
10
3.2346
20
61.8478
10
4
20
62
10
12
20
62
10
12
20
73
10
12.1522
20
73.7654
10
12.5858
20
74.4142
10
13.2346
20
74.8478
10
14
20
75
10
14.7654
20
74.8478
10
15.4142
20
74.4142
10
15.8478
20
73.7654
10
16
20
73
10
16
20
62
10
24
20
62
10
24.7654
20
61.8478
10
25.4142
20
61.4142
10
25.8478
20
60.7654
10
26
20
60
10
25.8478
20
59.2346
10
25.4142
20
58.5858
10
24.7654
20
58.1522
10
24
20
58
10
16
20
58
10
16
20
47
0
LWPOLYLINE
8
01_deck_front_t4.0
100
AcDbEntity
100
AcDbPolyline
90
41
70
1
43
0.0
10
15.8478
20
-73.7654
10
15.4142
20
-74.4142
10
14.7654
20
-74.8478
10
14
20
-75
10
13.2346
20
-74.8478
10
12.5858
20
-74.4142
10
12.1522
20
-73.7654
10
12
20
-73
10
12
20
-62
10
4
20
-62
10
3.2346
20
-61.8478
10
2.5858
20
-61.4142
10
2.1522
20
-60.7654
10
2
20
-60
10
2.1522
20
-59.2346
10
2.5858
20
-58.5858
10
3.2346
20
-58.1522
10
4
20
-58
10
12
20
-58
10
12
20
-47
10
12.1522
20
-46.2346
10
12.5858
20
-45.5858
10
13.2346
20
-45.1522
10
14
20
-45
10
14.7654
20
-45.1522
10
15.4142
20
-45.5858
10
15.8478
20
-46.2346
10
16
20
-47
10
16
20
-58
10
24
20
-58
10
24.7654
20
-58.1522
10
25.4142
20
-58.5858
10
25.8478
20
-59.2346
10
26
20
-60
10
25.8478
20
-60.7654
10
25.4142
20
-61.4142
10
24.7654
20
-61.8478
10
24
20
-62
10
16
20
-62
10
16
20
-73
10
15.8478
20
-73.7654
0
LWPOLYLINE
8
01_deck_front_t4.0
100
AcDbEntity
100
AcDbPolyline
90
41
70
1
43
0.0
10
115.4142
20
45.5858
10
114.7654
20
45.1522
10
114
20
45
10
113.2346
20
45.1522
10
112.5858
20
45.5858
10
112.1522
20
46.2346
10
112
20
47
10
112
20
58
10
104
20
58
10
103.2346
20
58.1522
10
102.5858
20
58.5858
10
102.1522
20
59.2346
10
102
20
60
10
102.1522
20
60.7654
10
102.5858
20
61.4142
10
103.2346
20
61.8478
10
104
20
62
10
112
20
62
10
112
20
73
10
112.1522
20
73.7654
10
112.5858
20
74.4142
10
113.2346
20
74.8478
10
114
20
75
10
114.7654
20
74.8478
10
115.4142
20
74.4142
10
115.8478
20
73.7654
10
116
20
73
10
116
20
62
10
124
20
62
10
124.7654
20
61.8478
10
125.4142
20
61.4142
10
125.8478
20
60.7654
10
126
20
60
10
125.8478
20
59.2346
10
125.4142
20
58.5858
10
124.7654
20
58.1522
10
124
20
58
10
116
20
58
10
116
20
47
10
115.8478
20
46.2346
10
115.4142
20
45.5858
0
LWPOLYLINE
8
01_deck_front_t4.0
100
AcDbEntity
100
AcDbPolyline
90
41
70
1
43
0.0
10
114.7654
20
-74.8478
10
114
20
-75
10
113.2346
20
-74.8478
10
112.5858
20
-74.4142
10
112.1522
20
-73.7654
10
112
20
-73
10
112
20
-62
10
104
20
-62
10
103.2346
20
-61.8478
10
102.5858
20
-61.4142
10
102.1522
20
-60.7654
10
102
20
-60
10
102.1522
20
-59.2346
10
102.5858
20
-58.5858
10
103.2346
20
-58.1522
10
104
20
-58
10
112
20
-58
10
112
20
-47
10
112.1522
20
-46.2346
10
112.5858
20
-45.5858
10
113.2346
20
-45.1522
10
114
20
-45
10
114.7654
20
-45.1522
10
115.4142
20
-45.5858
10
115.8478
20
-46.2346
10
116
20
-47
10
116
20
-58
10
124
20
-58
10
124.7654
20
-58.1522
10
125.4142
20
-58.5858
10
125.8478
20
-59.2346
10
126
20
-60
10
125.8478
20
-60.7654
10
125.4142
20
-61.4142
10
124.7654
20
-61.8478
10
124
20
-62
10
116
20
-62
10
116
20
-73
10
115.8478
20
-73.7654
10
115.4142
20
-74.4142
10
114.7654
20
-74.8478
0
LWPOLYLINE
8
01_deck_front_t4.0
100
AcDbEntity
100
AcDbPolyline
90
201
70
1
43
0.0
10
47.2153
20
-32.5486
10
47.3806
20
-32.0866
10
47.5904
20
-31.643
10
47.8427
20
-31.2221
10
48.1349
20
-30.828
10
48.4645
20
-30.4645
10
48.828
20
-30.1349
10
49.01
20
-30
10
38
20
-30
10
37.2346
20
-29.8478
10
36.5858
20
-29.4142
10
36.1522
20
-28.7654
10
36
20
-28
10
36
20
28
10
36.1522
20
28.7654
10
36.5858
20
29.4142
10
37.2346
20
29.8478
10
38
20
30
10
49.01
20
30
10
48.828
20
30.1349
10
48.4645
20
30.4645
10
48.1349
20
30.828
10
47.8427
20
31.2221
10
47.5904
20
31.643
10
47.3806
20
32.0866
10
47.2153
20
32.5486
10
47.0961
20
33.0245
10
47.0241
20
33.5099
10
47
20
34
10
47.0241
20
34.4901
10
47.0961
20
34.9755
10
47.2153
20
35.4514
10
47.3806
20
35.9134
10
47.5904
20
36.357
10
47.8427
20
36.7779
10
48.1349
20
37.172
10
48.4645
20
37.5355
10
48.828
20
37.8651
10
49.2221
20
38.1573
10
49.643
20
38.4096
10
50.0866
20
38.6194
10
50.5486
20
38.7847
10
51.0245
20
38.9039
10
51.5099
20
38.9759
10
52
20
39
10
52.4901
20
38.9759
10
52.9755
20
38.9039
10
53.4514
20
38.7847
10
53.9134
20
38.6194
10
54.357
20
38.4096
10
54.7779
20
38.1573
10
55.172
20
37.8651
10
55.5355
20
37.5355
10
55.8651
20
37.172
10
56.1573
20
36.7779
10
56.4096
20
36.357
10
56.6194
20
35.9134
10
56.7847
20
35.4514
10
56.9039
20
34.9755
10
56.9759
20
34.4901
10
57
20
34
10
56.9759
20
33.5099
10
56.9039
20
33.0245
10
56.7847
20
32.5486
10
56.6194
20
32.0866
10
56.4096
20
31.643
10
56.1573
20
31.2221
10
55.8651
20
30.828
10
55.5355
20
30.4645
10
55.172
20
30.1349
10
54.7779
20
29.8427
10
54.357
20
29.5904
10
53.9134
20
29.3806
10
53.4514
20
29.2153
10
52.9755
20
29.0961
10
52.4901
20
29.0241
10
52
20
29
10
51.6805
20
29.0157
10
51.8478
20
28.7654
10
52
20
28
10
52
20
21
10
52.4901
20
20.9759
10
52.9755
20
20.9039
10
53.4514
20
20.7847
10
53.9134
20
20.6194
10
54.357
20
20.4096
10
54.7779
20
20.1573
10
55.172
20
19.8651
10
55.5355
20
19.5355
10
55.8651
20
19.172
10
56.1573
20
18.7779
10
56.4096
20
18.357
10
56.6194
20
17.9134
10
56.7847
20
17.4514
10
56.9039
20
16.9755
10
56.9759
20
16.4901
10
57
20
16
10
56.9759
20
15.5099
10
56.9039
20
15.0245
10
56.7847
20
14.5486
10
56.6194
20
14.0866
10
56.4096
20
13.643
10
56.1573
20
13.2221
10
55.8651
20
12.828
10
55.5355
20
12.4645
10
55.172
20
12.1349
10
54.7779
20
11.8427
10
54.357
20
11.5904
10
53.9134
20
11.3806
10
53.4514
20
11.2153
10
52.9755
20
11.0961
10
52.4901
20
11.0241
10
52
20
11
10
52
20
-11
10
52.4901
20
-11.0241
10
52.9755
20
-11.0961
10
53.4514
20
-11.2153
10
53.9134
20
-11.3806
10
54.357
20
-11.5904
10
54.7779
20
-11.8427
10
55.172
20
-12.1349
10
55.5355
20
-12.4645
10
55.8651
20
-12.828
10
56.1573
20
-13.2221
10
56.4096
20
-13.643
10
56.6194
20
-14.0866
10
56.7847
20
-14.5486
10
56.9039
20
-15.0245
10
56.9759
20
-15.5099
10
57
20
-16
10
56.9759
20
-16.4901
10
56.9039
20
-16.9755
10
56.7847
20
-17.4514
10
56.6194
20
-17.9134
10
56.4096
20
-18.357
10
56.1573
20
-18.7779
10
55.8651
20
-19.172
10
55.5355
20
-19.5355
10
55.172
20
-19.8651
10
54.7779
20
-20.1573
10
54.357
20
-20.4096
10
53.9134
20
-20.6194
10
53.4514
20
-20.7847
10
52.9755
20
-20.9039
10
52.4901
20
-20.9759
10
52
20
-21
10
52
20
-28
10
51.8478
20
-28.7654
10
51.6805
20
-29.0157
10
52
20
-29
10
52.4901
20
-29.0241
10
52.9755
20
-29.0961
10
53.4514
20
-29.2153
10
53.9134
20
-29.3806
10
54.357
20
-29.5904
10
54.7779
20
-29.8427
10
55.172
20
-30.1349
10
55.5355
20
-30.4645
10
55.8651
20
-30.828
10
56.1573
20
-31.2221
10
56.4096
20
-31.643
10
56.6194
20
-32.0866
10
56.7847
20
-32.5486
10
56.9039
20
-33.0245
10
56.9759
20
-33.5099
10
57
20
-34
10
56.9759
20
-34.4901
10
56.9039
20
-34.9755
10
56.7847
20
-35.4514
10
56.6194
20
-35.9134
10
56.4096
20
-36.357
10
56.1573
20
-36.7779
10
55.8651
20
-37.172
10
55.5355
20
-37.5355
10
55.172
20
-37.8651
10
54.7779
20
-38.1573
10
54.357
20
-38.4096
10
53.9134
20
-38.6194
10
53.4514
20
-38.7847
10
52.9755
20
-38.9039
10
52.4901
20
-38.9759
10
52
20
-39
10
51.5099
20
-38.9759
10
51.0245
20
-38.9039
10
50.5486
20
-38.7847
10
50.0866
20
-38.6194
10
49.643
20
-38.4096
10
49.2221
20
-38.1573
10
48.828
20
-37.8651
10
48.4645
20
-37.5355
10
48.1349
20
-37.172
10
47.8427
20
-36.7779
10
47.5904
20
-36.357
10
47.3806
20
-35.9134
10
47.2153
20
-35.4514
10
47.0961
20
-34.9755
10
47.0241
20
-34.4901
10
47
20
-34
10
47.0241
20
-33.5099
10
47.0961
20
-33.0245
10
47.2153
20
-32.5486
0
LWPOLYLINE
8
01_deck_front_t4.0
100
AcDbEntity
100
AcDbPolyline
90
108
70
1
43
0.0
10
87.8478
20
24.7654
10
88
20
24
10
88
20
-24
10
87.8478
20
-24.7654
10
87.4142
20
-25.4142
10
86.7654
20
-25.8478
10
86
20
-26
10
74
20
-26
10
73.2346
20
-25.8478
10
72.5858
20
-25.4142
10
72.1522
20
-24.7654
10
72
20
-24
10
72
20
-18.99
10
71.8427
20
-18.7779
10
71.5904
20
-18.357
10
71.3806
20
-17.9134
10
71.2153
20
-17.4514
10
71.0961
20
-16.9755
10
71.0241
20
-16.4901
10
71
20
-16
10
71.0241
20
-15.5099
10
71.0961
20
-15.0245
10
71.2153
20
-14.5486
10
71.3806
20
-14.0866
10
71.5904
20
-13.643
10
71.8427
20
-13.2221
10
72
20
-13.01
10
72
20
-4.11
10
71.9373
20
-4.2426
10
71.4832
20
-5.0001
10
70.9571
20
-5.7095
10
70.364
20
-6.364
10
69.7095
20
-6.9571
10
69.0001
20
-7.4832
10
68.2426
20
-7.9373
10
67.4442
20
-8.3149
10
66.6126
20
-8.6125
10
65.7558
20
-8.8271
10
64.8822
20
-8.9567
10
64
20
-9
10
63.1178
20
-8.9567
10
62.2442
20
-8.8271
10
61.3874
20
-8.6125
10
60.5558
20
-8.3149
10
59.7574
20
-7.9373
10
58.9999
20
-7.4832
10
58.2905
20
-6.9571
10
57.636
20
-6.364
10
57.0429
20
-5.7095
10
56.5168
20
-5.0001
10
56.0627
20
-4.2426
10
55.6851
20
-3.4442
10
55.3875
20
-2.6126
10
55.1729
20
-1.7558
10
55.0433
20
-0.8822
10
55
20
0
10
55.0433
20
0.8822
10
55.1729
20
1.7558
10
55.3875
20
2.6126
10
55.6851
20
3.4442
10
56.0627
20
4.2426
10
56.5168
20
5.0001
10
57.0429
20
5.7095
10
57.636
20
6.364
10
58.2905
20
6.9571
10
58.9999
20
7.4832
10
59.7574
20
7.9373
10
60.5558
20
8.3149
10
61.3874
20
8.6125
10
62.2442
20
8.8271
10
63.1178
20
8.9567
10
64
20
9
10
64.8822
20
8.9567
10
65.7558
20
8.8271
10
66.6126
20
8.6125
10
67.4442
20
8.3149
10
68.2426
20
7.9373
10
69.0001
20
7.4832
10
69.7095
20
6.9571
10
70.364
20
6.364
10
70.9571
20
5.7095
10
71.4832
20
5.0001
10
71.9373
20
4.2426
10
72
20
4.11
10
72
20
13.01
10
71.8427
20
13.2221
10
71.5904
20
13.643
10
71.3806
20
14.0866
10
71.2153
20
14.5486
10
71.0961
20
15.0245
10
71.0241
20
15.5099
10
71
20
16
10
71.0241
20
16.4901
10
71.0961
20
16.9755
10
71.2153
20
17.4514
10
71.3806
20
17.9134
10
71.5904
20
18.357
10
71.8427
20
18.7779
10
72
20
18.99
10
72
20
24
10
72.1522
20
24.7654
10
72.5858
20
25.4142
10
73.2346
20
25.8478
10
74
20
26
10
86
20
26
10
86.7654
20
25.8478
10
87.4142
20
25.4142
10
87.8478
20
24.7654
0
LWPOLYLINE
8
01_deck_front_t4.0
100
AcDbEntity
100
AcDbPolyline
90
65
70
1
43
0.0
10
24.1349
20
-48.828
10
24.4645
20
-48.4645
10
24.828
20
-48.1349
10
25.2221
20
-47.8427
10
25.643
20
-47.5904
10
26.0866
20
-47.3806
10
26.5486
20
-47.2153
10
27.0245
20
-47.0961
10
27.5099
20
-47.0241
10
28
20
-47
10
28.4901
20
-47.0241
10
28.9755
20
-47.0961
10
29.4514
20
-47.2153
10
29.9134
20
-47.3806
10
30.357
20
-47.5904
10
30.7779
20
-47.8427
10
31.172
20
-48.1349
10
31.5355
20
-48.4645
10
31.8651
20
-48.828
10
32.1573
20
-49.2221
10
32.4096
20
-49.643
10
32.6194
20
-50.0866
10
32.7847
20
-50.5486
10
32.9039
20
-51.0245
10
32.9759
20
-51.5099
10
33
20
-52
10
32.9759
20
-52.4901
10
32.9039
20
-52.9755
10
32.7847
20
-53.4514
10
32.6194
20
-53.9134
10
32.4096
20
-54.357
10
32.1573
20
-54.7779
10
31.8651
20
-55.172
10
31.5355
20
-55.5355
10
31.172
20
-55.8651
10
30.7779
20
-56.1573
10
30.357
20
-56.4096
10
29.9134
20
-56.6194
10
29.4514
20
-56.7847
10
28.9755
20
-56.9039
10
28.4901
20
-56.9759
10
28
20
-57
10
27.5099
20
-56.9759
10
27.0245
20
-56.9039
10
26.5486
20
-56.7847
10
26.0866
20
-56.6194
10
25.643
20
-56.4096
10
25.2221
20
-56.1573
10
24.828
20
-55.8651
10
24.4645
20
-55.5355
10
24.1349
20
-55.172
10
23.8427
20
-54.7779
10
23.5904
20
-54.357
10
23.3806
20
-53.9134
10
23.2153
20
-53.4514
10
23.0961
20
-52.9755
10
23.0241
20
-52.4901
10
23
20
-52
10
23.0241
20
-51.5099
10
23.0961
20
-51.0245
10
23.2153
20
-50.5486
10
23.3806
20
-50.0866
10
23.5904
20
-49.643
10
23.8427
20
-49.2221
10
24.1349
20
-48.828
0
LWPOLYLINE
8
01_deck_front_t4.0
100
AcDbEntity
100
AcDbPolyline
90
65
70
1
43
0.0
10
24.4645
20
-30.4645
10
24.828
20
-30.1349
10
25.2221
20
-29.8427
10
25.643
20
-29.5904
10
26.0866
20
-29.3806
10
26.5486
20
-29.2153
10
27.0245
20
-29.0961
10
27.5099
20
-29.0241
10
28
20
-29
10
28.4901
20
-29.0241
10
28.9755
20
-29.0961
10
29.4514
20
-29.2153
10
29.9134
20
-29.3806
10
30.357
20
-29.5904
10
30.7779
20
-29.8427
10
31.172
20
-30.1349
10
31.5355
20
-30.4645
10
31.8651
20
-30.828
10
32.1573
20
-31.2221
10
32.4096
20
-31.643
10
32.6194
20
-32.0866
10
32.7847
20
-32.5486
10
32.9039
20
-33.0245
10
32.9759
20
-33.5099
10
33
20
-34
10
32.9759
20
-34.4901
10
32.9039
20
-34.9755
10
32.7847
20
-35.4514
10
32.6194
20
-35.9134
10
32.4096
20
-36.357
10
32.1573
20
-36.7779
10
31.8651
20
-37.172
10
31.5355
20
-37.5355
10
31.172
20
-37.8651
10
30.7779
20
-38.1573
10
30.357
20
-38.4096
10
29.9134
20
-38.6194
10
29.4514
20
-38.7847
10
28.9755
20
-38.9039
10
28.4901
20
-38.9759
10
28
20
-39
10
27.5099
20
-38.9759
10
27.0245
20
-38.9039
10
26.5486
20
-38.7847
10
26.0866
20
-38.6194
10
25.643
20
-38.4096
10
25.2221
20
-38.1573
10
24.828
20
-37.8651
10
24.4645
20
-37.5355
10
24.1349
20
-37.172
10
23.8427
20
-36.7779
10
23.5904
20
-36.357
10
23.3806
20
-35.9134
10
23.2153
20
-35.4514
10
23.0961
20
-34.9755
10
23.0241
20
-34.4901
10
23
20
-34
10
23.0241
20
-33.5099
10
23.0961
20
-33.0245
10
23.2153
20
-32.5486
10
23.3806
20
-32.0866
10
23.5904
20
-31.643
10
23.8427
20
-31.2221
10
24.1349
20
-30.828
10
24.4645
20
-30.4645
0
LWPOLYLINE
8
01_deck_front_t4.0
100
AcDbEntity
100
AcDbPolyline
90
65
70
1
43
0.0
10
24.828
20
-12.1349
10
25.2221
20
-11.8427
10
25.643
20
-11.5904
10
26.0866
20
-11.3806
10
26.5486
20
-11.2153
10
27.0245
20
-11.0961
10
27.5099
20
-11.0241
10
28
20
-11
10
28.4901
20
-11.0241
10
28.9755
20
-11.0961
10
29.4514
20
-11.2153
10
29.9134
20
-11.3806
10
30.357
20
-11.5904
10
30.7779
20
-11.8427
10
31.172
20
-12.1349
10
31.5355
20
-12.4645
10
31.8651
20
-12.828
10
32.1573
20
-13.2221
10
32.4096
20
-13.643
10
32.6194
20
-14.0866
10
32.7847
20
-14.5486
10
32.9039
20
-15.0245
10
32.9759
20
-15.5099
10
33
20
-16
10
32.9759
20
-16.4901
10
32.9039
20
-16.9755
10
32.7847
20
-17.4514
10
32.6194
20
-17.9134
10
32.4096
20
-18.357
10
32.1573
20
-18.7779
10
31.8651
20
-19.172
10
31.5355
20
-19.5355
10
31.172
20
-19.8651
10
30.7779
20
-20.1573
10
30.357
20
-20.4096
10
29.9134
20
-20.6194
10
29.4514
20
-20.7847
10
28.9755
20
-20.9039
10
28.4901
20
-20.9759
10
28
20
-21
10
27.5099
20
-20.9759
10
27.0245
20
-20.9039
10
26.5486
20
-20.7847
10
26.0866
20
-20.6194
10
25.643
20
-20.4096
10
25.2221
20
-20.1573
10
24.828
20
-19.8651
10
24.4645
20
-19.5355
10
24.1349
20
-19.172
10
23.8427
20
-18.7779
10
23.5904
20
-18.357
10
23.3806
20
-17.9134
10
23.2153
20
-17.4514
10
23.0961
20
-16.9755
10
23.0241
20
-16.4901
10
23
20
-16
10
23.0241
20
-15.5099
10
23.0961
20
-15.0245
10
23.2153
20
-14.5486
10
23.3806
20
-14.0866
10
23.5904
20
-13.643
10
23.8427
20
-13.2221
10
24.1349
20
-12.828
10
24.4645
20
-12.4645
10
24.828
20
-12.1349
0
LWPOLYLINE
8
01_deck_front_t4.0
100
AcDbEntity
100
AcDbPolyline
90
65
70
1
43
0.0
10
25.2221
20
20.1573
10
25.643
20
20.4096
10
26.0866
20
20.6194
10
26.5486
20
20.7847
10
27.0245
20
20.9039
10
27.5099
20
20.9759
10
28
20
21
10
28.4901
20
20.9759
10
28.9755
20
20.9039
10
29.4514
20
20.7847
10
29.9134
20
20.6194
10
30.357
20
20.4096
10
30.7779
20
20.1573
10
31.172
20
19.8651
10
31.5355
20
19.5355
10
31.8651
20
19.172
10
32.1573
20
18.7779
10
32.4096
20
18.357
10
32.6194
20
17.9134
10
32.7847
20
17.4514
10
32.9039
20
16.9755
10
32.9759
20
16.4901
10
33
20
16
10
32.9759
20
15.5099
10
32.9039
20
15.0245
10
32.7847
20
14.5486
10
32.6194
20
14.0866
10
32.4096
20
13.643
10
32.1573
20
13.2221
10
31.8651
20
12.828
10
31.5355
20
12.4645
10
31.172
20
12.1349
10
30.7779
20
11.8427
10
30.357
20
11.5904
10
29.9134
20
11.3806
10
29.4514
20
11.2153
10
28.9755
20
11.0961
10
28.4901
20
11.0241
10
28
20
11
10
27.5099
20
11.0241
10
27.0245
20
11.0961
10
26.5486
20
11.2153
10
26.0866
20
11.3806
10
25.643
20
11.5904
10
25.2221
20
11.8427
10
24.828
20
12.1349
10
24.4645
20
12.4645
10
24.1349
20
12.828
10
23.8427
20
13.2221
10
23.5904
20
13.643
10
23.3806
20
14.0866
10
23.2153
20
14.5486
10
23.0961
20
15.0245
10
23.0241
20
15.5099
10
23
20
16
10
23.0241
20
16.4901
10
23.0961
20
16.9755
10
23.2153
20
17.4514
10
23.3806
20
17.9134
10
23.5904
20
18.357
10
23.8427
20
18.7779
10
24.1349
20
19.172
10
24.4645
20
19.5355
10
24.828
20
19.8651
10
25.2221
20
20.1573
0
LWPOLYLINE
8
01_deck_front_t4.0
100
AcDbEntity
100
AcDbPolyline
90
65
70
1
43
0.0
10
25.643
20
38.4096
10
26.0866
20
38.6194
10
26.5486
20
38.7847
10
27.0245
20
38.9039
10
27.5099
20
38.9759
10
28
20
39
10
28.4901
20
38.9759
10
28.9755
20
38.9039
10
29.4514
20
38.7847
10
29.9134
20
38.6194
10
30.357
20
38.4096
10
30.7779
20
38.1573
10
31.172
20
37.8651
10
31.5355
20
37.5355
10
31.8651
20
37.172
10
32.1573
20
36.7779
10
32.4096
20
36.357
10
32.6194
20
35.9134
10
32.7847
20
35.4514
10
32.9039
20
34.9755
10
32.9759
20
34.4901
10
33
20
34
10
32.9759
20
33.5099
10
32.9039
20
33.0245
10
32.7847
20
32.5486
10
32.6194
20
32.0866
10
32.4096
20
31.643
10
32.1573
20
31.2221
10
31.8651
20
30.828
10
31.5355
20
30.4645
10
31.172
20
30.1349
10
30.7779
20
29.8427
10
30.357
20
29.5904
10
29.9134
20
29.3806
10
29.4514
20
29.2153
10
28.9755
20
29.0961
10
28.4901
20
29.0241
10
28
20
29
10
27.5099
20
29.0241
10
27.0245
20
29.0961
10
26.5486
20
29.2153
10
26.0866
20
29.3806
10
25.643
20
29.5904
10
25.2221
20
29.8427
10
24.828
20
30.1349
10
24.4645
20
30.4645
10
24.1349
20
30.828
10
23.8427
20
31.2221
10
23.5904
20
31.643
10
23.3806
20
32.0866
10
23.2153
20
32.5486
10
23.0961
20
33.0245
10
23.0241
20
33.5099
10
23
20
34
10
23.0241
20
34.4901
10
23.0961
20
34.9755
10
23.2153
20
35.4514
10
23.3806
20
35.9134
10
23.5904
20
36.357
10
23.8427
20
36.7779
10
24.1349
20
37.172
10
24.4645
20
37.5355
10
24.828
20
37.8651
10
25.2221
20
38.1573
10
25.643
20
38.4096
0
LWPOLYLINE
8
01_deck_front_t4.0
100
AcDbEntity
100
AcDbPolyline
90
65
70
1
43
0.0
10
26.0866
20
56.6194
10
26.5486
20
56.7847
10
27.0245
20
56.9039
10
27.5099
20
56.9759
10
28
20
57
10
28.4901
20
56.9759
10
28.9755
20
56.9039
10
29.4514
20
56.7847
10
29.9134
20
56.6194
10
30.357
20
56.4096
10
30.7779
20
56.1573
10
31.172
20
55.8651
10
31.5355
20
55.5355
10
31.8651
20
55.172
10
32.1573
20
54.7779
10
32.4096
20
54.357
10
32.6194
20
53.9134
10
32.7847
20
53.4514
10
32.9039
20
52.9755
10
32.9759
20
52.4901
10
33
20
52
10
32.9759
20
51.5099
10
32.9039
20
51.0245
10
32.7847
20
50.5486
10
32.6194
20
50.0866
10
32.4096
20
49.643
10
32.1573
20
49.2221
10
31.8651
20
48.828
10
31.5355
20
48.4645
10
31.172
20
48.1349
10
30.7779
20
47.8427
10
30.357
20
47.5904
10
29.9134
20
47.3806
10
29.4514
20
47.2153
10
28.9755
20
47.0961
10
28.4901
20
47.0241
10
28
20
47
10
27.5099
20
47.0241
10
27.0245
20
47.0961
10
26.5486
20
47.2153
10
26.0866
20
47.3806
10
25.643
20
47.5904
10
25.2221
20
47.8427
10
24.828
20
48.1349
10
24.4645
20
48.4645
10
24.1349
20
48.828
10
23.8427
20
49.2221
10
23.5904
20
49.643
10
23.3806
20
50.0866
10
23.2153
20
50.5486
10
23.0961
20
51.0245
10
23.0241
20
51.5099
10
23
20
52
10
23.0241
20
52.4901
10
23.0961
20
52.9755
10
23.2153
20
53.4514
10
23.3806
20
53.9134
10
23.5904
20
54.357
10
23.8427
20
54.7779
10
24.1349
20
55.172
10
24.4645
20
55.5355
10
24.828
20
55.8651
10
25.2221
20
56.1573
10
25.643
20
56.4096
10
26.0866
20
56.6194
0
LWPOLYLINE
8
01_deck_front_t4.0
100
AcDbEntity
100
AcDbPolyline
90
65
70
1
43
0.0
10
50.5486
20
-47.2153
10
51.0245
20
-47.0961
10
51.5099
20
-47.0241
10
52
20
-47
10
52.4901
20
-47.0241
10
52.9755
20
-47.0961
10
53.4514
20
-47.2153
10
53.9134
20
-47.3806
10
54.357
20
-47.5904
10
54.7779
20
-47.8427
10
55.172
20
-48.1349
10
55.5355
20
-48.4645
10
55.8651
20
-48.828
10
56.1573
20
-49.2221
10
56.4096
20
-49.643
10
56.6194
20
-50.0866
10
56.7847
20
-50.5486
10
56.9039
20
-51.0245
10
56.9759
20
-51.5099
10
57
20
-52
10
56.9759
20
-52.4901
10
56.9039
20
-52.9755
10
56.7847
20
-53.4514
10
56.6194
20
-53.9134
10
56.4096
20
-54.357
10
56.1573
20
-54.7779
10
55.8651
20
-55.172
10
55.5355
20
-55.5355
10
55.172
20
-55.8651
10
54.7779
20
-56.1573
10
54.357
20
-56.4096
10
53.9134
20
-56.6194
10
53.4514
20
-56.7847
10
52.9755
20
-56.9039
10
52.4901
20
-56.9759
10
52
20
-57
10
51.5099
20
-56.9759
10
51.0245
20
-56.9039
10
50.5486
20
-56.7847
10
50.0866
20
-56.6194
10
49.643
20
-56.4096
10
49.2221
20
-56.1573
10
48.828
20
-55.8651
10
48.4645
20
-55.5355
10
48.1349
20
-55.172
10
47.8427
20
-54.7779
10
47.5904
20
-54.357
10
47.3806
20
-53.9134
10
47.2153
20
-53.4514
10
47.0961
20
-52.9755
10
47.0241
20
-52.4901
10
47
20
-52
10
47.0241
20
-51.5099
10
47.0961
20
-51.0245
10
47.2153
20
-50.5486
10
47.3806
20
-50.0866
10
47.5904
20
-49.643
10
47.8427
20
-49.2221
10
48.1349
20
-48.828
10
48.4645
20
-48.4645
10
48.828
20
-48.1349
10
49.2221
20
-47.8427
10
49.643
20
-47.5904
10
50.0866
20
-47.3806
10
50.5486
20
-47.2153
0
LWPOLYLINE
8
01_deck_front_t4.0
100
AcDbEntity
100
AcDbPolyline
90
65
70
1
43
0.0
10
52.9755
20
56.9039
10
53.4514
20
56.7847
10
53.9134
20
56.6194
10
54.357
20
56.4096
10
54.7779
20
56.1573
10
55.172
20
55.8651
10
55.5355
20
55.5355
10
55.8651
20
55.172
10
56.1573
20
54.7779
10
56.4096
20
54.357
10
56.6194
20
53.9134
10
56.7847
20
53.4514
10
56.9039
20
52.9755
10
56.9759
20
52.4901
10
57
20
52
10
56.9759
20
51.5099
10
56.9039
20
51.0245
10
56.7847
20
50.5486
10
56.6194
20
50.0866
10
56.4096
20
49.643
10
56.1573
20
49.2221
10
55.8651
20
48.828
10
55.5355
20
48.4645
10
55.172
20
48.1349
10
54.7779
20
47.8427
10
54.357
20
47.5904
10
53.9134
20
47.3806
10
53.4514
20
47.2153
10
52.9755
20
47.0961
10
52.4901
20
47.0241
10
52
20
47
10
51.5099
20
47.0241
10
51.0245
20
47.0961
10
50.5486
20
47.2153
10
50.0866
20
47.3806
10
49.643
20
47.5904
10
49.2221
20
47.8427
10
48.828
20
48.1349
10
48.4645
20
48.4645
10
48.1349
20
48.828
10
47.8427
20
49.2221
10
47.5904
20
49.643
10
47.3806
20
50.0866
10
47.2153
20
50.5486
10
47.0961
20
51.0245
10
47.0241
20
51.5099
10
47
20
52
10
47.0241
20
52.4901
10
47.0961
20
52.9755
10
47.2153
20
53.4514
10
47.3806
20
53.9134
10
47.5904
20
54.357
10
47.8427
20
54.7779
10
48.1349
20
55.172
10
48.4645
20
55.5355
10
48.828
20
55.8651
10
49.2221
20
56.1573
10
49.643
20
56.4096
10
50.0866
20
56.6194
10
50.5486
20
56.7847
10
51.0245
20
56.9039
10
51.5099
20
56.9759
10
52
20
57
10
52.4901
20
56.9759
10
52.9755
20
56.9039
0
LWPOLYLINE
8
01_deck_front_t4.0
100
AcDbEntity
100
AcDbPolyline
90
65
70
1
43
0.0
10
77.4514
20
-47.2153
10
77.9134
20
-47.3806
10
78.357
20
-47.5904
10
78.7779
20
-47.8427
10
79.172
20
-48.1349
10
79.5355
20
-48.4645
10
79.8651
20
-48.828
10
80.1573
20
-49.2221
10
80.4096
20
-49.643
10
80.6194
20
-50.0866
10
80.7847
20
-50.5486
10
80.9039
20
-51.0245
10
80.9759
20
-51.5099
10
81
20
-52
10
80.9759
20
-52.4901
10
80.9039
20
-52.9755
10
80.7847
20
-53.4514
10
80.6194
20
-53.9134
10
80.4096
20
-54.357
10
80.1573
20
-54.7779
10
79.8651
20
-55.172
10
79.5355
20
-55.5355
10
79.172
20
-55.8651
10
78.7779
20
-56.1573
10
78.357
20
-56.4096
10
77.9134
20
-56.6194
10
77.4514
20
-56.7847
10
76.9755
20
-56.9039
10
76.4901
20
-56.9759
10
76
20
-57
10
75.5099
20
-56.9759
10
75.0245
20
-56.9039
10
74.5486
20
-56.7847
10
74.0866
20
-56.6194
10
73.643
20
-56.4096
10
73.2221
20
-56.1573
10
72.828
20
-55.8651
10
72.4645
20
-55.5355
10
72.1349
20
-55.172
10
71.8427
20
-54.7779
10
71.5904
20
-54.357
10
71.3806
20
-53.9134
10
71.2153
20
-53.4514
10
71.0961
20
-52.9755
10
71.0241
20
-52.4901
10
71
20
-52
10
71.0241
20
-51.5099
10
71.0961
20
-51.0245
10
71.2153
20
-50.5486
10
71.3806
20
-50.0866
10
71.5904
20
-49.643
10
71.8427
20
-49.2221
10
72.1349
20
-48.828
10
72.4645
20
-48.4645
10
72.828
20
-48.1349
10
73.2221
20
-47.8427
10
73.643
20
-47.5904
10
74.0866
20
-47.3806
10
74.5486
20
-47.2153
10
75.0245
20
-47.0961
10
75.5099
20
-47.0241
10
76
20
-47
10
76.4901
20
-47.0241
10
76.9755
20
-47.0961
10
77.4514
20
-47.2153
0
LWPOLYLINE
8
01_deck_front_t4.0
100
AcDbEntity
100
AcDbPolyline
90
65
70
1
43
0.0
10
77.9134
20
-29.3806
10
78.357
20
-29.5904
10
78.7779
20
-29.8427
10
79.172
20
-30.1349
10
79.5355
20
-30.4645
10
79.8651
20
-30.828
10
80.1573
20
-31.2221
10
80.4096
20
-31.643
10
80.6194
20
-32.0866
10
80.7847
20
-32.5486
10
80.9039
20
-33.0245
10
80.9759
20
-33.5099
10
81
20
-34
10
80.9759
20
-34.4901
10
80.9039
20
-34.9755
10
80.7847
20
-35.4514
10
80.6194
20
-35.9134
10
80.4096
20
-36.357
10
80.1573
20
-36.7779
10
79.8651
20
-37.172
10
79.5355
20
-37.5355
10
79.172
20
-37.8651
10
78.7779
20
-38.1573
10
78.357
20
-38.4096
10
77.9134
20
-38.6194
10
77.4514
20
-38.7847
10
76.9755
20
-38.9039
10
76.4901
20
-38.9759
10
76
20
-39
10
75.5099
20
-38.9759
10
75.0245
20
-38.9039
10
74.5486
20
-38.7847
10
74.0866
20
-38.6194
10
73.643
20
-38.4096
10
73.2221
20
-38.1573
10
72.828
20
-37.8651
10
72.4645
20
-37.5355
10
72.1349
20
-37.172
10
71.8427
20
-36.7779
10
71.5904
20
-36.357
10
71.3806
20
-35.9134
10
71.2153
20
-35.4514
10
71.0961
20
-34.9755
10
71.0241
20
-34.4901
10
71
20
-34
10
71.0241
20
-33.5099
10
71.0961
20
-33.0245
10
71.2153
20
-32.5486
10
71.3806
20
-32.0866
10
71.5904
20
-31.643
10
71.8427
20
-31.2221
10
72.1349
20
-30.828
10
72.4645
20
-30.4645
10
72.828
20
-30.1349
10
73.2221
20
-29.8427
10
73.643
20
-29.5904
10
74.0866
20
-29.3806
10
74.5486
20
-29.2153
10
75.0245
20
-29.0961
10
75.5099
20
-29.0241
10
76
20
-29
10
76.4901
20
-29.0241
10
76.9755
20
-29.0961
10
77.4514
20
-29.2153
10
77.9134
20
-29.3806
0
LWPOLYLINE
8
01_deck_front_t4.0
100
AcDbEntity
100
AcDbPolyline
90
65
70
1
43
0.0
10
79.172
20
37.8651
10
79.5355
20
37.5355
10
79.8651
20
37.172
10
80.1573
20
36.7779
10
80.4096
20
36.357
10
80.6194
20
35.9134
10
80.7847
20
35.4514
10
80.9039
20
34.9755
10
80.9759
20
34.4901
10
81
20
34
10
80.9759
20
33.5099
10
80.9039
20
33.0245
10
80.7847
20
32.5486
10
80.6194
20
32.0866
10
80.4096
20
31.643
10
80.1573
20
31.2221
10
79.8651
20
30.828
10
79.5355
20
30.4645
10
79.172
20
30.1349
10
78.7779
20
29.8427
10
78.357
20
29.5904
10
77.9134
20
29.3806
10
77.4514
20
29.2153
10
76.9755
20
29.0961
10
76.4901
20
29.0241
10
76
20
29
10
75.5099
20
29.0241
10
75.0245
20
29.0961
10
74.5486
20
29.2153
10
74.0866
20
29.3806
10
73.643
20
29.5904
10
73.2221
20
29.8427
10
72.828
20
30.1349
10
72.4645
20
30.4645
10
72.1349
20
30.828
10
71.8427
20
31.2221
10
71.5904
20
31.643
10
71.3806
20
32.0866
10
71.2153
20
32.5486
10
71.0961
20
33.0245
10
71.0241
20
33.5099
10
71
20
34
10
71.0241
20
34.4901
10
71.0961
20
34.9755
10
71.2153
20
35.4514
10
71.3806
20
35.9134
10
71.5904
20
36.357
10
71.8427
20
36.7779
10
72.1349
20
37.172
10
72.4645
20
37.5355
10
72.828
20
37.8651
10
73.2221
20
38.1573
10
73.643
20
38.4096
10
74.0866
20
38.6194
10
74.5486
20
38.7847
10
75.0245
20
38.9039
10
75.5099
20
38.9759
10
76
20
39
10
76.4901
20
38.9759
10
76.9755
20
38.9039
10
77.4514
20
38.7847
10
77.9134
20
38.6194
10
78.357
20
38.4096
10
78.7779
20
38.1573
10
79.172
20
37.8651
0
LWPOLYLINE
8
01_deck_front_t4.0
100
AcDbEntity
100
AcDbPolyline
90
65
70
1
43
0.0
10
79.5355
20
55.5355
10
79.8651
20
55.172
10
80.1573
20
54.7779
10
80.4096
20
54.357
10
80.6194
20
53.9134
10
80.7847
20
53.4514
10
80.9039
20
52.9755
10
80.9759
20
52.4901
10
81
20
52
10
80.9759
20
51.5099
10
80.9039
20
51.0245
10
80.7847
20
50.5486
10
80.6194
20
50.0866
10
80.4096
20
49.643
10
80.1573
20
49.2221
10
79.8651
20
48.828
10
79.5355
20
48.4645
10
79.172
20
48.1349
10
78.7779
20
47.8427
10
78.357
20
47.5904
10
77.9134
20
47.3806
10
77.4514
20
47.2153
10
76.9755
20
47.0961
10
76.4901
20
47.0241
10
76
20
47
10
75.5099
20
47.0241
10
75.0245
20
47.0961
10
74.5486
20
47.2153
10
74.0866
20
47.3806
10
73.643
20
47.5904
10
73.2221
20
47.8427
10
72.828
20
48.1349
10
72.4645
20
48.4645
10
72.1349
20
48.828
10
71.8427
20
49.2221
10
71.5904
20
49.643
10
71.3806
20
50.0866
10
71.2153
20
50.5486
10
71.0961
20
51.0245
10
71.0241
20
51.5099
10
71
20
52
10
71.0241
20
52.4901
10
71.0961
20
52.9755
10
71.2153
20
53.4514
10
71.3806
20
53.9134
10
71.5904
20
54.357
10
71.8427
20
54.7779
10
72.1349
20
55.172
10
72.4645
20
55.5355
10
72.828
20
55.8651
10
73.2221
20
56.1573
10
73.643
20
56.4096
10
74.0866
20
56.6194
10
74.5486
20
56.7847
10
75.0245
20
56.9039
10
75.5099
20
56.9759
10
76
20
57
10
76.4901
20
56.9759
10
76.9755
20
56.9039
10
77.4514
20
56.7847
10
77.9134
20
56.6194
10
78.357
20
56.4096
10
78.7779
20
56.1573
10
79.172
20
55.8651
10
79.5355
20
55.5355
0
LWPOLYLINE
8
01_deck_front_t4.0
100
AcDbEntity
100
AcDbPolyline
90
65
70
1
43
0.0
10
103.8651
20
-48.828
10
104.1573
20
-49.2221
10
104.4096
20
-49.643
10
104.6194
20
-50.0866
10
104.7847
20
-50.5486
10
104.9039
20
-51.0245
10
104.9759
20
-51.5099
10
105
20
-52
10
104.9759
20
-52.4901
10
104.9039
20
-52.9755
10
104.7847
20
-53.4514
10
104.6194
20
-53.9134
10
104.4096
20
-54.357
10
104.1573
20
-54.7779
10
103.8651
20
-55.172
10
103.5355
20
-55.5355
10
103.172
20
-55.8651
10
102.7779
20
-56.1573
10
102.357
20
-56.4096
10
101.9134
20
-56.6194
10
101.4514
20
-56.7847
10
100.9755
20
-56.9039
10
100.4901
20
-56.9759
10
100
20
-57
10
99.5099
20
-56.9759
10
99.0245
20
-56.9039
10
98.5486
20
-56.7847
10
98.0866
20
-56.6194
10
97.643
20
-56.4096
10
97.2221
20
-56.1573
10
96.828
20
-55.8651
10
96.4645
20
-55.5355
10
96.1349
20
-55.172
10
95.8427
20
-54.7779
10
95.5904
20
-54.357
10
95.3806
20
-53.9134
10
95.2153
20
-53.4514
10
95.0961
20
-52.9755
10
95.0241
20
-52.4901
10
95
20
-52
10
95.0241
20
-51.5099
10
95.0961
20
-51.0245
10
95.2153
20
-50.5486
10
95.3806
20
-50.0866
10
95.5904
20
-49.643
10
95.8427
20
-49.2221
10
96.1349
20
-48.828
10
96.4645
20
-48.4645
10
96.828
20
-48.1349
10
97.2221
20
-47.8427
10
97.643
20
-47.5904
10
98.0866
20
-47.3806
10
98.5486
20
-47.2153
10
99.0245
20
-47.0961
10
99.5099
20
-47.0241
10
100
20
-47
10
100.4901
20
-47.0241
10
100.9755
20
-47.0961
10
101.4514
20
-47.2153
10
101.9134
20
-47.3806
10
102.357
20
-47.5904
10
102.7779
20
-47.8427
10
103.172
20
-48.1349
10
103.5355
20
-48.4645
10
103.8651
20
-48.828
0
LWPOLYLINE
8
01_deck_front_t4.0
100
AcDbEntity
100
AcDbPolyline
90
65
70
1
43
0.0
10
104.1573
20
-31.2221
10
104.4096
20
-31.643
10
104.6194
20
-32.0866
10
104.7847
20
-32.5486
10
104.9039
20
-33.0245
10
104.9759
20
-33.5099
10
105
20
-34
10
104.9759
20
-34.4901
10
104.9039
20
-34.9755
10
104.7847
20
-35.4514
10
104.6194
20
-35.9134
10
104.4096
20
-36.357
10
104.1573
20
-36.7779
10
103.8651
20
-37.172
10
103.5355
20
-37.5355
10
103.172
20
-37.8651
10
102.7779
20
-38.1573
10
102.357
20
-38.4096
10
101.9134
20
-38.6194
10
101.4514
20
-38.7847
10
100.9755
20
-38.9039
10
100.4901
20
-38.9759
10
100
20
-39
10
99.5099
20
-38.9759
10
99.0245
20
-38.9039
10
98.5486
20
-38.7847
10
98.0866
20
-38.6194
10
97.643
20
-38.4096
10
97.2221
20
-38.1573
10
96.828
20
-37.8651
10
96.4645
20
-37.5355
10
96.1349
20
-37.172
10
95.8427
20
-36.7779
10
95.5904
20
-36.357
10
95.3806
20
-35.9134
10
95.2153
20
-35.4514
10
95.0961
20
-34.9755
10
95.0241
20
-34.4901
10
95
20
-34
10
95.0241
20
-33.5099
10
95.0961
20
-33.0245
10
95.2153
20
-32.5486
10
95.3806
20
-32.0866
10
95.5904
20
-31.643
10
95.8427
20
-31.2221
10
96.1349
20
-30.828
10
96.4645
20
-30.4645
10
96.828
20
-30.1349
10
97.2221
20
-29.8427
10
97.643
20
-29.5904
10
98.0866
20
-29.3806
10
98.5486
20
-29.2153
10
99.0245
20
-29.0961
10
99.5099
20
-29.0241
10
100
20
-29
10
100.4901
20
-29.0241
10
100.9755
20
-29.0961
10
101.4514
20
-29.2153
10
101.9134
20
-29.3806
10
102.357
20
-29.5904
10
102.7779
20
-29.8427
10
103.172
20
-30.1349
10
103.5355
20
-30.4645
10
103.8651
20
-30.828
10
104.1573
20
-31.2221
0
LWPOLYLINE
8
01_deck_front_t4.0
100
AcDbEntity
100
AcDbPolyline
90
65
70
1
43
0.0
10
104.4096
20
-13.643
10
104.6194
20
-14.0866
10
104.7847
20
-14.5486
10
104.9039
20
-15.0245
10
104.9759
20
-15.5099
10
105
20
-16
10
104.9759
20
-16.4901
10
104.9039
20
-16.9755
10
104.7847
20
-17.4514
10
104.6194
20
-17.9134
10
104.4096
20
-18.357
10
104.1573
20
-18.7779
10
103.8651
20
-19.172
10
103.5355
20
-19.5355
10
103.172
20
-19.8651
10
102.7779
20
-20.1573
10
102.357
20
-20.4096
10
101.9134
20
-20.6194
10
101.4514
20
-20.7847
10
100.9755
20
-20.9039
10
100.4901
20
-20.9759
10
100
20
-21
10
99.5099
20
-20.9759
10
99.0245
20
-20.9039
10
98.5486
20
-20.7847
10
98.0866
20
-20.6194
10
97.643
20
-20.4096
10
97.2221
20
-20.1573
10
96.828
20
-19.8651
10
96.4645
20
-19.5355
10
96.1349
20
-19.172
10
95.8427
20
-18.7779
10
95.5904
20
-18.357
10
95.3806
20
-17.9134
10
95.2153
20
-17.4514
10
95.0961
20
-16.9755
10
95.0241
20
-16.4901
10
95
20
-16
10
95.0241
20
-15.5099
10
95.0961
20
-15.0245
10
95.2153
20
-14.5486
10
95.3806
20
-14.0866
10
95.5904
20
-13.643
10
95.8427
20
-13.2221
10
96.1349
20
-12.828
10
96.4645
20
-12.4645
10
96.828
20
-12.1349
10
97.2221
20
-11.8427
10
97.643
20
-11.5904
10
98.0866
20
-11.3806
10
98.5486
20
-11.2153
10
99.0245
20
-11.0961
10
99.5099
20
-11.0241
10
100
20
-11
10
100.4901
20
-11.0241
10
100.9755
20
-11.0961
10
101.4514
20
-11.2153
10
101.9134
20
-11.3806
10
102.357
20
-11.5904
10
102.7779
20
-11.8427
10
103.172
20
-12.1349
10
103.5355
20
-12.4645
10
103.8651
20
-12.828
10
104.1573
20
-13.2221
10
104.4096
20
-13.643
0
LWPOLYLINE
8
01_deck_front_t4.0
100
AcDbEntity
100
AcDbPolyline
90
65
70
1
43
0.0
10
104.6194
20
17.9134
10
104.7847
20
17.4514
10
104.9039
20
16.9755
10
104.9759
20
16.4901
10
105
20
16
10
104.9759
20
15.5099
10
104.9039
20
15.0245
10
104.7847
20
14.5486
10
104.6194
20
14.0866
10
104.4096
20
13.643
10
104.1573
20
13.2221
10
103.8651
20
12.828
10
103.5355
20
12.4645
10
103.172
20
12.1349
10
102.7779
20
11.8427
10
102.357
20
11.5904
10
101.9134
20
11.3806
10
101.4514
20
11.2153
10
100.9755
20
11.0961
10
100.4901
20
11.0241
10
100
20
11
10
99.5099
20
11.0241
10
99.0245
20
11.0961
10
98.5486
20
11.2153
10
98.0866
20
11.3806
10
97.643
20
11.5904
10
97.2221
20
11.8427
10
96.828
20
12.1349
10
96.4645
20
12.4645
10
96.1349
20
12.828
10
95.8427
20
13.2221
10
95.5904
20
13.643
10
95.3806
20
14.0866
10
95.2153
20
14.5486
10
95.0961
20
15.0245
10
95.0241
20
15.5099
10
95
20
16
10
95.0241
20
16.4901
10
95.0961
20
16.9755
10
95.2153
20
17.4514
10
95.3806
20
17.9134
10
95.5904
20
18.357
10
95.8427
20
18.7779
10
96.1349
20
19.172
10
96.4645
20
19.5355
10
96.828
20
19.8651
10
97.2221
20
20.1573
10
97.643
20
20.4096
10
98.0866
20
20.6194
10
98.5486
20
20.7847
10
99.0245
20
20.9039
10
99.5099
20
20.9759
10
100
20
21
10
100.4901
20
20.9759
10
100.9755
20
20.9039
10
101.4514
20
20.7847
10
101.9134
20
20.6194
10
102.357
20
20.4096
10
102.7779
20
20.1573
10
103.172
20
19.8651
10
103.5355
20
19.5355
10
103.8651
20
19.172
10
104.1573
20
18.7779
10
104.4096
20
18.357
10
104.6194
20
17.9134
0
LWPOLYLINE
8
01_deck_front_t4.0
100
AcDbEntity
100
AcDbPolyline
90
65
70
1
43
0.0
10
104.7847
20
35.4514
10
104.9039
20
34.9755
10
104.9759
20
34.4901
10
105
20
34
10
104.9759
20
33.5099
10
104.9039
20
33.0245
10
104.7847
20
32.5486
10
104.6194
20
32.0866
10
104.4096
20
31.643
10
104.1573
20
31.2221
10
103.8651
20
30.828
10
103.5355
20
30.4645
10
103.172
20
30.1349
10
102.7779
20
29.8427
10
102.357
20
29.5904
10
101.9134
20
29.3806
10
101.4514
20
29.2153
10
100.9755
20
29.0961
10
100.4901
20
29.0241
10
100
20
29
10
99.5099
20
29.0241
10
99.0245
20
29.0961
10
98.5486
20
29.2153
10
98.0866
20
29.3806
10
97.643
20
29.5904
10
97.2221
20
29.8427
10
96.828
20
30.1349
10
96.4645
20
30.4645
10
96.1349
20
30.828
10
95.8427
20
31.2221
10
95.5904
20
31.643
10
95.3806
20
32.0866
10
95.2153
20
32.5486
10
95.0961
20
33.0245
10
95.0241
20
33.5099
10
95
20
34
10
95.0241
20
34.4901
10
95.0961
20
34.9755
10
95.2153
20
35.4514
10
95.3806
20
35.9134
10
95.5904
20
36.357
10
95.8427
20
36.7779
10
96.1349
20
37.172
10
96.4645
20
37.5355
10
96.828
20
37.8651
10
97.2221
20
38.1573
10
97.643
20
38.4096
10
98.0866
20
38.6194
10
98.5486
20
38.7847
10
99.0245
20
38.9039
10
99.5099
20
38.9759
10
100
20
39
10
100.4901
20
38.9759
10
100.9755
20
38.9039
10
101.4514
20
38.7847
10
101.9134
20
38.6194
10
102.357
20
38.4096
10
102.7779
20
38.1573
10
103.172
20
37.8651
10
103.5355
20
37.5355
10
103.8651
20
37.172
10
104.1573
20
36.7779
10
104.4096
20
36.357
10
104.6194
20
35.9134
10
104.7847
20
35.4514
0
LWPOLYLINE
8
01_deck_front_t4.0
100
AcDbEntity
100
AcDbPolyline
90
65
70
1
43
0.0
10
104.9039
20
52.9755
10
104.9759
20
52.4901
10
105
20
52
10
104.9759
20
51.5099
10
104.9039
20
51.0245
10
104.7847
20
50.5486
10
104.6194
20
50.0866
10
104.4096
20
49.643
10
104.1573
20
49.2221
10
103.8651
20
48.828
10
103.5355
20
48.4645
10
103.172
20
48.1349
10
102.7779
20
47.8427
10
102.357
20
47.5904
10
101.9134
20
47.3806
10
101.4514
20
47.2153
10
100.9755
20
47.0961
10
100.4901
20
47.0241
10
100
20
47
10
99.5099
20
47.0241
10
99.0245
20
47.0961
10
98.5486
20
47.2153
10
98.0866
20
47.3806
10
97.643
20
47.5904
10
97.2221
20
47.8427
10
96.828
20
48.1349
10
96.4645
20
48.4645
10
96.1349
20
48.828
10
95.8427
20
49.2221
10
95.5904
20
49.643
10
95.3806
20
50.0866
10
95.2153
20
50.5486
10
95.0961
20
51.0245
10
95.0241
20
51.5099
10
95
20
52
10
95.0241
20
52.4901
10
95.0961
20
52.9755
10
95.2153
20
53.4514
10
95.3806
20
53.9134
10
95.5904
20
54.357
10
95.8427
20
54.7779
10
96.1349
20
55.172
10
96.4645
20
55.5355
10
96.828
20
55.8651
10
97.2221
20
56.1573
10
97.643
20
56.4096
10
98.0866
20
56.6194
10
98.5486
20
56.7847
10
99.0245
20
56.9039
10
99.5099
20
56.9759
10
100
20
57
10
100.4901
20
56.9759
10
100.9755
20
56.9039
10
101.4514
20
56.7847
10
101.9134
20
56.6194
10
102.357
20
56.4096
10
102.7779
20
56.1573
10
103.172
20
55.8651
10
103.5355
20
55.5355
10
103.8651
20
55.172
10
104.1573
20
54.7779
10
104.4096
20
54.357
10
104.6194
20
53.9134
10
104.7847
20
53.4514
10
104.9039
20
52.9755
0
ENDSEC
0
EOF
