0
SECTION
2
HEADER
9
$ACADVER
1
AC1015
9
$INSUNITS
70
4
0
ENDSEC
0
SECTION
2
ENTITIES
0
LWPOLYLINE
8
02_deck_rear_t4.0
100
AcDbEntity
100
AcDbPolyline
90
5
70
1
43
0.0
10
128
20
81
10
0
20
81
10
0
20
-81
10
128
20
-81
10
128
20
81
0
LWPOLYLINE
8
02_deck_rear_t4.0
100
AcDbEntity
100
AcDbPolyline
90
423
70
1
43
0.0
10
20
20
-58
10
20
20
58
10
16
20
58
10
16
20
47
10
15.8478
20
46.2346
10
15.4142
20
45.5858
10
14.7654
20
45.1522
10
14
20
45
10
13.2346
20
45.1522
10
12.5858
20
45.5858
10
12.1522
20
46.2346
10
12
20
47
10
12
20
58
10
4
20
58
10
3.2346
20
58.1522
10
2.5858
20
58.5858
10
2.1522
20
59.2346
10
2
20
60
10
2.1522
20
60.7654
10
2.5858
20
61.4142
10
3.2346
20
61.8478
10
4
20
62
10
12
20
62
10
12
20
73
10
12.1522
20
73.7654
10
12.5858
20
74.4142
10
13.2346
20
74.8478
10
14
20
75
10
14.7654
20
74.8478
10
15.4142
20
74.4142
10
15.8478
20
73.7654
10
16
20
73
10
16
20
62
10
20
20
62
10
20
20
68
10
20.0761
20
68.3827
10
20.2929
20
68.7071
10
20.6173
20
68.9239
10
21
20
69
10
23
20
69
10
23.3827
20
68.9239
10
23.7071
20
68.7071
10
23.9239
20
68.3827
10
24
20
68
10
24
20
62
10
24.7654
20
61.8478
10
25.4142
20
61.4142
10
25.8478
20
60.7654
10
26
20
60
10
25.8478
20
59.2346
10
25.4142
20
58.5858
10
24.7654
20
58.1522
10
24
20
58
10
24
20
54.99
10
24.1349
20
55.172
10
24.4645
20
55.5355
10
24.828
20
55.8651
10
25.2221
20
56.1573
10
25.643
20
56.4096
10
26.0866
20
56.6194
10
26.5486
20
56.7847
10
27.0245
20
56.9039
10
27.5099
20
56.9759
10
28
20
57
10
28.4901
20
56.9759
10
28.9755
20
56.9039
10
29.4514
20
56.7847
10
29.9134
20
56.6194
10
30.357
20
56.4096
10
30.7779
20
56.1573
10
31.172
20
55.8651
10
31.5355
20
55.5355
10
31.8651
20
55.172
10
32.1573
20
54.7779
10
32.4096
20
54.357
10
32.6194
20
53.9134
10
32.7847
20
53.4514
10
32.9039
20
52.9755
10
32.9759
20
52.4901
10
33
20
52
10
32.9759
20
51.5099
10
32.9039
20
51.0245
10
32.7847
20
50.5486
10
32.6194
20
50.0866
10
32.4096
20
49.643
10
32.1573
20
49.2221
10
31.8651
20
48.828
10
31.5355
20
48.4645
10
31.172
20
48.1349
10
30.7779
20
47.8427
10
30.357
20
47.5904
10
29.9134
20
47.3806
10
29.4514
20
47.2153
10
28.9755
20
47.0961
10
28.4901
20
47.0241
10
28
20
47
10
27.5099
20
47.0241
10
27.0245
20
47.0961
10
26.5486
20
47.2153
10
26.0866
20
47.3806
10
25.643
20
47.5904
10
25.2221
20
47.8427
10
24.828
20
48.1349
10
24.4645
20
48.4645
10
24.1349
20
48.828
10
24
20
49.01
10
24
20
36.99
10
24.1349
20
37.172
10
24.4645
20
37.5355
10
24.828
20
37.8651
10
25.2221
20
38.1573
10
25.643
20
38.4096
10
26.0866
20
38.6194
10
26.5486
20
38.7847
10
27.0245
20
38.9039
10
27.5099
20
38.9759
10
28
20
39
10
28.4901
20
38.9759
10
28.9755
20
38.9039
10
29.4514
20
38.7847
10
29.9134
20
38.6194
10
30.357
20
38.4096
10
30.7779
20
38.1573
10
31.172
20
37.8651
10
31.5355
20
37.5355
10
31.8651
20
37.172
10
32.1573
20
36.7779
10
32.4096
20
36.357
10
32.6194
20
35.9134
10
32.7847
20
35.4514
10
32.9039
20
34.9755
10
32.9759
20
34.4901
10
33
20
34
10
32.9759
20
33.5099
10
32.9039
20
33.0245
10
32.7847
20
32.5486
10
32.6194
20
32.0866
10
32.4096
20
31.643
10
32.1573
20
31.2221
10
31.8651
20
30.828
10
31.5355
20
30.4645
10
31.172
20
30.1349
10
30.7779
20
29.8427
10
30.357
20
29.5904
10
29.9134
20
29.3806
10
29.4514
20
29.2153
10
28.9755
20
29.0961
10
28.4901
20
29.0241
10
28
20
29
10
27.5099
20
29.0241
10
27.0245
20
29.0961
10
26.5486
20
29.2153
10
26.0866
20
29.3806
10
25.643
20
29.5904
10
25.2221
20
29.8427
10
24.828
20
30.1349
10
24.4645
20
30.4645
10
24.1349
20
30.828
10
24
20
31.01
10
24
20
18.99
10
24.1349
20
19.172
10
24.4645
20
19.5355
10
24.828
20
19.8651
10
25.2221
20
20.1573
10
25.643
20
20.4096
10
26.0866
20
20.6194
10
26.5486
20
20.7847
10
27.0245
20
20.9039
10
27.5099
20
20.9759
10
28
20
21
10
28.4901
20
20.9759
10
28.9755
20
20.9039
10
29.4514
20
20.7847
10
29.9134
20
20.6194
10
30.357
20
20.4096
10
30.7779
20
20.1573
10
31.172
20
19.8651
10
31.5355
20
19.5355
10
31.8651
20
19.172
10
32.1573
20
18.7779
10
32.4096
20
18.357
10
32.6194
20
17.9134
10
32.7847
20
17.4514
10
32.9039
20
16.9755
10
32.9759
20
16.4901
10
33
20
16
10
32.9759
20
15.5099
10
32.9039
20
15.0245
10
32.7847
20
14.5486
10
32.6194
20
14.0866
10
32.4096
20
13.643
10
32.1573
20
13.2221
10
31.8651
20
12.828
10
31.5355
20
12.4645
10
31.172
20
12.1349
10
30.7779
20
11.8427
10
30.357
20
11.5904
10
29.9134
20
11.3806
10
29.4514
20
11.2153
10
28.9755
20
11.0961
10
28.4901
20
11.0241
10
28
20
11
10
27.5099
20
11.0241
10
27.0245
20
11.0961
10
26.5486
20
11.2153
10
26.0866
20
11.3806
10
25.643
20
11.5904
10
25.2221
20
11.8427
10
24.828
20
12.1349
10
24.4645
20
12.4645
10
24.1349
20
12.828
10
24
20
13.01
10
24
20
-13.01
10
24.1349
20
-12.828
10
24.4645
20
-12.4645
10
24.828
20
-12.1349
10
25.2221
20
-11.8427
10
25.643
20
-11.5904
10
26.0866
20
-11.3806
10
26.5486
20
-11.2153
10
27.0245
20
-11.0961
10
27.5099
20
-11.0241
10
28
20
-11
10
28.4901
20
-11.0241
10
28.9755
20
-11.0961
10
29.4514
20
-11.2153
10
29.9134
20
-11.3806
10
30.357
20
-11.5904
10
30.7779
20
-11.8427
10
31.172
20
-12.1349
10
31.5355
20
-12.4645
10
31.8651
20
-12.828
10
32.1573
20
-13.2221
10
32.4096
20
-13.643
10
32.6194
20
-14.0866
10
32.7847
20
-14.5486
10
32.9039
20
-15.0245
10
32.9759
20
-15.5099
10
33
20
-16
10
32.9759
20
-16.4901
10
32.9039
20
-16.9755
10
32.7847
20
-17.4514
10
32.6194
20
-17.9134
10
32.4096
20
-18.357
10
32.1573
20
-18.7779
10
31.8651
20
-19.172
10
31.5355
20
-19.5355
10
31.172
20
-19.8651
10
30.7779
20
-20.1573
10
30.357
20
-20.4096
10
29.9134
20
-20.6194
10
29.4514
20
-20.7847
10
28.9755
20
-20.9039
10
28.4901
20
-20.9759
10
28
20
-21
10
27.5099
20
-20.9759
10
27.0245
20
-20.9039
10
26.5486
20
-20.7847
10
26.0866
20
-20.6194
10
25.643
20
-20.4096
10
25.2221
20
-20.1573
10
24.828
20
-19.8651
10
24.4645
20
-19.5355
10
24.1349
20
-19.172
10
24
20
-18.99
10
24
20
-31.01
10
24.1349
20
-30.828
10
24.4645
20
-30.4645
10
24.828
20
-30.1349
10
25.2221
20
-29.8427
10
25.643
20
-29.5904
10
26.0866
20
-29.3806
10
26.5486
20
-29.2153
10
27.0245
20
-29.0961
10
27.5099
20
-29.0241
10
28
20
-29
10
28.4901
20
-29.0241
10
28.9755
20
-29.0961
10
29.4514
20
-29.2153
10
29.9134
20
-29.3806
10
30.357
20
-29.5904
10
30.7779
20
-29.8427
10
31.172
20
-30.1349
10
31.5355
20
-30.4645
10
31.8651
20
-30.828
10
32.1573
20
-31.2221
10
32.4096
20
-31.643
10
32.6194
20
-32.0866
10
32.7847
20
-32.5486
10
32.9039
20
-33.0245
10
32.9759
20
-33.5099
10
33
20
-34
10
32.9759
20
-34.4901
10
32.9039
20
-34.9755
10
32.7847
20
-35.4514
10
32.6194
20
-35.9134
10
32.4096
20
-36.357
10
32.1573
20
-36.7779
10
31.8651
20
-37.172
10
31.5355
20
-37.5355
10
31.172
20
-37.8651
10
30.7779
20
-38.1573
10
30.357
20
-38.4096
10
29.9134
20
-38.6194
10
29.4514
20
-38.7847
10
28.9755
20
-38.9039
10
28.4901
20
-38.9759
10
28
20
-39
10
27.5099
20
-38.9759
10
27.0245
20
-38.9039
10
26.5486
20
-38.7847
10
26.0866
20
-38.6194
10
25.643
20
-38.4096
10
25.2221
20
-38.1573
10
24.828
20
-37.8651
10
24.4645
20
-37.5355
10
24.1349
20
-37.172
10
24
20
-36.99
10
24
20
-49.01
10
24.1349
20
-48.828
10
24.4645
20
-48.4645
10
24.828
20
-48.1349
10
25.2221
20
-47.8427
10
25.643
20
-47.5904
10
26.0866
20
-47.3806
10
26.5486
20
-47.2153
10
27.0245
20
-47.0961
10
27.5099
20
-47.0241
10
28
20
-47
10
28.4901
20
-47.0241
10
28.9755
20
-47.0961
10
29.4514
20
-47.2153
10
29.9134
20
-47.3806
10
30.357
20
-47.5904
10
30.7779
20
-47.8427
10
31.172
20
-48.1349
10
31.5355
20
-48.4645
10
31.8651
20
-48.828
10
32.1573
20
-49.2221
10
32.4096
20
-49.643
10
32.6194
20
-50.0866
10
32.7847
20
-50.5486
10
32.9039
20
-51.0245
10
32.9759
20
-51.5099
10
33
20
-52
10
32.9759
20
-52.4901
10
32.9039
20
-52.9755
10
32.7847
20
-53.4514
10
32.6194
20
-53.9134
10
32.4096
20
-54.357
10
32.1573
20
-54.7779
10
31.8651
20
-55.172
10
31.5355
20
-55.5355
10
31.172
20
-55.8651
10
30.7779
20
-56.1573
10
30.357
20
-56.4096
10
29.9134
20
-56.6194
10
29.4514
20
-56.7847
10
28.9755
20
-56.9039
10
28.4901
20
-56.9759
10
28
20
-57
10
27.5099
20
-56.9759
10
27.0245
20
-56.9039
10
26.5486
20
-56.7847
10
26.0866
20
-56.6194
10
25.643
20
-56.4096
10
25.2221
20
-56.1573
10
24.828
20
-55.8651
10
24.4645
20
-55.5355
10
24.1349
20
-55.172
10
24
20
-54.99
10
24
20
-58
10
24.7654
20
-58.1522
10
25.4142
20
-58.5858
10
25.8478
20
-59.2346
10
26
20
-60
10
25.8478
20
-60.7654
10
25.4142
20
-61.4142
10
24.7654
20
-61.8478
10
24
20
-62
10
24
20
-68
10
23.9239
20
-68.3827
10
23.7071
20
-68.7071
10
23.3827
20
-68.9239
10
23
20
-69
10
21
20
-69
10
20.6173
20
-68.9239
10
20.2929
20
-68.7071
10
20.0761
20
-68.3827
10
20
20
-68
10
20
20
-62
10
16
20
-62
10
16
20
-73
10
15.8478
20
-73.7654
10
15.4142
20
-74.4142
10
14.7654
20
-74.8478
10
14
20
-75
10
13.2346
20
-74.8478
10
12.5858
20
-74.4142
10
12.1522
20
-73.7654
10
12
20
-73
10
12
20
-62
10
4
20
-62
10
3.2346
20
-61.8478
10
2.5858
20
-61.4142
10
2.1522
20
-60.7654
10
2
20
-60
10
2.1522
20
-59.2346
10
2.5858
20
-58.5858
10
3.2346
20
-58.1522
10
4
20
-58
10
12
20
-58
10
12
20
-47
10
12.1522
20
-46.2346
10
12.5858
20
-45.5858
10
13.2346
20
-45.1522
10
14
20
-45
10
14.7654
20
-45.1522
10
15.4142
20
-45.5858
10
15.8478
20
-46.2346
10
16
20
-47
10
16
20
-58
10
20
20
-58
0
LWPOLYLINE
8
02_deck_rear_t4.0
100
AcDbEntity
100
AcDbPolyline
90
101
70
1
43
0.0
10
116
20
-47
10
116
20
47
10
115.8478
20
46.2346
10
115.4142
20
45.5858
10
114.7654
20
45.1522
10
114
20
45
10
113.2346
20
45.1522
10
112.5858
20
45.5858
10
112.1522
20
46.2346
10
112
20
47
10
112
20
58
10
104
20
58
10
103.2346
20
58.1522
10
102.5858
20
58.5858
10
102.1522
20
59.2346
10
102
20
60
10
102.1522
20
60.7654
10
102.5858
20
61.4142
10
103.2346
20
61.8478
10
104
20
62
10
112
20
62
10
112
20
73
10
112.1522
20
73.7654
10
112.5858
20
74.4142
10
113.2346
20
74.8478
10
114
20
75
10
114.7654
20
74.8478
10
115.4142
20
74.4142
10
115.8478
20
73.7654
10
116
20
73
10
116
20
68
10
116.0761
20
68.3827
10
116.2929
20
68.7071
10
116.6173
20
68.9239
10
117
20
69
10
119
20
69
10
119.3827
20
68.9239
10
119.7071
20
68.7071
10
119.9239
20
68.3827
10
120
20
68
10
120
20
62
10
124
20
62
10
124.7654
20
61.8478
10
125.4142
20
61.4142
10
125.8478
20
60.7654
10
126
20
60
10
125.8478
20
59.2346
10
125.4142
20
58.5858
10
124.7654
20
58.1522
10
124
20
58
10
120
20
58
10
120
20
-58
10
124
20
-58
10
124.7654
20
-58.1522
10
125.4142
20
-58.5858
10
125.8478
20
-59.2346
10
126
20
-60
10
125.8478
20
-60.7654
10
125.4142
20
-61.4142
10
124.7654
20
-61.8478
10
124
20
-62
10
120
20
-62
10
120
20
-68
10
119.9239
20
-68.3827
10
119.7071
20
-68.7071
10
119.3827
20
-68.9239
10
119
20
-69
10
117
20
-69
10
116.6173
20
-68.9239
10
116.2929
20
-68.7071
10
116.0761
20
-68.3827
10
116
20
-68
10
116
20
-73
10
115.8478
20
-73.7654
10
115.4142
20
-74.4142
10
114.7654
20
-74.8478
10
114
20
-75
10
113.2346
20
-74.8478
10
112.5858
20
-74.4142
10
112.1522
20
-73.7654
10
112
20
-73
10
112
20
-62
10
104
20
-62
10
103.2346
20
-61.8478
10
102.5858
20
-61.4142
10
102.1522
20
-60.7654
10
102
20
-60
10
102.1522
20
-59.2346
10
102.5858
20
-58.5858
10
103.2346
20
-58.1522
10
104
20
-58
10
112
20
-58
10
112
20
-47
10
112.1522
20
-46.2346
10
112.5858
20
-45.5858
10
113.2346
20
-45.1522
10
114
20
-45
10
114.7654
20
-45.1522
10
115.4142
20
-45.5858
10
115.8478
20
-46.2346
10
116
20
-47
0
LWPOLYLINE
8
02_deck_rear_t4.0
100
AcDbEntity
100
AcDbPolyline
90
117
70
1
43
0.0
10
48.4689
20
-40.4645
10
48.4307
20
-40.3121
10
48.4077
20
-40.1568
10
48.4
20
-40
10
48.4077
20
-39.8432
10
48.4307
20
-39.6879
10
48.4689
20
-39.5355
10
48.5218
20
-39.3877
10
48.5889
20
-39.2458
10
48.6696
20
-39.1111
10
48.7632
20
-38.985
10
48.8686
20
-38.8686
10
48.985
20
-38.7632
10
49.1111
20
-38.6696
10
49.2458
20
-38.5889
10
49.3877
20
-38.5218
10
49.5355
20
-38.4689
10
49.6878
20
-38.4308
10
49.643
20
-38.4096
10
49.2221
20
-38.1573
10
48.828
20
-37.8651
10
48.4645
20
-37.5355
10
48.1349
20
-37.172
10
47.8427
20
-36.7779
10
47.5904
20
-36.357
10
47.3806
20
-35.9134
10
47.2153
20
-35.4514
10
47.0961
20
-34.9755
10
47.0241
20
-34.4901
10
47
20
-34
10
47.0241
20
-33.5099
10
47.0961
20
-33.0245
10
47.2153
20
-32.5486
10
47.3806
20
-32.0866
10
47.5904
20
-31.643
10
47.8427
20
-31.2221
10
48.1349
20
-30.828
10
48.4645
20
-30.4645
10
48.828
20
-30.1349
10
49.2221
20
-29.8427
10
49.643
20
-29.5904
10
50.0866
20
-29.3806
10
50.5486
20
-29.2153
10
51.0245
20
-29.0961
10
51.5099
20
-29.0241
10
52
20
-29
10
52.4901
20
-29.0241
10
52.9755
20
-29.0961
10
53.4514
20
-29.2153
10
53.9134
20
-29.3806
10
54.357
20
-29.5904
10
54.7779
20
-29.8427
10
55.172
20
-30.1349
10
55.5355
20
-30.4645
10
55.8651
20
-30.828
10
56.1573
20
-31.2221
10
56.4096
20
-31.643
10
56.6194
20
-32.0866
10
56.7847
20
-32.5486
10
56.9039
20
-33.0245
10
56.9759
20
-33.5099
10
57
20
-34
10
56.9759
20
-34.4901
10
56.9039
20
-34.9755
10
56.7847
20
-35.4514
10
56.6194
20
-35.9134
10
56.4096
20
-36.357
10
56.1573
20
-36.7779
10
55.8651
20
-37.172
10
55.5355
20
-37.5355
10
55.172
20
-37.8651
10
54.7779
20
-38.1573
10
54.357
20
-38.4096
10
53.9134
20
-38.6194
10
53.4514
20
-38.7847
10
52.9755
20
-38.9039
10
52.4901
20
-38.9759
10
52
20
-39
10
51.5099
20
-38.9759
10
51.1849
20
-38.9277
10
51.2368
20
-38.985
10
51.3304
20
-39.1111
10
51.4111
20
-39.2458
10
51.4782
20
-39.3877
10
51.5311
20
-39.5355
10
51.5693
20
-39.6879
10
51.5923
20
-39.8432
10
51.6
20
-40
10
51.5923
20
-40.1568
10
51.5693
20
-40.3121
10
51.5311
20
-40.4645
10
51.4782
20
-40.6123
10
51.4111
20
-40.7542
10
51.3304
20
-40.8889
10
51.2368
20
-41.015
10
51.1314
20
-41.1314
10
51.015
20
-41.2368
10
50.8889
20
-41.3304
10
50.7542
20
-41.4111
10
50.6123
20
-41.4782
10
50.4645
20
-41.5311
10
50.3121
20
-41.5693
10
50.1568
20
-41.5923
10
50
20
-41.6
10
49.8432
20
-41.5923
10
49.6879
20
-41.5693
10
49.5355
20
-41.5311
10
49.3877
20
-41.4782
10
49.2458
20
-41.4111
10
49.1111
20
-41.3304
10
48.985
20
-41.2368
10
48.8686
20
-41.1314
10
48.7632
20
-41.015
10
48.6696
20
-40.8889
10
48.5889
20
-40.7542
10
48.5218
20
-40.6123
10
48.4689
20
-40.4645
0
LWPOLYLINE
8
02_deck_rear_t4.0
100
AcDbEntity
100
AcDbPolyline
90
117
70
1
43
0.0
10
48.5889
20
40.7542
10
48.6696
20
40.8889
10
48.7632
20
41.015
10
48.8686
20
41.1314
10
48.985
20
41.2368
10
49.1111
20
41.3304
10
49.2458
20
41.4111
10
49.3877
20
41.4782
10
49.5355
20
41.5311
10
49.6879
20
41.5693
10
49.8432
20
41.5923
10
50
20
41.6
10
50.1568
20
41.5923
10
50.3121
20
41.5693
10
50.4645
20
41.5311
10
50.6123
20
41.4782
10
50.7542
20
41.4111
10
50.8889
20
41.3304
10
51.015
20
41.2368
10
51.1314
20
41.1314
10
51.2368
20
41.015
10
51.3304
20
40.8889
10
51.4111
20
40.7542
10
51.4782
20
40.6123
10
51.5311
20
40.4645
10
51.5693
20
40.3121
10
51.5923
20
40.1568
10
51.6
20
40
10
51.5923
20
39.8432
10
51.5693
20
39.6879
10
51.5311
20
39.5355
10
51.4782
20
39.3877
10
51.4111
20
39.2458
10
51.3304
20
39.1111
10
51.2368
20
38.985
10
51.1849
20
38.9277
10
51.5099
20
38.9759
10
52
20
39
10
52.4901
20
38.9759
10
52.9755
20
38.9039
10
53.4514
20
38.7847
10
53.9134
20
38.6194
10
54.357
20
38.4096
10
54.7779
20
38.1573
10
55.172
20
37.8651
10
55.5355
20
37.5355
10
55.8651
20
37.172
10
56.1573
20
36.7779
10
56.4096
20
36.357
10
56.6194
20
35.9134
10
56.7847
20
35.4514
10
56.9039
20
34.9755
10
56.9759
20
34.4901
10
57
20
34
10
56.9759
20
33.5099
10
56.9039
20
33.0245
10
56.7847
20
32.5486
10
56.6194
20
32.0866
10
56.4096
20
31.643
10
56.1573
20
31.2221
10
55.8651
20
30.828
10
55.5355
20
30.4645
10
55.172
20
30.1349
10
54.7779
20
29.8427
10
54.357
20
29.5904
10
53.9134
20
29.3806
10
53.4514
20
29.2153
10
52.9755
20
29.0961
10
52.4901
20
29.0241
10
52
20
29
10
51.5099
20
29.0241
10
51.0245
20
29.0961
10
50.5486
20
29.2153
10
50.0866
20
29.3806
10
49.643
20
29.5904
10
49.2221
20
29.8427
10
48.828
20
30.1349
10
48.4645
20
30.4645
10
48.1349
20
30.828
10
47.8427
20
31.2221
10
47.5904
20
31.643
10
47.3806
20
32.0866
10
47.2153
20
32.5486
10
47.0961
20
33.0245
10
47.0241
20
33.5099
10
47
20
34
10
47.0241
20
34.4901
10
47.0961
20
34.9755
10
47.2153
20
35.4514
10
47.3806
20
35.9134
10
47.5904
20
36.357
10
47.8427
20
36.7779
10
48.1349
20
37.172
10
48.4645
20
37.5355
10
48.828
20
37.8651
10
49.2221
20
38.1573
10
49.643
20
38.4096
10
49.6878
20
38.4308
10
49.5355
20
38.4689
10
49.3877
20
38.5218
10
49.2458
20
38.5889
10
49.1111
20
38.6696
10
48.985
20
38.7632
10
48.8686
20
38.8686
10
48.7632
20
38.985
10
48.6696
20
39.1111
10
48.5889
20
39.2458
10
48.5218
20
39.3877
10
48.4689
20
39.5355
10
48.4307
20
39.6879
10
48.4077
20
39.8432
10
48.4
20
40
10
48.4077
20
40.1568
10
48.4307
20
40.3121
10
48.4689
20
40.4645
10
48.5218
20
40.6123
10
48.5889
20
40.7542
0
LWPOLYLINE
8
02_deck_rear_t4.0
100
AcDbEntity
100
AcDbPolyline
90
111
70
1
43
0.0
10
98.5218
20
-39.3877
10
98.5889
20
-39.2458
10
98.6696
20
-39.1111
10
98.7632
20
-38.985
10
98.8686
20
-38.8686
10
98.8719
20
-38.8657
10
98.5486
20
-38.7847
10
98.0866
20
-38.6194
10
97.643
20
-38.4096
10
97.2221
20
-38.1573
10
96.828
20
-37.8651
10
96.4645
20
-37.5355
10
96.1349
20
-37.172
10
95.8427
20
-36.7779
10
95.5904
20
-36.357
10
95.3806
20
-35.9134
10
95.2153
20
-35.4514
10
95.0961
20
-34.9755
10
95.0241
20
-34.4901
10
95
20
-34
10
95.0241
20
-33.5099
10
95.0961
20
-33.0245
10
95.2153
20
-32.5486
10
95.3806
20
-32.0866
10
95.5904
20
-31.643
10
95.8427
20
-31.2221
10
96.1349
20
-30.828
10
96.4645
20
-30.4645
10
96.828
20
-30.1349
10
97.2221
20
-29.8427
10
97.643
20
-29.5904
10
98.0866
20
-29.3806
10
98.5486
20
-29.2153
10
99.0245
20
-29.0961
10
99.5099
20
-29.0241
10
100
20
-29
10
100.4901
20
-29.0241
10
100.9755
20
-29.0961
10
101.4514
20
-29.2153
10
101.9134
20
-29.3806
10
102.357
20
-29.5904
10
102.7779
20
-29.8427
10
103.172
20
-30.1349
10
103.5355
20
-30.4645
10
103.8651
20
-30.828
10
104.1573
20
-31.2221
10
104.4096
20
-31.643
10
104.6194
20
-32.0866
10
104.7847
20
-32.5486
10
104.9039
20
-33.0245
10
104.9759
20
-33.5099
10
105
20
-34
10
104.9759
20
-34.4901
10
104.9039
20
-34.9755
10
104.7847
20
-35.4514
10
104.6194
20
-35.9134
10
104.4096
20
-36.357
10
104.1573
20
-36.7779
10
103.8651
20
-37.172
10
103.5355
20
-37.5355
10
103.172
20
-37.8651
10
102.7779
20
-38.1573
10
102.357
20
-38.4096
10
101.9134
20
-38.6194
10
101.4514
20
-38.7847
10
101.1281
20
-38.8657
10
101.1314
20
-38.8686
10
101.2368
20
-38.985
10
101.3304
20
-39.1111
10
101.4111
20
-39.2458
10
101.4782
20
-39.3877
10
101.5311
20
-39.5355
10
101.5693
20
-39.6879
10
101.5923
20
-39.8432
10
101.6
20
-40
10
101.5923
20
-40.1568
10
101.5693
20
-40.3121
10
101.5311
20
-40.4645
10
101.4782
20
-40.6123
10
101.4111
20
-40.7542
10
101.3304
20
-40.8889
10
101.2368
20
-41.015
10
101.1314
20
-41.1314
10
101.015
20
-41.2368
10
100.8889
20
-41.3304
10
100.7542
20
-41.4111
10
100.6123
20
-41.4782
10
100.4645
20
-41.5311
10
100.3121
20
-41.5693
10
100.1568
20
-41.5923
10
100
20
-41.6
10
99.8432
20
-41.5923
10
99.6879
20
-41.5693
10
99.5355
20
-41.5311
10
99.3877
20
-41.4782
10
99.2458
20
-41.4111
10
99.1111
20
-41.3304
10
98.985
20
-41.2368
10
98.8686
20
-41.1314
10
98.7632
20
-41.015
10
98.6696
20
-40.8889
10
98.5889
20
-40.7542
10
98.5218
20
-40.6123
10
98.4689
20
-40.4645
10
98.4307
20
-40.3121
10
98.4077
20
-40.1568
10
98.4
20
-40
10
98.4077
20
-39.8432
10
98.4307
20
-39.6879
10
98.4689
20
-39.5355
10
98.5218
20
-39.3877
0
LWPOLYLINE
8
02_deck_rear_t4.0
100
AcDbEntity
100
AcDbPolyline
90
111
70
1
43
0.0
10
98.7632
20
41.015
10
98.8686
20
41.1314
10
98.985
20
41.2368
10
99.1111
20
41.3304
10
99.2458
20
41.4111
10
99.3877
20
41.4782
10
99.5355
20
41.5311
10
99.6879
20
41.5693
10
99.8432
20
41.5923
10
100
20
41.6
10
100.1568
20
41.5923
10
100.3121
20
41.5693
10
100.4645
20
41.5311
10
100.6123
20
41.4782
10
100.7542
20
41.4111
10
100.8889
20
41.3304
10
101.015
20
41.2368
10
101.1314
20
41.1314
10
101.2368
20
41.015
10
101.3304
20
40.8889
10
101.4111
20
40.7542
10
101.4782
20
40.6123
10
101.5311
20
40.4645
10
101.5693
20
40.3121
10
101.5923
20
40.1568
10
101.6
20
40
10
101.5923
20
39.8432
10
101.5693
20
39.6879
10
101.5311
20
39.5355
10
101.4782
20
39.3877
10
101.4111
20
39.2458
10
101.3304
20
39.1111
10
101.2368
20
38.985
10
101.1314
20
38.8686
10
101.1281
20
38.8657
10
101.4514
20
38.7847
10
101.9134
20
38.6194
10
102.357
20
38.4096
10
102.7779
20
38.1573
10
103.172
20
37.8651
10
103.5355
20
37.5355
10
103.8651
20
37.172
10
104.1573
20
36.7779
10
104.4096
20
36.357
10
104.6194
20
35.9134
10
104.7847
20
35.4514
10
104.9039
20
34.9755
10
104.9759
20
34.4901
10
105
20
34
10
104.9759
20
33.5099
10
104.9039
20
33.0245
10
104.7847
20
32.5486
10
104.6194
20
32.0866
10
104.4096
20
31.643
10
104.1573
20
31.2221
10
103.8651
20
30.828
10
103.5355
20
30.4645
10
103.172
20
30.1349
10
102.7779
20
29.8427
10
102.357
20
29.5904
10
101.9134
20
29.3806
10
101.4514
20
29.2153
10
100.9755
20
29.0961
10
100.4901
20
29.0241
10
100
20
29
10
99.5099
20
29.0241
10
99.0245
20
29.0961
10
98.5486
20
29.2153
10
98.0866
20
29.3806
10
97.643
20
29.5904
10
97.2221
20
29.8427
10
96.828
20
30.1349
10
96.4645
20
30.4645
10
96.1349
20
30.828
10
95.8427
20
31.2221
10
95.5904
20
31.643
10
95.3806
20
32.0866
10
95.2153
20
32.5486
10
95.0961
20
33.0245
10
95.0241
20
33.5099
10
95
20
34
10
95.0241
20
34.4901
10
95.0961
20
34.9755
10
95.2153
20
35.4514
10
95.3806
20
35.9134
10
95.5904
20
36.357
10
95.8427
20
36.7779
10
96.1349
20
37.172
10
96.4645
20
37.5355
10
96.828
20
37.8651
10
97.2221
20
38.1573
10
97.643
20
38.4096
10
98.0866
20
38.6194
10
98.5486
20
38.7847
10
98.8719
20
38.8657
10
98.8686
20
38.8686
10
98.7632
20
38.985
10
98.6696
20
39.1111
10
98.5889
20
39.2458
10
98.5218
20
39.3877
10
98.4689
20
39.5355
10
98.4307
20
39.6879
10
98.4077
20
39.8432
10
98.4
20
40
10
98.4077
20
40.1568
10
98.4307
20
40.3121
10
98.4689
20
40.4645
10
98.5218
20
40.6123
10
98.5889
20
40.7542
10
98.6696
20
40.8889
10
98.7632
20
41.015
0
LWPOLYLINE
8
02_deck_rear_t4.0
100
AcDbEntity
100
AcDbPolyline
90
65
70
1
43
0.0
10
51.0245
20
-47.0961
10
51.5099
20
-47.0241
10
52
20
-47
10
52.4901
20
-47.0241
10
52.9755
20
-47.0961
10
53.4514
20
-47.2153
10
53.9134
20
-47.3806
10
54.357
20
-47.5904
10
54.7779
20
-47.8427
10
55.172
20
-48.1349
10
55.5355
20
-48.4645
10
55.8651
20
-48.828
10
56.1573
20
-49.2221
10
56.4096
20
-49.643
10
56.6194
20
-50.0866
10
56.7847
20
-50.5486
10
56.9039
20
-51.0245
10
56.9759
20
-51.5099
10
57
20
-52
10
56.9759
20
-52.4901
10
56.9039
20
-52.9755
10
56.7847
20
-53.4514
10
56.6194
20
-53.9134
10
56.4096
20
-54.357
10
56.1573
20
-54.7779
10
55.8651
20
-55.172
10
55.5355
20
-55.5355
10
55.172
20
-55.8651
10
54.7779
20
-56.1573
10
54.357
20
-56.4096
10
53.9134
20
-56.6194
10
53.4514
20
-56.7847
10
52.9755
20
-56.9039
10
52.4901
20
-56.9759
10
52
20
-57
10
51.5099
20
-56.9759
10
51.0245
20
-56.9039
10
50.5486
20
-56.7847
10
50.0866
20
-56.6194
10
49.643
20
-56.4096
10
49.2221
20
-56.1573
10
48.828
20
-55.8651
10
48.4645
20
-55.5355
10
48.1349
20
-55.172
10
47.8427
20
-54.7779
10
47.5904
20
-54.357
10
47.3806
20
-53.9134
10
47.2153
20
-53.4514
10
47.0961
20
-52.9755
10
47.0241
20
-52.4901
10
47
20
-52
10
47.0241
20
-51.5099
10
47.0961
20
-51.0245
10
47.2153
20
-50.5486
10
47.3806
20
-50.0866
10
47.5904
20
-49.643
10
47.8427
20
-49.2221
10
48.1349
20
-48.828
10
48.4645
20
-48.4645
10
48.828
20
-48.1349
10
49.2221
20
-47.8427
10
49.643
20
-47.5904
10
50.0866
20
-47.3806
10
50.5486
20
-47.2153
10
51.0245
20
-47.0961
0
LWPOLYLINE
8
02_deck_rear_t4.0
100
AcDbEntity
100
AcDbPolyline
90
65
70
1
43
0.0
10
52
20
-11
10
52.4901
20
-11.0241
10
52.9755
20
-11.0961
10
53.4514
20
-11.2153
10
53.9134
20
-11.3806
10
54.357
20
-11.5904
10
54.7779
20
-11.8427
10
55.172
20
-12.1349
10
55.5355
20
-12.4645
10
55.8651
20
-12.828
10
56.1573
20
-13.2221
10
56.4096
20
-13.643
10
56.6194
20
-14.0866
10
56.7847
20
-14.5486
10
56.9039
20
-15.0245
10
56.9759
20
-15.5099
10
57
20
-16
10
56.9759
20
-16.4901
10
56.9039
20
-16.9755
10
56.7847
20
-17.4514
10
56.6194
20
-17.9134
10
56.4096
20
-18.357
10
56.1573
20
-18.7779
10
55.8651
20
-19.172
10
55.5355
20
-19.5355
10
55.172
20
-19.8651
10
54.7779
20
-20.1573
10
54.357
20
-20.4096
10
53.9134
20
-20.6194
10
53.4514
20
-20.7847
10
52.9755
20
-20.9039
10
52.4901
20
-20.9759
10
52
20
-21
10
51.5099
20
-20.9759
10
51.0245
20
-20.9039
10
50.5486
20
-20.7847
10
50.0866
20
-20.6194
10
49.643
20
-20.4096
10
49.2221
20
-20.1573
10
48.828
20
-19.8651
10
48.4645
20
-19.5355
10
48.1349
20
-19.172
10
47.8427
20
-18.7779
10
47.5904
20
-18.357
10
47.3806
20
-17.9134
10
47.2153
20
-17.4514
10
47.0961
20
-16.9755
10
47.0241
20
-16.4901
10
47
20
-16
10
47.0241
20
-15.5099
10
47.0961
20
-15.0245
10
47.2153
20
-14.5486
10
47.3806
20
-14.0866
10
47.5904
20
-13.643
10
47.8427
20
-13.2221
10
48.1349
20
-12.828
10
48.4645
20
-12.4645
10
48.828
20
-12.1349
10
49.2221
20
-11.8427
10
49.643
20
-11.5904
10
50.0866
20
-11.3806
10
50.5486
20
-11.2153
10
51.0245
20
-11.0961
10
51.5099
20
-11.0241
10
52
20
-11
0
LWPOLYLINE
8
02_deck_rear_t4.0
100
AcDbEntity
100
AcDbPolyline
90
65
70
1
43
0.0
10
52.4901
20
20.9759
10
52.9755
20
20.9039
10
53.4514
20
20.7847
10
53.9134
20
20.6194
10
54.357
20
20.4096
10
54.7779
20
20.1573
10
55.172
20
19.8651
10
55.5355
20
19.5355
10
55.8651
20
19.172
10
56.1573
20
18.7779
10
56.4096
20
18.357
10
56.6194
20
17.9134
10
56.7847
20
17.4514
10
56.9039
20
16.9755
10
56.9759
20
16.4901
10
57
20
16
10
56.9759
20
15.5099
10
56.9039
20
15.0245
10
56.7847
20
14.5486
10
56.6194
20
14.0866
10
56.4096
20
13.643
10
56.1573
20
13.2221
10
55.8651
20
12.828
10
55.5355
20
12.4645
10
55.172
20
12.1349
10
54.7779
20
11.8427
10
54.357
20
11.5904
10
53.9134
20
11.3806
10
53.4514
20
11.2153
10
52.9755
20
11.0961
10
52.4901
20
11.0241
10
52
20
11
10
51.5099
20
11.0241
10
51.0245
20
11.0961
10
50.5486
20
11.2153
10
50.0866
20
11.3806
10
49.643
20
11.5904
10
49.2221
20
11.8427
10
48.828
20
12.1349
10
48.4645
20
12.4645
10
48.1349
20
12.828
10
47.8427
20
13.2221
10
47.5904
20
13.643
10
47.3806
20
14.0866
10
47.2153
20
14.5486
10
47.0961
20
15.0245
10
47.0241
20
15.5099
10
47
20
16
10
47.0241
20
16.4901
10
47.0961
20
16.9755
10
47.2153
20
17.4514
10
47.3806
20
17.9134
10
47.5904
20
18.357
10
47.8427
20
18.7779
10
48.1349
20
19.172
10
48.4645
20
19.5355
10
48.828
20
19.8651
10
49.2221
20
20.1573
10
49.643
20
20.4096
10
50.0866
20
20.6194
10
50.5486
20
20.7847
10
51.0245
20
20.9039
10
51.5099
20
20.9759
10
52
20
21
10
52.4901
20
20.9759
0
LWPOLYLINE
8
02_deck_rear_t4.0
100
AcDbEntity
100
AcDbPolyline
90
65
70
1
43
0.0
10
53.4514
20
56.7847
10
53.9134
20
56.6194
10
54.357
20
56.4096
10
54.7779
20
56.1573
10
55.172
20
55.8651
10
55.5355
20
55.5355
10
55.8651
20
55.172
10
56.1573
20
54.7779
10
56.4096
20
54.357
10
56.6194
20
53.9134
10
56.7847
20
53.4514
10
56.9039
20
52.9755
10
56.9759
20
52.4901
10
57
20
52
10
56.9759
20
51.5099
10
56.9039
20
51.0245
10
56.7847
20
50.5486
10
56.6194
20
50.0866
10
56.4096
20
49.643
10
56.1573
20
49.2221
10
55.8651
20
48.828
10
55.5355
20
48.4645
10
55.172
20
48.1349
10
54.7779
20
47.8427
10
54.357
20
47.5904
10
53.9134
20
47.3806
10
53.4514
20
47.2153
10
52.9755
20
47.0961
10
52.4901
20
47.0241
10
52
20
47
10
51.5099
20
47.0241
10
51.0245
20
47.0961
10
50.5486
20
47.2153
10
50.0866
20
47.3806
10
49.643
20
47.5904
10
49.2221
20
47.8427
10
48.828
20
48.1349
10
48.4645
20
48.4645
10
48.1349
20
48.828
10
47.8427
20
49.2221
10
47.5904
20
49.643
10
47.3806
20
50.0866
10
47.2153
20
50.5486
10
47.0961
20
51.0245
10
47.0241
20
51.5099
10
47
20
52
10
47.0241
20
52.4901
10
47.0961
20
52.9755
10
47.2153
20
53.4514
10
47.3806
20
53.9134
10
47.5904
20
54.357
10
47.8427
20
54.7779
10
48.1349
20
55.172
10
48.4645
20
55.5355
10
48.828
20
55.8651
10
49.2221
20
56.1573
10
49.643
20
56.4096
10
50.0866
20
56.6194
10
50.5486
20
56.7847
10
51.0245
20
56.9039
10
51.5099
20
56.9759
10
52
20
57
10
52.4901
20
56.9759
10
52.9755
20
56.9039
10
53.4514
20
56.7847
0
LWPOLYLINE
8
02_deck_rear_t4.0
100
AcDbEntity
100
AcDbPolyline
90
65
70
1
43
0.0
10
77.9134
20
-47.3806
10
78.357
20
-47.5904
10
78.7779
20
-47.8427
10
79.172
20
-48.1349
10
79.5355
20
-48.4645
10
79.8651
20
-48.828
10
80.1573
20
-49.2221
10
80.4096
20
-49.643
10
80.6194
20
-50.0866
10
80.7847
20
-50.5486
10
80.9039
20
-51.0245
10
80.9759
20
-51.5099
10
81
20
-52
10
80.9759
20
-52.4901
10
80.9039
20
-52.9755
10
80.7847
20
-53.4514
10
80.6194
20
-53.9134
10
80.4096
20
-54.357
10
80.1573
20
-54.7779
10
79.8651
20
-55.172
10
79.5355
20
-55.5355
10
79.172
20
-55.8651
10
78.7779
20
-56.1573
10
78.357
20
-56.4096
10
77.9134
20
-56.6194
10
77.4514
20
-56.7847
10
76.9755
20
-56.9039
10
76.4901
20
-56.9759
10
76
20
-57
10
75.5099
20
-56.9759
10
75.0245
20
-56.9039
10
74.5486
20
-56.7847
10
74.0866
20
-56.6194
10
73.643
20
-56.4096
10
73.2221
20
-56.1573
10
72.828
20
-55.8651
10
72.4645
20
-55.5355
10
72.1349
20
-55.172
10
71.8427
20
-54.7779
10
71.5904
20
-54.357
10
71.3806
20
-53.9134
10
71.2153
20
-53.4514
10
71.0961
20
-52.9755
10
71.0241
20
-52.4901
10
71
20
-52
10
71.0241
20
-51.5099
10
71.0961
20
-51.0245
10
71.2153
20
-50.5486
10
71.3806
20
-50.0866
10
71.5904
20
-49.643
10
71.8427
20
-49.2221
10
72.1349
20
-48.828
10
72.4645
20
-48.4645
10
72.828
20
-48.1349
10
73.2221
20
-47.8427
10
73.643
20
-47.5904
10
74.0866
20
-47.3806
10
74.5486
20
-47.2153
10
75.0245
20
-47.0961
10
75.5099
20
-47.0241
10
76
20
-47
10
76.4901
20
-47.0241
10
76.9755
20
-47.0961
10
77.4514
20
-47.2153
10
77.9134
20
-47.3806
0
LWPOLYLINE
8
02_deck_rear_t4.0
100
AcDbEntity
100
AcDbPolyline
90
65
70
1
43
0.0
10
78.357
20
-29.5904
10
78.7779
20
-29.8427
10
79.172
20
-30.1349
10
79.5355
20
-30.4645
10
79.8651
20
-30.828
10
80.1573
20
-31.2221
10
80.4096
20
-31.643
10
80.6194
20
-32.0866
10
80.7847
20
-32.5486
10
80.9039
20
-33.0245
10
80.9759
20
-33.5099
10
81
20
-34
10
80.9759
20
-34.4901
10
80.9039
20
-34.9755
10
80.7847
20
-35.4514
10
80.6194
20
-35.9134
10
80.4096
20
-36.357
10
80.1573
20
-36.7779
10
79.8651
20
-37.172
10
79.5355
20
-37.5355
10
79.172
20
-37.8651
10
78.7779
20
-38.1573
10
78.357
20
-38.4096
10
77.9134
20
-38.6194
10
77.4514
20
-38.7847
10
76.9755
20
-38.9039
10
76.4901
20
-38.9759
10
76
20
-39
10
75.5099
20
-38.9759
10
75.0245
20
-38.9039
10
74.5486
20
-38.7847
10
74.0866
20
-38.6194
10
73.643
20
-38.4096
10
73.2221
20
-38.1573
10
72.828
20
-37.8651
10
72.4645
20
-37.5355
10
72.1349
20
-37.172
10
71.8427
20
-36.7779
10
71.5904
20
-36.357
10
71.3806
20
-35.9134
10
71.2153
20
-35.4514
10
71.0961
20
-34.9755
10
71.0241
20
-34.4901
10
71
20
-34
10
71.0241
20
-33.5099
10
71.0961
20
-33.0245
10
71.2153
20
-32.5486
10
71.3806
20
-32.0866
10
71.5904
20
-31.643
10
71.8427
20
-31.2221
10
72.1349
20
-30.828
10
72.4645
20
-30.4645
10
72.828
20
-30.1349
10
73.2221
20
-29.8427
10
73.643
20
-29.5904
10
74.0866
20
-29.3806
10
74.5486
20
-29.2153
10
75.0245
20
-29.0961
10
75.5099
20
-29.0241
10
76
20
-29
10
76.4901
20
-29.0241
10
76.9755
20
-29.0961
10
77.4514
20
-29.2153
10
77.9134
20
-29.3806
10
78.357
20
-29.5904
0
LWPOLYLINE
8
02_deck_rear_t4.0
100
AcDbEntity
100
AcDbPolyline
90
65
70
1
43
0.0
10
78.7779
20
-11.8427
10
79.172
20
-12.1349
10
79.5355
20
-12.4645
10
79.8651
20
-12.828
10
80.1573
20
-13.2221
10
80.4096
20
-13.643
10
80.6194
20
-14.0866
10
80.7847
20
-14.5486
10
80.9039
20
-15.0245
10
80.9759
20
-15.5099
10
81
20
-16
10
80.9759
20
-16.4901
10
80.9039
20
-16.9755
10
80.7847
20
-17.4514
10
80.6194
20
-17.9134
10
80.4096
20
-18.357
10
80.1573
20
-18.7779
10
79.8651
20
-19.172
10
79.5355
20
-19.5355
10
79.172
20
-19.8651
10
78.7779
20
-20.1573
10
78.357
20
-20.4096
10
77.9134
20
-20.6194
10
77.4514
20
-20.7847
10
76.9755
20
-20.9039
10
76.4901
20
-20.9759
10
76
20
-21
10
75.5099
20
-20.9759
10
75.0245
20
-20.9039
10
74.5486
20
-20.7847
10
74.0866
20
-20.6194
10
73.643
20
-20.4096
10
73.2221
20
-20.1573
10
72.828
20
-19.8651
10
72.4645
20
-19.5355
10
72.1349
20
-19.172
10
71.8427
20
-18.7779
10
71.5904
20
-18.357
10
71.3806
20
-17.9134
10
71.2153
20
-17.4514
10
71.0961
20
-16.9755
10
71.0241
20
-16.4901
10
71
20
-16
10
71.0241
20
-15.5099
10
71.0961
20
-15.0245
10
71.2153
20
-14.5486
10
71.3806
20
-14.0866
10
71.5904
20
-13.643
10
71.8427
20
-13.2221
10
72.1349
20
-12.828
10
72.4645
20
-12.4645
10
72.828
20
-12.1349
10
73.2221
20
-11.8427
10
73.643
20
-11.5904
10
74.0866
20
-11.3806
10
74.5486
20
-11.2153
10
75.0245
20
-11.0961
10
75.5099
20
-11.0241
10
76
20
-11
10
76.4901
20
-11.0241
10
76.9755
20
-11.0961
10
77.4514
20
-11.2153
10
77.9134
20
-11.3806
10
78.357
20
-11.5904
10
78.7779
20
-11.8427
0
LWPOLYLINE
8
02_deck_rear_t4.0
100
AcDbEntity
100
AcDbPolyline
90
65
70
1
43
0.0
10
79.172
20
19.8651
10
79.5355
20
19.5355
10
79.8651
20
19.172
10
80.1573
20
18.7779
10
80.4096
20
18.357
10
80.6194
20
17.9134
10
80.7847
20
17.4514
10
80.9039
20
16.9755
10
80.9759
20
16.4901
10
81
20
16
10
80.9759
20
15.5099
10
80.9039
20
15.0245
10
80.7847
20
14.5486
10
80.6194
20
14.0866
10
80.4096
20
13.643
10
80.1573
20
13.2221
10
79.8651
20
12.828
10
79.5355
20
12.4645
10
79.172
20
12.1349
10
78.7779
20
11.8427
10
78.357
20
11.5904
10
77.9134
20
11.3806
10
77.4514
20
11.2153
10
76.9755
20
11.0961
10
76.4901
20
11.0241
10
76
20
11
10
75.5099
20
11.0241
10
75.0245
20
11.0961
10
74.5486
20
11.2153
10
74.0866
20
11.3806
10
73.643
20
11.5904
10
73.2221
20
11.8427
10
72.828
20
12.1349
10
72.4645
20
12.4645
10
72.1349
20
12.828
10
71.8427
20
13.2221
10
71.5904
20
13.643
10
71.3806
20
14.0866
10
71.2153
20
14.5486
10
71.0961
20
15.0245
10
71.0241
20
15.5099
10
71
20
16
10
71.0241
20
16.4901
10
71.0961
20
16.9755
10
71.2153
20
17.4514
10
71.3806
20
17.9134
10
71.5904
20
18.357
10
71.8427
20
18.7779
10
72.1349
20
19.172
10
72.4645
20
19.5355
10
72.828
20
19.8651
10
73.2221
20
20.1573
10
73.643
20
20.4096
10
74.0866
20
20.6194
10
74.5486
20
20.7847
10
75.0245
20
20.9039
10
75.5099
20
20.9759
10
76
20
21
10
76.4901
20
20.9759
10
76.9755
20
20.9039
10
77.4514
20
20.7847
10
77.9134
20
20.6194
10
78.357
20
20.4096
10
78.7779
20
20.1573
10
79.172
20
19.8651
0
LWPOLYLINE
8
02_deck_rear_t4.0
100
AcDbEntity
100
AcDbPolyline
90
65
70
1
43
0.0
10
79.5355
20
37.5355
10
79.8651
20
37.172
10
80.1573
20
36.7779
10
80.4096
20
36.357
10
80.6194
20
35.9134
10
80.7847
20
35.4514
10
80.9039
20
34.9755
10
80.9759
20
34.4901
10
81
20
34
10
80.9759
20
33.5099
10
80.9039
20
33.0245
10
80.7847
20
32.5486
10
80.6194
20
32.0866
10
80.4096
20
31.643
10
80.1573
20
31.2221
10
79.8651
20
30.828
10
79.5355
20
30.4645
10
79.172
20
30.1349
10
78.7779
20
29.8427
10
78.357
20
29.5904
10
77.9134
20
29.3806
10
77.4514
20
29.2153
10
76.9755
20
29.0961
10
76.4901
20
29.0241
10
76
20
29
10
75.5099
20
29.0241
10
75.0245
20
29.0961
10
74.5486
20
29.2153
10
74.0866
20
29.3806
10
73.643
20
29.5904
10
73.2221
20
29.8427
10
72.828
20
30.1349
10
72.4645
20
30.4645
10
72.1349
20
30.828
10
71.8427
20
31.2221
10
71.5904
20
31.643
10
71.3806
20
32.0866
10
71.2153
20
32.5486
10
71.0961
20
33.0245
10
71.0241
20
33.5099
10
71
20
34
10
71.0241
20
34.4901
10
71.0961
20
34.9755
10
71.2153
20
35.4514
10
71.3806
20
35.9134
10
71.5904
20
36.357
10
71.8427
20
36.7779
10
72.1349
20
37.172
10
72.4645
20
37.5355
10
72.828
20
37.8651
10
73.2221
20
38.1573
10
73.643
20
38.4096
10
74.0866
20
38.6194
10
74.5486
20
38.7847
10
75.0245
20
38.9039
10
75.5099
20
38.9759
10
76
20
39
10
76.4901
20
38.9759
10
76.9755
20
38.9039
10
77.4514
20
38.7847
10
77.9134
20
38.6194
10
78.357
20
38.4096
10
78.7779
20
38.1573
10
79.172
20
37.8651
10
79.5355
20
37.5355
0
LWPOLYLINE
8
02_deck_rear_t4.0
100
AcDbEntity
100
AcDbPolyline
90
65
70
1
43
0.0
10
79.8651
20
55.172
10
80.1573
20
54.7779
10
80.4096
20
54.357
10
80.6194
20
53.9134
10
80.7847
20
53.4514
10
80.9039
20
52.9755
10
80.9759
20
52.4901
10
81
20
52
10
80.9759
20
51.5099
10
80.9039
20
51.0245
10
80.7847
20
50.5486
10
80.6194
20
50.0866
10
80.4096
20
49.643
10
80.1573
20
49.2221
10
79.8651
20
48.828
10
79.5355
20
48.4645
10
79.172
20
48.1349
10
78.7779
20
47.8427
10
78.357
20
47.5904
10
77.9134
20
47.3806
10
77.4514
20
47.2153
10
76.9755
20
47.0961
10
76.4901
20
47.0241
10
76
20
47
10
75.5099
20
47.0241
10
75.0245
20
47.0961
10
74.5486
20
47.2153
10
74.0866
20
47.3806
10
73.643
20
47.5904
10
73.2221
20
47.8427
10
72.828
20
48.1349
10
72.4645
20
48.4645
10
72.1349
20
48.828
10
71.8427
20
49.2221
10
71.5904
20
49.643
10
71.3806
20
50.0866
10
71.2153
20
50.5486
10
71.0961
20
51.0245
10
71.0241
20
51.5099
10
71
20
52
10
71.0241
20
52.4901
10
71.0961
20
52.9755
10
71.2153
20
53.4514
10
71.3806
20
53.9134
10
71.5904
20
54.357
10
71.8427
20
54.7779
10
72.1349
20
55.172
10
72.4645
20
55.5355
10
72.828
20
55.8651
10
73.2221
20
56.1573
10
73.643
20
56.4096
10
74.0866
20
56.6194
10
74.5486
20
56.7847
10
75.0245
20
56.9039
10
75.5099
20
56.9759
10
76
20
57
10
76.4901
20
56.9759
10
76.9755
20
56.9039
10
77.4514
20
56.7847
10
77.9134
20
56.6194
10
78.357
20
56.4096
10
78.7779
20
56.1573
10
79.172
20
55.8651
10
79.5355
20
55.5355
10
79.8651
20
55.172
0
LWPOLYLINE
8
02_deck_rear_t4.0
100
AcDbEntity
100
AcDbPolyline
90
65
70
1
43
0.0
10
104.1573
20
-49.2221
10
104.4096
20
-49.643
10
104.6194
20
-50.0866
10
104.7847
20
-50.5486
10
104.9039
20
-51.0245
10
104.9759
20
-51.5099
10
105
20
-52
10
104.9759
20
-52.4901
10
104.9039
20
-52.9755
10
104.7847
20
-53.4514
10
104.6194
20
-53.9134
10
104.4096
20
-54.357
10
104.1573
20
-54.7779
10
103.8651
20
-55.172
10
103.5355
20
-55.5355
10
103.172
20
-55.8651
10
102.7779
20
-56.1573
10
102.357
20
-56.4096
10
101.9134
20
-56.6194
10
101.4514
20
-56.7847
10
100.9755
20
-56.9039
10
100.4901
20
-56.9759
10
100
20
-57
10
99.5099
20
-56.9759
10
99.0245
20
-56.9039
10
98.5486
20
-56.7847
10
98.0866
20
-56.6194
10
97.643
20
-56.4096
10
97.2221
20
-56.1573
10
96.828
20
-55.8651
10
96.4645
20
-55.5355
10
96.1349
20
-55.172
10
95.8427
20
-54.7779
10
95.5904
20
-54.357
10
95.3806
20
-53.9134
10
95.2153
20
-53.4514
10
95.0961
20
-52.9755
10
95.0241
20
-52.4901
10
95
20
-52
10
95.0241
20
-51.5099
10
95.0961
20
-51.0245
10
95.2153
20
-50.5486
10
95.3806
20
-50.0866
10
95.5904
20
-49.643
10
95.8427
20
-49.2221
10
96.1349
20
-48.828
10
96.4645
20
-48.4645
10
96.828
20
-48.1349
10
97.2221
20
-47.8427
10
97.643
20
-47.5904
10
98.0866
20
-47.3806
10
98.5486
20
-47.2153
10
99.0245
20
-47.0961
10
99.5099
20
-47.0241
10
100
20
-47
10
100.4901
20
-47.0241
10
100.9755
20
-47.0961
10
101.4514
20
-47.2153
10
101.9134
20
-47.3806
10
102.357
20
-47.5904
10
102.7779
20
-47.8427
10
103.172
20
-48.1349
10
103.5355
20
-48.4645
10
103.8651
20
-48.828
10
104.1573
20
-49.2221
0
LWPOLYLINE
8
02_deck_rear_t4.0
100
AcDbEntity
100
AcDbPolyline
90
65
70
1
43
0.0
10
104.6194
20
-14.0866
10
104.7847
20
-14.5486
10
104.9039
20
-15.0245
10
104.9759
20
-15.5099
10
105
20
-16
10
104.9759
20
-16.4901
10
104.9039
20
-16.9755
10
104.7847
20
-17.4514
10
104.6194
20
-17.9134
10
104.4096
20
-18.357
10
104.1573
20
-18.7779
10
103.8651
20
-19.172
10
103.5355
20
-19.5355
10
103.172
20
-19.8651
10
102.7779
20
-20.1573
10
102.357
20
-20.4096
10
101.9134
20
-20.6194
10
101.4514
20
-20.7847
10
100.9755
20
-20.9039
10
100.4901
20
-20.9759
10
100
20
-21
10
99.5099
20
-20.9759
10
99.0245
20
-20.9039
10
98.5486
20
-20.7847
10
98.0866
20
-20.6194
10
97.643
20
-20.4096
10
97.2221
20
-20.1573
10
96.828
20
-19.8651
10
96.4645
20
-19.5355
10
96.1349
20
-19.172
10
95.8427
20
-18.7779
10
95.5904
20
-18.357
10
95.3806
20
-17.9134
10
95.2153
20
-17.4514
10
95.0961
20
-16.9755
10
95.0241
20
-16.4901
10
95
20
-16
10
95.0241
20
-15.5099
10
95.0961
20
-15.0245
10
95.2153
20
-14.5486
10
95.3806
20
-14.0866
10
95.5904
20
-13.643
10
95.8427
20
-13.2221
10
96.1349
20
-12.828
10
96.4645
20
-12.4645
10
96.828
20
-12.1349
10
97.2221
20
-11.8427
10
97.643
20
-11.5904
10
98.0866
20
-11.3806
10
98.5486
20
-11.2153
10
99.0245
20
-11.0961
10
99.5099
20
-11.0241
10
100
20
-11
10
100.4901
20
-11.0241
10
100.9755
20
-11.0961
10
101.4514
20
-11.2153
10
101.9134
20
-11.3806
10
102.357
20
-11.5904
10
102.7779
20
-11.8427
10
103.172
20
-12.1349
10
103.5355
20
-12.4645
10
103.8651
20
-12.828
10
104.1573
20
-13.2221
10
104.4096
20
-13.643
10
104.6194
20
-14.0866
0
LWPOLYLINE
8
02_deck_rear_t4.0
100
AcDbEntity
100
AcDbPolyline
90
65
70
1
43
0.0
10
104.7847
20
17.4514
10
104.9039
20
16.9755
10
104.9759
20
16.4901
10
105
20
16
10
104.9759
20
15.5099
10
104.9039
20
15.0245
10
104.7847
20
14.5486
10
104.6194
20
14.0866
10
104.4096
20
13.643
10
104.1573
20
13.2221
10
103.8651
20
12.828
10
103.5355
20
12.4645
10
103.172
20
12.1349
10
102.7779
20
11.8427
10
102.357
20
11.5904
10
101.9134
20
11.3806
10
101.4514
20
11.2153
10
100.9755
20
11.0961
10
100.4901
20
11.0241
10
100
20
11
10
99.5099
20
11.0241
10
99.0245
20
11.0961
10
98.5486
20
11.2153
10
98.0866
20
11.3806
10
97.643
20
11.5904
10
97.2221
20
11.8427
10
96.828
20
12.1349
10
96.4645
20
12.4645
10
96.1349
20
12.828
10
95.8427
20
13.2221
10
95.5904
20
13.643
10
95.3806
20
14.0866
10
95.2153
20
14.5486
10
95.0961
20
15.0245
10
95.0241
20
15.5099
10
95
20
16
10
95.0241
20
16.4901
10
95.0961
20
16.9755
10
95.2153
20
17.4514
10
95.3806
20
17.9134
10
95.5904
20
18.357
10
95.8427
20
18.7779
10
96.1349
20
19.172
10
96.4645
20
19.5355
10
96.828
20
19.8651
10
97.2221
20
20.1573
10
97.643
20
20.4096
10
98.0866
20
20.6194
10
98.5486
20
20.7847
10
99.0245
20
20.9039
10
99.5099
20
20.9759
10
100
20
21
10
100.4901
20
20.9759
10
100.9755
20
20.9039
10
101.4514
20
20.7847
10
101.9134
20
20.6194
10
102.357
20
20.4096
10
102.7779
20
20.1573
10
103.172
20
19.8651
10
103.5355
20
19.5355
10
103.8651
20
19.172
10
104.1573
20
18.7779
10
104.4096
20
18.357
10
104.6194
20
17.9134
10
104.7847
20
17.4514
0
LWPOLYLINE
8
02_deck_rear_t4.0
100
AcDbEntity
100
AcDbPolyline
90
65
70
1
43
0.0
10
104.9759
20
52.4901
10
105
20
52
10
104.9759
20
51.5099
10
104.9039
20
51.0245
10
104.7847
20
50.5486
10
104.6194
20
50.0866
10
104.4096
20
49.643
10
104.1573
20
49.2221
10
103.8651
20
48.828
10
103.5355
20
48.4645
10
103.172
20
48.1349
10
102.7779
20
47.8427
10
102.357
20
47.5904
10
101.9134
20
47.3806
10
101.4514
20
47.2153
10
100.9755
20
47.0961
10
100.4901
20
47.0241
10
100
20
47
10
99.5099
20
47.0241
10
99.0245
20
47.0961
10
98.5486
20
47.2153
10
98.0866
20
47.3806
10
97.643
20
47.5904
10
97.2221
20
47.8427
10
96.828
20
48.1349
10
96.4645
20
48.4645
10
96.1349
20
48.828
10
95.8427
20
49.2221
10
95.5904
20
49.643
10
95.3806
20
50.0866
10
95.2153
20
50.5486
10
95.0961
20
51.0245
10
95.0241
20
51.5099
10
95
20
52
10
95.0241
20
52.4901
10
95.0961
20
52.9755
10
95.2153
20
53.4514
10
95.3806
20
53.9134
10
95.5904
20
54.357
10
95.8427
20
54.7779
10
96.1349
20
55.172
10
96.4645
20
55.5355
10
96.828
20
55.8651
10
97.2221
20
56.1573
10
97.643
20
56.4096
10
98.0866
20
56.6194
10
98.5486
20
56.7847
10
99.0245
20
56.9039
10
99.5099
20
56.9759
10
100
20
57
10
100.4901
20
56.9759
10
100.9755
20
56.9039
10
101.4514
20
56.7847
10
101.9134
20
56.6194
10
102.357
20
56.4096
10
102.7779
20
56.1573
10
103.172
20
55.8651
10
103.5355
20
55.5355
10
103.8651
20
55.172
10
104.1573
20
54.7779
10
104.4096
20
54.357
10
104.6194
20
53.9134
10
104.7847
20
53.4514
10
104.9039
20
52.9755
10
104.9759
20
52.4901
0
ENDSEC
0
EOF
