0
SECTION
2
HEADER
9
$ACADVER
1
AC1015
9
$INSUNITS
70
4
0
ENDSEC
0
SECTION
2
ENTITIES
0
LWPOLYLINE
8
03_deck_splice_t3.0
100
AcDbEntity
100
AcDbPolyline
90
5
70
1
43
0.0
10
60
20
30
10
0
20
30
10
0
20
-30
10
60
20
-30
10
60
20
30
0
LWPOLYLINE
8
03_deck_splice_t3.0
100
AcDbEntity
100
AcDbPolyline
90
65
70
1
43
0.0
10
11.3304
20
-17.1111
10
11.4111
20
-17.2458
10
11.4782
20
-17.3877
10
11.5311
20
-17.5355
10
11.5693
20
-17.6879
10
11.5923
20
-17.8432
10
11.6
20
-18
10
11.5923
20
-18.1568
10
11.5693
20
-18.3121
10
11.5311
20
-18.4645
10
11.4782
20
-18.6123
10
11.4111
20
-18.7542
10
11.3304
20
-18.8889
10
11.2368
20
-19.015
10
11.1314
20
-19.1314
10
11.015
20
-19.2368
10
10.8889
20
-19.3304
10
10.7542
20
-19.4111
10
10.6123
20
-19.4782
10
10.4645
20
-19.5311
10
10.3121
20
-19.5693
10
10.1568
20
-19.5923
10
10
20
-19.6
10
9.8432
20
-19.5923
10
9.6879
20
-19.5693
10
9.5355
20
-19.5311
10
9.3877
20
-19.4782
10
9.2458
20
-19.4111
10
9.1111
20
-19.3304
10
8.985
20
-19.2368
10
8.8686
20
-19.1314
10
8.7632
20
-19.015
10
8.6696
20
-18.8889
10
8.5889
20
-18.7542
10
8.5218
20
-18.6123
10
8.4689
20
-18.4645
10
8.4307
20
-18.3121
10
8.4077
20
-18.1568
10
8.4
20
-18
10
8.4077
20
-17.8432
10
8.4307
20
-17.6879
10
8.4689
20
-17.5355
10
8.5218
20
-17.3877
10
8.5889
20
-17.2458
10
8.6696
20
-17.1111
10
8.7632
20
-16.985
10
8.8686
20
-16.8686
10
8.985
20
-16.7632
10
9.1111
20
-16.6696
10
9.2458
20
-16.5889
10
9.3877
20
-16.5218
10
9.5355
20
-16.4689
10
9.6879
20
-16.4307
10
9.8432
20
-16.4077
10
10
20
-16.4
10
10.1568
20
-16.4077
10
10.3121
20
-16.4307
10
10.4645
20
-16.4689
10
10.6123
20
-16.5218
10
10.7542
20
-16.5889
10
10.8889
20
-16.6696
10
11.015
20
-16.7632
10
11.1314
20
-16.8686
10
11.2368
20
-16.985
10
11.3304
20
-17.1111
0
LWPOLYLINE
8
03_deck_splice_t3.0
100
AcDbEntity
100
AcDbPolyline
90
65
70
1
43
0.0
10
11.4111
20
18.7542
10
11.4782
20
18.6123
10
11.5311
20
18.4645
10
11.5693
20
18.3121
10
11.5923
20
18.1568
10
11.6
20
18
10
11.5923
20
17.8432
10
11.5693
20
17.6879
10
11.5311
20
17.5355
10
11.4782
20
17.3877
10
11.4111
20
17.2458
10
11.3304
20
17.1111
10
11.2368
20
16.985
10
11.1314
20
16.8686
10
11.015
20
16.7632
10
10.8889
20
16.6696
10
10.7542
20
16.5889
10
10.6123
20
16.5218
10
10.4645
20
16.4689
10
10.3121
20
16.4307
10
10.1568
20
16.4077
10
10
20
16.4
10
9.8432
20
16.4077
10
9.6879
20
16.4307
10
9.5355
20
16.4689
10
9.3877
20
16.5218
10
9.2458
20
16.5889
10
9.1111
20
16.6696
10
8.985
20
16.7632
10
8.8686
20
16.8686
10
8.7632
20
16.985
10
8.6696
20
17.1111
10
8.5889
20
17.2458
10
8.5218
20
17.3877
10
8.4689
20
17.5355
10
8.4307
20
17.6879
10
8.4077
20
17.8432
10
8.4
20
18
10
8.4077
20
18.1568
10
8.4307
20
18.3121
10
8.4689
20
18.4645
10
8.5218
20
18.6123
10
8.5889
20
18.7542
10
8.6696
20
18.8889
10
8.7632
20
19.015
10
8.8686
20
19.1314
10
8.985
20
19.2368
10
9.1111
20
19.3304
10
9.2458
20
19.4111
10
9.3877
20
19.4782
10
9.5355
20
19.5311
10
9.6879
20
19.5693
10
9.8432
20
19.5923
10
10
20
19.6
10
10.1568
20
19.5923
10
10.3121
20
19.5693
10
10.4645
20
19.5311
10
10.6123
20
19.4782
10
10.7542
20
19.4111
10
10.8889
20
19.3304
10
11.015
20
19.2368
10
11.1314
20
19.1314
10
11.2368
20
19.015
10
11.3304
20
18.8889
10
11.4111
20
18.7542
0
LWPOLYLINE
8
03_deck_splice_t3.0
100
AcDbEntity
100
AcDbPolyline
90
65
70
1
43
0.0
10
31.4782
20
-17.3877
10
31.5311
20
-17.5355
10
31.5693
20
-17.6879
10
31.5923
20
-17.8432
10
31.6
20
-18
10
31.5923
20
-18.1568
10
31.5693
20
-18.3121
10
31.5311
20
-18.4645
10
31.4782
20
-18.6123
10
31.4111
20
-18.7542
10
31.3304
20
-18.8889
10
31.2368
20
-19.015
10
31.1314
20
-19.1314
10
31.015
20
-19.2368
10
30.8889
20
-19.3304
10
30.7542
20
-19.4111
10
30.6123
20
-19.4782
10
30.4645
20
-19.5311
10
30.3121
20
-19.5693
10
30.1568
20
-19.5923
10
30
20
-19.6
10
29.8432
20
-19.5923
10
29.6879
20
-19.5693
10
29.5355
20
-19.5311
10
29.3877
20
-19.4782
10
29.2458
20
-19.4111
10
29.1111
20
-19.3304
10
28.985
20
-19.2368
10
28.8686
20
-19.1314
10
28.7632
20
-19.015
10
28.6696
20
-18.8889
10
28.5889
20
-18.7542
10
28.5218
20
-18.6123
10
28.4689
20
-18.4645
10
28.4307
20
-18.3121
10
28.4077
20
-18.1568
10
28.4
20
-18
10
28.4077
20
-17.8432
10
28.4307
20
-17.6879
10
28.4689
20
-17.5355
10
28.5218
20
-17.3877
10
28.5889
20
-17.2458
10
28.6696
20
-17.1111
10
28.7632
20
-16.985
10
28.8686
20
-16.8686
10
28.985
20
-16.7632
10
29.1111
20
-16.6696
10
29.2458
20
-16.5889
10
29.3877
20
-16.5218
10
29.5355
20
-16.4689
10
29.6879
20
-16.4307
10
29.8432
20
-16.4077
10
30
20
-16.4
10
30.1568
20
-16.4077
10
30.3121
20
-16.4307
10
30.4645
20
-16.4689
10
30.6123
20
-16.5218
10
30.7542
20
-16.5889
10
30.8889
20
-16.6696
10
31.015
20
-16.7632
10
31.1314
20
-16.8686
10
31.2368
20
-16.985
10
31.3304
20
-17.1111
10
31.4111
20
-17.2458
10
31.4782
20
-17.3877
0
LWPOLYLINE
8
03_deck_splice_t3.0
100
AcDbEntity
100
AcDbPolyline
90
65
70
1
43
0.0
10
31.5311
20
18.4645
10
31.5693
20
18.3121
10
31.5923
20
18.1568
10
31.6
20
18
10
31.5923
20
17.8432
10
31.5693
20
17.6879
10
31.5311
20
17.5355
10
31.4782
20
17.3877
10
31.4111
20
17.2458
10
31.3304
20
17.1111
10
31.2368
20
16.985
10
31.1314
20
16.8686
10
31.015
20
16.7632
10
30.8889
20
16.6696
10
30.7542
20
16.5889
10
30.6123
20
16.5218
10
30.4645
20
16.4689
10
30.3121
20
16.4307
10
30.1568
20
16.4077
10
30
20
16.4
10
29.8432
20
16.4077
10
29.6879
20
16.4307
10
29.5355
20
16.4689
10
29.3877
20
16.5218
10
29.2458
20
16.5889
10
29.1111
20
16.6696
10
28.985
20
16.7632
10
28.8686
20
16.8686
10
28.7632
20
16.985
10
28.6696
20
17.1111
10
28.5889
20
17.2458
10
28.5218
20
17.3877
10
28.4689
20
17.5355
10
28.4307
20
17.6879
10
28.4077
20
17.8432
10
28.4
20
18
10
28.4077
20
18.1568
10
28.4307
20
18.3121
10
28.4689
20
18.4645
10
28.5218
20
18.6123
10
28.5889
20
18.7542
10
28.6696
20
18.8889
10
28.7632
20
19.015
10
28.8686
20
19.1314
10
28.985
20
19.2368
10
29.1111
20
19.3304
10
29.2458
20
19.4111
10
29.3877
20
19.4782
10
29.5355
20
19.5311
10
29.6879
20
19.5693
10
29.8432
20
19.5923
10
30
20
19.6
10
30.1568
20
19.5923
10
30.3121
20
19.5693
10
30.4645
20
19.5311
10
30.6123
20
19.4782
10
30.7542
20
19.4111
10
30.8889
20
19.3304
10
31.015
20
19.2368
10
31.1314
20
19.1314
10
31.2368
20
19.015
10
31.3304
20
18.8889
10
31.4111
20
18.7542
10
31.4782
20
18.6123
10
31.5311
20
18.4645
0
LWPOLYLINE
8
03_deck_splice_t3.0
100
AcDbEntity
100
AcDbPolyline
90
65
70
1
43
0.0
10
51.5693
20
-17.6879
10
51.5923
20
-17.8432
10
51.6
20
-18
10
51.5923
20
-18.1568
10
51.5693
20
-18.3121
10
51.5311
20
-18.4645
10
51.4782
20
-18.6123
10
51.4111
20
-18.7542
10
51.3304
20
-18.8889
10
51.2368
20
-19.015
10
51.1314
20
-19.1314
10
51.015
20
-19.2368
10
50.8889
20
-19.3304
10
50.7542
20
-19.4111
10
50.6123
20
-19.4782
10
50.4645
20
-19.5311
10
50.3121
20
-19.5693
10
50.1568
20
-19.5923
10
50
20
-19.6
10
49.8432
20
-19.5923
10
49.6879
20
-19.5693
10
49.5355
20
-19.5311
10
49.3877
20
-19.4782
10
49.2458
20
-19.4111
10
49.1111
20
-19.3304
10
48.985
20
-19.2368
10
48.8686
20
-19.1314
10
48.7632
20
-19.015
10
48.6696
20
-18.8889
10
48.5889
20
-18.7542
10
48.5218
20
-18.6123
10
48.4689
20
-18.4645
10
48.4307
20
-18.3121
10
48.4077
20
-18.1568
10
48.4
20
-18
10
48.4077
20
-17.8432
10
48.4307
20
-17.6879
10
48.4689
20
-17.5355
10
48.5218
20
-17.3877
10
48.5889
20
-17.2458
10
48.6696
20
-17.1111
10
48.7632
20
-16.985
10
48.8686
20
-16.8686
10
48.985
20
-16.7632
10
49.1111
20
-16.6696
10
49.2458
20
-16.5889
10
49.3877
20
-16.5218
10
49.5355
20
-16.4689
10
49.6879
20
-16.4307
10
49.8432
20
-16.4077
10
50
20
-16.4
10
50.1568
20
-16.4077
10
50.3121
20
-16.4307
10
50.4645
20
-16.4689
10
50.6123
20
-16.5218
10
50.7542
20
-16.5889
10
50.8889
20
-16.6696
10
51.015
20
-16.7632
10
51.1314
20
-16.8686
10
51.2368
20
-16.985
10
51.3304
20
-17.1111
10
51.4111
20
-17.2458
10
51.4782
20
-17.3877
10
51.5311
20
-17.5355
10
51.5693
20
-17.6879
0
LWPOLYLINE
8
03_deck_splice_t3.0
100
AcDbEntity
100
AcDbPolyline
90
65
70
1
43
0.0
10
51.5923
20
18.1568
10
51.6
20
18
10
51.5923
20
17.8432
10
51.5693
20
17.6879
10
51.5311
20
17.5355
10
51.4782
20
17.3877
10
51.4111
20
17.2458
10
51.3304
20
17.1111
10
51.2368
20
16.985
10
51.1314
20
16.8686
10
51.015
20
16.7632
10
50.8889
20
16.6696
10
50.7542
20
16.5889
10
50.6123
20
16.5218
10
50.4645
20
16.4689
10
50.3121
20
16.4307
10
50.1568
20
16.4077
10
50
20
16.4
10
49.8432
20
16.4077
10
49.6879
20
16.4307
10
49.5355
20
16.4689
10
49.3877
20
16.5218
10
49.2458
20
16.5889
10
49.1111
20
16.6696
10
48.985
20
16.7632
10
48.8686
20
16.8686
10
48.7632
20
16.985
10
48.6696
20
17.1111
10
48.5889
20
17.2458
10
48.5218
20
17.3877
10
48.4689
20
17.5355
10
48.4307
20
17.6879
10
48.4077
20
17.8432
10
48.4
20
18
10
48.4077
20
18.1568
10
48.4307
20
18.3121
10
48.4689
20
18.4645
10
48.5218
20
18.6123
10
48.5889
20
18.7542
10
48.6696
20
18.8889
10
48.7632
20
19.015
10
48.8686
20
19.1314
10
48.985
20
19.2368
10
49.1111
20
19.3304
10
49.2458
20
19.4111
10
49.3877
20
19.4782
10
49.5355
20
19.5311
10
49.6879
20
19.5693
10
49.8432
20
19.5923
10
50
20
19.6
10
50.1568
20
19.5923
10
50.3121
20
19.5693
10
50.4645
20
19.5311
10
50.6123
20
19.4782
10
50.7542
20
19.4111
10
50.8889
20
19.3304
10
51.015
20
19.2368
10
51.1314
20
19.1314
10
51.2368
20
19.015
10
51.3304
20
18.8889
10
51.4111
20
18.7542
10
51.4782
20
18.6123
10
51.5311
20
18.4645
10
51.5693
20
18.3121
10
51.5923
20
18.1568
0
ENDSEC
0
EOF
