0
SECTION
2
HEADER
9
$ACADVER
1
AC1015
9
$INSUNITS
70
4
0
ENDSEC
0
SECTION
2
ENTITIES
0
LWPOLYLINE
8
04_column_t22.0
100
AcDbEntity
100
AcDbPolyline
90
65
70
1
43
0.0
10
5.9711
20
-0.5881
10
6
20
0
10
5.9711
20
0.5881
10
5.8847
20
1.1705
10
5.7416
20
1.7417
10
5.5433
20
2.2961
10
5.2915
20
2.8284
10
4.9888
20
3.3334
10
4.6381
20
3.8064
10
4.2426
20
4.2426
10
3.8064
20
4.6381
10
3.3334
20
4.9888
10
2.8284
20
5.2915
10
2.2961
20
5.5433
10
1.7417
20
5.7416
10
1.1705
20
5.8847
10
0.5881
20
5.9711
10
0
20
6
10
-0.5881
20
5.9711
10
-1.1705
20
5.8847
10
-1.7417
20
5.7416
10
-2.2961
20
5.5433
10
-2.8284
20
5.2915
10
-3.3334
20
4.9888
10
-3.8064
20
4.6381
10
-4.2426
20
4.2426
10
-4.6381
20
3.8064
10
-4.9888
20
3.3334
10
-5.2915
20
2.8284
10
-5.5433
20
2.2961
10
-5.7416
20
1.7417
10
-5.8847
20
1.1705
10
-5.9711
20
0.5881
10
-6
20
0
10
-5.9711
20
-0.5881
10
-5.8847
20
-1.1705
10
-5.7416
20
-1.7417
10
-5.5433
20
-2.2961
10
-5.2915
20
-2.8284
10
-4.9888
20
-3.3334
10
-4.6381
20
-3.8064
10
-4.2426
20
-4.2426
10
-3.8064
20
-4.6381
10
-3.3334
20
-4.9888
10
-2.8284
20
-5.2915
10
-2.2961
20
-5.5433
10
-1.7417
20
-5.7416
10
-1.1705
20
-5.8847
10
-0.5881
20
-5.9711
10
0
20
-6
10
0.5881
20
-5.9711
10
1.1705
20
-5.8847
10
1.7417
20
-5.7416
10
2.2961
20
-5.5433
10
2.8284
20
-5.2915
10
3.3334
20
-4.9888
10
3.8064
20
-4.6381
10
4.2426
20
-4.2426
10
4.6381
20
-3.8064
10
4.9888
20
-3.3334
10
5.2915
20
-2.8284
10
5.5433
20
-2.2961
10
5.7416
20
-1.7417
10
5.8847
20
-1.1705
10
5.9711
20
-0.5881
0
LWPOLYLINE
8
04_column_t22.0
100
AcDbEntity
100
AcDbPolyline
90
65
70
1
43
0.0
10
1.5923
20
0.1568
10
1.6
20
0
10
1.5923
20
-0.1568
10
1.5693
20
-0.3121
10
1.5311
20
-0.4645
10
1.4782
20
-0.6123
10
1.4111
20
-0.7542
10
1.3304
20
-0.8889
10
1.2368
20
-1.015
10
1.1314
20
-1.1314
10
1.015
20
-1.2368
10
0.8889
20
-1.3304
10
0.7542
20
-1.4111
10
0.6123
20
-1.4782
10
0.4645
20
-1.5311
10
0.3121
20
-1.5693
10
0.1568
20
-1.5923
10
0
20
-1.6
10
-0.1568
20
-1.5923
10
-0.3121
20
-1.5693
10
-0.4645
20
-1.5311
10
-0.6123
20
-1.4782
10
-0.7542
20
-1.4111
10
-0.8889
20
-1.3304
10
-1.015
20
-1.2368
10
-1.1314
20
-1.1314
10
-1.2368
20
-1.015
10
-1.3304
20
-0.8889
10
-1.4111
20
-0.7542
10
-1.4782
20
-0.6123
10
-1.5311
20
-0.4645
10
-1.5693
20
-0.3121
10
-1.5923
20
-0.1568
10
-1.6
20
0
10
-1.5923
20
0.1568
10
-1.5693
20
0.3121
10
-1.5311
20
0.4645
10
-1.4782
20
0.6123
10
-1.4111
20
0.7542
10
-1.3304
20
0.8889
10
-1.2368
20
1.015
10
-1.1314
20
1.1314
10
-1.015
20
1.2368
10
-0.8889
20
1.3304
10
-0.7542
20
1.4111
10
-0.6123
20
1.4782
10
-0.4645
20
1.5311
10
-0.3121
20
1.5693
10
-0.1568
20
1.5923
10
0
20
1.6
10
0.1568
20
1.5923
10
0.3121
20
1.5693
10
0.4645
20
1.5311
10
0.6123
20
1.4782
10
0.7542
20
1.4111
10
0.8889
20
1.3304
10
1.015
20
1.2368
10
1.1314
20
1.1314
10
1.2368
20
1.015
10
1.3304
20
0.8889
10
1.4111
20
0.7542
10
1.4782
20
0.6123
10
1.5311
20
0.4645
10
1.5693
20
0.3121
10
1.5923
20
0.1568
0
ENDSEC
0
EOF
