0
SECTION
2
HEADER
9
$ACADVER
1
AC1015
9
$INSUNITS
70
4
0
ENDSEC
0
SECTION
2
ENTITIES
0
LWPOLYLINE
8
05_scoop_floor_t6.0
100
AcDbEntity
100
AcDbPolyline
90
5
70
1
43
0.0
10
-14
20
25
10
-14
20
-25
10
14
20
-48
10
14
20
48
10
-14
20
25
0
LWPOLYLINE
8
05_scoop_floor_t6.0
100
AcDbEntity
100
AcDbPolyline
90
19
70
1
43
0.0
10
-4.7654
20
30.8478
10
-4
20
31
10
4
20
31
10
4.7654
20
30.8478
10
5.4142
20
30.4142
10
5.8478
20
29.7654
10
6
20
29
10
5.8478
20
28.2346
10
5.4142
20
27.5858
10
4.7654
20
27.1522
10
4
20
27
10
-4
20
27
10
-4.7654
20
27.1522
10
-5.4142
20
27.5858
10
-5.8478
20
28.2346
10
-6
20
29
10
-5.8478
20
29.7654
10
-5.4142
20
30.4142
10
-4.7654
20
30.8478
0
LWPOLYLINE
8
05_scoop_floor_t6.0
100
AcDbEntity
100
AcDbPolyline
90
19
70
1
43
0.0
10
-4
20
-27
10
4
20
-27
10
4.7654
20
-27.1522
10
5.4142
20
-27.5858
10
5.8478
20
-28.2346
10
6
20
-29
10
5.8478
20
-29.7654
10
5.4142
20
-30.4142
10
4.7654
20
-30.8478
10
4
20
-31
10
-4
20
-31
10
-4.7654
20
-30.8478
10
-5.4142
20
-30.4142
10
-5.8478
20
-29.7654
10
-6
20
-29
10
-5.8478
20
-28.2346
10
-5.4142
20
-27.5858
10
-4.7654
20
-27.1522
10
-4
20
-27
0
ENDSEC
0
EOF
