0
SECTION
2
HEADER
9
$ACADVER
1
AC1015
9
$INSUNITS
70
4
0
ENDSEC
0
SECTION
2
ENTITIES
0
LWPOLYLINE
8
05b_scoop_wall_L_t26.0
100
AcDbEntity
100
AcDbPolyline
90
5
70
1
43
0.0
10
-14
20
-19
10
-14
20
-25
10
14
20
-48
10
14
20
-42
10
-14
20
-19
0
LWPOLYLINE
8
05b_scoop_wall_L_t26.0
100
AcDbEntity
100
AcDbPolyline
90
65
70
1
43
0.0
10
-8.725
20
-25.0464
10
-8.7063
20
-25.1726
10
-8.7
20
-25.3
10
-8.7063
20
-25.4274
10
-8.725
20
-25.5536
10
-8.756
20
-25.6774
10
-8.799
20
-25.7975
10
-8.8535
20
-25.9128
10
-8.9191
20
-26.0222
10
-8.9951
20
-26.1247
10
-9.0808
20
-26.2192
10
-9.1753
20
-26.3049
10
-9.2778
20
-26.3809
10
-9.3872
20
-26.4465
10
-9.5025
20
-26.501
10
-9.6226
20
-26.544
10
-9.7464
20
-26.575
10
-9.8726
20
-26.5937
10
-10
20
-26.6
10
-10.1274
20
-26.5937
10
-10.2536
20
-26.575
10
-10.3774
20
-26.544
10
-10.4975
20
-26.501
10
-10.6128
20
-26.4465
10
-10.7222
20
-26.3809
10
-10.8247
20
-26.3049
10
-10.9192
20
-26.2192
10
-11.0049
20
-26.1247
10
-11.0809
20
-26.0222
10
-11.1465
20
-25.9128
10
-11.201
20
-25.7975
10
-11.244
20
-25.6774
10
-11.275
20
-25.5536
10
-11.2937
20
-25.4274
10
-11.3
20
-25.3
10
-11.2937
20
-25.1726
10
-11.275
20
-25.0464
10
-11.244
20
-24.9226
10
-11.201
20
-24.8025
10
-11.1465
20
-24.6872
10
-11.0809
20
-24.5778
10
-11.0049
20
-24.4753
10
-10.9192
20
-24.3808
10
-10.8247
20
-24.2951
10
-10.7222
20
-24.2191
10
-10.6128
20
-24.1535
10
-10.4975
20
-24.099
10
-10.3774
20
-24.056
10
-10.2536
20
-24.025
10
-10.1274
20
-24.0063
10
-10
20
-24
10
-9.8726
20
-24.0063
10
-9.7464
20
-24.025
10
-9.6226
20
-24.056
10
-9.5025
20
-24.099
10
-9.3872
20
-24.1535
10
-9.2778
20
-24.2191
10
-9.1753
20
-24.2951
10
-9.0808
20
-24.3808
10
-8.9951
20
-24.4753
10
-8.9191
20
-24.5778
10
-8.8535
20
-24.6872
10
-8.799
20
-24.8025
10
-8.756
20
-24.9226
10
-8.725
20
-25.0464
0
LWPOLYLINE
8
05b_scoop_wall_L_t26.0
100
AcDbEntity
100
AcDbPolyline
90
65
70
1
43
0.0
10
7.2937
20
-38.2726
10
7.3
20
-38.4
10
7.2937
20
-38.5274
10
7.275
20
-38.6536
10
7.244
20
-38.7774
10
7.201
20
-38.8975
10
7.1465
20
-39.0128
10
7.0809
20
-39.1222
10
7.0049
20
-39.2247
10
6.9192
20
-39.3192
10
6.8247
20
-39.4049
10
6.7222
20
-39.4809
10
6.6128
20
-39.5465
10
6.4975
20
-39.601
10
6.3774
20
-39.644
10
6.2536
20
-39.675
10
6.1274
20
-39.6937
10
6
20
-39.7
10
5.8726
20
-39.6937
10
5.7464
20
-39.675
10
5.6226
20
-39.644
10
5.5025
20
-39.601
10
5.3872
20
-39.5465
10
5.2778
20
-39.4809
10
5.1753
20
-39.4049
10
5.0808
20
-39.3192
10
4.9951
20
-39.2247
10
4.9191
20
-39.1222
10
4.8535
20
-39.0128
10
4.799
20
-38.8975
10
4.756
20
-38.7774
10
4.725
20
-38.6536
10
4.7063
20
-38.5274
10
4.7
20
-38.4
10
4.7063
20
-38.2726
10
4.725
20
-38.1464
10
4.756
20
-38.0226
10
4.799
20
-37.9025
10
4.8535
20
-37.7872
10
4.9191
20
-37.6778
10
4.9951
20
-37.5753
10
5.0808
20
-37.4808
10
5.1753
20
-37.3951
10
5.2778
20
-37.3191
10
5.3872
20
-37.2535
10
5.5025
20
-37.199
10
5.6226
20
-37.156
10
5.7464
20
-37.125
10
5.8726
20
-37.1063
10
6
20
-37.1
10
6.1274
20
-37.1063
10
6.2536
20
-37.125
10
6.3774
20
-37.156
10
6.4975
20
-37.199
10
6.6128
20
-37.2535
10
6.7222
20
-37.3191
10
6.8247
20
-37.3951
10
6.9192
20
-37.4808
10
7.0049
20
-37.5753
10
7.0809
20
-37.6778
10
7.1465
20
-37.7872
10
7.201
20
-37.9025
10
7.244
20
-38.0226
10
7.275
20
-38.1464
10
7.2937
20
-38.2726
0
ENDSEC
0
EOF
