0
SECTION
2
HEADER
9
$ACADVER
1
AC1015
9
$INSUNITS
70
4
0
ENDSEC
0
SECTION
2
ENTITIES
0
LWPOLYLINE
8
05d_scoop_back_t26.0
100
AcDbEntity
100
AcDbPolyline
90
5
70
1
43
0.0
10
4
20
32
10
-4
20
32
10
-4
20
-32
10
4
20
-32
10
4
20
32
0
LWPOLYLINE
8
05d_scoop_back_t26.0
100
AcDbEntity
100
AcDbPolyline
90
65
70
1
43
0.0
10
1.5693
20
-21.6879
10
1.5923
20
-21.8432
10
1.6
20
-22
10
1.5923
20
-22.1568
10
1.5693
20
-22.3121
10
1.5311
20
-22.4645
10
1.4782
20
-22.6123
10
1.4111
20
-22.7542
10
1.3304
20
-22.8889
10
1.2368
20
-23.015
10
1.1314
20
-23.1314
10
1.015
20
-23.2368
10
0.8889
20
-23.3304
10
0.7542
20
-23.4111
10
0.6123
20
-23.4782
10
0.4645
20
-23.5311
10
0.3121
20
-23.5693
10
0.1568
20
-23.5923
10
0
20
-23.6
10
-0.1568
20
-23.5923
10
-0.3121
20
-23.5693
10
-0.4645
20
-23.5311
10
-0.6123
20
-23.4782
10
-0.7542
20
-23.4111
10
-0.8889
20
-23.3304
10
-1.015
20
-23.2368
10
-1.1314
20
-23.1314
10
-1.2368
20
-23.015
10
-1.3304
20
-22.8889
10
-1.4111
20
-22.7542
10
-1.4782
20
-22.6123
10
-1.5311
20
-22.4645
10
-1.5693
20
-22.3121
10
-1.5923
20
-22.1568
10
-1.6
20
-22
10
-1.5923
20
-21.8432
10
-1.5693
20
-21.6879
10
-1.5311
20
-21.5355
10
-1.4782
20
-21.3877
10
-1.4111
20
-21.2458
10
-1.3304
20
-21.1111
10
-1.2368
20
-20.985
10
-1.1314
20
-20.8686
10
-1.015
20
-20.7632
10
-0.8889
20
-20.6696
10
-0.7542
20
-20.5889
10
-0.6123
20
-20.5218
10
-0.4645
20
-20.4689
10
-0.3121
20
-20.4307
10
-0.1568
20
-20.4077
10
0
20
-20.4
10
0.1568
20
-20.4077
10
0.3121
20
-20.4307
10
0.4645
20
-20.4689
10
0.6123
20
-20.5218
10
0.7542
20
-20.5889
10
0.8889
20
-20.6696
10
1.015
20
-20.7632
10
1.1314
20
-20.8686
10
1.2368
20
-20.985
10
1.3304
20
-21.1111
10
1.4111
20
-21.2458
10
1.4782
20
-21.3877
10
1.5311
20
-21.5355
10
1.5693
20
-21.6879
0
LWPOLYLINE
8
05d_scoop_back_t26.0
100
AcDbEntity
100
AcDbPolyline
90
65
70
1
43
0.0
10
1.5923
20
22.1568
10
1.6
20
22
10
1.5923
20
21.8432
10
1.5693
20
21.6879
10
1.5311
20
21.5355
10
1.4782
20
21.3877
10
1.4111
20
21.2458
10
1.3304
20
21.1111
10
1.2368
20
20.985
10
1.1314
20
20.8686
10
1.015
20
20.7632
10
0.8889
20
20.6696
10
0.7542
20
20.5889
10
0.6123
20
20.5218
10
0.4645
20
20.4689
10
0.3121
20
20.4307
10
0.1568
20
20.4077
10
0
20
20.4
10
-0.1568
20
20.4077
10
-0.3121
20
20.4307
10
-0.4645
20
20.4689
10
-0.6123
20
20.5218
10
-0.7542
20
20.5889
10
-0.8889
20
20.6696
10
-1.015
20
20.7632
10
-1.1314
20
20.8686
10
-1.2368
20
20.985
10
-1.3304
20
21.1111
10
-1.4111
20
21.2458
10
-1.4782
20
21.3877
10
-1.5311
20
21.5355
10
-1.5693
20
21.6879
10
-1.5923
20
21.8432
10
-1.6
20
22
10
-1.5923
20
22.1568
10
-1.5693
20
22.3121
10
-1.5311
20
22.4645
10
-1.4782
20
22.6123
10
-1.4111
20
22.7542
10
-1.3304
20
22.8889
10
-1.2368
20
23.015
10
-1.1314
20
23.1314
10
-1.015
20
23.2368
10
-0.8889
20
23.3304
10
-0.7542
20
23.4111
10
-0.6123
20
23.4782
10
-0.4645
20
23.5311
10
-0.3121
20
23.5693
10
-0.1568
20
23.5923
10
0
20
23.6
10
0.1568
20
23.5923
10
0.3121
20
23.5693
10
0.4645
20
23.5311
10
0.6123
20
23.4782
10
0.7542
20
23.4111
10
0.8889
20
23.3304
10
1.015
20
23.2368
10
1.1314
20
23.1314
10
1.2368
20
23.015
10
1.3304
20
22.8889
10
1.4111
20
22.7542
10
1.4782
20
22.6123
10
1.5311
20
22.4645
10
1.5693
20
22.3121
10
1.5923
20
22.1568
0
ENDSEC
0
EOF
