0
SECTION
2
HEADER
9
$ACADVER
1
AC1015
9
$INSUNITS
70
4
0
ENDSEC
0
SECTION
2
ENTITIES
0
LWPOLYLINE
8
06_limit_lever_t4.0
100
AcDbEntity
100
AcDbPolyline
90
5
70
1
43
0.0
10
45
20
6
10
0
20
6
10
0
20
-6
10
45
20
-6
10
45
20
6
0
LWPOLYLINE
8
06_limit_lever_t4.0
100
AcDbEntity
100
AcDbPolyline
90
65
70
1
43
0.0
10
6.275
20
0.2536
10
6.2937
20
0.1274
10
6.3
20
0
10
6.2937
20
-0.1274
10
6.275
20
-0.2536
10
6.244
20
-0.3774
10
6.201
20
-0.4975
10
6.1465
20
-0.6128
10
6.0809
20
-0.7222
10
6.0049
20
-0.8247
10
5.9192
20
-0.9192
10
5.8247
20
-1.0049
10
5.7222
20
-1.0809
10
5.6128
20
-1.1465
10
5.4975
20
-1.201
10
5.3774
20
-1.244
10
5.2536
20
-1.275
10
5.1274
20
-1.2937
10
5
20
-1.3
10
4.8726
20
-1.2937
10
4.7464
20
-1.275
10
4.6226
20
-1.244
10
4.5025
20
-1.201
10
4.3872
20
-1.1465
10
4.2778
20
-1.0809
10
4.1753
20
-1.0049
10
4.0808
20
-0.9192
10
3.9951
20
-0.8247
10
3.9191
20
-0.7222
10
3.8535
20
-0.6128
10
3.799
20
-0.4975
10
3.756
20
-0.3774
10
3.725
20
-0.2536
10
3.7063
20
-0.1274
10
3.7
20
0
10
3.7063
20
0.1274
10
3.725
20
0.2536
10
3.756
20
0.3774
10
3.799
20
0.4975
10
3.8535
20
0.6128
10
3.9191
20
0.7222
10
3.9951
20
0.8247
10
4.0808
20
0.9192
10
4.1753
20
1.0049
10
4.2778
20
1.0809
10
4.3872
20
1.1465
10
4.5025
20
1.201
10
4.6226
20
1.244
10
4.7464
20
1.275
10
4.8726
20
1.2937
10
5
20
1.3
10
5.1274
20
1.2937
10
5.2536
20
1.275
10
5.3774
20
1.244
10
5.4975
20
1.201
10
5.6128
20
1.1465
10
5.7222
20
1.0809
10
5.8247
20
1.0049
10
5.9192
20
0.9192
10
6.0049
20
0.8247
10
6.0809
20
0.7222
10
6.1465
20
0.6128
10
6.201
20
0.4975
10
6.244
20
0.3774
10
6.275
20
0.2536
0
LWPOLYLINE
8
06_limit_lever_t4.0
100
AcDbEntity
100
AcDbPolyline
90
65
70
1
43
0.0
10
39.2937
20
0.1274
10
39.3
20
0
10
39.2937
20
-0.1274
10
39.275
20
-0.2536
10
39.244
20
-0.3774
10
39.201
20
-0.4975
10
39.1465
20
-0.6128
10
39.0809
20
-0.7222
10
39.0049
20
-0.8247
10
38.9192
20
-0.9192
10
38.8247
20
-1.0049
10
38.7222
20
-1.0809
10
38.6128
20
-1.1465
10
38.4975
20
-1.201
10
38.3774
20
-1.244
10
38.2536
20
-1.275
10
38.1274
20
-1.2937
10
38
20
-1.3
10
37.8726
20
-1.2937
10
37.7464
20
-1.275
10
37.6226
20
-1.244
10
37.5025
20
-1.201
10
37.3872
20
-1.1465
10
37.2778
20
-1.0809
10
37.1753
20
-1.0049
10
37.0808
20
-0.9192
10
36.9951
20
-0.8247
10
36.9191
20
-0.7222
10
36.8535
20
-0.6128
10
36.799
20
-0.4975
10
36.756
20
-0.3774
10
36.725
20
-0.2536
10
36.7063
20
-0.1274
10
36.7
20
0
10
36.7063
20
0.1274
10
36.725
20
0.2536
10
36.756
20
0.3774
10
36.799
20
0.4975
10
36.8535
20
0.6128
10
36.9191
20
0.7222
10
36.9951
20
0.8247
10
37.0808
20
0.9192
10
37.1753
20
1.0049
10
37.2778
20
1.0809
10
37.3872
20
1.1465
10
37.5025
20
1.201
10
37.6226
20
1.244
10
37.7464
20
1.275
10
37.8726
20
1.2937
10
38
20
1.3
10
38.1274
20
1.2937
10
38.2536
20
1.275
10
38.3774
20
1.244
10
38.4975
20
1.201
10
38.6128
20
1.1465
10
38.7222
20
1.0809
10
38.8247
20
1.0049
10
38.9192
20
0.9192
10
39.0049
20
0.8247
10
39.0809
20
0.7222
10
39.1465
20
0.6128
10
39.201
20
0.4975
10
39.244
20
0.3774
10
39.275
20
0.2536
10
39.2937
20
0.1274
0
ENDSEC
0
EOF
