0
SECTION
2
HEADER
9
$ACADVER
1
AC1015
9
$INSUNITS
70
4
0
ENDSEC
0
SECTION
2
ENTITIES
0
LWPOLYLINE
8
08_grip_finger_R_t6.0
100
AcDbEntity
100
AcDbPolyline
90
8
70
1
43
0.0
10
-46.5
20
-4.5
10
-43.5
20
-10.5
10
-34.5
20
-6
10
-0
20
-6
10
-0
20
6
10
-34.5
20
6
10
-42
20
1.5
10
-46.5
20
-4.5
0
LWPOLYLINE
8
08_grip_finger_R_t6.0
100
AcDbEntity
100
AcDbPolyline
90
65
70
1
43
0.0
10
-4.756
20
0.3774
10
-4.725
20
0.2536
10
-4.7063
20
0.1274
10
-4.7
20
0
10
-4.7063
20
-0.1274
10
-4.725
20
-0.2536
10
-4.756
20
-0.3774
10
-4.799
20
-0.4975
10
-4.8535
20
-0.6128
10
-4.9191
20
-0.7222
10
-4.9951
20
-0.8247
10
-5.0808
20
-0.9192
10
-5.1753
20
-1.0049
10
-5.2778
20
-1.0809
10
-5.3872
20
-1.1465
10
-5.5025
20
-1.201
10
-5.6226
20
-1.244
10
-5.7464
20
-1.275
10
-5.8726
20
-1.2937
10
-6
20
-1.3
10
-6.1274
20
-1.2937
10
-6.2536
20
-1.275
10
-6.3774
20
-1.244
10
-6.4975
20
-1.201
10
-6.6128
20
-1.1465
10
-6.7222
20
-1.0809
10
-6.8247
20
-1.0049
10
-6.9192
20
-0.9192
10
-7.0049
20
-0.8247
10
-7.0809
20
-0.7222
10
-7.1465
20
-0.6128
10
-7.201
20
-0.4975
10
-7.244
20
-0.3774
10
-7.275
20
-0.2536
10
-7.2937
20
-0.1274
10
-7.3
20
0
10
-7.2937
20
0.1274
10
-7.275
20
0.2536
10
-7.244
20
0.3774
10
-7.201
20
0.4975
10
-7.1465
20
0.6128
10
-7.0809
20
0.7222
10
-7.0049
20
0.8247
10
-6.9192
20
0.9192
10
-6.8247
20
1.0049
10
-6.7222
20
1.0809
10
-6.6128
20
1.1465
10
-6.4975
20
1.201
10
-6.3774
20
1.244
10
-6.2536
20
1.275
10
-6.1274
20
1.2937
10
-6
20
1.3
10
-5.8726
20
1.2937
10
-5.7464
20
1.275
10
-5.6226
20
1.244
10
-5.5025
20
1.201
10
-5.3872
20
1.1465
10
-5.2778
20
1.0809
10
-5.1753
20
1.0049
10
-5.0808
20
0.9192
10
-4.9951
20
0.8247
10
-4.9191
20
0.7222
10
-4.8535
20
0.6128
10
-4.799
20
0.4975
10
-4.756
20
0.3774
0
LWPOLYLINE
8
08_grip_finger_R_t6.0
100
AcDbEntity
100
AcDbPolyline
90
65
70
1
43
0.0
10
-16.4307
20
0.3121
10
-16.4077
20
0.1568
10
-16.4
20
0
10
-16.4077
20
-0.1568
10
-16.4307
20
-0.3121
10
-16.4689
20
-0.4645
10
-16.5218
20
-0.6123
10
-16.5889
20
-0.7542
10
-16.6696
20
-0.8889
10
-16.7632
20
-1.015
10
-16.8686
20
-1.1314
10
-16.985
20
-1.2368
10
-17.1111
20
-1.3304
10
-17.2458
20
-1.4111
10
-17.3877
20
-1.4782
10
-17.5355
20
-1.5311
10
-17.6879
20
-1.5693
10
-17.8432
20
-1.5923
10
-18
20
-1.6
10
-18.1568
20
-1.5923
10
-18.3121
20
-1.5693
10
-18.4645
20
-1.5311
10
-18.6123
20
-1.4782
10
-18.7542
20
-1.4111
10
-18.8889
20
-1.3304
10
-19.015
20
-1.2368
10
-19.1314
20
-1.1314
10
-19.2368
20
-1.015
10
-19.3304
20
-0.8889
10
-19.4111
20
-0.7542
10
-19.4782
20
-0.6123
10
-19.5311
20
-0.4645
10
-19.5693
20
-0.3121
10
-19.5923
20
-0.1568
10
-19.6
20
0
10
-19.5923
20
0.1568
10
-19.5693
20
0.3121
10
-19.5311
20
0.4645
10
-19.4782
20
0.6123
10
-19.4111
20
0.7542
10
-19.3304
20
0.8889
10
-19.2368
20
1.015
10
-19.1314
20
1.1314
10
-19.015
20
1.2368
10
-18.8889
20
1.3304
10
-18.7542
20
1.4111
10
-18.6123
20
1.4782
10
-18.4645
20
1.5311
10
-18.3121
20
1.5693
10
-18.1568
20
1.5923
10
-18
20
1.6
10
-17.8432
20
1.5923
10
-17.6879
20
1.5693
10
-17.5355
20
1.5311
10
-17.3877
20
1.4782
10
-17.2458
20
1.4111
10
-17.1111
20
1.3304
10
-16.985
20
1.2368
10
-16.8686
20
1.1314
10
-16.7632
20
1.015
10
-16.6696
20
0.8889
10
-16.5889
20
0.7542
10
-16.5218
20
0.6123
10
-16.4689
20
0.4645
10
-16.4307
20
0.3121
0
LWPOLYLINE
8
08_grip_finger_R_t6.0
100
AcDbEntity
100
AcDbPolyline
90
65
70
1
43
0.0
10
-28.0096
20
0.196
10
-28
20
0
10
-28.0096
20
-0.196
10
-28.0384
20
-0.3902
10
-28.0861
20
-0.5806
10
-28.1522
20
-0.7654
10
-28.2362
20
-0.9428
10
-28.3371
20
-1.1111
10
-28.454
20
-1.2688
10
-28.5858
20
-1.4142
10
-28.7312
20
-1.546
10
-28.8889
20
-1.6629
10
-29.0572
20
-1.7638
10
-29.2346
20
-1.8478
10
-29.4194
20
-1.9139
10
-29.6098
20
-1.9616
10
-29.804
20
-1.9904
10
-30
20
-2
10
-30.196
20
-1.9904
10
-30.3902
20
-1.9616
10
-30.5806
20
-1.9139
10
-30.7654
20
-1.8478
10
-30.9428
20
-1.7638
10
-31.1111
20
-1.6629
10
-31.2688
20
-1.546
10
-31.4142
20
-1.4142
10
-31.546
20
-1.2688
10
-31.6629
20
-1.1111
10
-31.7638
20
-0.9428
10
-31.8478
20
-0.7654
10
-31.9139
20
-0.5806
10
-31.9616
20
-0.3902
10
-31.9904
20
-0.196
10
-32
20
0
10
-31.9904
20
0.196
10
-31.9616
20
0.3902
10
-31.9139
20
0.5806
10
-31.8478
20
0.7654
10
-31.7638
20
0.9428
10
-31.6629
20
1.1111
10
-31.546
20
1.2688
10
-31.4142
20
1.4142
10
-31.2688
20
1.546
10
-31.1111
20
1.6629
10
-30.9428
20
1.7638
10
-30.7654
20
1.8478
10
-30.5806
20
1.9139
10
-30.3902
20
1.9616
10
-30.196
20
1.9904
10
-30
20
2
10
-29.804
20
1.9904
10
-29.6098
20
1.9616
10
-29.4194
20
1.9139
10
-29.2346
20
1.8478
10
-29.0572
20
1.7638
10
-28.8889
20
1.6629
10
-28.7312
20
1.546
10
-28.5858
20
1.4142
10
-28.454
20
1.2688
10
-28.3371
20
1.1111
10
-28.2362
20
0.9428
10
-28.1522
20
0.7654
10
-28.0861
20
0.5806
10
-28.0384
20
0.3902
10
-28.0096
20
0.196
0
ENDSEC
0
EOF
