0
SECTION
2
HEADER
9
$ACADVER
1
AC1015
9
$INSUNITS
70
4
0
ENDSEC
0
SECTION
2
ENTITIES
0
LWPOLYLINE
8
09_arm_upper_t8.0
100
AcDbEntity
100
AcDbPolyline
90
7
70
1
43
0.0
10
0
20
-12
10
86
20
-12
10
92
20
-4
10
92
20
4
10
86
20
12
10
0
20
12
10
0
20
-12
0
LWPOLYLINE
8
09_arm_upper_t8.0
100
AcDbEntity
100
AcDbPolyline
90
65
70
1
43
0.0
10
9.3304
20
0.8889
10
9.4111
20
0.7542
10
9.4782
20
0.6123
10
9.5311
20
0.4645
10
9.5693
20
0.3121
10
9.5923
20
0.1568
10
9.6
20
0
10
9.5923
20
-0.1568
10
9.5693
20
-0.3121
10
9.5311
20
-0.4645
10
9.4782
20
-0.6123
10
9.4111
20
-0.7542
10
9.3304
20
-0.8889
10
9.2368
20
-1.015
10
9.1314
20
-1.1314
10
9.015
20
-1.2368
10
8.8889
20
-1.3304
10
8.7542
20
-1.4111
10
8.6123
20
-1.4782
10
8.4645
20
-1.5311
10
8.3121
20
-1.5693
10
8.1568
20
-1.5923
10
8
20
-1.6
10
7.8432
20
-1.5923
10
7.6879
20
-1.5693
10
7.5355
20
-1.5311
10
7.3877
20
-1.4782
10
7.2458
20
-1.4111
10
7.1111
20
-1.3304
10
6.985
20
-1.2368
10
6.8686
20
-1.1314
10
6.7632
20
-1.015
10
6.6696
20
-0.8889
10
6.5889
20
-0.7542
10
6.5218
20
-0.6123
10
6.4689
20
-0.4645
10
6.4307
20
-0.3121
10
6.4077
20
-0.1568
10
6.4
20
0
10
6.4077
20
0.1568
10
6.4307
20
0.3121
10
6.4689
20
0.4645
10
6.5218
20
0.6123
10
6.5889
20
0.7542
10
6.6696
20
0.8889
10
6.7632
20
1.015
10
6.8686
20
1.1314
10
6.985
20
1.2368
10
7.1111
20
1.3304
10
7.2458
20
1.4111
10
7.3877
20
1.4782
10
7.5355
20
1.5311
10
7.6879
20
1.5693
10
7.8432
20
1.5923
10
8
20
1.6
10
8.1568
20
1.5923
10
8.3121
20
1.5693
10
8.4645
20
1.5311
10
8.6123
20
1.4782
10
8.7542
20
1.4111
10
8.8889
20
1.3304
10
9.015
20
1.2368
10
9.1314
20
1.1314
10
9.2368
20
1.015
10
9.3304
20
0.8889
0
LWPOLYLINE
8
09_arm_upper_t8.0
100
AcDbEntity
100
AcDbPolyline
90
65
70
1
43
0.0
10
21.4111
20
0.7542
10
21.4782
20
0.6123
10
21.5311
20
0.4645
10
21.5693
20
0.3121
10
21.5923
20
0.1568
10
21.6
20
0
10
21.5923
20
-0.1568
10
21.5693
20
-0.3121
10
21.5311
20
-0.4645
10
21.4782
20
-0.6123
10
21.4111
20
-0.7542
10
21.3304
20
-0.8889
10
21.2368
20
-1.015
10
21.1314
20
-1.1314
10
21.015
20
-1.2368
10
20.8889
20
-1.3304
10
20.7542
20
-1.4111
10
20.6123
20
-1.4782
10
20.4645
20
-1.5311
10
20.3121
20
-1.5693
10
20.1568
20
-1.5923
10
20
20
-1.6
10
19.8432
20
-1.5923
10
19.6879
20
-1.5693
10
19.5355
20
-1.5311
10
19.3877
20
-1.4782
10
19.2458
20
-1.4111
10
19.1111
20
-1.3304
10
18.985
20
-1.2368
10
18.8686
20
-1.1314
10
18.7632
20
-1.015
10
18.6696
20
-0.8889
10
18.5889
20
-0.7542
10
18.5218
20
-0.6123
10
18.4689
20
-0.4645
10
18.4307
20
-0.3121
10
18.4077
20
-0.1568
10
18.4
20
0
10
18.4077
20
0.1568
10
18.4307
20
0.3121
10
18.4689
20
0.4645
10
18.5218
20
0.6123
10
18.5889
20
0.7542
10
18.6696
20
0.8889
10
18.7632
20
1.015
10
18.8686
20
1.1314
10
18.985
20
1.2368
10
19.1111
20
1.3304
10
19.2458
20
1.4111
10
19.3877
20
1.4782
10
19.5355
20
1.5311
10
19.6879
20
1.5693
10
19.8432
20
1.5923
10
20
20
1.6
10
20.1568
20
1.5923
10
20.3121
20
1.5693
10
20.4645
20
1.5311
10
20.6123
20
1.4782
10
20.7542
20
1.4111
10
20.8889
20
1.3304
10
21.015
20
1.2368
10
21.1314
20
1.1314
10
21.2368
20
1.015
10
21.3304
20
0.8889
10
21.4111
20
0.7542
0
LWPOLYLINE
8
09_arm_upper_t8.0
100
AcDbEntity
100
AcDbPolyline
90
65
70
1
43
0.0
10
38.6194
20
1.9134
10
38.7847
20
1.4514
10
38.9039
20
0.9755
10
38.9759
20
0.4901
10
39
20
0
10
38.9759
20
-0.4901
10
38.9039
20
-0.9755
10
38.7847
20
-1.4514
10
38.6194
20
-1.9134
10
38.4096
20
-2.357
10
38.1573
20
-2.7779
10
37.8651
20
-3.172
10
37.5355
20
-3.5355
10
37.172
20
-3.8651
10
36.7779
20
-4.1573
10
36.357
20
-4.4096
10
35.9134
20
-4.6194
10
35.4514
20
-4.7847
10
34.9755
20
-4.9039
10
34.4901
20
-4.9759
10
34
20
-5
10
33.5099
20
-4.9759
10
33.0245
20
-4.9039
10
32.5486
20
-4.7847
10
32.0866
20
-4.6194
10
31.643
20
-4.4096
10
31.2221
20
-4.1573
10
30.828
20
-3.8651
10
30.4645
20
-3.5355
10
30.1349
20
-3.172
10
29.8427
20
-2.7779
10
29.5904
20
-2.357
10
29.3806
20
-1.9134
10
29.2153
20
-1.4514
10
29.0961
20
-0.9755
10
29.0241
20
-0.4901
10
29
20
0
10
29.0241
20
0.4901
10
29.0961
20
0.9755
10
29.2153
20
1.4514
10
29.3806
20
1.9134
10
29.5904
20
2.357
10
29.8427
20
2.7779
10
30.1349
20
3.172
10
30.4645
20
3.5355
10
30.828
20
3.8651
10
31.2221
20
4.1573
10
31.643
20
4.4096
10
32.0866
20
4.6194
10
32.5486
20
4.7847
10
33.0245
20
4.9039
10
33.5099
20
4.9759
10
34
20
5
10
34.4901
20
4.9759
10
34.9755
20
4.9039
10
35.4514
20
4.7847
10
35.9134
20
4.6194
10
36.357
20
4.4096
10
36.7779
20
4.1573
10
37.172
20
3.8651
10
37.5355
20
3.5355
10
37.8651
20
3.172
10
38.1573
20
2.7779
10
38.4096
20
2.357
10
38.6194
20
1.9134
0
LWPOLYLINE
8
09_arm_upper_t8.0
100
AcDbEntity
100
AcDbPolyline
90
65
70
1
43
0.0
10
56.7847
20
1.4514
10
56.9039
20
0.9755
10
56.9759
20
0.4901
10
57
20
0
10
56.9759
20
-0.4901
10
56.9039
20
-0.9755
10
56.7847
20
-1.4514
10
56.6194
20
-1.9134
10
56.4096
20
-2.357
10
56.1573
20
-2.7779
10
55.8651
20
-3.172
10
55.5355
20
-3.5355
10
55.172
20
-3.8651
10
54.7779
20
-4.1573
10
54.357
20
-4.4096
10
53.9134
20
-4.6194
10
53.4514
20
-4.7847
10
52.9755
20
-4.9039
10
52.4901
20
-4.9759
10
52
20
-5
10
51.5099
20
-4.9759
10
51.0245
20
-4.9039
10
50.5486
20
-4.7847
10
50.0866
20
-4.6194
10
49.643
20
-4.4096
10
49.2221
20
-4.1573
10
48.828
20
-3.8651
10
48.4645
20
-3.5355
10
48.1349
20
-3.172
10
47.8427
20
-2.7779
10
47.5904
20
-2.357
10
47.3806
20
-1.9134
10
47.2153
20
-1.4514
10
47.0961
20
-0.9755
10
47.0241
20
-0.4901
10
47
20
0
10
47.0241
20
0.4901
10
47.0961
20
0.9755
10
47.2153
20
1.4514
10
47.3806
20
1.9134
10
47.5904
20
2.357
10
47.8427
20
2.7779
10
48.1349
20
3.172
10
48.4645
20
3.5355
10
48.828
20
3.8651
10
49.2221
20
4.1573
10
49.643
20
4.4096
10
50.0866
20
4.6194
10
50.5486
20
4.7847
10
51.0245
20
4.9039
10
51.5099
20
4.9759
10
52
20
5
10
52.4901
20
4.9759
10
52.9755
20
4.9039
10
53.4514
20
4.7847
10
53.9134
20
4.6194
10
54.357
20
4.4096
10
54.7779
20
4.1573
10
55.172
20
3.8651
10
55.5355
20
3.5355
10
55.8651
20
3.172
10
56.1573
20
2.7779
10
56.4096
20
2.357
10
56.6194
20
1.9134
10
56.7847
20
1.4514
0
LWPOLYLINE
8
09_arm_upper_t8.0
100
AcDbEntity
100
AcDbPolyline
90
65
70
1
43
0.0
10
74.9039
20
0.9755
10
74.9759
20
0.4901
10
75
20
0
10
74.9759
20
-0.4901
10
74.9039
20
-0.9755
10
74.7847
20
-1.4514
10
74.6194
20
-1.9134
10
74.4096
20
-2.357
10
74.1573
20
-2.7779
10
73.8651
20
-3.172
10
73.5355
20
-3.5355
10
73.172
20
-3.8651
10
72.7779
20
-4.1573
10
72.357
20
-4.4096
10
71.9134
20
-4.6194
10
71.4514
20
-4.7847
10
70.9755
20
-4.9039
10
70.4901
20
-4.9759
10
70
20
-5
10
69.5099
20
-4.9759
10
69.0245
20
-4.9039
10
68.5486
20
-4.7847
10
68.0866
20
-4.6194
10
67.643
20
-4.4096
10
67.2221
20
-4.1573
10
66.828
20
-3.8651
10
66.4645
20
-3.5355
10
66.1349
20
-3.172
10
65.8427
20
-2.7779
10
65.5904
20
-2.357
10
65.3806
20
-1.9134
10
65.2153
20
-1.4514
10
65.0961
20
-0.9755
10
65.0241
20
-0.4901
10
65
20
0
10
65.0241
20
0.4901
10
65.0961
20
0.9755
10
65.2153
20
1.4514
10
65.3806
20
1.9134
10
65.5904
20
2.357
10
65.8427
20
2.7779
10
66.1349
20
3.172
10
66.4645
20
3.5355
10
66.828
20
3.8651
10
67.2221
20
4.1573
10
67.643
20
4.4096
10
68.0866
20
4.6194
10
68.5486
20
4.7847
10
69.0245
20
4.9039
10
69.5099
20
4.9759
10
70
20
5
10
70.4901
20
4.9759
10
70.9755
20
4.9039
10
71.4514
20
4.7847
10
71.9134
20
4.6194
10
72.357
20
4.4096
10
72.7779
20
4.1573
10
73.172
20
3.8651
10
73.5355
20
3.5355
10
73.8651
20
3.172
10
74.1573
20
2.7779
10
74.4096
20
2.357
10
74.6194
20
1.9134
10
74.7847
20
1.4514
10
74.9039
20
0.9755
0
LWPOLYLINE
8
09_arm_upper_t8.0
100
AcDbEntity
100
AcDbPolyline
90
65
70
1
43
0.0
10
87.5923
20
0.1568
10
87.6
20
0
10
87.5923
20
-0.1568
10
87.5693
20
-0.3121
10
87.5311
20
-0.4645
10
87.4782
20
-0.6123
10
87.4111
20
-0.7542
10
87.3304
20
-0.8889
10
87.2368
20
-1.015
10
87.1314
20
-1.1314
10
87.015
20
-1.2368
10
86.8889
20
-1.3304
10
86.7542
20
-1.4111
10
86.6123
20
-1.4782
10
86.4645
20
-1.5311
10
86.3121
20
-1.5693
10
86.1568
20
-1.5923
10
86
20
-1.6
10
85.8432
20
-1.5923
10
85.6879
20
-1.5693
10
85.5355
20
-1.5311
10
85.3877
20
-1.4782
10
85.2458
20
-1.4111
10
85.1111
20
-1.3304
10
84.985
20
-1.2368
10
84.8686
20
-1.1314
10
84.7632
20
-1.015
10
84.6696
20
-0.8889
10
84.5889
20
-0.7542
10
84.5218
20
-0.6123
10
84.4689
20
-0.4645
10
84.4307
20
-0.3121
10
84.4077
20
-0.1568
10
84.4
20
0
10
84.4077
20
0.1568
10
84.4307
20
0.3121
10
84.4689
20
0.4645
10
84.5218
20
0.6123
10
84.5889
20
0.7542
10
84.6696
20
0.8889
10
84.7632
20
1.015
10
84.8686
20
1.1314
10
84.985
20
1.2368
10
85.1111
20
1.3304
10
85.2458
20
1.4111
10
85.3877
20
1.4782
10
85.5355
20
1.5311
10
85.6879
20
1.5693
10
85.8432
20
1.5923
10
86
20
1.6
10
86.1568
20
1.5923
10
86.3121
20
1.5693
10
86.4645
20
1.5311
10
86.6123
20
1.4782
10
86.7542
20
1.4111
10
86.8889
20
1.3304
10
87.015
20
1.2368
10
87.1314
20
1.1314
10
87.2368
20
1.015
10
87.3304
20
0.8889
10
87.4111
20
0.7542
10
87.4782
20
0.6123
10
87.5311
20
0.4645
10
87.5693
20
0.3121
10
87.5923
20
0.1568
0
ENDSEC
0
EOF
