0
SECTION
2
HEADER
9
$ACADVER
1
AC1015
9
$INSUNITS
70
4
0
ENDSEC
0
SECTION
2
ENTITIES
0
LWPOLYLINE
8
10_arm_fore_t6.0
100
AcDbEntity
100
AcDbPolyline
90
8
70
1
43
0.0
10
64
20
6
10
58
20
9
10
0
20
9
10
0
20
-9
10
58
20
-9
10
66
20
-14
10
70
20
-6
10
64
20
6
0
LWPOLYLINE
8
10_arm_fore_t6.0
100
AcDbEntity
100
AcDbPolyline
90
65
70
1
43
0.0
10
8.244
20
0.3774
10
8.275
20
0.2536
10
8.2937
20
0.1274
10
8.3
20
0
10
8.2937
20
-0.1274
10
8.275
20
-0.2536
10
8.244
20
-0.3774
10
8.201
20
-0.4975
10
8.1465
20
-0.6128
10
8.0809
20
-0.7222
10
8.0049
20
-0.8247
10
7.9192
20
-0.9192
10
7.8247
20
-1.0049
10
7.7222
20
-1.0809
10
7.6128
20
-1.1465
10
7.4975
20
-1.201
10
7.3774
20
-1.244
10
7.2536
20
-1.275
10
7.1274
20
-1.2937
10
7
20
-1.3
10
6.8726
20
-1.2937
10
6.7464
20
-1.275
10
6.6226
20
-1.244
10
6.5025
20
-1.201
10
6.3872
20
-1.1465
10
6.2778
20
-1.0809
10
6.1753
20
-1.0049
10
6.0808
20
-0.9192
10
5.9951
20
-0.8247
10
5.9191
20
-0.7222
10
5.8535
20
-0.6128
10
5.799
20
-0.4975
10
5.756
20
-0.3774
10
5.725
20
-0.2536
10
5.7063
20
-0.1274
10
5.7
20
0
10
5.7063
20
0.1274
10
5.725
20
0.2536
10
5.756
20
0.3774
10
5.799
20
0.4975
10
5.8535
20
0.6128
10
5.9191
20
0.7222
10
5.9951
20
0.8247
10
6.0808
20
0.9192
10
6.1753
20
1.0049
10
6.2778
20
1.0809
10
6.3872
20
1.1465
10
6.5025
20
1.201
10
6.6226
20
1.244
10
6.7464
20
1.275
10
6.8726
20
1.2937
10
7
20
1.3
10
7.1274
20
1.2937
10
7.2536
20
1.275
10
7.3774
20
1.244
10
7.4975
20
1.201
10
7.6128
20
1.1465
10
7.7222
20
1.0809
10
7.8247
20
1.0049
10
7.9192
20
0.9192
10
8.0049
20
0.8247
10
8.0809
20
0.7222
10
8.1465
20
0.6128
10
8.201
20
0.4975
10
8.244
20
0.3774
0
LWPOLYLINE
8
10_arm_fore_t6.0
100
AcDbEntity
100
AcDbPolyline
90
65
70
1
43
0.0
10
27.9231
20
0.7804
10
27.9807
20
0.3921
10
28
20
0
10
27.9807
20
-0.3921
10
27.9231
20
-0.7804
10
27.8278
20
-1.1611
10
27.6955
20
-1.5307
10
27.5277
20
-1.8856
10
27.3259
20
-2.2223
10
27.092
20
-2.5376
10
26.8284
20
-2.8284
10
26.5376
20
-3.092
10
26.2223
20
-3.3259
10
25.8856
20
-3.5277
10
25.5307
20
-3.6955
10
25.1611
20
-3.8278
10
24.7804
20
-3.9231
10
24.3921
20
-3.9807
10
24
20
-4
10
23.6079
20
-3.9807
10
23.2196
20
-3.9231
10
22.8389
20
-3.8278
10
22.4693
20
-3.6955
10
22.1144
20
-3.5277
10
21.7777
20
-3.3259
10
21.4624
20
-3.092
10
21.1716
20
-2.8284
10
20.908
20
-2.5376
10
20.6741
20
-2.2223
10
20.4723
20
-1.8856
10
20.3045
20
-1.5307
10
20.1722
20
-1.1611
10
20.0769
20
-0.7804
10
20.0193
20
-0.3921
10
20
20
0
10
20.0193
20
0.3921
10
20.0769
20
0.7804
10
20.1722
20
1.1611
10
20.3045
20
1.5307
10
20.4723
20
1.8856
10
20.6741
20
2.2223
10
20.908
20
2.5376
10
21.1716
20
2.8284
10
21.4624
20
3.092
10
21.7777
20
3.3259
10
22.1144
20
3.5277
10
22.4693
20
3.6955
10
22.8389
20
3.8278
10
23.2196
20
3.9231
10
23.6079
20
3.9807
10
24
20
4
10
24.3921
20
3.9807
10
24.7804
20
3.9231
10
25.1611
20
3.8278
10
25.5307
20
3.6955
10
25.8856
20
3.5277
10
26.2223
20
3.3259
10
26.5376
20
3.092
10
26.8284
20
2.8284
10
27.092
20
2.5376
10
27.3259
20
2.2223
10
27.5277
20
1.8856
10
27.6955
20
1.5307
10
27.8278
20
1.1611
10
27.9231
20
0.7804
0
LWPOLYLINE
8
10_arm_fore_t6.0
100
AcDbEntity
100
AcDbPolyline
90
65
70
1
43
0.0
10
47.9807
20
0.3921
10
48
20
0
10
47.9807
20
-0.3921
10
47.9231
20
-0.7804
10
47.8278
20
-1.1611
10
47.6955
20
-1.5307
10
47.5277
20
-1.8856
10
47.3259
20
-2.2223
10
47.092
20
-2.5376
10
46.8284
20
-2.8284
10
46.5376
20
-3.092
10
46.2223
20
-3.3259
10
45.8856
20
-3.5277
10
45.5307
20
-3.6955
10
45.1611
20
-3.8278
10
44.7804
20
-3.9231
10
44.3921
20
-3.9807
10
44
20
-4
10
43.6079
20
-3.9807
10
43.2196
20
-3.9231
10
42.8389
20
-3.8278
10
42.4693
20
-3.6955
10
42.1144
20
-3.5277
10
41.7777
20
-3.3259
10
41.4624
20
-3.092
10
41.1716
20
-2.8284
10
40.908
20
-2.5376
10
40.6741
20
-2.2223
10
40.4723
20
-1.8856
10
40.3045
20
-1.5307
10
40.1722
20
-1.1611
10
40.0769
20
-0.7804
10
40.0193
20
-0.3921
10
40
20
0
10
40.0193
20
0.3921
10
40.0769
20
0.7804
10
40.1722
20
1.1611
10
40.3045
20
1.5307
10
40.4723
20
1.8856
10
40.6741
20
2.2223
10
40.908
20
2.5376
10
41.1716
20
2.8284
10
41.4624
20
3.092
10
41.7777
20
3.3259
10
42.1144
20
3.5277
10
42.4693
20
3.6955
10
42.8389
20
3.8278
10
43.2196
20
3.9231
10
43.6079
20
3.9807
10
44
20
4
10
44.3921
20
3.9807
10
44.7804
20
3.9231
10
45.1611
20
3.8278
10
45.5307
20
3.6955
10
45.8856
20
3.5277
10
46.2223
20
3.3259
10
46.5376
20
3.092
10
46.8284
20
2.8284
10
47.092
20
2.5376
10
47.3259
20
2.2223
10
47.5277
20
1.8856
10
47.6955
20
1.5307
10
47.8278
20
1.1611
10
47.9231
20
0.7804
10
47.9807
20
0.3921
0
ENDSEC
0
EOF
