0
SECTION
2
HEADER
9
$ACADVER
1
AC1015
9
$INSUNITS
70
4
0
ENDSEC
0
SECTION
2
ENTITIES
0
LWPOLYLINE
8
11_servo_horn_plate_t3.0
100
AcDbEntity
100
AcDbPolyline
90
65
70
1
43
0.0
10
14.1107
20
-7.5423
10
14.7821
20
-6.1229
10
15.311
20
-4.6446
10
15.6926
20
-3.1214
10
15.923
20
-1.5683
10
16
20
0
10
15.923
20
1.5683
10
15.6926
20
3.1214
10
15.311
20
4.6446
10
14.7821
20
6.1229
10
14.1107
20
7.5423
10
13.3035
20
8.8891
10
12.3682
20
10.1503
10
11.3137
20
11.3137
10
10.1503
20
12.3682
10
8.8891
20
13.3035
10
7.5423
20
14.1107
10
6.1229
20
14.7821
10
4.6446
20
15.311
10
3.1214
20
15.6926
10
1.5683
20
15.923
10
0
20
16
10
-1.5683
20
15.923
10
-3.1214
20
15.6926
10
-4.6446
20
15.311
10
-6.1229
20
14.7821
10
-7.5423
20
14.1107
10
-8.8891
20
13.3035
10
-10.1503
20
12.3682
10
-11.3137
20
11.3137
10
-12.3682
20
10.1503
10
-13.3035
20
8.8891
10
-14.1107
20
7.5423
10
-14.7821
20
6.1229
10
-15.311
20
4.6446
10
-15.6926
20
3.1214
10
-15.923
20
1.5683
10
-16
20
0
10
-15.923
20
-1.5683
10
-15.6926
20
-3.1214
10
-15.311
20
-4.6446
10
-14.7821
20
-6.1229
10
-14.1107
20
-7.5423
10
-13.3035
20
-8.8891
10
-12.3682
20
-10.1503
10
-11.3137
20
-11.3137
10
-10.1503
20
-12.3682
10
-8.8891
20
-13.3035
10
-7.5423
20
-14.1107
10
-6.1229
20
-14.7821
10
-4.6446
20
-15.311
10
-3.1214
20
-15.6926
10
-1.5683
20
-15.923
10
0
20
-16
10
1.5683
20
-15.923
10
3.1214
20
-15.6926
10
4.6446
20
-15.311
10
6.1229
20
-14.7821
10
7.5423
20
-14.1107
10
8.8891
20
-13.3035
10
10.1503
20
-12.3682
10
11.3137
20
-11.3137
10
12.3682
20
-10.1503
10
13.3035
20
-8.8891
10
14.1107
20
-7.5423
0
LWPOLYLINE
8
11_servo_horn_plate_t3.0
100
AcDbEntity
100
AcDbPolyline
90
65
70
1
43
0.0
10
-7.0299
20
-7.4815
10
-6.9837
20
-7.579
10
-6.9474
20
-7.6807
10
-6.9211
20
-7.7854
10
-6.9053
20
-7.8922
10
-6.9
20
-8
10
-6.9053
20
-8.1078
10
-6.9211
20
-8.2146
10
-6.9474
20
-8.3193
10
-6.9837
20
-8.421
10
-7.0299
20
-8.5185
10
-7.0854
20
-8.6111
10
-7.1497
20
-8.6978
10
-7.2222
20
-8.7778
10
-7.3022
20
-8.8503
10
-7.3889
20
-8.9146
10
-7.4815
20
-8.9701
10
-7.579
20
-9.0163
10
-7.6807
20
-9.0526
10
-7.7854
20
-9.0789
10
-7.8922
20
-9.0947
10
-8
20
-9.1
10
-8.1078
20
-9.0947
10
-8.2146
20
-9.0789
10
-8.3193
20
-9.0526
10
-8.421
20
-9.0163
10
-8.5185
20
-8.9701
10
-8.6111
20
-8.9146
10
-8.6978
20
-8.8503
10
-8.7778
20
-8.7778
10
-8.8503
20
-8.6978
10
-8.9146
20
-8.6111
10
-8.9701
20
-8.5185
10
-9.0163
20
-8.421
10
-9.0526
20
-8.3193
10
-9.0789
20
-8.2146
10
-9.0947
20
-8.1078
10
-9.1
20
-8
10
-9.0947
20
-7.8922
10
-9.0789
20
-7.7854
10
-9.0526
20
-7.6807
10
-9.0163
20
-7.579
10
-8.9701
20
-7.4815
10
-8.9146
20
-7.3889
10
-8.8503
20
-7.3022
10
-8.7778
20
-7.2222
10
-8.6978
20
-7.1497
10
-8.6111
20
-7.0854
10
-8.5185
20
-7.0299
10
-8.421
20
-6.9837
10
-8.3193
20
-6.9474
10
-8.2146
20
-6.9211
10
-8.1078
20
-6.9053
10
-8
20
-6.9
10
-7.8922
20
-6.9053
10
-7.7854
20
-6.9211
10
-7.6807
20
-6.9474
10
-7.579
20
-6.9837
10
-7.4815
20
-7.0299
10
-7.3889
20
-7.0854
10
-7.3022
20
-7.1497
10
-7.2222
20
-7.2222
10
-7.1497
20
-7.3022
10
-7.0854
20
-7.3889
10
-7.0299
20
-7.4815
0
LWPOLYLINE
8
11_servo_horn_plate_t3.0
100
AcDbEntity
100
AcDbPolyline
90
65
70
1
43
0.0
10
9.0163
20
-7.579
10
9.0526
20
-7.6807
10
9.0789
20
-7.7854
10
9.0947
20
-7.8922
10
9.1
20
-8
10
9.0947
20
-8.1078
10
9.0789
20
-8.2146
10
9.0526
20
-8.3193
10
9.0163
20
-8.421
10
8.9701
20
-8.5185
10
8.9146
20
-8.6111
10
8.8503
20
-8.6978
10
8.7778
20
-8.7778
10
8.6978
20
-8.8503
10
8.6111
20
-8.9146
10
8.5185
20
-8.9701
10
8.421
20
-9.0163
10
8.3193
20
-9.0526
10
8.2146
20
-9.0789
10
8.1078
20
-9.0947
10
8
20
-9.1
10
7.8922
20
-9.0947
10
7.7854
20
-9.0789
10
7.6807
20
-9.0526
10
7.579
20
-9.0163
10
7.4815
20
-8.9701
10
7.3889
20
-8.9146
10
7.3022
20
-8.8503
10
7.2222
20
-8.7778
10
7.1497
20
-8.6978
10
7.0854
20
-8.6111
10
7.0299
20
-8.5185
10
6.9837
20
-8.421
10
6.9474
20
-8.3193
10
6.9211
20
-8.2146
10
6.9053
20
-8.1078
10
6.9
20
-8
10
6.9053
20
-7.8922
10
6.9211
20
-7.7854
10
6.9474
20
-7.6807
10
6.9837
20
-7.579
10
7.0299
20
-7.4815
10
7.0854
20
-7.3889
10
7.1497
20
-7.3022
10
7.2222
20
-7.2222
10
7.3022
20
-7.1497
10
7.3889
20
-7.0854
10
7.4815
20
-7.0299
10
7.579
20
-6.9837
10
7.6807
20
-6.9474
10
7.7854
20
-6.9211
10
7.8922
20
-6.9053
10
8
20
-6.9
10
8.1078
20
-6.9053
10
8.2146
20
-6.9211
10
8.3193
20
-6.9474
10
8.421
20
-6.9837
10
8.5185
20
-7.0299
10
8.6111
20
-7.0854
10
8.6978
20
-7.1497
10
8.7778
20
-7.2222
10
8.8503
20
-7.3022
10
8.9146
20
-7.3889
10
8.9701
20
-7.4815
10
9.0163
20
-7.579
0
LWPOLYLINE
8
11_servo_horn_plate_t3.0
100
AcDbEntity
100
AcDbPolyline
90
65
70
1
43
0.0
10
-6.9474
20
8.3193
10
-6.9211
20
8.2146
10
-6.9053
20
8.1078
10
-6.9
20
8
10
-6.9053
20
7.8922
10
-6.9211
20
7.7854
10
-6.9474
20
7.6807
10
-6.9837
20
7.579
10
-7.0299
20
7.4815
10
-7.0854
20
7.3889
10
-7.1497
20
7.3022
10
-7.2222
20
7.2222
10
-7.3022
20
7.1497
10
-7.3889
20
7.0854
10
-7.4815
20
7.0299
10
-7.579
20
6.9837
10
-7.6807
20
6.9474
10
-7.7854
20
6.9211
10
-7.8922
20
6.9053
10
-8
20
6.9
10
-8.1078
20
6.9053
10
-8.2146
20
6.9211
10
-8.3193
20
6.9474
10
-8.421
20
6.9837
10
-8.5185
20
7.0299
10
-8.6111
20
7.0854
10
-8.6978
20
7.1497
10
-8.7778
20
7.2222
10
-8.8503
20
7.3022
10
-8.9146
20
7.3889
10
-8.9701
20
7.4815
10
-9.0163
20
7.579
10
-9.0526
20
7.6807
10
-9.0789
20
7.7854
10
-9.0947
20
7.8922
10
-9.1
20
8
10
-9.0947
20
8.1078
10
-9.0789
20
8.2146
10
-9.0526
20
8.3193
10
-9.0163
20
8.421
10
-8.9701
20
8.5185
10
-8.9146
20
8.6111
10
-8.8503
20
8.6978
10
-8.7778
20
8.7778
10
-8.6978
20
8.8503
10
-8.6111
20
8.9146
10
-8.5185
20
8.9701
10
-8.421
20
9.0163
10
-8.3193
20
9.0526
10
-8.2146
20
9.0789
10
-8.1078
20
9.0947
10
-8
20
9.1
10
-7.8922
20
9.0947
10
-7.7854
20
9.0789
10
-7.6807
20
9.0526
10
-7.579
20
9.0163
10
-7.4815
20
8.9701
10
-7.3889
20
8.9146
10
-7.3022
20
8.8503
10
-7.2222
20
8.7778
10
-7.1497
20
8.6978
10
-7.0854
20
8.6111
10
-7.0299
20
8.5185
10
-6.9837
20
8.421
10
-6.9474
20
8.3193
0
LWPOLYLINE
8
11_servo_horn_plate_t3.0
100
AcDbEntity
100
AcDbPolyline
90
65
70
1
43
0.0
10
9.0789
20
8.2146
10
9.0947
20
8.1078
10
9.1
20
8
10
9.0947
20
7.8922
10
9.0789
20
7.7854
10
9.0526
20
7.6807
10
9.0163
20
7.579
10
8.9701
20
7.4815
10
8.9146
20
7.3889
10
8.8503
20
7.3022
10
8.7778
20
7.2222
10
8.6978
20
7.1497
10
8.6111
20
7.0854
10
8.5185
20
7.0299
10
8.421
20
6.9837
10
8.3193
20
6.9474
10
8.2146
20
6.9211
10
8.1078
20
6.9053
10
8
20
6.9
10
7.8922
20
6.9053
10
7.7854
20
6.9211
10
7.6807
20
6.9474
10
7.579
20
6.9837
10
7.4815
20
7.0299
10
7.3889
20
7.0854
10
7.3022
20
7.1497
10
7.2222
20
7.2222
10
7.1497
20
7.3022
10
7.0854
20
7.3889
10
7.0299
20
7.4815
10
6.9837
20
7.579
10
6.9474
20
7.6807
10
6.9211
20
7.7854
10
6.9053
20
7.8922
10
6.9
20
8
10
6.9053
20
8.1078
10
6.9211
20
8.2146
10
6.9474
20
8.3193
10
6.9837
20
8.421
10
7.0299
20
8.5185
10
7.0854
20
8.6111
10
7.1497
20
8.6978
10
7.2222
20
8.7778
10
7.3022
20
8.8503
10
7.3889
20
8.9146
10
7.4815
20
8.9701
10
7.579
20
9.0163
10
7.6807
20
9.0526
10
7.7854
20
9.0789
10
7.8922
20
9.0947
10
8
20
9.1
10
8.1078
20
9.0947
10
8.2146
20
9.0789
10
8.3193
20
9.0526
10
8.421
20
9.0163
10
8.5185
20
8.9701
10
8.6111
20
8.9146
10
8.6978
20
8.8503
10
8.7778
20
8.7778
10
8.8503
20
8.6978
10
8.9146
20
8.6111
10
8.9701
20
8.5185
10
9.0163
20
8.421
10
9.0526
20
8.3193
10
9.0789
20
8.2146
0
LWPOLYLINE
8
11_servo_horn_plate_t3.0
100
AcDbEntity
100
AcDbPolyline
90
65
70
1
43
0.0
10
5.9711
20
0.5881
10
6
20
0
10
5.9711
20
-0.5881
10
5.8847
20
-1.1705
10
5.7416
20
-1.7417
10
5.5433
20
-2.2961
10
5.2915
20
-2.8284
10
4.9888
20
-3.3334
10
4.6381
20
-3.8064
10
4.2426
20
-4.2426
10
3.8064
20
-4.6381
10
3.3334
20
-4.9888
10
2.8284
20
-5.2915
10
2.2961
20
-5.5433
10
1.7417
20
-5.7416
10
1.1705
20
-5.8847
10
0.5881
20
-5.9711
10
0
20
-6
10
-0.5881
20
-5.9711
10
-1.1705
20
-5.8847
10
-1.7417
20
-5.7416
10
-2.2961
20
-5.5433
10
-2.8284
20
-5.2915
10
-3.3334
20
-4.9888
10
-3.8064
20
-4.6381
10
-4.2426
20
-4.2426
10
-4.6381
20
-3.8064
10
-4.9888
20
-3.3334
10
-5.2915
20
-2.8284
10
-5.5433
20
-2.2961
10
-5.7416
20
-1.7417
10
-5.8847
20
-1.1705
10
-5.9711
20
-0.5881
10
-6
20
0
10
-5.9711
20
0.5881
10
-5.8847
20
1.1705
10
-5.7416
20
1.7417
10
-5.5433
20
2.2961
10
-5.2915
20
2.8284
10
-4.9888
20
3.3334
10
-4.6381
20
3.8064
10
-4.2426
20
4.2426
10
-3.8064
20
4.6381
10
-3.3334
20
4.9888
10
-2.8284
20
5.2915
10
-2.2961
20
5.5433
10
-1.7417
20
5.7416
10
-1.1705
20
5.8847
10
-0.5881
20
5.9711
10
0
20
6
10
0.5881
20
5.9711
10
1.1705
20
5.8847
10
1.7417
20
5.7416
10
2.2961
20
5.5433
10
2.8284
20
5.2915
10
3.3334
20
4.9888
10
3.8064
20
4.6381
10
4.2426
20
4.2426
10
4.6381
20
3.8064
10
4.9888
20
3.3334
10
5.2915
20
2.8284
10
5.5433
20
2.2961
10
5.7416
20
1.7417
10
5.8847
20
1.1705
10
5.9711
20
0.5881
0
ENDSEC
0
EOF
