0
SECTION
2
HEADER
9
$ACADVER
1
AC1015
9
$INSUNITS
70
4
0
ENDSEC
0
SECTION
2
ENTITIES
0
LWPOLYLINE
8
11b_claw_adapter_t5.0
100
AcDbEntity
100
AcDbPolyline
90
5
70
1
43
0.0
10
76
20
26
10
0
20
26
10
0
20
-26
10
76
20
-26
10
76
20
26
0
LWPOLYLINE
8
11b_claw_adapter_t5.0
100
AcDbEntity
100
AcDbPolyline
90
109
70
1
43
0.0
10
7.2346
20
19.8478
10
8
20
20
10
8.7654
20
19.8478
10
9.4142
20
19.4142
10
9.8478
20
18.7654
10
10
20
18
10
10
20
16
10
24
20
16
10
24
20
18
10
24.1522
20
18.7654
10
24.5858
20
19.4142
10
25.2346
20
19.8478
10
26
20
20
10
26.7654
20
19.8478
10
27.4142
20
19.4142
10
27.8478
20
18.7654
10
28
20
18
10
28
20
16
10
42
20
16
10
42
20
18
10
42.1522
20
18.7654
10
42.5858
20
19.4142
10
43.2346
20
19.8478
10
44
20
20
10
44.7654
20
19.8478
10
45.4142
20
19.4142
10
45.8478
20
18.7654
10
46
20
18
10
46
20
16
10
60
20
16
10
60
20
18
10
60.1522
20
18.7654
10
60.5858
20
19.4142
10
61.2346
20
19.8478
10
62
20
20
10
62.7654
20
19.8478
10
63.4142
20
19.4142
10
63.8478
20
18.7654
10
64
20
18
10
64
20
16
10
68
20
16
10
68.7654
20
15.8478
10
69.4142
20
15.4142
10
69.8478
20
14.7654
10
70
20
14
10
69.8478
20
13.2346
10
69.4142
20
12.5858
10
68.7654
20
12.1522
10
68
20
12
10
64
20
12
10
64
20
-12
10
68
20
-12
10
68.7654
20
-12.1522
10
69.4142
20
-12.5858
10
69.8478
20
-13.2346
10
70
20
-14
10
69.8478
20
-14.7654
10
69.4142
20
-15.4142
10
68.7654
20
-15.8478
10
68
20
-16
10
64
20
-16
10
64
20
-18
10
63.8478
20
-18.7654
10
63.4142
20
-19.4142
10
62.7654
20
-19.8478
10
62
20
-20
10
61.2346
20
-19.8478
10
60.5858
20
-19.4142
10
60.1522
20
-18.7654
10
60
20
-18
10
60
20
-16
10
46
20
-16
10
46
20
-18
10
45.8478
20
-18.7654
10
45.4142
20
-19.4142
10
44.7654
20
-19.8478
10
44
20
-20
10
43.2346
20
-19.8478
10
42.5858
20
-19.4142
10
42.1522
20
-18.7654
10
42
20
-18
10
42
20
-16
10
28
20
-16
10
28
20
-18
10
27.8478
20
-18.7654
10
27.4142
20
-19.4142
10
26.7654
20
-19.8478
10
26
20
-20
10
25.2346
20
-19.8478
10
24.5858
20
-19.4142
10
24.1522
20
-18.7654
10
24
20
-18
10
24
20
-16
10
10
20
-16
10
10
20
-18
10
9.8478
20
-18.7654
10
9.4142
20
-19.4142
10
8.7654
20
-19.8478
10
8
20
-20
10
7.2346
20
-19.8478
10
6.5858
20
-19.4142
10
6.1522
20
-18.7654
10
6
20
-18
10
6
20
-14
10
6
20
14
10
6
20
18
10
6.1522
20
18.7654
10
6.5858
20
19.4142
10
7.2346
20
19.8478
0
LWPOLYLINE
8
11b_claw_adapter_t5.0
100
AcDbEntity
100
AcDbPolyline
90
5
70
1
43
0.0
10
60
20
-12
10
60
20
12
10
46
20
12
10
46
20
-12
10
60
20
-12
0
LWPOLYLINE
8
11b_claw_adapter_t5.0
100
AcDbEntity
100
AcDbPolyline
90
5
70
1
43
0.0
10
42
20
-12
10
42
20
12
10
28
20
12
10
28
20
-12
10
42
20
-12
0
LWPOLYLINE
8
11b_claw_adapter_t5.0
100
AcDbEntity
100
AcDbPolyline
90
5
70
1
43
0.0
10
24
20
-12
10
24
20
12
10
10
20
12
10
10
20
-12
10
24
20
-12
0
ENDSEC
0
EOF
