0
SECTION
2
HEADER
9
$ACADVER
1
AC1015
9
$INSUNITS
70
4
0
ENDSEC
0
SECTION
2
ENTITIES
0
LWPOLYLINE
8
12_bin_floor_t3.0
100
AcDbEntity
100
AcDbPolyline
90
5
70
1
43
0.0
10
132
20
-58
10
132
20
58
10
0
20
58
10
0
20
-58
10
132
20
-58
0
LWPOLYLINE
8
12_bin_floor_t3.0
100
AcDbEntity
100
AcDbPolyline
90
65
70
1
43
0.0
10
9.5355
20
-44.4689
10
9.6879
20
-44.4307
10
9.8432
20
-44.4077
10
10
20
-44.4
10
10.1568
20
-44.4077
10
10.3121
20
-44.4307
10
10.4645
20
-44.4689
10
10.6123
20
-44.5218
10
10.7542
20
-44.5889
10
10.8889
20
-44.6696
10
11.015
20
-44.7632
10
11.1314
20
-44.8686
10
11.2368
20
-44.985
10
11.3304
20
-45.1111
10
11.4111
20
-45.2458
10
11.4782
20
-45.3877
10
11.5311
20
-45.5355
10
11.5693
20
-45.6879
10
11.5923
20
-45.8432
10
11.6
20
-46
10
11.5923
20
-46.1568
10
11.5693
20
-46.3121
10
11.5311
20
-46.4645
10
11.4782
20
-46.6123
10
11.4111
20
-46.7542
10
11.3304
20
-46.8889
10
11.2368
20
-47.015
10
11.1314
20
-47.1314
10
11.015
20
-47.2368
10
10.8889
20
-47.3304
10
10.7542
20
-47.4111
10
10.6123
20
-47.4782
10
10.4645
20
-47.5311
10
10.3121
20
-47.5693
10
10.1568
20
-47.5923
10
10
20
-47.6
10
9.8432
20
-47.5923
10
9.6879
20
-47.5693
10
9.5355
20
-47.5311
10
9.3877
20
-47.4782
10
9.2458
20
-47.4111
10
9.1111
20
-47.3304
10
8.985
20
-47.2368
10
8.8686
20
-47.1314
10
8.7632
20
-47.015
10
8.6696
20
-46.8889
10
8.5889
20
-46.7542
10
8.5218
20
-46.6123
10
8.4689
20
-46.4645
10
8.4307
20
-46.3121
10
8.4077
20
-46.1568
10
8.4
20
-46
10
8.4077
20
-45.8432
10
8.4307
20
-45.6879
10
8.4689
20
-45.5355
10
8.5218
20
-45.3877
10
8.5889
20
-45.2458
10
8.6696
20
-45.1111
10
8.7632
20
-44.985
10
8.8686
20
-44.8686
10
8.985
20
-44.7632
10
9.1111
20
-44.6696
10
9.2458
20
-44.5889
10
9.3877
20
-44.5218
10
9.5355
20
-44.4689
0
LWPOLYLINE
8
12_bin_floor_t3.0
100
AcDbEntity
100
AcDbPolyline
90
65
70
1
43
0.0
10
9.6879
20
47.5693
10
9.8432
20
47.5923
10
10
20
47.6
10
10.1568
20
47.5923
10
10.3121
20
47.5693
10
10.4645
20
47.5311
10
10.6123
20
47.4782
10
10.7542
20
47.4111
10
10.8889
20
47.3304
10
11.015
20
47.2368
10
11.1314
20
47.1314
10
11.2368
20
47.015
10
11.3304
20
46.8889
10
11.4111
20
46.7542
10
11.4782
20
46.6123
10
11.5311
20
46.4645
10
11.5693
20
46.3121
10
11.5923
20
46.1568
10
11.6
20
46
10
11.5923
20
45.8432
10
11.5693
20
45.6879
10
11.5311
20
45.5355
10
11.4782
20
45.3877
10
11.4111
20
45.2458
10
11.3304
20
45.1111
10
11.2368
20
44.985
10
11.1314
20
44.8686
10
11.015
20
44.7632
10
10.8889
20
44.6696
10
10.7542
20
44.5889
10
10.6123
20
44.5218
10
10.4645
20
44.4689
10
10.3121
20
44.4307
10
10.1568
20
44.4077
10
10
20
44.4
10
9.8432
20
44.4077
10
9.6879
20
44.4307
10
9.5355
20
44.4689
10
9.3877
20
44.5218
10
9.2458
20
44.5889
10
9.1111
20
44.6696
10
8.985
20
44.7632
10
8.8686
20
44.8686
10
8.7632
20
44.985
10
8.6696
20
45.1111
10
8.5889
20
45.2458
10
8.5218
20
45.3877
10
8.4689
20
45.5355
10
8.4307
20
45.6879
10
8.4077
20
45.8432
10
8.4
20
46
10
8.4077
20
46.1568
10
8.4307
20
46.3121
10
8.4689
20
46.4645
10
8.5218
20
46.6123
10
8.5889
20
46.7542
10
8.6696
20
46.8889
10
8.7632
20
47.015
10
8.8686
20
47.1314
10
8.985
20
47.2368
10
9.1111
20
47.3304
10
9.2458
20
47.4111
10
9.3877
20
47.4782
10
9.5355
20
47.5311
10
9.6879
20
47.5693
0
LWPOLYLINE
8
12_bin_floor_t3.0
100
AcDbEntity
100
AcDbPolyline
90
65
70
1
43
0.0
10
121.8432
20
-44.4077
10
122
20
-44.4
10
122.1568
20
-44.4077
10
122.3121
20
-44.4307
10
122.4645
20
-44.4689
10
122.6123
20
-44.5218
10
122.7542
20
-44.5889
10
122.8889
20
-44.6696
10
123.015
20
-44.7632
10
123.1314
20
-44.8686
10
123.2368
20
-44.985
10
123.3304
20
-45.1111
10
123.4111
20
-45.2458
10
123.4782
20
-45.3877
10
123.5311
20
-45.5355
10
123.5693
20
-45.6879
10
123.5923
20
-45.8432
10
123.6
20
-46
10
123.5923
20
-46.1568
10
123.5693
20
-46.3121
10
123.5311
20
-46.4645
10
123.4782
20
-46.6123
10
123.4111
20
-46.7542
10
123.3304
20
-46.8889
10
123.2368
20
-47.015
10
123.1314
20
-47.1314
10
123.015
20
-47.2368
10
122.8889
20
-47.3304
10
122.7542
20
-47.4111
10
122.6123
20
-47.4782
10
122.4645
20
-47.5311
10
122.3121
20
-47.5693
10
122.1568
20
-47.5923
10
122
20
-47.6
10
121.8432
20
-47.5923
10
121.6879
20
-47.5693
10
121.5355
20
-47.5311
10
121.3877
20
-47.4782
10
121.2458
20
-47.4111
10
121.1111
20
-47.3304
10
120.985
20
-47.2368
10
120.8686
20
-47.1314
10
120.7632
20
-47.015
10
120.6696
20
-46.8889
10
120.5889
20
-46.7542
10
120.5218
20
-46.6123
10
120.4689
20
-46.4645
10
120.4307
20
-46.3121
10
120.4077
20
-46.1568
10
120.4
20
-46
10
120.4077
20
-45.8432
10
120.4307
20
-45.6879
10
120.4689
20
-45.5355
10
120.5218
20
-45.3877
10
120.5889
20
-45.2458
10
120.6696
20
-45.1111
10
120.7632
20
-44.985
10
120.8686
20
-44.8686
10
120.985
20
-44.7632
10
121.1111
20
-44.6696
10
121.2458
20
-44.5889
10
121.3877
20
-44.5218
10
121.5355
20
-44.4689
10
121.6879
20
-44.4307
10
121.8432
20
-44.4077
0
LWPOLYLINE
8
12_bin_floor_t3.0
100
AcDbEntity
100
AcDbPolyline
90
65
70
1
43
0.0
10
122
20
47.6
10
122.1568
20
47.5923
10
122.3121
20
47.5693
10
122.4645
20
47.5311
10
122.6123
20
47.4782
10
122.7542
20
47.4111
10
122.8889
20
47.3304
10
123.015
20
47.2368
10
123.1314
20
47.1314
10
123.2368
20
47.015
10
123.3304
20
46.8889
10
123.4111
20
46.7542
10
123.4782
20
46.6123
10
123.5311
20
46.4645
10
123.5693
20
46.3121
10
123.5923
20
46.1568
10
123.6
20
46
10
123.5923
20
45.8432
10
123.5693
20
45.6879
10
123.5311
20
45.5355
10
123.4782
20
45.3877
10
123.4111
20
45.2458
10
123.3304
20
45.1111
10
123.2368
20
44.985
10
123.1314
20
44.8686
10
123.015
20
44.7632
10
122.8889
20
44.6696
10
122.7542
20
44.5889
10
122.6123
20
44.5218
10
122.4645
20
44.4689
10
122.3121
20
44.4307
10
122.1568
20
44.4077
10
122
20
44.4
10
121.8432
20
44.4077
10
121.6879
20
44.4307
10
121.5355
20
44.4689
10
121.3877
20
44.5218
10
121.2458
20
44.5889
10
121.1111
20
44.6696
10
120.985
20
44.7632
10
120.8686
20
44.8686
10
120.7632
20
44.985
10
120.6696
20
45.1111
10
120.5889
20
45.2458
10
120.5218
20
45.3877
10
120.4689
20
45.5355
10
120.4307
20
45.6879
10
120.4077
20
45.8432
10
120.4
20
46
10
120.4077
20
46.1568
10
120.4307
20
46.3121
10
120.4689
20
46.4645
10
120.5218
20
46.6123
10
120.5889
20
46.7542
10
120.6696
20
46.8889
10
120.7632
20
47.015
10
120.8686
20
47.1314
10
120.985
20
47.2368
10
121.1111
20
47.3304
10
121.2458
20
47.4111
10
121.3877
20
47.4782
10
121.5355
20
47.5311
10
121.6879
20
47.5693
10
121.8432
20
47.5923
10
122
20
47.6
0
LWPOLYLINE
8
12_bin_floor_t3.0
100
AcDbEntity
100
AcDbPolyline
90
65
70
1
43
0.0
10
24.3921
20
-34.0193
10
24.7804
20
-34.0769
10
25.1611
20
-34.1722
10
25.5307
20
-34.3045
10
25.8856
20
-34.4723
10
26.2223
20
-34.6741
10
26.5376
20
-34.908
10
26.8284
20
-35.1716
10
27.092
20
-35.4624
10
27.3259
20
-35.7777
10
27.5277
20
-36.1144
10
27.6955
20
-36.4693
10
27.8278
20
-36.8389
10
27.9231
20
-37.2196
10
27.9807
20
-37.6079
10
28
20
-38
10
27.9807
20
-38.3921
10
27.9231
20
-38.7804
10
27.8278
20
-39.1611
10
27.6955
20
-39.5307
10
27.5277
20
-39.8856
10
27.3259
20
-40.2223
10
27.092
20
-40.5376
10
26.8284
20
-40.8284
10
26.5376
20
-41.092
10
26.2223
20
-41.3259
10
25.8856
20
-41.5277
10
25.5307
20
-41.6955
10
25.1611
20
-41.8278
10
24.7804
20
-41.9231
10
24.3921
20
-41.9807
10
24
20
-42
10
23.6079
20
-41.9807
10
23.2196
20
-41.9231
10
22.8389
20
-41.8278
10
22.4693
20
-41.6955
10
22.1144
20
-41.5277
10
21.7777
20
-41.3259
10
21.4624
20
-41.092
10
21.1716
20
-40.8284
10
20.908
20
-40.5376
10
20.6741
20
-40.2223
10
20.4723
20
-39.8856
10
20.3045
20
-39.5307
10
20.1722
20
-39.1611
10
20.0769
20
-38.7804
10
20.0193
20
-38.3921
10
20
20
-38
10
20.0193
20
-37.6079
10
20.0769
20
-37.2196
10
20.1722
20
-36.8389
10
20.3045
20
-36.4693
10
20.4723
20
-36.1144
10
20.6741
20
-35.7777
10
20.908
20
-35.4624
10
21.1716
20
-35.1716
10
21.4624
20
-34.908
10
21.7777
20
-34.6741
10
22.1144
20
-34.4723
10
22.4693
20
-34.3045
10
22.8389
20
-34.1722
10
23.2196
20
-34.0769
10
23.6079
20
-34.0193
10
24
20
-34
10
24.3921
20
-34.0193
0
LWPOLYLINE
8
12_bin_floor_t3.0
100
AcDbEntity
100
AcDbPolyline
90
65
70
1
43
0.0
10
24.7804
20
3.9231
10
25.1611
20
3.8278
10
25.5307
20
3.6955
10
25.8856
20
3.5277
10
26.2223
20
3.3259
10
26.5376
20
3.092
10
26.8284
20
2.8284
10
27.092
20
2.5376
10
27.3259
20
2.2223
10
27.5277
20
1.8856
10
27.6955
20
1.5307
10
27.8278
20
1.1611
10
27.9231
20
0.7804
10
27.9807
20
0.3921
10
28
20
0
10
27.9807
20
-0.3921
10
27.9231
20
-0.7804
10
27.8278
20
-1.1611
10
27.6955
20
-1.5307
10
27.5277
20
-1.8856
10
27.3259
20
-2.2223
10
27.092
20
-2.5376
10
26.8284
20
-2.8284
10
26.5376
20
-3.092
10
26.2223
20
-3.3259
10
25.8856
20
-3.5277
10
25.5307
20
-3.6955
10
25.1611
20
-3.8278
10
24.7804
20
-3.9231
10
24.3921
20
-3.9807
10
24
20
-4
10
23.6079
20
-3.9807
10
23.2196
20
-3.9231
10
22.8389
20
-3.8278
10
22.4693
20
-3.6955
10
22.1144
20
-3.5277
10
21.7777
20
-3.3259
10
21.4624
20
-3.092
10
21.1716
20
-2.8284
10
20.908
20
-2.5376
10
20.6741
20
-2.2223
10
20.4723
20
-1.8856
10
20.3045
20
-1.5307
10
20.1722
20
-1.1611
10
20.0769
20
-0.7804
10
20.0193
20
-0.3921
10
20
20
0
10
20.0193
20
0.3921
10
20.0769
20
0.7804
10
20.1722
20
1.1611
10
20.3045
20
1.5307
10
20.4723
20
1.8856
10
20.6741
20
2.2223
10
20.908
20
2.5376
10
21.1716
20
2.8284
10
21.4624
20
3.092
10
21.7777
20
3.3259
10
22.1144
20
3.5277
10
22.4693
20
3.6955
10
22.8389
20
3.8278
10
23.2196
20
3.9231
10
23.6079
20
3.9807
10
24
20
4
10
24.3921
20
3.9807
10
24.7804
20
3.9231
0
LWPOLYLINE
8
12_bin_floor_t3.0
100
AcDbEntity
100
AcDbPolyline
90
65
70
1
43
0.0
10
25.1611
20
41.8278
10
25.5307
20
41.6955
10
25.8856
20
41.5277
10
26.2223
20
41.3259
10
26.5376
20
41.092
10
26.8284
20
40.8284
10
27.092
20
40.5376
10
27.3259
20
40.2223
10
27.5277
20
39.8856
10
27.6955
20
39.5307
10
27.8278
20
39.1611
10
27.9231
20
38.7804
10
27.9807
20
38.3921
10
28
20
38
10
27.9807
20
37.6079
10
27.9231
20
37.2196
10
27.8278
20
36.8389
10
27.6955
20
36.4693
10
27.5277
20
36.1144
10
27.3259
20
35.7777
10
27.092
20
35.4624
10
26.8284
20
35.1716
10
26.5376
20
34.908
10
26.2223
20
34.6741
10
25.8856
20
34.4723
10
25.5307
20
34.3045
10
25.1611
20
34.1722
10
24.7804
20
34.0769
10
24.3921
20
34.0193
10
24
20
34
10
23.6079
20
34.0193
10
23.2196
20
34.0769
10
22.8389
20
34.1722
10
22.4693
20
34.3045
10
22.1144
20
34.4723
10
21.7777
20
34.6741
10
21.4624
20
34.908
10
21.1716
20
35.1716
10
20.908
20
35.4624
10
20.6741
20
35.7777
10
20.4723
20
36.1144
10
20.3045
20
36.4693
10
20.1722
20
36.8389
10
20.0769
20
37.2196
10
20.0193
20
37.6079
10
20
20
38
10
20.0193
20
38.3921
10
20.0769
20
38.7804
10
20.1722
20
39.1611
10
20.3045
20
39.5307
10
20.4723
20
39.8856
10
20.6741
20
40.2223
10
20.908
20
40.5376
10
21.1716
20
40.8284
10
21.4624
20
41.092
10
21.7777
20
41.3259
10
22.1144
20
41.5277
10
22.4693
20
41.6955
10
22.8389
20
41.8278
10
23.2196
20
41.9231
10
23.6079
20
41.9807
10
24
20
42
10
24.3921
20
41.9807
10
24.7804
20
41.9231
10
25.1611
20
41.8278
0
LWPOLYLINE
8
12_bin_floor_t3.0
100
AcDbEntity
100
AcDbPolyline
90
65
70
1
43
0.0
10
47.5307
20
-34.3045
10
47.8856
20
-34.4723
10
48.2223
20
-34.6741
10
48.5376
20
-34.908
10
48.8284
20
-35.1716
10
49.092
20
-35.4624
10
49.3259
20
-35.7777
10
49.5277
20
-36.1144
10
49.6955
20
-36.4693
10
49.8278
20
-36.8389
10
49.9231
20
-37.2196
10
49.9807
20
-37.6079
10
50
20
-38
10
49.9807
20
-38.3921
10
49.9231
20
-38.7804
10
49.8278
20
-39.1611
10
49.6955
20
-39.5307
10
49.5277
20
-39.8856
10
49.3259
20
-40.2223
10
49.092
20
-40.5376
10
48.8284
20
-40.8284
10
48.5376
20
-41.092
10
48.2223
20
-41.3259
10
47.8856
20
-41.5277
10
47.5307
20
-41.6955
10
47.1611
20
-41.8278
10
46.7804
20
-41.9231
10
46.3921
20
-41.9807
10
46
20
-42
10
45.6079
20
-41.9807
10
45.2196
20
-41.9231
10
44.8389
20
-41.8278
10
44.4693
20
-41.6955
10
44.1144
20
-41.5277
10
43.7777
20
-41.3259
10
43.4624
20
-41.092
10
43.1716
20
-40.8284
10
42.908
20
-40.5376
10
42.6741
20
-40.2223
10
42.4723
20
-39.8856
10
42.3045
20
-39.5307
10
42.1722
20
-39.1611
10
42.0769
20
-38.7804
10
42.0193
20
-38.3921
10
42
20
-38
10
42.0193
20
-37.6079
10
42.0769
20
-37.2196
10
42.1722
20
-36.8389
10
42.3045
20
-36.4693
10
42.4723
20
-36.1144
10
42.6741
20
-35.7777
10
42.908
20
-35.4624
10
43.1716
20
-35.1716
10
43.4624
20
-34.908
10
43.7777
20
-34.6741
10
44.1144
20
-34.4723
10
44.4693
20
-34.3045
10
44.8389
20
-34.1722
10
45.2196
20
-34.0769
10
45.6079
20
-34.0193
10
46
20
-34
10
46.3921
20
-34.0193
10
46.7804
20
-34.0769
10
47.1611
20
-34.1722
10
47.5307
20
-34.3045
0
LWPOLYLINE
8
12_bin_floor_t3.0
100
AcDbEntity
100
AcDbPolyline
90
65
70
1
43
0.0
10
47.8856
20
3.5277
10
48.2223
20
3.3259
10
48.5376
20
3.092
10
48.8284
20
2.8284
10
49.092
20
2.5376
10
49.3259
20
2.2223
10
49.5277
20
1.8856
10
49.6955
20
1.5307
10
49.8278
20
1.1611
10
49.9231
20
0.7804
10
49.9807
20
0.3921
10
50
20
0
10
49.9807
20
-0.3921
10
49.9231
20
-0.7804
10
49.8278
20
-1.1611
10
49.6955
20
-1.5307
10
49.5277
20
-1.8856
10
49.3259
20
-2.2223
10
49.092
20
-2.5376
10
48.8284
20
-2.8284
10
48.5376
20
-3.092
10
48.2223
20
-3.3259
10
47.8856
20
-3.5277
10
47.5307
20
-3.6955
10
47.1611
20
-3.8278
10
46.7804
20
-3.9231
10
46.3921
20
-3.9807
10
46
20
-4
10
45.6079
20
-3.9807
10
45.2196
20
-3.9231
10
44.8389
20
-3.8278
10
44.4693
20
-3.6955
10
44.1144
20
-3.5277
10
43.7777
20
-3.3259
10
43.4624
20
-3.092
10
43.1716
20
-2.8284
10
42.908
20
-2.5376
10
42.6741
20
-2.2223
10
42.4723
20
-1.8856
10
42.3045
20
-1.5307
10
42.1722
20
-1.1611
10
42.0769
20
-0.7804
10
42.0193
20
-0.3921
10
42
20
0
10
42.0193
20
0.3921
10
42.0769
20
0.7804
10
42.1722
20
1.1611
10
42.3045
20
1.5307
10
42.4723
20
1.8856
10
42.6741
20
2.2223
10
42.908
20
2.5376
10
43.1716
20
2.8284
10
43.4624
20
3.092
10
43.7777
20
3.3259
10
44.1144
20
3.5277
10
44.4693
20
3.6955
10
44.8389
20
3.8278
10
45.2196
20
3.9231
10
45.6079
20
3.9807
10
46
20
4
10
46.3921
20
3.9807
10
46.7804
20
3.9231
10
47.1611
20
3.8278
10
47.5307
20
3.6955
10
47.8856
20
3.5277
0
LWPOLYLINE
8
12_bin_floor_t3.0
100
AcDbEntity
100
AcDbPolyline
90
65
70
1
43
0.0
10
48.2223
20
41.3259
10
48.5376
20
41.092
10
48.8284
20
40.8284
10
49.092
20
40.5376
10
49.3259
20
40.2223
10
49.5277
20
39.8856
10
49.6955
20
39.5307
10
49.8278
20
39.1611
10
49.9231
20
38.7804
10
49.9807
20
38.3921
10
50
20
38
10
49.9807
20
37.6079
10
49.9231
20
37.2196
10
49.8278
20
36.8389
10
49.6955
20
36.4693
10
49.5277
20
36.1144
10
49.3259
20
35.7777
10
49.092
20
35.4624
10
48.8284
20
35.1716
10
48.5376
20
34.908
10
48.2223
20
34.6741
10
47.8856
20
34.4723
10
47.5307
20
34.3045
10
47.1611
20
34.1722
10
46.7804
20
34.0769
10
46.3921
20
34.0193
10
46
20
34
10
45.6079
20
34.0193
10
45.2196
20
34.0769
10
44.8389
20
34.1722
10
44.4693
20
34.3045
10
44.1144
20
34.4723
10
43.7777
20
34.6741
10
43.4624
20
34.908
10
43.1716
20
35.1716
10
42.908
20
35.4624
10
42.6741
20
35.7777
10
42.4723
20
36.1144
10
42.3045
20
36.4693
10
42.1722
20
36.8389
10
42.0769
20
37.2196
10
42.0193
20
37.6079
10
42
20
38
10
42.0193
20
38.3921
10
42.0769
20
38.7804
10
42.1722
20
39.1611
10
42.3045
20
39.5307
10
42.4723
20
39.8856
10
42.6741
20
40.2223
10
42.908
20
40.5376
10
43.1716
20
40.8284
10
43.4624
20
41.092
10
43.7777
20
41.3259
10
44.1144
20
41.5277
10
44.4693
20
41.6955
10
44.8389
20
41.8278
10
45.2196
20
41.9231
10
45.6079
20
41.9807
10
46
20
42
10
46.3921
20
41.9807
10
46.7804
20
41.9231
10
47.1611
20
41.8278
10
47.5307
20
41.6955
10
47.8856
20
41.5277
10
48.2223
20
41.3259
0
LWPOLYLINE
8
12_bin_floor_t3.0
100
AcDbEntity
100
AcDbPolyline
90
65
70
1
43
0.0
10
70.5376
20
-34.908
10
70.8284
20
-35.1716
10
71.092
20
-35.4624
10
71.3259
20
-35.7777
10
71.5277
20
-36.1144
10
71.6955
20
-36.4693
10
71.8278
20
-36.8389
10
71.9231
20
-37.2196
10
71.9807
20
-37.6079
10
72
20
-38
10
71.9807
20
-38.3921
10
71.9231
20
-38.7804
10
71.8278
20
-39.1611
10
71.6955
20
-39.5307
10
71.5277
20
-39.8856
10
71.3259
20
-40.2223
10
71.092
20
-40.5376
10
70.8284
20
-40.8284
10
70.5376
20
-41.092
10
70.2223
20
-41.3259
10
69.8856
20
-41.5277
10
69.5307
20
-41.6955
10
69.1611
20
-41.8278
10
68.7804
20
-41.9231
10
68.3921
20
-41.9807
10
68
20
-42
10
67.6079
20
-41.9807
10
67.2196
20
-41.9231
10
66.8389
20
-41.8278
10
66.4693
20
-41.6955
10
66.1144
20
-41.5277
10
65.7777
20
-41.3259
10
65.4624
20
-41.092
10
65.1716
20
-40.8284
10
64.908
20
-40.5376
10
64.6741
20
-40.2223
10
64.4723
20
-39.8856
10
64.3045
20
-39.5307
10
64.1722
20
-39.1611
10
64.0769
20
-38.7804
10
64.0193
20
-38.3921
10
64
20
-38
10
64.0193
20
-37.6079
10
64.0769
20
-37.2196
10
64.1722
20
-36.8389
10
64.3045
20
-36.4693
10
64.4723
20
-36.1144
10
64.6741
20
-35.7777
10
64.908
20
-35.4624
10
65.1716
20
-35.1716
10
65.4624
20
-34.908
10
65.7777
20
-34.6741
10
66.1144
20
-34.4723
10
66.4693
20
-34.3045
10
66.8389
20
-34.1722
10
67.2196
20
-34.0769
10
67.6079
20
-34.0193
10
68
20
-34
10
68.3921
20
-34.0193
10
68.7804
20
-34.0769
10
69.1611
20
-34.1722
10
69.5307
20
-34.3045
10
69.8856
20
-34.4723
10
70.2223
20
-34.6741
10
70.5376
20
-34.908
0
LWPOLYLINE
8
12_bin_floor_t3.0
100
AcDbEntity
100
AcDbPolyline
90
65
70
1
43
0.0
10
70.8284
20
2.8284
10
71.092
20
2.5376
10
71.3259
20
2.2223
10
71.5277
20
1.8856
10
71.6955
20
1.5307
10
71.8278
20
1.1611
10
71.9231
20
0.7804
10
71.9807
20
0.3921
10
72
20
0
10
71.9807
20
-0.3921
10
71.9231
20
-0.7804
10
71.8278
20
-1.1611
10
71.6955
20
-1.5307
10
71.5277
20
-1.8856
10
71.3259
20
-2.2223
10
71.092
20
-2.5376
10
70.8284
20
-2.8284
10
70.5376
20
-3.092
10
70.2223
20
-3.3259
10
69.8856
20
-3.5277
10
69.5307
20
-3.6955
10
69.1611
20
-3.8278
10
68.7804
20
-3.9231
10
68.3921
20
-3.9807
10
68
20
-4
10
67.6079
20
-3.9807
10
67.2196
20
-3.9231
10
66.8389
20
-3.8278
10
66.4693
20
-3.6955
10
66.1144
20
-3.5277
10
65.7777
20
-3.3259
10
65.4624
20
-3.092
10
65.1716
20
-2.8284
10
64.908
20
-2.5376
10
64.6741
20
-2.2223
10
64.4723
20
-1.8856
10
64.3045
20
-1.5307
10
64.1722
20
-1.1611
10
64.0769
20
-0.7804
10
64.0193
20
-0.3921
10
64
20
0
10
64.0193
20
0.3921
10
64.0769
20
0.7804
10
64.1722
20
1.1611
10
64.3045
20
1.5307
10
64.4723
20
1.8856
10
64.6741
20
2.2223
10
64.908
20
2.5376
10
65.1716
20
2.8284
10
65.4624
20
3.092
10
65.7777
20
3.3259
10
66.1144
20
3.5277
10
66.4693
20
3.6955
10
66.8389
20
3.8278
10
67.2196
20
3.9231
10
67.6079
20
3.9807
10
68
20
4
10
68.3921
20
3.9807
10
68.7804
20
3.9231
10
69.1611
20
3.8278
10
69.5307
20
3.6955
10
69.8856
20
3.5277
10
70.2223
20
3.3259
10
70.5376
20
3.092
10
70.8284
20
2.8284
0
LWPOLYLINE
8
12_bin_floor_t3.0
100
AcDbEntity
100
AcDbPolyline
90
65
70
1
43
0.0
10
71.092
20
40.5376
10
71.3259
20
40.2223
10
71.5277
20
39.8856
10
71.6955
20
39.5307
10
71.8278
20
39.1611
10
71.9231
20
38.7804
10
71.9807
20
38.3921
10
72
20
38
10
71.9807
20
37.6079
10
71.9231
20
37.2196
10
71.8278
20
36.8389
10
71.6955
20
36.4693
10
71.5277
20
36.1144
10
71.3259
20
35.7777
10
71.092
20
35.4624
10
70.8284
20
35.1716
10
70.5376
20
34.908
10
70.2223
20
34.6741
10
69.8856
20
34.4723
10
69.5307
20
34.3045
10
69.1611
20
34.1722
10
68.7804
20
34.0769
10
68.3921
20
34.0193
10
68
20
34
10
67.6079
20
34.0193
10
67.2196
20
34.0769
10
66.8389
20
34.1722
10
66.4693
20
34.3045
10
66.1144
20
34.4723
10
65.7777
20
34.6741
10
65.4624
20
34.908
10
65.1716
20
35.1716
10
64.908
20
35.4624
10
64.6741
20
35.7777
10
64.4723
20
36.1144
10
64.3045
20
36.4693
10
64.1722
20
36.8389
10
64.0769
20
37.2196
10
64.0193
20
37.6079
10
64
20
38
10
64.0193
20
38.3921
10
64.0769
20
38.7804
10
64.1722
20
39.1611
10
64.3045
20
39.5307
10
64.4723
20
39.8856
10
64.6741
20
40.2223
10
64.908
20
40.5376
10
65.1716
20
40.8284
10
65.4624
20
41.092
10
65.7777
20
41.3259
10
66.1144
20
41.5277
10
66.4693
20
41.6955
10
66.8389
20
41.8278
10
67.2196
20
41.9231
10
67.6079
20
41.9807
10
68
20
42
10
68.3921
20
41.9807
10
68.7804
20
41.9231
10
69.1611
20
41.8278
10
69.5307
20
41.6955
10
69.8856
20
41.5277
10
70.2223
20
41.3259
10
70.5376
20
41.092
10
70.8284
20
40.8284
10
71.092
20
40.5376
0
LWPOLYLINE
8
12_bin_floor_t3.0
100
AcDbEntity
100
AcDbPolyline
90
65
70
1
43
0.0
10
93.3259
20
-35.7777
10
93.5277
20
-36.1144
10
93.6955
20
-36.4693
10
93.8278
20
-36.8389
10
93.9231
20
-37.2196
10
93.9807
20
-37.6079
10
94
20
-38
10
93.9807
20
-38.3921
10
93.9231
20
-38.7804
10
93.8278
20
-39.1611
10
93.6955
20
-39.5307
10
93.5277
20
-39.8856
10
93.3259
20
-40.2223
10
93.092
20
-40.5376
10
92.8284
20
-40.8284
10
92.5376
20
-41.092
10
92.2223
20
-41.3259
10
91.8856
20
-41.5277
10
91.5307
20
-41.6955
10
91.1611
20
-41.8278
10
90.7804
20
-41.9231
10
90.3921
20
-41.9807
10
90
20
-42
10
89.6079
20
-41.9807
10
89.2196
20
-41.9231
10
88.8389
20
-41.8278
10
88.4693
20
-41.6955
10
88.1144
20
-41.5277
10
87.7777
20
-41.3259
10
87.4624
20
-41.092
10
87.1716
20
-40.8284
10
86.908
20
-40.5376
10
86.6741
20
-40.2223
10
86.4723
20
-39.8856
10
86.3045
20
-39.5307
10
86.1722
20
-39.1611
10
86.0769
20
-38.7804
10
86.0193
20
-38.3921
10
86
20
-38
10
86.0193
20
-37.6079
10
86.0769
20
-37.2196
10
86.1722
20
-36.8389
10
86.3045
20
-36.4693
10
86.4723
20
-36.1144
10
86.6741
20
-35.7777
10
86.908
20
-35.4624
10
87.1716
20
-35.1716
10
87.4624
20
-34.908
10
87.7777
20
-34.6741
10
88.1144
20
-34.4723
10
88.4693
20
-34.3045
10
88.8389
20
-34.1722
10
89.2196
20
-34.0769
10
89.6079
20
-34.0193
10
90
20
-34
10
90.3921
20
-34.0193
10
90.7804
20
-34.0769
10
91.1611
20
-34.1722
10
91.5307
20
-34.3045
10
91.8856
20
-34.4723
10
92.2223
20
-34.6741
10
92.5376
20
-34.908
10
92.8284
20
-35.1716
10
93.092
20
-35.4624
10
93.3259
20
-35.7777
0
LWPOLYLINE
8
12_bin_floor_t3.0
100
AcDbEntity
100
AcDbPolyline
90
65
70
1
43
0.0
10
93.5277
20
1.8856
10
93.6955
20
1.5307
10
93.8278
20
1.1611
10
93.9231
20
0.7804
10
93.9807
20
0.3921
10
94
20
0
10
93.9807
20
-0.3921
10
93.9231
20
-0.7804
10
93.8278
20
-1.1611
10
93.6955
20
-1.5307
10
93.5277
20
-1.8856
10
93.3259
20
-2.2223
10
93.092
20
-2.5376
10
92.8284
20
-2.8284
10
92.5376
20
-3.092
10
92.2223
20
-3.3259
10
91.8856
20
-3.5277
10
91.5307
20
-3.6955
10
91.1611
20
-3.8278
10
90.7804
20
-3.9231
10
90.3921
20
-3.9807
10
90
20
-4
10
89.6079
20
-3.9807
10
89.2196
20
-3.9231
10
88.8389
20
-3.8278
10
88.4693
20
-3.6955
10
88.1144
20
-3.5277
10
87.7777
20
-3.3259
10
87.4624
20
-3.092
10
87.1716
20
-2.8284
10
86.908
20
-2.5376
10
86.6741
20
-2.2223
10
86.4723
20
-1.8856
10
86.3045
20
-1.5307
10
86.1722
20
-1.1611
10
86.0769
20
-0.7804
10
86.0193
20
-0.3921
10
86
20
0
10
86.0193
20
0.3921
10
86.0769
20
0.7804
10
86.1722
20
1.1611
10
86.3045
20
1.5307
10
86.4723
20
1.8856
10
86.6741
20
2.2223
10
86.908
20
2.5376
10
87.1716
20
2.8284
10
87.4624
20
3.092
10
87.7777
20
3.3259
10
88.1144
20
3.5277
10
88.4693
20
3.6955
10
88.8389
20
3.8278
10
89.2196
20
3.9231
10
89.6079
20
3.9807
10
90
20
4
10
90.3921
20
3.9807
10
90.7804
20
3.9231
10
91.1611
20
3.8278
10
91.5307
20
3.6955
10
91.8856
20
3.5277
10
92.2223
20
3.3259
10
92.5376
20
3.092
10
92.8284
20
2.8284
10
93.092
20
2.5376
10
93.3259
20
2.2223
10
93.5277
20
1.8856
0
LWPOLYLINE
8
12_bin_floor_t3.0
100
AcDbEntity
100
AcDbPolyline
90
65
70
1
43
0.0
10
93.6955
20
39.5307
10
93.8278
20
39.1611
10
93.9231
20
38.7804
10
93.9807
20
38.3921
10
94
20
38
10
93.9807
20
37.6079
10
93.9231
20
37.2196
10
93.8278
20
36.8389
10
93.6955
20
36.4693
10
93.5277
20
36.1144
10
93.3259
20
35.7777
10
93.092
20
35.4624
10
92.8284
20
35.1716
10
92.5376
20
34.908
10
92.2223
20
34.6741
10
91.8856
20
34.4723
10
91.5307
20
34.3045
10
91.1611
20
34.1722
10
90.7804
20
34.0769
10
90.3921
20
34.0193
10
90
20
34
10
89.6079
20
34.0193
10
89.2196
20
34.0769
10
88.8389
20
34.1722
10
88.4693
20
34.3045
10
88.1144
20
34.4723
10
87.7777
20
34.6741
10
87.4624
20
34.908
10
87.1716
20
35.1716
10
86.908
20
35.4624
10
86.6741
20
35.7777
10
86.4723
20
36.1144
10
86.3045
20
36.4693
10
86.1722
20
36.8389
10
86.0769
20
37.2196
10
86.0193
20
37.6079
10
86
20
38
10
86.0193
20
38.3921
10
86.0769
20
38.7804
10
86.1722
20
39.1611
10
86.3045
20
39.5307
10
86.4723
20
39.8856
10
86.6741
20
40.2223
10
86.908
20
40.5376
10
87.1716
20
40.8284
10
87.4624
20
41.092
10
87.7777
20
41.3259
10
88.1144
20
41.5277
10
88.4693
20
41.6955
10
88.8389
20
41.8278
10
89.2196
20
41.9231
10
89.6079
20
41.9807
10
90
20
42
10
90.3921
20
41.9807
10
90.7804
20
41.9231
10
91.1611
20
41.8278
10
91.5307
20
41.6955
10
91.8856
20
41.5277
10
92.2223
20
41.3259
10
92.5376
20
41.092
10
92.8284
20
40.8284
10
93.092
20
40.5376
10
93.3259
20
40.2223
10
93.5277
20
39.8856
10
93.6955
20
39.5307
0
LWPOLYLINE
8
12_bin_floor_t3.0
100
AcDbEntity
100
AcDbPolyline
90
65
70
1
43
0.0
10
115.8278
20
-36.8389
10
115.9231
20
-37.2196
10
115.9807
20
-37.6079
10
116
20
-38
10
115.9807
20
-38.3921
10
115.9231
20
-38.7804
10
115.8278
20
-39.1611
10
115.6955
20
-39.5307
10
115.5277
20
-39.8856
10
115.3259
20
-40.2223
10
115.092
20
-40.5376
10
114.8284
20
-40.8284
10
114.5376
20
-41.092
10
114.2223
20
-41.3259
10
113.8856
20
-41.5277
10
113.5307
20
-41.6955
10
113.1611
20
-41.8278
10
112.7804
20
-41.9231
10
112.3921
20
-41.9807
10
112
20
-42
10
111.6079
20
-41.9807
10
111.2196
20
-41.9231
10
110.8389
20
-41.8278
10
110.4693
20
-41.6955
10
110.1144
20
-41.5277
10
109.7777
20
-41.3259
10
109.4624
20
-41.092
10
109.1716
20
-40.8284
10
108.908
20
-40.5376
10
108.6741
20
-40.2223
10
108.4723
20
-39.8856
10
108.3045
20
-39.5307
10
108.1722
20
-39.1611
10
108.0769
20
-38.7804
10
108.0193
20
-38.3921
10
108
20
-38
10
108.0193
20
-37.6079
10
108.0769
20
-37.2196
10
108.1722
20
-36.8389
10
108.3045
20
-36.4693
10
108.4723
20
-36.1144
10
108.6741
20
-35.7777
10
108.908
20
-35.4624
10
109.1716
20
-35.1716
10
109.4624
20
-34.908
10
109.7777
20
-34.6741
10
110.1144
20
-34.4723
10
110.4693
20
-34.3045
10
110.8389
20
-34.1722
10
111.2196
20
-34.0769
10
111.6079
20
-34.0193
10
112
20
-34
10
112.3921
20
-34.0193
10
112.7804
20
-34.0769
10
113.1611
20
-34.1722
10
113.5307
20
-34.3045
10
113.8856
20
-34.4723
10
114.2223
20
-34.6741
10
114.5376
20
-34.908
10
114.8284
20
-35.1716
10
115.092
20
-35.4624
10
115.3259
20
-35.7777
10
115.5277
20
-36.1144
10
115.6955
20
-36.4693
10
115.8278
20
-36.8389
0
LWPOLYLINE
8
12_bin_floor_t3.0
100
AcDbEntity
100
AcDbPolyline
90
65
70
1
43
0.0
10
115.9231
20
0.7804
10
115.9807
20
0.3921
10
116
20
0
10
115.9807
20
-0.3921
10
115.9231
20
-0.7804
10
115.8278
20
-1.1611
10
115.6955
20
-1.5307
10
115.5277
20
-1.8856
10
115.3259
20
-2.2223
10
115.092
20
-2.5376
10
114.8284
20
-2.8284
10
114.5376
20
-3.092
10
114.2223
20
-3.3259
10
113.8856
20
-3.5277
10
113.5307
20
-3.6955
10
113.1611
20
-3.8278
10
112.7804
20
-3.9231
10
112.3921
20
-3.9807
10
112
20
-4
10
111.6079
20
-3.9807
10
111.2196
20
-3.9231
10
110.8389
20
-3.8278
10
110.4693
20
-3.6955
10
110.1144
20
-3.5277
10
109.7777
20
-3.3259
10
109.4624
20
-3.092
10
109.1716
20
-2.8284
10
108.908
20
-2.5376
10
108.6741
20
-2.2223
10
108.4723
20
-1.8856
10
108.3045
20
-1.5307
10
108.1722
20
-1.1611
10
108.0769
20
-0.7804
10
108.0193
20
-0.3921
10
108
20
0
10
108.0193
20
0.3921
10
108.0769
20
0.7804
10
108.1722
20
1.1611
10
108.3045
20
1.5307
10
108.4723
20
1.8856
10
108.6741
20
2.2223
10
108.908
20
2.5376
10
109.1716
20
2.8284
10
109.4624
20
3.092
10
109.7777
20
3.3259
10
110.1144
20
3.5277
10
110.4693
20
3.6955
10
110.8389
20
3.8278
10
111.2196
20
3.9231
10
111.6079
20
3.9807
10
112
20
4
10
112.3921
20
3.9807
10
112.7804
20
3.9231
10
113.1611
20
3.8278
10
113.5307
20
3.6955
10
113.8856
20
3.5277
10
114.2223
20
3.3259
10
114.5376
20
3.092
10
114.8284
20
2.8284
10
115.092
20
2.5376
10
115.3259
20
2.2223
10
115.5277
20
1.8856
10
115.6955
20
1.5307
10
115.8278
20
1.1611
10
115.9231
20
0.7804
0
LWPOLYLINE
8
12_bin_floor_t3.0
100
AcDbEntity
100
AcDbPolyline
90
65
70
1
43
0.0
10
115.9807
20
38.3921
10
116
20
38
10
115.9807
20
37.6079
10
115.9231
20
37.2196
10
115.8278
20
36.8389
10
115.6955
20
36.4693
10
115.5277
20
36.1144
10
115.3259
20
35.7777
10
115.092
20
35.4624
10
114.8284
20
35.1716
10
114.5376
20
34.908
10
114.2223
20
34.6741
10
113.8856
20
34.4723
10
113.5307
20
34.3045
10
113.1611
20
34.1722
10
112.7804
20
34.0769
10
112.3921
20
34.0193
10
112
20
34
10
111.6079
20
34.0193
10
111.2196
20
34.0769
10
110.8389
20
34.1722
10
110.4693
20
34.3045
10
110.1144
20
34.4723
10
109.7777
20
34.6741
10
109.4624
20
34.908
10
109.1716
20
35.1716
10
108.908
20
35.4624
10
108.6741
20
35.7777
10
108.4723
20
36.1144
10
108.3045
20
36.4693
10
108.1722
20
36.8389
10
108.0769
20
37.2196
10
108.0193
20
37.6079
10
108
20
38
10
108.0193
20
38.3921
10
108.0769
20
38.7804
10
108.1722
20
39.1611
10
108.3045
20
39.5307
10
108.4723
20
39.8856
10
108.6741
20
40.2223
10
108.908
20
40.5376
10
109.1716
20
40.8284
10
109.4624
20
41.092
10
109.7777
20
41.3259
10
110.1144
20
41.5277
10
110.4693
20
41.6955
10
110.8389
20
41.8278
10
111.2196
20
41.9231
10
111.6079
20
41.9807
10
112
20
42
10
112.3921
20
41.9807
10
112.7804
20
41.9231
10
113.1611
20
41.8278
10
113.5307
20
41.6955
10
113.8856
20
41.5277
10
114.2223
20
41.3259
10
114.5376
20
41.092
10
114.8284
20
40.8284
10
115.092
20
40.5376
10
115.3259
20
40.2223
10
115.5277
20
39.8856
10
115.6955
20
39.5307
10
115.8278
20
39.1611
10
115.9231
20
38.7804
10
115.9807
20
38.3921
0
ENDSEC
0
EOF
