0
SECTION
2
HEADER
9
$ACADVER
1
AC1015
9
$INSUNITS
70
4
0
ENDSEC
0
SECTION
2
ENTITIES
0
LWPOLYLINE
8
12_bin_floor_t3.0
100
AcDbEntity
100
AcDbPolyline
90
5
70
1
43
0.0
10
0
20
68
10
0
20
-68
10
100
20
-68
10
100
20
68
10
0
20
68
0
LWPOLYLINE
8
12_bin_floor_t3.0
100
AcDbEntity
100
AcDbPolyline
90
65
70
1
43
0.0
10
10.4645
20
-54.4689
10
10.6123
20
-54.5218
10
10.7542
20
-54.5889
10
10.8889
20
-54.6696
10
11.015
20
-54.7632
10
11.1314
20
-54.8686
10
11.2368
20
-54.985
10
11.3304
20
-55.1111
10
11.4111
20
-55.2458
10
11.4782
20
-55.3877
10
11.5311
20
-55.5355
10
11.5693
20
-55.6879
10
11.5923
20
-55.8432
10
11.6
20
-56
10
11.5923
20
-56.1568
10
11.5693
20
-56.3121
10
11.5311
20
-56.4645
10
11.4782
20
-56.6123
10
11.4111
20
-56.7542
10
11.3304
20
-56.8889
10
11.2368
20
-57.015
10
11.1314
20
-57.1314
10
11.015
20
-57.2368
10
10.8889
20
-57.3304
10
10.7542
20
-57.4111
10
10.6123
20
-57.4782
10
10.4645
20
-57.5311
10
10.3121
20
-57.5693
10
10.1568
20
-57.5923
10
10
20
-57.6
10
9.8432
20
-57.5923
10
9.6879
20
-57.5693
10
9.5355
20
-57.5311
10
9.3877
20
-57.4782
10
9.2458
20
-57.4111
10
9.1111
20
-57.3304
10
8.985
20
-57.2368
10
8.8686
20
-57.1314
10
8.7632
20
-57.015
10
8.6696
20
-56.8889
10
8.5889
20
-56.7542
10
8.5218
20
-56.6123
10
8.4689
20
-56.4645
10
8.4307
20
-56.3121
10
8.4077
20
-56.1568
10
8.4
20
-56
10
8.4077
20
-55.8432
10
8.4307
20
-55.6879
10
8.4689
20
-55.5355
10
8.5218
20
-55.3877
10
8.5889
20
-55.2458
10
8.6696
20
-55.1111
10
8.7632
20
-54.985
10
8.8686
20
-54.8686
10
8.985
20
-54.7632
10
9.1111
20
-54.6696
10
9.2458
20
-54.5889
10
9.3877
20
-54.5218
10
9.5355
20
-54.4689
10
9.6879
20
-54.4307
10
9.8432
20
-54.4077
10
10
20
-54.4
10
10.1568
20
-54.4077
10
10.3121
20
-54.4307
10
10.4645
20
-54.4689
0
LWPOLYLINE
8
12_bin_floor_t3.0
100
AcDbEntity
100
AcDbPolyline
90
65
70
1
43
0.0
10
10.6123
20
57.4782
10
10.7542
20
57.4111
10
10.8889
20
57.3304
10
11.015
20
57.2368
10
11.1314
20
57.1314
10
11.2368
20
57.015
10
11.3304
20
56.8889
10
11.4111
20
56.7542
10
11.4782
20
56.6123
10
11.5311
20
56.4645
10
11.5693
20
56.3121
10
11.5923
20
56.1568
10
11.6
20
56
10
11.5923
20
55.8432
10
11.5693
20
55.6879
10
11.5311
20
55.5355
10
11.4782
20
55.3877
10
11.4111
20
55.2458
10
11.3304
20
55.1111
10
11.2368
20
54.985
10
11.1314
20
54.8686
10
11.015
20
54.7632
10
10.8889
20
54.6696
10
10.7542
20
54.5889
10
10.6123
20
54.5218
10
10.4645
20
54.4689
10
10.3121
20
54.4307
10
10.1568
20
54.4077
10
10
20
54.4
10
9.8432
20
54.4077
10
9.6879
20
54.4307
10
9.5355
20
54.4689
10
9.3877
20
54.5218
10
9.2458
20
54.5889
10
9.1111
20
54.6696
10
8.985
20
54.7632
10
8.8686
20
54.8686
10
8.7632
20
54.985
10
8.6696
20
55.1111
10
8.5889
20
55.2458
10
8.5218
20
55.3877
10
8.4689
20
55.5355
10
8.4307
20
55.6879
10
8.4077
20
55.8432
10
8.4
20
56
10
8.4077
20
56.1568
10
8.4307
20
56.3121
10
8.4689
20
56.4645
10
8.5218
20
56.6123
10
8.5889
20
56.7542
10
8.6696
20
56.8889
10
8.7632
20
57.015
10
8.8686
20
57.1314
10
8.985
20
57.2368
10
9.1111
20
57.3304
10
9.2458
20
57.4111
10
9.3877
20
57.4782
10
9.5355
20
57.5311
10
9.6879
20
57.5693
10
9.8432
20
57.5923
10
10
20
57.6
10
10.1568
20
57.5923
10
10.3121
20
57.5693
10
10.4645
20
57.5311
10
10.6123
20
57.4782
0
LWPOLYLINE
8
12_bin_floor_t3.0
100
AcDbEntity
100
AcDbPolyline
90
65
70
1
43
0.0
10
90.7542
20
-54.5889
10
90.8889
20
-54.6696
10
91.015
20
-54.7632
10
91.1314
20
-54.8686
10
91.2368
20
-54.985
10
91.3304
20
-55.1111
10
91.4111
20
-55.2458
10
91.4782
20
-55.3877
10
91.5311
20
-55.5355
10
91.5693
20
-55.6879
10
91.5923
20
-55.8432
10
91.6
20
-56
10
91.5923
20
-56.1568
10
91.5693
20
-56.3121
10
91.5311
20
-56.4645
10
91.4782
20
-56.6123
10
91.4111
20
-56.7542
10
91.3304
20
-56.8889
10
91.2368
20
-57.015
10
91.1314
20
-57.1314
10
91.015
20
-57.2368
10
90.8889
20
-57.3304
10
90.7542
20
-57.4111
10
90.6123
20
-57.4782
10
90.4645
20
-57.5311
10
90.3121
20
-57.5693
10
90.1568
20
-57.5923
10
90
20
-57.6
10
89.8432
20
-57.5923
10
89.6879
20
-57.5693
10
89.5355
20
-57.5311
10
89.3877
20
-57.4782
10
89.2458
20
-57.4111
10
89.1111
20
-57.3304
10
88.985
20
-57.2368
10
88.8686
20
-57.1314
10
88.7632
20
-57.015
10
88.6696
20
-56.8889
10
88.5889
20
-56.7542
10
88.5218
20
-56.6123
10
88.4689
20
-56.4645
10
88.4307
20
-56.3121
10
88.4077
20
-56.1568
10
88.4
20
-56
10
88.4077
20
-55.8432
10
88.4307
20
-55.6879
10
88.4689
20
-55.5355
10
88.5218
20
-55.3877
10
88.5889
20
-55.2458
10
88.6696
20
-55.1111
10
88.7632
20
-54.985
10
88.8686
20
-54.8686
10
88.985
20
-54.7632
10
89.1111
20
-54.6696
10
89.2458
20
-54.5889
10
89.3877
20
-54.5218
10
89.5355
20
-54.4689
10
89.6879
20
-54.4307
10
89.8432
20
-54.4077
10
90
20
-54.4
10
90.1568
20
-54.4077
10
90.3121
20
-54.4307
10
90.4645
20
-54.4689
10
90.6123
20
-54.5218
10
90.7542
20
-54.5889
0
LWPOLYLINE
8
12_bin_floor_t3.0
100
AcDbEntity
100
AcDbPolyline
90
65
70
1
43
0.0
10
90.8889
20
57.3304
10
91.015
20
57.2368
10
91.1314
20
57.1314
10
91.2368
20
57.015
10
91.3304
20
56.8889
10
91.4111
20
56.7542
10
91.4782
20
56.6123
10
91.5311
20
56.4645
10
91.5693
20
56.3121
10
91.5923
20
56.1568
10
91.6
20
56
10
91.5923
20
55.8432
10
91.5693
20
55.6879
10
91.5311
20
55.5355
10
91.4782
20
55.3877
10
91.4111
20
55.2458
10
91.3304
20
55.1111
10
91.2368
20
54.985
10
91.1314
20
54.8686
10
91.015
20
54.7632
10
90.8889
20
54.6696
10
90.7542
20
54.5889
10
90.6123
20
54.5218
10
90.4645
20
54.4689
10
90.3121
20
54.4307
10
90.1568
20
54.4077
10
90
20
54.4
10
89.8432
20
54.4077
10
89.6879
20
54.4307
10
89.5355
20
54.4689
10
89.3877
20
54.5218
10
89.2458
20
54.5889
10
89.1111
20
54.6696
10
88.985
20
54.7632
10
88.8686
20
54.8686
10
88.7632
20
54.985
10
88.6696
20
55.1111
10
88.5889
20
55.2458
10
88.5218
20
55.3877
10
88.4689
20
55.5355
10
88.4307
20
55.6879
10
88.4077
20
55.8432
10
88.4
20
56
10
88.4077
20
56.1568
10
88.4307
20
56.3121
10
88.4689
20
56.4645
10
88.5218
20
56.6123
10
88.5889
20
56.7542
10
88.6696
20
56.8889
10
88.7632
20
57.015
10
88.8686
20
57.1314
10
88.985
20
57.2368
10
89.1111
20
57.3304
10
89.2458
20
57.4111
10
89.3877
20
57.4782
10
89.5355
20
57.5311
10
89.6879
20
57.5693
10
89.8432
20
57.5923
10
90
20
57.6
10
90.1568
20
57.5923
10
90.3121
20
57.5693
10
90.4645
20
57.5311
10
90.6123
20
57.4782
10
90.7542
20
57.4111
10
90.8889
20
57.3304
0
LWPOLYLINE
8
12_bin_floor_t3.0
100
AcDbEntity
100
AcDbPolyline
90
65
70
1
43
0.0
10
26.5376
20
-44.908
10
26.8284
20
-45.1716
10
27.092
20
-45.4624
10
27.3259
20
-45.7777
10
27.5277
20
-46.1144
10
27.6955
20
-46.4693
10
27.8278
20
-46.8389
10
27.9231
20
-47.2196
10
27.9807
20
-47.6079
10
28
20
-48
10
27.9807
20
-48.3921
10
27.9231
20
-48.7804
10
27.8278
20
-49.1611
10
27.6955
20
-49.5307
10
27.5277
20
-49.8856
10
27.3259
20
-50.2223
10
27.092
20
-50.5376
10
26.8284
20
-50.8284
10
26.5376
20
-51.092
10
26.2223
20
-51.3259
10
25.8856
20
-51.5277
10
25.5307
20
-51.6955
10
25.1611
20
-51.8278
10
24.7804
20
-51.9231
10
24.3921
20
-51.9807
10
24
20
-52
10
23.6079
20
-51.9807
10
23.2196
20
-51.9231
10
22.8389
20
-51.8278
10
22.4693
20
-51.6955
10
22.1144
20
-51.5277
10
21.7777
20
-51.3259
10
21.4624
20
-51.092
10
21.1716
20
-50.8284
10
20.908
20
-50.5376
10
20.6741
20
-50.2223
10
20.4723
20
-49.8856
10
20.3045
20
-49.5307
10
20.1722
20
-49.1611
10
20.0769
20
-48.7804
10
20.0193
20
-48.3921
10
20
20
-48
10
20.0193
20
-47.6079
10
20.0769
20
-47.2196
10
20.1722
20
-46.8389
10
20.3045
20
-46.4693
10
20.4723
20
-46.1144
10
20.6741
20
-45.7777
10
20.908
20
-45.4624
10
21.1716
20
-45.1716
10
21.4624
20
-44.908
10
21.7777
20
-44.6741
10
22.1144
20
-44.4723
10
22.4693
20
-44.3045
10
22.8389
20
-44.1722
10
23.2196
20
-44.0769
10
23.6079
20
-44.0193
10
24
20
-44
10
24.3921
20
-44.0193
10
24.7804
20
-44.0769
10
25.1611
20
-44.1722
10
25.5307
20
-44.3045
10
25.8856
20
-44.4723
10
26.2223
20
-44.6741
10
26.5376
20
-44.908
0
LWPOLYLINE
8
12_bin_floor_t3.0
100
AcDbEntity
100
AcDbPolyline
90
65
70
1
43
0.0
10
26.8284
20
2.8284
10
27.092
20
2.5376
10
27.3259
20
2.2223
10
27.5277
20
1.8856
10
27.6955
20
1.5307
10
27.8278
20
1.1611
10
27.9231
20
0.7804
10
27.9807
20
0.3921
10
28
20
0
10
27.9807
20
-0.3921
10
27.9231
20
-0.7804
10
27.8278
20
-1.1611
10
27.6955
20
-1.5307
10
27.5277
20
-1.8856
10
27.3259
20
-2.2223
10
27.092
20
-2.5376
10
26.8284
20
-2.8284
10
26.5376
20
-3.092
10
26.2223
20
-3.3259
10
25.8856
20
-3.5277
10
25.5307
20
-3.6955
10
25.1611
20
-3.8278
10
24.7804
20
-3.9231
10
24.3921
20
-3.9807
10
24
20
-4
10
23.6079
20
-3.9807
10
23.2196
20
-3.9231
10
22.8389
20
-3.8278
10
22.4693
20
-3.6955
10
22.1144
20
-3.5277
10
21.7777
20
-3.3259
10
21.4624
20
-3.092
10
21.1716
20
-2.8284
10
20.908
20
-2.5376
10
20.6741
20
-2.2223
10
20.4723
20
-1.8856
10
20.3045
20
-1.5307
10
20.1722
20
-1.1611
10
20.0769
20
-0.7804
10
20.0193
20
-0.3921
10
20
20
0
10
20.0193
20
0.3921
10
20.0769
20
0.7804
10
20.1722
20
1.1611
10
20.3045
20
1.5307
10
20.4723
20
1.8856
10
20.6741
20
2.2223
10
20.908
20
2.5376
10
21.1716
20
2.8284
10
21.4624
20
3.092
10
21.7777
20
3.3259
10
22.1144
20
3.5277
10
22.4693
20
3.6955
10
22.8389
20
3.8278
10
23.2196
20
3.9231
10
23.6079
20
3.9807
10
24
20
4
10
24.3921
20
3.9807
10
24.7804
20
3.9231
10
25.1611
20
3.8278
10
25.5307
20
3.6955
10
25.8856
20
3.5277
10
26.2223
20
3.3259
10
26.5376
20
3.092
10
26.8284
20
2.8284
0
LWPOLYLINE
8
12_bin_floor_t3.0
100
AcDbEntity
100
AcDbPolyline
90
65
70
1
43
0.0
10
27.092
20
50.5376
10
27.3259
20
50.2223
10
27.5277
20
49.8856
10
27.6955
20
49.5307
10
27.8278
20
49.1611
10
27.9231
20
48.7804
10
27.9807
20
48.3921
10
28
20
48
10
27.9807
20
47.6079
10
27.9231
20
47.2196
10
27.8278
20
46.8389
10
27.6955
20
46.4693
10
27.5277
20
46.1144
10
27.3259
20
45.7777
10
27.092
20
45.4624
10
26.8284
20
45.1716
10
26.5376
20
44.908
10
26.2223
20
44.6741
10
25.8856
20
44.4723
10
25.5307
20
44.3045
10
25.1611
20
44.1722
10
24.7804
20
44.0769
10
24.3921
20
44.0193
10
24
20
44
10
23.6079
20
44.0193
10
23.2196
20
44.0769
10
22.8389
20
44.1722
10
22.4693
20
44.3045
10
22.1144
20
44.4723
10
21.7777
20
44.6741
10
21.4624
20
44.908
10
21.1716
20
45.1716
10
20.908
20
45.4624
10
20.6741
20
45.7777
10
20.4723
20
46.1144
10
20.3045
20
46.4693
10
20.1722
20
46.8389
10
20.0769
20
47.2196
10
20.0193
20
47.6079
10
20
20
48
10
20.0193
20
48.3921
10
20.0769
20
48.7804
10
20.1722
20
49.1611
10
20.3045
20
49.5307
10
20.4723
20
49.8856
10
20.6741
20
50.2223
10
20.908
20
50.5376
10
21.1716
20
50.8284
10
21.4624
20
51.092
10
21.7777
20
51.3259
10
22.1144
20
51.5277
10
22.4693
20
51.6955
10
22.8389
20
51.8278
10
23.2196
20
51.9231
10
23.6079
20
51.9807
10
24
20
52
10
24.3921
20
51.9807
10
24.7804
20
51.9231
10
25.1611
20
51.8278
10
25.5307
20
51.6955
10
25.8856
20
51.5277
10
26.2223
20
51.3259
10
26.5376
20
51.092
10
26.8284
20
50.8284
10
27.092
20
50.5376
0
LWPOLYLINE
8
12_bin_floor_t3.0
100
AcDbEntity
100
AcDbPolyline
90
65
70
1
43
0.0
10
49.3259
20
-45.7777
10
49.5277
20
-46.1144
10
49.6955
20
-46.4693
10
49.8278
20
-46.8389
10
49.9231
20
-47.2196
10
49.9807
20
-47.6079
10
50
20
-48
10
49.9807
20
-48.3921
10
49.9231
20
-48.7804
10
49.8278
20
-49.1611
10
49.6955
20
-49.5307
10
49.5277
20
-49.8856
10
49.3259
20
-50.2223
10
49.092
20
-50.5376
10
48.8284
20
-50.8284
10
48.5376
20
-51.092
10
48.2223
20
-51.3259
10
47.8856
20
-51.5277
10
47.5307
20
-51.6955
10
47.1611
20
-51.8278
10
46.7804
20
-51.9231
10
46.3921
20
-51.9807
10
46
20
-52
10
45.6079
20
-51.9807
10
45.2196
20
-51.9231
10
44.8389
20
-51.8278
10
44.4693
20
-51.6955
10
44.1144
20
-51.5277
10
43.7777
20
-51.3259
10
43.4624
20
-51.092
10
43.1716
20
-50.8284
10
42.908
20
-50.5376
10
42.6741
20
-50.2223
10
42.4723
20
-49.8856
10
42.3045
20
-49.5307
10
42.1722
20
-49.1611
10
42.0769
20
-48.7804
10
42.0193
20
-48.3921
10
42
20
-48
10
42.0193
20
-47.6079
10
42.0769
20
-47.2196
10
42.1722
20
-46.8389
10
42.3045
20
-46.4693
10
42.4723
20
-46.1144
10
42.6741
20
-45.7777
10
42.908
20
-45.4624
10
43.1716
20
-45.1716
10
43.4624
20
-44.908
10
43.7777
20
-44.6741
10
44.1144
20
-44.4723
10
44.4693
20
-44.3045
10
44.8389
20
-44.1722
10
45.2196
20
-44.0769
10
45.6079
20
-44.0193
10
46
20
-44
10
46.3921
20
-44.0193
10
46.7804
20
-44.0769
10
47.1611
20
-44.1722
10
47.5307
20
-44.3045
10
47.8856
20
-44.4723
10
48.2223
20
-44.6741
10
48.5376
20
-44.908
10
48.8284
20
-45.1716
10
49.092
20
-45.4624
10
49.3259
20
-45.7777
0
LWPOLYLINE
8
12_bin_floor_t3.0
100
AcDbEntity
100
AcDbPolyline
90
65
70
1
43
0.0
10
49.5277
20
1.8856
10
49.6955
20
1.5307
10
49.8278
20
1.1611
10
49.9231
20
0.7804
10
49.9807
20
0.3921
10
50
20
0
10
49.9807
20
-0.3921
10
49.9231
20
-0.7804
10
49.8278
20
-1.1611
10
49.6955
20
-1.5307
10
49.5277
20
-1.8856
10
49.3259
20
-2.2223
10
49.092
20
-2.5376
10
48.8284
20
-2.8284
10
48.5376
20
-3.092
10
48.2223
20
-3.3259
10
47.8856
20
-3.5277
10
47.5307
20
-3.6955
10
47.1611
20
-3.8278
10
46.7804
20
-3.9231
10
46.3921
20
-3.9807
10
46
20
-4
10
45.6079
20
-3.9807
10
45.2196
20
-3.9231
10
44.8389
20
-3.8278
10
44.4693
20
-3.6955
10
44.1144
20
-3.5277
10
43.7777
20
-3.3259
10
43.4624
20
-3.092
10
43.1716
20
-2.8284
10
42.908
20
-2.5376
10
42.6741
20
-2.2223
10
42.4723
20
-1.8856
10
42.3045
20
-1.5307
10
42.1722
20
-1.1611
10
42.0769
20
-0.7804
10
42.0193
20
-0.3921
10
42
20
0
10
42.0193
20
0.3921
10
42.0769
20
0.7804
10
42.1722
20
1.1611
10
42.3045
20
1.5307
10
42.4723
20
1.8856
10
42.6741
20
2.2223
10
42.908
20
2.5376
10
43.1716
20
2.8284
10
43.4624
20
3.092
10
43.7777
20
3.3259
10
44.1144
20
3.5277
10
44.4693
20
3.6955
10
44.8389
20
3.8278
10
45.2196
20
3.9231
10
45.6079
20
3.9807
10
46
20
4
10
46.3921
20
3.9807
10
46.7804
20
3.9231
10
47.1611
20
3.8278
10
47.5307
20
3.6955
10
47.8856
20
3.5277
10
48.2223
20
3.3259
10
48.5376
20
3.092
10
48.8284
20
2.8284
10
49.092
20
2.5376
10
49.3259
20
2.2223
10
49.5277
20
1.8856
0
LWPOLYLINE
8
12_bin_floor_t3.0
100
AcDbEntity
100
AcDbPolyline
90
65
70
1
43
0.0
10
49.6955
20
49.5307
10
49.8278
20
49.1611
10
49.9231
20
48.7804
10
49.9807
20
48.3921
10
50
20
48
10
49.9807
20
47.6079
10
49.9231
20
47.2196
10
49.8278
20
46.8389
10
49.6955
20
46.4693
10
49.5277
20
46.1144
10
49.3259
20
45.7777
10
49.092
20
45.4624
10
48.8284
20
45.1716
10
48.5376
20
44.908
10
48.2223
20
44.6741
10
47.8856
20
44.4723
10
47.5307
20
44.3045
10
47.1611
20
44.1722
10
46.7804
20
44.0769
10
46.3921
20
44.0193
10
46
20
44
10
45.6079
20
44.0193
10
45.2196
20
44.0769
10
44.8389
20
44.1722
10
44.4693
20
44.3045
10
44.1144
20
44.4723
10
43.7777
20
44.6741
10
43.4624
20
44.908
10
43.1716
20
45.1716
10
42.908
20
45.4624
10
42.6741
20
45.7777
10
42.4723
20
46.1144
10
42.3045
20
46.4693
10
42.1722
20
46.8389
10
42.0769
20
47.2196
10
42.0193
20
47.6079
10
42
20
48
10
42.0193
20
48.3921
10
42.0769
20
48.7804
10
42.1722
20
49.1611
10
42.3045
20
49.5307
10
42.4723
20
49.8856
10
42.6741
20
50.2223
10
42.908
20
50.5376
10
43.1716
20
50.8284
10
43.4624
20
51.092
10
43.7777
20
51.3259
10
44.1144
20
51.5277
10
44.4693
20
51.6955
10
44.8389
20
51.8278
10
45.2196
20
51.9231
10
45.6079
20
51.9807
10
46
20
52
10
46.3921
20
51.9807
10
46.7804
20
51.9231
10
47.1611
20
51.8278
10
47.5307
20
51.6955
10
47.8856
20
51.5277
10
48.2223
20
51.3259
10
48.5376
20
51.092
10
48.8284
20
50.8284
10
49.092
20
50.5376
10
49.3259
20
50.2223
10
49.5277
20
49.8856
10
49.6955
20
49.5307
0
LWPOLYLINE
8
12_bin_floor_t3.0
100
AcDbEntity
100
AcDbPolyline
90
65
70
1
43
0.0
10
71.8278
20
-46.8389
10
71.9231
20
-47.2196
10
71.9807
20
-47.6079
10
72
20
-48
10
71.9807
20
-48.3921
10
71.9231
20
-48.7804
10
71.8278
20
-49.1611
10
71.6955
20
-49.5307
10
71.5277
20
-49.8856
10
71.3259
20
-50.2223
10
71.092
20
-50.5376
10
70.8284
20
-50.8284
10
70.5376
20
-51.092
10
70.2223
20
-51.3259
10
69.8856
20
-51.5277
10
69.5307
20
-51.6955
10
69.1611
20
-51.8278
10
68.7804
20
-51.9231
10
68.3921
20
-51.9807
10
68
20
-52
10
67.6079
20
-51.9807
10
67.2196
20
-51.9231
10
66.8389
20
-51.8278
10
66.4693
20
-51.6955
10
66.1144
20
-51.5277
10
65.7777
20
-51.3259
10
65.4624
20
-51.092
10
65.1716
20
-50.8284
10
64.908
20
-50.5376
10
64.6741
20
-50.2223
10
64.4723
20
-49.8856
10
64.3045
20
-49.5307
10
64.1722
20
-49.1611
10
64.0769
20
-48.7804
10
64.0193
20
-48.3921
10
64
20
-48
10
64.0193
20
-47.6079
10
64.0769
20
-47.2196
10
64.1722
20
-46.8389
10
64.3045
20
-46.4693
10
64.4723
20
-46.1144
10
64.6741
20
-45.7777
10
64.908
20
-45.4624
10
65.1716
20
-45.1716
10
65.4624
20
-44.908
10
65.7777
20
-44.6741
10
66.1144
20
-44.4723
10
66.4693
20
-44.3045
10
66.8389
20
-44.1722
10
67.2196
20
-44.0769
10
67.6079
20
-44.0193
10
68
20
-44
10
68.3921
20
-44.0193
10
68.7804
20
-44.0769
10
69.1611
20
-44.1722
10
69.5307
20
-44.3045
10
69.8856
20
-44.4723
10
70.2223
20
-44.6741
10
70.5376
20
-44.908
10
70.8284
20
-45.1716
10
71.092
20
-45.4624
10
71.3259
20
-45.7777
10
71.5277
20
-46.1144
10
71.6955
20
-46.4693
10
71.8278
20
-46.8389
0
LWPOLYLINE
8
12_bin_floor_t3.0
100
AcDbEntity
100
AcDbPolyline
90
65
70
1
43
0.0
10
71.9231
20
0.7804
10
71.9807
20
0.3921
10
72
20
0
10
71.9807
20
-0.3921
10
71.9231
20
-0.7804
10
71.8278
20
-1.1611
10
71.6955
20
-1.5307
10
71.5277
20
-1.8856
10
71.3259
20
-2.2223
10
71.092
20
-2.5376
10
70.8284
20
-2.8284
10
70.5376
20
-3.092
10
70.2223
20
-3.3259
10
69.8856
20
-3.5277
10
69.5307
20
-3.6955
10
69.1611
20
-3.8278
10
68.7804
20
-3.9231
10
68.3921
20
-3.9807
10
68
20
-4
10
67.6079
20
-3.9807
10
67.2196
20
-3.9231
10
66.8389
20
-3.8278
10
66.4693
20
-3.6955
10
66.1144
20
-3.5277
10
65.7777
20
-3.3259
10
65.4624
20
-3.092
10
65.1716
20
-2.8284
10
64.908
20
-2.5376
10
64.6741
20
-2.2223
10
64.4723
20
-1.8856
10
64.3045
20
-1.5307
10
64.1722
20
-1.1611
10
64.0769
20
-0.7804
10
64.0193
20
-0.3921
10
64
20
0
10
64.0193
20
0.3921
10
64.0769
20
0.7804
10
64.1722
20
1.1611
10
64.3045
20
1.5307
10
64.4723
20
1.8856
10
64.6741
20
2.2223
10
64.908
20
2.5376
10
65.1716
20
2.8284
10
65.4624
20
3.092
10
65.7777
20
3.3259
10
66.1144
20
3.5277
10
66.4693
20
3.6955
10
66.8389
20
3.8278
10
67.2196
20
3.9231
10
67.6079
20
3.9807
10
68
20
4
10
68.3921
20
3.9807
10
68.7804
20
3.9231
10
69.1611
20
3.8278
10
69.5307
20
3.6955
10
69.8856
20
3.5277
10
70.2223
20
3.3259
10
70.5376
20
3.092
10
70.8284
20
2.8284
10
71.092
20
2.5376
10
71.3259
20
2.2223
10
71.5277
20
1.8856
10
71.6955
20
1.5307
10
71.8278
20
1.1611
10
71.9231
20
0.7804
0
LWPOLYLINE
8
12_bin_floor_t3.0
100
AcDbEntity
100
AcDbPolyline
90
65
70
1
43
0.0
10
71.9807
20
48.3921
10
72
20
48
10
71.9807
20
47.6079
10
71.9231
20
47.2196
10
71.8278
20
46.8389
10
71.6955
20
46.4693
10
71.5277
20
46.1144
10
71.3259
20
45.7777
10
71.092
20
45.4624
10
70.8284
20
45.1716
10
70.5376
20
44.908
10
70.2223
20
44.6741
10
69.8856
20
44.4723
10
69.5307
20
44.3045
10
69.1611
20
44.1722
10
68.7804
20
44.0769
10
68.3921
20
44.0193
10
68
20
44
10
67.6079
20
44.0193
10
67.2196
20
44.0769
10
66.8389
20
44.1722
10
66.4693
20
44.3045
10
66.1144
20
44.4723
10
65.7777
20
44.6741
10
65.4624
20
44.908
10
65.1716
20
45.1716
10
64.908
20
45.4624
10
64.6741
20
45.7777
10
64.4723
20
46.1144
10
64.3045
20
46.4693
10
64.1722
20
46.8389
10
64.0769
20
47.2196
10
64.0193
20
47.6079
10
64
20
48
10
64.0193
20
48.3921
10
64.0769
20
48.7804
10
64.1722
20
49.1611
10
64.3045
20
49.5307
10
64.4723
20
49.8856
10
64.6741
20
50.2223
10
64.908
20
50.5376
10
65.1716
20
50.8284
10
65.4624
20
51.092
10
65.7777
20
51.3259
10
66.1144
20
51.5277
10
66.4693
20
51.6955
10
66.8389
20
51.8278
10
67.2196
20
51.9231
10
67.6079
20
51.9807
10
68
20
52
10
68.3921
20
51.9807
10
68.7804
20
51.9231
10
69.1611
20
51.8278
10
69.5307
20
51.6955
10
69.8856
20
51.5277
10
70.2223
20
51.3259
10
70.5376
20
51.092
10
70.8284
20
50.8284
10
71.092
20
50.5376
10
71.3259
20
50.2223
10
71.5277
20
49.8856
10
71.6955
20
49.5307
10
71.8278
20
49.1611
10
71.9231
20
48.7804
10
71.9807
20
48.3921
0
ENDSEC
0
EOF
