0
SECTION
2
HEADER
9
$ACADVER
1
AC1015
9
$INSUNITS
70
4
0
ENDSEC
0
SECTION
2
ENTITIES
0
LWPOLYLINE
8
13_bin_side_t3.0
100
AcDbEntity
100
AcDbPolyline
90
45
70
1
43
0.0
10
89.2
20
0
10
132
20
0
10
132
20
52
10
0
20
52
10
0
20
0
10
42.8
20
0
10
42.6469
20
0.0304
10
42.5172
20
0.1172
10
42.4304
20
0.2469
10
42.4
20
0.4
10
42.4
20
9.6
10
42.4304
20
9.7531
10
42.5172
20
9.8828
10
42.6469
20
9.9696
10
42.8
20
10
10
45.2
20
10
10
45.3531
20
9.9696
10
45.4828
20
9.8828
10
45.5696
20
9.7531
10
45.6
20
9.6
10
45.6
20
0.4
10
45.5696
20
0.2469
10
45.4828
20
0.1172
10
45.3531
20
0.0304
10
45.2
20
0
10
86.8
20
0
10
86.6469
20
0.0304
10
86.5172
20
0.1172
10
86.4304
20
0.2469
10
86.4
20
0.4
10
86.4
20
9.6
10
86.4304
20
9.7531
10
86.5172
20
9.8828
10
86.6469
20
9.9696
10
86.8
20
10
10
89.2
20
10
10
89.3531
20
9.9696
10
89.4828
20
9.8828
10
89.5696
20
9.7531
10
89.6
20
9.6
10
89.6
20
0.4
10
89.5696
20
0.2469
10
89.4828
20
0.1172
10
89.3531
20
0.0304
10
89.2
20
0
0
LWPOLYLINE
8
13_bin_side_t3.0
100
AcDbEntity
100
AcDbPolyline
90
65
70
1
43
0.0
10
10.6123
20
9.4782
10
10.7542
20
9.4111
10
10.8889
20
9.3304
10
11.015
20
9.2368
10
11.1314
20
9.1314
10
11.2368
20
9.015
10
11.3304
20
8.8889
10
11.4111
20
8.7542
10
11.4782
20
8.6123
10
11.5311
20
8.4645
10
11.5693
20
8.3121
10
11.5923
20
8.1568
10
11.6
20
8
10
11.5923
20
7.8432
10
11.5693
20
7.6879
10
11.5311
20
7.5355
10
11.4782
20
7.3877
10
11.4111
20
7.2458
10
11.3304
20
7.1111
10
11.2368
20
6.985
10
11.1314
20
6.8686
10
11.015
20
6.7632
10
10.8889
20
6.6696
10
10.7542
20
6.5889
10
10.6123
20
6.5218
10
10.4645
20
6.4689
10
10.3121
20
6.4307
10
10.1568
20
6.4077
10
10
20
6.4
10
9.8432
20
6.4077
10
9.6879
20
6.4307
10
9.5355
20
6.4689
10
9.3877
20
6.5218
10
9.2458
20
6.5889
10
9.1111
20
6.6696
10
8.985
20
6.7632
10
8.8686
20
6.8686
10
8.7632
20
6.985
10
8.6696
20
7.1111
10
8.5889
20
7.2458
10
8.5218
20
7.3877
10
8.4689
20
7.5355
10
8.4307
20
7.6879
10
8.4077
20
7.8432
10
8.4
20
8
10
8.4077
20
8.1568
10
8.4307
20
8.3121
10
8.4689
20
8.4645
10
8.5218
20
8.6123
10
8.5889
20
8.7542
10
8.6696
20
8.8889
10
8.7632
20
9.015
10
8.8686
20
9.1314
10
8.985
20
9.2368
10
9.1111
20
9.3304
10
9.2458
20
9.4111
10
9.3877
20
9.4782
10
9.5355
20
9.5311
10
9.6879
20
9.5693
10
9.8432
20
9.5923
10
10
20
9.6
10
10.1568
20
9.5923
10
10.3121
20
9.5693
10
10.4645
20
9.5311
10
10.6123
20
9.4782
0
LWPOLYLINE
8
13_bin_side_t3.0
100
AcDbEntity
100
AcDbPolyline
90
65
70
1
43
0.0
10
122.7542
20
9.4111
10
122.8889
20
9.3304
10
123.015
20
9.2368
10
123.1314
20
9.1314
10
123.2368
20
9.015
10
123.3304
20
8.8889
10
123.4111
20
8.7542
10
123.4782
20
8.6123
10
123.5311
20
8.4645
10
123.5693
20
8.3121
10
123.5923
20
8.1568
10
123.6
20
8
10
123.5923
20
7.8432
10
123.5693
20
7.6879
10
123.5311
20
7.5355
10
123.4782
20
7.3877
10
123.4111
20
7.2458
10
123.3304
20
7.1111
10
123.2368
20
6.985
10
123.1314
20
6.8686
10
123.015
20
6.7632
10
122.8889
20
6.6696
10
122.7542
20
6.5889
10
122.6123
20
6.5218
10
122.4645
20
6.4689
10
122.3121
20
6.4307
10
122.1568
20
6.4077
10
122
20
6.4
10
121.8432
20
6.4077
10
121.6879
20
6.4307
10
121.5355
20
6.4689
10
121.3877
20
6.5218
10
121.2458
20
6.5889
10
121.1111
20
6.6696
10
120.985
20
6.7632
10
120.8686
20
6.8686
10
120.7632
20
6.985
10
120.6696
20
7.1111
10
120.5889
20
7.2458
10
120.5218
20
7.3877
10
120.4689
20
7.5355
10
120.4307
20
7.6879
10
120.4077
20
7.8432
10
120.4
20
8
10
120.4077
20
8.1568
10
120.4307
20
8.3121
10
120.4689
20
8.4645
10
120.5218
20
8.6123
10
120.5889
20
8.7542
10
120.6696
20
8.8889
10
120.7632
20
9.015
10
120.8686
20
9.1314
10
120.985
20
9.2368
10
121.1111
20
9.3304
10
121.2458
20
9.4111
10
121.3877
20
9.4782
10
121.5355
20
9.5311
10
121.6879
20
9.5693
10
121.8432
20
9.5923
10
122
20
9.6
10
122.1568
20
9.5923
10
122.3121
20
9.5693
10
122.4645
20
9.5311
10
122.6123
20
9.4782
10
122.7542
20
9.4111
0
LWPOLYLINE
8
13_bin_side_t3.0
100
AcDbEntity
100
AcDbPolyline
90
65
70
1
43
0.0
10
26.2223
20
23.3259
10
26.5376
20
23.092
10
26.8284
20
22.8284
10
27.092
20
22.5376
10
27.3259
20
22.2223
10
27.5277
20
21.8856
10
27.6955
20
21.5307
10
27.8278
20
21.1611
10
27.9231
20
20.7804
10
27.9807
20
20.3921
10
28
20
20
10
27.9807
20
19.6079
10
27.9231
20
19.2196
10
27.8278
20
18.8389
10
27.6955
20
18.4693
10
27.5277
20
18.1144
10
27.3259
20
17.7777
10
27.092
20
17.4624
10
26.8284
20
17.1716
10
26.5376
20
16.908
10
26.2223
20
16.6741
10
25.8856
20
16.4723
10
25.5307
20
16.3045
10
25.1611
20
16.1722
10
24.7804
20
16.0769
10
24.3921
20
16.0193
10
24
20
16
10
23.6079
20
16.0193
10
23.2196
20
16.0769
10
22.8389
20
16.1722
10
22.4693
20
16.3045
10
22.1144
20
16.4723
10
21.7777
20
16.6741
10
21.4624
20
16.908
10
21.1716
20
17.1716
10
20.908
20
17.4624
10
20.6741
20
17.7777
10
20.4723
20
18.1144
10
20.3045
20
18.4693
10
20.1722
20
18.8389
10
20.0769
20
19.2196
10
20.0193
20
19.6079
10
20
20
20
10
20.0193
20
20.3921
10
20.0769
20
20.7804
10
20.1722
20
21.1611
10
20.3045
20
21.5307
10
20.4723
20
21.8856
10
20.6741
20
22.2223
10
20.908
20
22.5376
10
21.1716
20
22.8284
10
21.4624
20
23.092
10
21.7777
20
23.3259
10
22.1144
20
23.5277
10
22.4693
20
23.6955
10
22.8389
20
23.8278
10
23.2196
20
23.9231
10
23.6079
20
23.9807
10
24
20
24
10
24.3921
20
23.9807
10
24.7804
20
23.9231
10
25.1611
20
23.8278
10
25.5307
20
23.6955
10
25.8856
20
23.5277
10
26.2223
20
23.3259
0
LWPOLYLINE
8
13_bin_side_t3.0
100
AcDbEntity
100
AcDbPolyline
90
65
70
1
43
0.0
10
26.5376
20
41.092
10
26.8284
20
40.8284
10
27.092
20
40.5376
10
27.3259
20
40.2223
10
27.5277
20
39.8856
10
27.6955
20
39.5307
10
27.8278
20
39.1611
10
27.9231
20
38.7804
10
27.9807
20
38.3921
10
28
20
38
10
27.9807
20
37.6079
10
27.9231
20
37.2196
10
27.8278
20
36.8389
10
27.6955
20
36.4693
10
27.5277
20
36.1144
10
27.3259
20
35.7777
10
27.092
20
35.4624
10
26.8284
20
35.1716
10
26.5376
20
34.908
10
26.2223
20
34.6741
10
25.8856
20
34.4723
10
25.5307
20
34.3045
10
25.1611
20
34.1722
10
24.7804
20
34.0769
10
24.3921
20
34.0193
10
24
20
34
10
23.6079
20
34.0193
10
23.2196
20
34.0769
10
22.8389
20
34.1722
10
22.4693
20
34.3045
10
22.1144
20
34.4723
10
21.7777
20
34.6741
10
21.4624
20
34.908
10
21.1716
20
35.1716
10
20.908
20
35.4624
10
20.6741
20
35.7777
10
20.4723
20
36.1144
10
20.3045
20
36.4693
10
20.1722
20
36.8389
10
20.0769
20
37.2196
10
20.0193
20
37.6079
10
20
20
38
10
20.0193
20
38.3921
10
20.0769
20
38.7804
10
20.1722
20
39.1611
10
20.3045
20
39.5307
10
20.4723
20
39.8856
10
20.6741
20
40.2223
10
20.908
20
40.5376
10
21.1716
20
40.8284
10
21.4624
20
41.092
10
21.7777
20
41.3259
10
22.1144
20
41.5277
10
22.4693
20
41.6955
10
22.8389
20
41.8278
10
23.2196
20
41.9231
10
23.6079
20
41.9807
10
24
20
42
10
24.3921
20
41.9807
10
24.7804
20
41.9231
10
25.1611
20
41.8278
10
25.5307
20
41.6955
10
25.8856
20
41.5277
10
26.2223
20
41.3259
10
26.5376
20
41.092
0
LWPOLYLINE
8
13_bin_side_t3.0
100
AcDbEntity
100
AcDbPolyline
90
65
70
1
43
0.0
10
50.8284
20
22.8284
10
51.092
20
22.5376
10
51.3259
20
22.2223
10
51.5277
20
21.8856
10
51.6955
20
21.5307
10
51.8278
20
21.1611
10
51.9231
20
20.7804
10
51.9807
20
20.3921
10
52
20
20
10
51.9807
20
19.6079
10
51.9231
20
19.2196
10
51.8278
20
18.8389
10
51.6955
20
18.4693
10
51.5277
20
18.1144
10
51.3259
20
17.7777
10
51.092
20
17.4624
10
50.8284
20
17.1716
10
50.5376
20
16.908
10
50.2223
20
16.6741
10
49.8856
20
16.4723
10
49.5307
20
16.3045
10
49.1611
20
16.1722
10
48.7804
20
16.0769
10
48.3921
20
16.0193
10
48
20
16
10
47.6079
20
16.0193
10
47.2196
20
16.0769
10
46.8389
20
16.1722
10
46.4693
20
16.3045
10
46.1144
20
16.4723
10
45.7777
20
16.6741
10
45.4624
20
16.908
10
45.1716
20
17.1716
10
44.908
20
17.4624
10
44.6741
20
17.7777
10
44.4723
20
18.1144
10
44.3045
20
18.4693
10
44.1722
20
18.8389
10
44.0769
20
19.2196
10
44.0193
20
19.6079
10
44
20
20
10
44.0193
20
20.3921
10
44.0769
20
20.7804
10
44.1722
20
21.1611
10
44.3045
20
21.5307
10
44.4723
20
21.8856
10
44.6741
20
22.2223
10
44.908
20
22.5376
10
45.1716
20
22.8284
10
45.4624
20
23.092
10
45.7777
20
23.3259
10
46.1144
20
23.5277
10
46.4693
20
23.6955
10
46.8389
20
23.8278
10
47.2196
20
23.9231
10
47.6079
20
23.9807
10
48
20
24
10
48.3921
20
23.9807
10
48.7804
20
23.9231
10
49.1611
20
23.8278
10
49.5307
20
23.6955
10
49.8856
20
23.5277
10
50.2223
20
23.3259
10
50.5376
20
23.092
10
50.8284
20
22.8284
0
LWPOLYLINE
8
13_bin_side_t3.0
100
AcDbEntity
100
AcDbPolyline
90
65
70
1
43
0.0
10
51.092
20
40.5376
10
51.3259
20
40.2223
10
51.5277
20
39.8856
10
51.6955
20
39.5307
10
51.8278
20
39.1611
10
51.9231
20
38.7804
10
51.9807
20
38.3921
10
52
20
38
10
51.9807
20
37.6079
10
51.9231
20
37.2196
10
51.8278
20
36.8389
10
51.6955
20
36.4693
10
51.5277
20
36.1144
10
51.3259
20
35.7777
10
51.092
20
35.4624
10
50.8284
20
35.1716
10
50.5376
20
34.908
10
50.2223
20
34.6741
10
49.8856
20
34.4723
10
49.5307
20
34.3045
10
49.1611
20
34.1722
10
48.7804
20
34.0769
10
48.3921
20
34.0193
10
48
20
34
10
47.6079
20
34.0193
10
47.2196
20
34.0769
10
46.8389
20
34.1722
10
46.4693
20
34.3045
10
46.1144
20
34.4723
10
45.7777
20
34.6741
10
45.4624
20
34.908
10
45.1716
20
35.1716
10
44.908
20
35.4624
10
44.6741
20
35.7777
10
44.4723
20
36.1144
10
44.3045
20
36.4693
10
44.1722
20
36.8389
10
44.0769
20
37.2196
10
44.0193
20
37.6079
10
44
20
38
10
44.0193
20
38.3921
10
44.0769
20
38.7804
10
44.1722
20
39.1611
10
44.3045
20
39.5307
10
44.4723
20
39.8856
10
44.6741
20
40.2223
10
44.908
20
40.5376
10
45.1716
20
40.8284
10
45.4624
20
41.092
10
45.7777
20
41.3259
10
46.1144
20
41.5277
10
46.4693
20
41.6955
10
46.8389
20
41.8278
10
47.2196
20
41.9231
10
47.6079
20
41.9807
10
48
20
42
10
48.3921
20
41.9807
10
48.7804
20
41.9231
10
49.1611
20
41.8278
10
49.5307
20
41.6955
10
49.8856
20
41.5277
10
50.2223
20
41.3259
10
50.5376
20
41.092
10
50.8284
20
40.8284
10
51.092
20
40.5376
0
LWPOLYLINE
8
13_bin_side_t3.0
100
AcDbEntity
100
AcDbPolyline
90
65
70
1
43
0.0
10
75.3259
20
22.2223
10
75.5277
20
21.8856
10
75.6955
20
21.5307
10
75.8278
20
21.1611
10
75.9231
20
20.7804
10
75.9807
20
20.3921
10
76
20
20
10
75.9807
20
19.6079
10
75.9231
20
19.2196
10
75.8278
20
18.8389
10
75.6955
20
18.4693
10
75.5277
20
18.1144
10
75.3259
20
17.7777
10
75.092
20
17.4624
10
74.8284
20
17.1716
10
74.5376
20
16.908
10
74.2223
20
16.6741
10
73.8856
20
16.4723
10
73.5307
20
16.3045
10
73.1611
20
16.1722
10
72.7804
20
16.0769
10
72.3921
20
16.0193
10
72
20
16
10
71.6079
20
16.0193
10
71.2196
20
16.0769
10
70.8389
20
16.1722
10
70.4693
20
16.3045
10
70.1144
20
16.4723
10
69.7777
20
16.6741
10
69.4624
20
16.908
10
69.1716
20
17.1716
10
68.908
20
17.4624
10
68.6741
20
17.7777
10
68.4723
20
18.1144
10
68.3045
20
18.4693
10
68.1722
20
18.8389
10
68.0769
20
19.2196
10
68.0193
20
19.6079
10
68
20
20
10
68.0193
20
20.3921
10
68.0769
20
20.7804
10
68.1722
20
21.1611
10
68.3045
20
21.5307
10
68.4723
20
21.8856
10
68.6741
20
22.2223
10
68.908
20
22.5376
10
69.1716
20
22.8284
10
69.4624
20
23.092
10
69.7777
20
23.3259
10
70.1144
20
23.5277
10
70.4693
20
23.6955
10
70.8389
20
23.8278
10
71.2196
20
23.9231
10
71.6079
20
23.9807
10
72
20
24
10
72.3921
20
23.9807
10
72.7804
20
23.9231
10
73.1611
20
23.8278
10
73.5307
20
23.6955
10
73.8856
20
23.5277
10
74.2223
20
23.3259
10
74.5376
20
23.092
10
74.8284
20
22.8284
10
75.092
20
22.5376
10
75.3259
20
22.2223
0
LWPOLYLINE
8
13_bin_side_t3.0
100
AcDbEntity
100
AcDbPolyline
90
65
70
1
43
0.0
10
75.5277
20
39.8856
10
75.6955
20
39.5307
10
75.8278
20
39.1611
10
75.9231
20
38.7804
10
75.9807
20
38.3921
10
76
20
38
10
75.9807
20
37.6079
10
75.9231
20
37.2196
10
75.8278
20
36.8389
10
75.6955
20
36.4693
10
75.5277
20
36.1144
10
75.3259
20
35.7777
10
75.092
20
35.4624
10
74.8284
20
35.1716
10
74.5376
20
34.908
10
74.2223
20
34.6741
10
73.8856
20
34.4723
10
73.5307
20
34.3045
10
73.1611
20
34.1722
10
72.7804
20
34.0769
10
72.3921
20
34.0193
10
72
20
34
10
71.6079
20
34.0193
10
71.2196
20
34.0769
10
70.8389
20
34.1722
10
70.4693
20
34.3045
10
70.1144
20
34.4723
10
69.7777
20
34.6741
10
69.4624
20
34.908
10
69.1716
20
35.1716
10
68.908
20
35.4624
10
68.6741
20
35.7777
10
68.4723
20
36.1144
10
68.3045
20
36.4693
10
68.1722
20
36.8389
10
68.0769
20
37.2196
10
68.0193
20
37.6079
10
68
20
38
10
68.0193
20
38.3921
10
68.0769
20
38.7804
10
68.1722
20
39.1611
10
68.3045
20
39.5307
10
68.4723
20
39.8856
10
68.6741
20
40.2223
10
68.908
20
40.5376
10
69.1716
20
40.8284
10
69.4624
20
41.092
10
69.7777
20
41.3259
10
70.1144
20
41.5277
10
70.4693
20
41.6955
10
70.8389
20
41.8278
10
71.2196
20
41.9231
10
71.6079
20
41.9807
10
72
20
42
10
72.3921
20
41.9807
10
72.7804
20
41.9231
10
73.1611
20
41.8278
10
73.5307
20
41.6955
10
73.8856
20
41.5277
10
74.2223
20
41.3259
10
74.5376
20
41.092
10
74.8284
20
40.8284
10
75.092
20
40.5376
10
75.3259
20
40.2223
10
75.5277
20
39.8856
0
LWPOLYLINE
8
13_bin_side_t3.0
100
AcDbEntity
100
AcDbPolyline
90
65
70
1
43
0.0
10
99.6955
20
21.5307
10
99.8278
20
21.1611
10
99.9231
20
20.7804
10
99.9807
20
20.3921
10
100
20
20
10
99.9807
20
19.6079
10
99.9231
20
19.2196
10
99.8278
20
18.8389
10
99.6955
20
18.4693
10
99.5277
20
18.1144
10
99.3259
20
17.7777
10
99.092
20
17.4624
10
98.8284
20
17.1716
10
98.5376
20
16.908
10
98.2223
20
16.6741
10
97.8856
20
16.4723
10
97.5307
20
16.3045
10
97.1611
20
16.1722
10
96.7804
20
16.0769
10
96.3921
20
16.0193
10
96
20
16
10
95.6079
20
16.0193
10
95.2196
20
16.0769
10
94.8389
20
16.1722
10
94.4693
20
16.3045
10
94.1144
20
16.4723
10
93.7777
20
16.6741
10
93.4624
20
16.908
10
93.1716
20
17.1716
10
92.908
20
17.4624
10
92.6741
20
17.7777
10
92.4723
20
18.1144
10
92.3045
20
18.4693
10
92.1722
20
18.8389
10
92.0769
20
19.2196
10
92.0193
20
19.6079
10
92
20
20
10
92.0193
20
20.3921
10
92.0769
20
20.7804
10
92.1722
20
21.1611
10
92.3045
20
21.5307
10
92.4723
20
21.8856
10
92.6741
20
22.2223
10
92.908
20
22.5376
10
93.1716
20
22.8284
10
93.4624
20
23.092
10
93.7777
20
23.3259
10
94.1144
20
23.5277
10
94.4693
20
23.6955
10
94.8389
20
23.8278
10
95.2196
20
23.9231
10
95.6079
20
23.9807
10
96
20
24
10
96.3921
20
23.9807
10
96.7804
20
23.9231
10
97.1611
20
23.8278
10
97.5307
20
23.6955
10
97.8856
20
23.5277
10
98.2223
20
23.3259
10
98.5376
20
23.092
10
98.8284
20
22.8284
10
99.092
20
22.5376
10
99.3259
20
22.2223
10
99.5277
20
21.8856
10
99.6955
20
21.5307
0
LWPOLYLINE
8
13_bin_side_t3.0
100
AcDbEntity
100
AcDbPolyline
90
65
70
1
43
0.0
10
99.8278
20
39.1611
10
99.9231
20
38.7804
10
99.9807
20
38.3921
10
100
20
38
10
99.9807
20
37.6079
10
99.9231
20
37.2196
10
99.8278
20
36.8389
10
99.6955
20
36.4693
10
99.5277
20
36.1144
10
99.3259
20
35.7777
10
99.092
20
35.4624
10
98.8284
20
35.1716
10
98.5376
20
34.908
10
98.2223
20
34.6741
10
97.8856
20
34.4723
10
97.5307
20
34.3045
10
97.1611
20
34.1722
10
96.7804
20
34.0769
10
96.3921
20
34.0193
10
96
20
34
10
95.6079
20
34.0193
10
95.2196
20
34.0769
10
94.8389
20
34.1722
10
94.4693
20
34.3045
10
94.1144
20
34.4723
10
93.7777
20
34.6741
10
93.4624
20
34.908
10
93.1716
20
35.1716
10
92.908
20
35.4624
10
92.6741
20
35.7777
10
92.4723
20
36.1144
10
92.3045
20
36.4693
10
92.1722
20
36.8389
10
92.0769
20
37.2196
10
92.0193
20
37.6079
10
92
20
38
10
92.0193
20
38.3921
10
92.0769
20
38.7804
10
92.1722
20
39.1611
10
92.3045
20
39.5307
10
92.4723
20
39.8856
10
92.6741
20
40.2223
10
92.908
20
40.5376
10
93.1716
20
40.8284
10
93.4624
20
41.092
10
93.7777
20
41.3259
10
94.1144
20
41.5277
10
94.4693
20
41.6955
10
94.8389
20
41.8278
10
95.2196
20
41.9231
10
95.6079
20
41.9807
10
96
20
42
10
96.3921
20
41.9807
10
96.7804
20
41.9231
10
97.1611
20
41.8278
10
97.5307
20
41.6955
10
97.8856
20
41.5277
10
98.2223
20
41.3259
10
98.5376
20
41.092
10
98.8284
20
40.8284
10
99.092
20
40.5376
10
99.3259
20
40.2223
10
99.5277
20
39.8856
10
99.6955
20
39.5307
10
99.8278
20
39.1611
0
ENDSEC
0
EOF
