0
SECTION
2
HEADER
9
$ACADVER
1
AC1015
9
$INSUNITS
70
4
0
ENDSEC
0
SECTION
2
ENTITIES
0
LWPOLYLINE
8
14_bin_divider_t3.0
100
AcDbEntity
100
AcDbPolyline
90
7
70
1
43
0.0
10
0.0304
20
0.2469
10
0
20
0.4
10
0
20
0
10
0.4
20
0
10
0.2469
20
0.0304
10
0.1172
20
0.1172
10
0.0304
20
0.2469
0
LWPOLYLINE
8
14_bin_divider_t3.0
100
AcDbEntity
100
AcDbPolyline
90
7
70
1
43
0.0
10
129.7531
20
0.0304
10
129.6
20
0
10
130
20
0
10
130
20
0.4
10
129.9696
20
0.2469
10
129.8828
20
0.1172
10
129.7531
20
0.0304
0
LWPOLYLINE
8
14_bin_divider_t3.0
100
AcDbEntity
100
AcDbPolyline
90
13
70
1
43
0.0
10
130
20
9.6
10
130
20
46
10
0
20
46
10
0
20
9.6
10
0.0304
20
9.7531
10
0.1172
20
9.8828
10
0.2469
20
9.9696
10
0.4
20
10
10
129.6
20
10
10
129.7531
20
9.9696
10
129.8828
20
9.8828
10
129.9696
20
9.7531
10
130
20
9.6
0
LWPOLYLINE
8
14_bin_divider_t3.0
100
AcDbEntity
100
AcDbPolyline
90
65
70
1
43
0.0
10
69.9039
20
22.9755
10
69.9759
20
22.4901
10
70
20
22
10
69.9759
20
21.5099
10
69.9039
20
21.0245
10
69.7847
20
20.5486
10
69.6194
20
20.0866
10
69.4096
20
19.643
10
69.1573
20
19.2221
10
68.8651
20
18.828
10
68.5355
20
18.4645
10
68.172
20
18.1349
10
67.7779
20
17.8427
10
67.357
20
17.5904
10
66.9134
20
17.3806
10
66.4514
20
17.2153
10
65.9755
20
17.0961
10
65.4901
20
17.0241
10
65
20
17
10
64.5099
20
17.0241
10
64.0245
20
17.0961
10
63.5486
20
17.2153
10
63.0866
20
17.3806
10
62.643
20
17.5904
10
62.2221
20
17.8427
10
61.828
20
18.1349
10
61.4645
20
18.4645
10
61.1349
20
18.828
10
60.8427
20
19.2221
10
60.5904
20
19.643
10
60.3806
20
20.0866
10
60.2153
20
20.5486
10
60.0961
20
21.0245
10
60.0241
20
21.5099
10
60
20
22
10
60.0241
20
22.4901
10
60.0961
20
22.9755
10
60.2153
20
23.4514
10
60.3806
20
23.9134
10
60.5904
20
24.357
10
60.8427
20
24.7779
10
61.1349
20
25.172
10
61.4645
20
25.5355
10
61.828
20
25.8651
10
62.2221
20
26.1573
10
62.643
20
26.4096
10
63.0866
20
26.6194
10
63.5486
20
26.7847
10
64.0245
20
26.9039
10
64.5099
20
26.9759
10
65
20
27
10
65.4901
20
26.9759
10
65.9755
20
26.9039
10
66.4514
20
26.7847
10
66.9134
20
26.6194
10
67.357
20
26.4096
10
67.7779
20
26.1573
10
68.172
20
25.8651
10
68.5355
20
25.5355
10
68.8651
20
25.172
10
69.1573
20
24.7779
10
69.4096
20
24.357
10
69.6194
20
23.9134
10
69.7847
20
23.4514
10
69.9039
20
22.9755
0
LWPOLYLINE
8
14_bin_divider_t3.0
100
AcDbEntity
100
AcDbPolyline
90
65
70
1
43
0.0
10
69.9759
20
34.4901
10
70
20
34
10
69.9759
20
33.5099
10
69.9039
20
33.0245
10
69.7847
20
32.5486
10
69.6194
20
32.0866
10
69.4096
20
31.643
10
69.1573
20
31.2221
10
68.8651
20
30.828
10
68.5355
20
30.4645
10
68.172
20
30.1349
10
67.7779
20
29.8427
10
67.357
20
29.5904
10
66.9134
20
29.3806
10
66.4514
20
29.2153
10
65.9755
20
29.0961
10
65.4901
20
29.0241
10
65
20
29
10
64.5099
20
29.0241
10
64.0245
20
29.0961
10
63.5486
20
29.2153
10
63.0866
20
29.3806
10
62.643
20
29.5904
10
62.2221
20
29.8427
10
61.828
20
30.1349
10
61.4645
20
30.4645
10
61.1349
20
30.828
10
60.8427
20
31.2221
10
60.5904
20
31.643
10
60.3806
20
32.0866
10
60.2153
20
32.5486
10
60.0961
20
33.0245
10
60.0241
20
33.5099
10
60
20
34
10
60.0241
20
34.4901
10
60.0961
20
34.9755
10
60.2153
20
35.4514
10
60.3806
20
35.9134
10
60.5904
20
36.357
10
60.8427
20
36.7779
10
61.1349
20
37.172
10
61.4645
20
37.5355
10
61.828
20
37.8651
10
62.2221
20
38.1573
10
62.643
20
38.4096
10
63.0866
20
38.6194
10
63.5486
20
38.7847
10
64.0245
20
38.9039
10
64.5099
20
38.9759
10
65
20
39
10
65.4901
20
38.9759
10
65.9755
20
38.9039
10
66.4514
20
38.7847
10
66.9134
20
38.6194
10
67.357
20
38.4096
10
67.7779
20
38.1573
10
68.172
20
37.8651
10
68.5355
20
37.5355
10
68.8651
20
37.172
10
69.1573
20
36.7779
10
69.4096
20
36.357
10
69.6194
20
35.9134
10
69.7847
20
35.4514
10
69.9039
20
34.9755
10
69.9759
20
34.4901
0
ENDSEC
0
EOF
