0
SECTION
2
HEADER
9
$ACADVER
1
AC1015
9
$INSUNITS
70
4
0
ENDSEC
0
SECTION
2
ENTITIES
0
LWPOLYLINE
8
15_bin_flap_t2.0
100
AcDbEntity
100
AcDbPolyline
90
5
70
1
43
0.0
10
42
20
0
10
42
20
30
10
0
20
30
10
0
20
0
10
42
20
0
0
LWPOLYLINE
8
15_bin_flap_t2.0
100
AcDbEntity
100
AcDbPolyline
90
65
70
1
43
0.0
10
7.244
20
6.3774
10
7.275
20
6.2536
10
7.2937
20
6.1274
10
7.3
20
6
10
7.2937
20
5.8726
10
7.275
20
5.7464
10
7.244
20
5.6226
10
7.201
20
5.5025
10
7.1465
20
5.3872
10
7.0809
20
5.2778
10
7.0049
20
5.1753
10
6.9192
20
5.0808
10
6.8247
20
4.9951
10
6.7222
20
4.9191
10
6.6128
20
4.8535
10
6.4975
20
4.799
10
6.3774
20
4.756
10
6.2536
20
4.725
10
6.1274
20
4.7063
10
6
20
4.7
10
5.8726
20
4.7063
10
5.7464
20
4.725
10
5.6226
20
4.756
10
5.5025
20
4.799
10
5.3872
20
4.8535
10
5.2778
20
4.9191
10
5.1753
20
4.9951
10
5.0808
20
5.0808
10
4.9951
20
5.1753
10
4.9191
20
5.2778
10
4.8535
20
5.3872
10
4.799
20
5.5025
10
4.756
20
5.6226
10
4.725
20
5.7464
10
4.7063
20
5.8726
10
4.7
20
6
10
4.7063
20
6.1274
10
4.725
20
6.2536
10
4.756
20
6.3774
10
4.799
20
6.4975
10
4.8535
20
6.6128
10
4.9191
20
6.7222
10
4.9951
20
6.8247
10
5.0808
20
6.9192
10
5.1753
20
7.0049
10
5.2778
20
7.0809
10
5.3872
20
7.1465
10
5.5025
20
7.201
10
5.6226
20
7.244
10
5.7464
20
7.275
10
5.8726
20
7.2937
10
6
20
7.3
10
6.1274
20
7.2937
10
6.2536
20
7.275
10
6.3774
20
7.244
10
6.4975
20
7.201
10
6.6128
20
7.1465
10
6.7222
20
7.0809
10
6.8247
20
7.0049
10
6.9192
20
6.9192
10
7.0049
20
6.8247
10
7.0809
20
6.7222
10
7.1465
20
6.6128
10
7.201
20
6.4975
10
7.244
20
6.3774
0
LWPOLYLINE
8
15_bin_flap_t2.0
100
AcDbEntity
100
AcDbPolyline
90
65
70
1
43
0.0
10
37.275
20
6.2536
10
37.2937
20
6.1274
10
37.3
20
6
10
37.2937
20
5.8726
10
37.275
20
5.7464
10
37.244
20
5.6226
10
37.201
20
5.5025
10
37.1465
20
5.3872
10
37.0809
20
5.2778
10
37.0049
20
5.1753
10
36.9192
20
5.0808
10
36.8247
20
4.9951
10
36.7222
20
4.9191
10
36.6128
20
4.8535
10
36.4975
20
4.799
10
36.3774
20
4.756
10
36.2536
20
4.725
10
36.1274
20
4.7063
10
36
20
4.7
10
35.8726
20
4.7063
10
35.7464
20
4.725
10
35.6226
20
4.756
10
35.5025
20
4.799
10
35.3872
20
4.8535
10
35.2778
20
4.9191
10
35.1753
20
4.9951
10
35.0808
20
5.0808
10
34.9951
20
5.1753
10
34.9191
20
5.2778
10
34.8535
20
5.3872
10
34.799
20
5.5025
10
34.756
20
5.6226
10
34.725
20
5.7464
10
34.7063
20
5.8726
10
34.7
20
6
10
34.7063
20
6.1274
10
34.725
20
6.2536
10
34.756
20
6.3774
10
34.799
20
6.4975
10
34.8535
20
6.6128
10
34.9191
20
6.7222
10
34.9951
20
6.8247
10
35.0808
20
6.9192
10
35.1753
20
7.0049
10
35.2778
20
7.0809
10
35.3872
20
7.1465
10
35.5025
20
7.201
10
35.6226
20
7.244
10
35.7464
20
7.275
10
35.8726
20
7.2937
10
36
20
7.3
10
36.1274
20
7.2937
10
36.2536
20
7.275
10
36.3774
20
7.244
10
36.4975
20
7.201
10
36.6128
20
7.1465
10
36.7222
20
7.0809
10
36.8247
20
7.0049
10
36.9192
20
6.9192
10
37.0049
20
6.8247
10
37.0809
20
6.7222
10
37.1465
20
6.6128
10
37.201
20
6.4975
10
37.244
20
6.3774
10
37.275
20
6.2536
0
LWPOLYLINE
8
15_bin_flap_t2.0
100
AcDbEntity
100
AcDbPolyline
90
65
70
1
43
0.0
10
24.9807
20
20.3921
10
25
20
20
10
24.9807
20
19.6079
10
24.9231
20
19.2196
10
24.8278
20
18.8389
10
24.6955
20
18.4693
10
24.5277
20
18.1144
10
24.3259
20
17.7777
10
24.092
20
17.4624
10
23.8284
20
17.1716
10
23.5376
20
16.908
10
23.2223
20
16.6741
10
22.8856
20
16.4723
10
22.5307
20
16.3045
10
22.1611
20
16.1722
10
21.7804
20
16.0769
10
21.3921
20
16.0193
10
21
20
16
10
20.6079
20
16.0193
10
20.2196
20
16.0769
10
19.8389
20
16.1722
10
19.4693
20
16.3045
10
19.1144
20
16.4723
10
18.7777
20
16.6741
10
18.4624
20
16.908
10
18.1716
20
17.1716
10
17.908
20
17.4624
10
17.6741
20
17.7777
10
17.4723
20
18.1144
10
17.3045
20
18.4693
10
17.1722
20
18.8389
10
17.0769
20
19.2196
10
17.0193
20
19.6079
10
17
20
20
10
17.0193
20
20.3921
10
17.0769
20
20.7804
10
17.1722
20
21.1611
10
17.3045
20
21.5307
10
17.4723
20
21.8856
10
17.6741
20
22.2223
10
17.908
20
22.5376
10
18.1716
20
22.8284
10
18.4624
20
23.092
10
18.7777
20
23.3259
10
19.1144
20
23.5277
10
19.4693
20
23.6955
10
19.8389
20
23.8278
10
20.2196
20
23.9231
10
20.6079
20
23.9807
10
21
20
24
10
21.3921
20
23.9807
10
21.7804
20
23.9231
10
22.1611
20
23.8278
10
22.5307
20
23.6955
10
22.8856
20
23.5277
10
23.2223
20
23.3259
10
23.5376
20
23.092
10
23.8284
20
22.8284
10
24.092
20
22.5376
10
24.3259
20
22.2223
10
24.5277
20
21.8856
10
24.6955
20
21.5307
10
24.8278
20
21.1611
10
24.9231
20
20.7804
10
24.9807
20
20.3921
0
ENDSEC
0
EOF
