0
SECTION
2
HEADER
9
$ACADVER
1
AC1015
9
$INSUNITS
70
4
0
ENDSEC
0
SECTION
2
ENTITIES
0
LWPOLYLINE
8
16_rack_hook_t6.0
100
AcDbEntity
100
AcDbPolyline
90
9
70
1
43
0.0
10
64
20
12
10
52
20
7
10
0
20
7
10
0
20
-7
10
52
20
-7
10
64
20
-12
10
70
20
-12
10
70
20
12
10
64
20
12
0
LWPOLYLINE
8
16_rack_hook_t6.0
100
AcDbEntity
100
AcDbPolyline
90
65
70
1
43
0.0
10
9.5311
20
0.4645
10
9.5693
20
0.3121
10
9.5923
20
0.1568
10
9.6
20
0
10
9.5923
20
-0.1568
10
9.5693
20
-0.3121
10
9.5311
20
-0.4645
10
9.4782
20
-0.6123
10
9.4111
20
-0.7542
10
9.3304
20
-0.8889
10
9.2368
20
-1.015
10
9.1314
20
-1.1314
10
9.015
20
-1.2368
10
8.8889
20
-1.3304
10
8.7542
20
-1.4111
10
8.6123
20
-1.4782
10
8.4645
20
-1.5311
10
8.3121
20
-1.5693
10
8.1568
20
-1.5923
10
8
20
-1.6
10
7.8432
20
-1.5923
10
7.6879
20
-1.5693
10
7.5355
20
-1.5311
10
7.3877
20
-1.4782
10
7.2458
20
-1.4111
10
7.1111
20
-1.3304
10
6.985
20
-1.2368
10
6.8686
20
-1.1314
10
6.7632
20
-1.015
10
6.6696
20
-0.8889
10
6.5889
20
-0.7542
10
6.5218
20
-0.6123
10
6.4689
20
-0.4645
10
6.4307
20
-0.3121
10
6.4077
20
-0.1568
10
6.4
20
0
10
6.4077
20
0.1568
10
6.4307
20
0.3121
10
6.4689
20
0.4645
10
6.5218
20
0.6123
10
6.5889
20
0.7542
10
6.6696
20
0.8889
10
6.7632
20
1.015
10
6.8686
20
1.1314
10
6.985
20
1.2368
10
7.1111
20
1.3304
10
7.2458
20
1.4111
10
7.3877
20
1.4782
10
7.5355
20
1.5311
10
7.6879
20
1.5693
10
7.8432
20
1.5923
10
8
20
1.6
10
8.1568
20
1.5923
10
8.3121
20
1.5693
10
8.4645
20
1.5311
10
8.6123
20
1.4782
10
8.7542
20
1.4111
10
8.8889
20
1.3304
10
9.015
20
1.2368
10
9.1314
20
1.1314
10
9.2368
20
1.015
10
9.3304
20
0.8889
10
9.4111
20
0.7542
10
9.4782
20
0.6123
10
9.5311
20
0.4645
0
LWPOLYLINE
8
16_rack_hook_t6.0
100
AcDbEntity
100
AcDbPolyline
90
65
70
1
43
0.0
10
25.5693
20
0.3121
10
25.5923
20
0.1568
10
25.6
20
0
10
25.5923
20
-0.1568
10
25.5693
20
-0.3121
10
25.5311
20
-0.4645
10
25.4782
20
-0.6123
10
25.4111
20
-0.7542
10
25.3304
20
-0.8889
10
25.2368
20
-1.015
10
25.1314
20
-1.1314
10
25.015
20
-1.2368
10
24.8889
20
-1.3304
10
24.7542
20
-1.4111
10
24.6123
20
-1.4782
10
24.4645
20
-1.5311
10
24.3121
20
-1.5693
10
24.1568
20
-1.5923
10
24
20
-1.6
10
23.8432
20
-1.5923
10
23.6879
20
-1.5693
10
23.5355
20
-1.5311
10
23.3877
20
-1.4782
10
23.2458
20
-1.4111
10
23.1111
20
-1.3304
10
22.985
20
-1.2368
10
22.8686
20
-1.1314
10
22.7632
20
-1.015
10
22.6696
20
-0.8889
10
22.5889
20
-0.7542
10
22.5218
20
-0.6123
10
22.4689
20
-0.4645
10
22.4307
20
-0.3121
10
22.4077
20
-0.1568
10
22.4
20
0
10
22.4077
20
0.1568
10
22.4307
20
0.3121
10
22.4689
20
0.4645
10
22.5218
20
0.6123
10
22.5889
20
0.7542
10
22.6696
20
0.8889
10
22.7632
20
1.015
10
22.8686
20
1.1314
10
22.985
20
1.2368
10
23.1111
20
1.3304
10
23.2458
20
1.4111
10
23.3877
20
1.4782
10
23.5355
20
1.5311
10
23.6879
20
1.5693
10
23.8432
20
1.5923
10
24
20
1.6
10
24.1568
20
1.5923
10
24.3121
20
1.5693
10
24.4645
20
1.5311
10
24.6123
20
1.4782
10
24.7542
20
1.4111
10
24.8889
20
1.3304
10
25.015
20
1.2368
10
25.1314
20
1.1314
10
25.2368
20
1.015
10
25.3304
20
0.8889
10
25.4111
20
0.7542
10
25.4782
20
0.6123
10
25.5311
20
0.4645
10
25.5693
20
0.3121
0
LWPOLYLINE
8
16_rack_hook_t6.0
100
AcDbEntity
100
AcDbPolyline
90
65
70
1
43
0.0
10
47.9807
20
0.3921
10
48
20
0
10
47.9807
20
-0.3921
10
47.9231
20
-0.7804
10
47.8278
20
-1.1611
10
47.6955
20
-1.5307
10
47.5277
20
-1.8856
10
47.3259
20
-2.2223
10
47.092
20
-2.5376
10
46.8284
20
-2.8284
10
46.5376
20
-3.092
10
46.2223
20
-3.3259
10
45.8856
20
-3.5277
10
45.5307
20
-3.6955
10
45.1611
20
-3.8278
10
44.7804
20
-3.9231
10
44.3921
20
-3.9807
10
44
20
-4
10
43.6079
20
-3.9807
10
43.2196
20
-3.9231
10
42.8389
20
-3.8278
10
42.4693
20
-3.6955
10
42.1144
20
-3.5277
10
41.7777
20
-3.3259
10
41.4624
20
-3.092
10
41.1716
20
-2.8284
10
40.908
20
-2.5376
10
40.6741
20
-2.2223
10
40.4723
20
-1.8856
10
40.3045
20
-1.5307
10
40.1722
20
-1.1611
10
40.0769
20
-0.7804
10
40.0193
20
-0.3921
10
40
20
0
10
40.0193
20
0.3921
10
40.0769
20
0.7804
10
40.1722
20
1.1611
10
40.3045
20
1.5307
10
40.4723
20
1.8856
10
40.6741
20
2.2223
10
40.908
20
2.5376
10
41.1716
20
2.8284
10
41.4624
20
3.092
10
41.7777
20
3.3259
10
42.1144
20
3.5277
10
42.4693
20
3.6955
10
42.8389
20
3.8278
10
43.2196
20
3.9231
10
43.6079
20
3.9807
10
44
20
4
10
44.3921
20
3.9807
10
44.7804
20
3.9231
10
45.1611
20
3.8278
10
45.5307
20
3.6955
10
45.8856
20
3.5277
10
46.2223
20
3.3259
10
46.5376
20
3.092
10
46.8284
20
2.8284
10
47.092
20
2.5376
10
47.3259
20
2.2223
10
47.5277
20
1.8856
10
47.6955
20
1.5307
10
47.8278
20
1.1611
10
47.9231
20
0.7804
10
47.9807
20
0.3921
0
ENDSEC
0
EOF
