0
SECTION
2
HEADER
9
$ACADVER
1
AC1015
9
$INSUNITS
70
4
0
ENDSEC
0
SECTION
2
ENTITIES
0
LWPOLYLINE
8
17_cave_probe_t6.0
100
AcDbEntity
100
AcDbPolyline
90
8
70
1
43
0.0
10
86
20
10
10
70
20
6
10
0
20
6
10
0
20
-6
10
70
20
-6
10
86
20
-10
10
92
20
-2
10
86
20
10
0
LWPOLYLINE
8
17_cave_probe_t6.0
100
AcDbEntity
100
AcDbPolyline
90
65
70
1
43
0.0
10
9.5311
20
0.4645
10
9.5693
20
0.3121
10
9.5923
20
0.1568
10
9.6
20
0
10
9.5923
20
-0.1568
10
9.5693
20
-0.3121
10
9.5311
20
-0.4645
10
9.4782
20
-0.6123
10
9.4111
20
-0.7542
10
9.3304
20
-0.8889
10
9.2368
20
-1.015
10
9.1314
20
-1.1314
10
9.015
20
-1.2368
10
8.8889
20
-1.3304
10
8.7542
20
-1.4111
10
8.6123
20
-1.4782
10
8.4645
20
-1.5311
10
8.3121
20
-1.5693
10
8.1568
20
-1.5923
10
8
20
-1.6
10
7.8432
20
-1.5923
10
7.6879
20
-1.5693
10
7.5355
20
-1.5311
10
7.3877
20
-1.4782
10
7.2458
20
-1.4111
10
7.1111
20
-1.3304
10
6.985
20
-1.2368
10
6.8686
20
-1.1314
10
6.7632
20
-1.015
10
6.6696
20
-0.8889
10
6.5889
20
-0.7542
10
6.5218
20
-0.6123
10
6.4689
20
-0.4645
10
6.4307
20
-0.3121
10
6.4077
20
-0.1568
10
6.4
20
0
10
6.4077
20
0.1568
10
6.4307
20
0.3121
10
6.4689
20
0.4645
10
6.5218
20
0.6123
10
6.5889
20
0.7542
10
6.6696
20
0.8889
10
6.7632
20
1.015
10
6.8686
20
1.1314
10
6.985
20
1.2368
10
7.1111
20
1.3304
10
7.2458
20
1.4111
10
7.3877
20
1.4782
10
7.5355
20
1.5311
10
7.6879
20
1.5693
10
7.8432
20
1.5923
10
8
20
1.6
10
8.1568
20
1.5923
10
8.3121
20
1.5693
10
8.4645
20
1.5311
10
8.6123
20
1.4782
10
8.7542
20
1.4111
10
8.8889
20
1.3304
10
9.015
20
1.2368
10
9.1314
20
1.1314
10
9.2368
20
1.015
10
9.3304
20
0.8889
10
9.4111
20
0.7542
10
9.4782
20
0.6123
10
9.5311
20
0.4645
0
LWPOLYLINE
8
17_cave_probe_t6.0
100
AcDbEntity
100
AcDbPolyline
90
65
70
1
43
0.0
10
27.5693
20
0.3121
10
27.5923
20
0.1568
10
27.6
20
0
10
27.5923
20
-0.1568
10
27.5693
20
-0.3121
10
27.5311
20
-0.4645
10
27.4782
20
-0.6123
10
27.4111
20
-0.7542
10
27.3304
20
-0.8889
10
27.2368
20
-1.015
10
27.1314
20
-1.1314
10
27.015
20
-1.2368
10
26.8889
20
-1.3304
10
26.7542
20
-1.4111
10
26.6123
20
-1.4782
10
26.4645
20
-1.5311
10
26.3121
20
-1.5693
10
26.1568
20
-1.5923
10
26
20
-1.6
10
25.8432
20
-1.5923
10
25.6879
20
-1.5693
10
25.5355
20
-1.5311
10
25.3877
20
-1.4782
10
25.2458
20
-1.4111
10
25.1111
20
-1.3304
10
24.985
20
-1.2368
10
24.8686
20
-1.1314
10
24.7632
20
-1.015
10
24.6696
20
-0.8889
10
24.5889
20
-0.7542
10
24.5218
20
-0.6123
10
24.4689
20
-0.4645
10
24.4307
20
-0.3121
10
24.4077
20
-0.1568
10
24.4
20
0
10
24.4077
20
0.1568
10
24.4307
20
0.3121
10
24.4689
20
0.4645
10
24.5218
20
0.6123
10
24.5889
20
0.7542
10
24.6696
20
0.8889
10
24.7632
20
1.015
10
24.8686
20
1.1314
10
24.985
20
1.2368
10
25.1111
20
1.3304
10
25.2458
20
1.4111
10
25.3877
20
1.4782
10
25.5355
20
1.5311
10
25.6879
20
1.5693
10
25.8432
20
1.5923
10
26
20
1.6
10
26.1568
20
1.5923
10
26.3121
20
1.5693
10
26.4645
20
1.5311
10
26.6123
20
1.4782
10
26.7542
20
1.4111
10
26.8889
20
1.3304
10
27.015
20
1.2368
10
27.1314
20
1.1314
10
27.2368
20
1.015
10
27.3304
20
0.8889
10
27.4111
20
0.7542
10
27.4782
20
0.6123
10
27.5311
20
0.4645
10
27.5693
20
0.3121
0
LWPOLYLINE
8
17_cave_probe_t6.0
100
AcDbEntity
100
AcDbPolyline
90
65
70
1
43
0.0
10
51.5923
20
0.1568
10
51.6
20
0
10
51.5923
20
-0.1568
10
51.5693
20
-0.3121
10
51.5311
20
-0.4645
10
51.4782
20
-0.6123
10
51.4111
20
-0.7542
10
51.3304
20
-0.8889
10
51.2368
20
-1.015
10
51.1314
20
-1.1314
10
51.015
20
-1.2368
10
50.8889
20
-1.3304
10
50.7542
20
-1.4111
10
50.6123
20
-1.4782
10
50.4645
20
-1.5311
10
50.3121
20
-1.5693
10
50.1568
20
-1.5923
10
50
20
-1.6
10
49.8432
20
-1.5923
10
49.6879
20
-1.5693
10
49.5355
20
-1.5311
10
49.3877
20
-1.4782
10
49.2458
20
-1.4111
10
49.1111
20
-1.3304
10
48.985
20
-1.2368
10
48.8686
20
-1.1314
10
48.7632
20
-1.015
10
48.6696
20
-0.8889
10
48.5889
20
-0.7542
10
48.5218
20
-0.6123
10
48.4689
20
-0.4645
10
48.4307
20
-0.3121
10
48.4077
20
-0.1568
10
48.4
20
0
10
48.4077
20
0.1568
10
48.4307
20
0.3121
10
48.4689
20
0.4645
10
48.5218
20
0.6123
10
48.5889
20
0.7542
10
48.6696
20
0.8889
10
48.7632
20
1.015
10
48.8686
20
1.1314
10
48.985
20
1.2368
10
49.1111
20
1.3304
10
49.2458
20
1.4111
10
49.3877
20
1.4782
10
49.5355
20
1.5311
10
49.6879
20
1.5693
10
49.8432
20
1.5923
10
50
20
1.6
10
50.1568
20
1.5923
10
50.3121
20
1.5693
10
50.4645
20
1.5311
10
50.6123
20
1.4782
10
50.7542
20
1.4111
10
50.8889
20
1.3304
10
51.015
20
1.2368
10
51.1314
20
1.1314
10
51.2368
20
1.015
10
51.3304
20
0.8889
10
51.4111
20
0.7542
10
51.4782
20
0.6123
10
51.5311
20
0.4645
10
51.5693
20
0.3121
10
51.5923
20
0.1568
0
ENDSEC
0
EOF
