0
SECTION
2
HEADER
9
$ACADVER
1
AC1015
9
$INSUNITS
70
4
0
ENDSEC
0
SECTION
2
ENTITIES
0
LWPOLYLINE
8
18_electronics_tray_t3.0
100
AcDbEntity
100
AcDbPolyline
90
5
70
1
43
0.0
10
0
20
40
10
0
20
-40
10
110
20
-40
10
110
20
40
10
0
20
40
0
LWPOLYLINE
8
18_electronics_tray_t3.0
100
AcDbEntity
100
AcDbPolyline
90
65
70
1
43
0.0
10
7.2458
20
-30.5889
10
7.3877
20
-30.5218
10
7.5355
20
-30.4689
10
7.6879
20
-30.4307
10
7.8432
20
-30.4077
10
8
20
-30.4
10
8.1568
20
-30.4077
10
8.3121
20
-30.4307
10
8.4645
20
-30.4689
10
8.6123
20
-30.5218
10
8.7542
20
-30.5889
10
8.8889
20
-30.6696
10
9.015
20
-30.7632
10
9.1314
20
-30.8686
10
9.2368
20
-30.985
10
9.3304
20
-31.1111
10
9.4111
20
-31.2458
10
9.4782
20
-31.3877
10
9.5311
20
-31.5355
10
9.5693
20
-31.6879
10
9.5923
20
-31.8432
10
9.6
20
-32
10
9.5923
20
-32.1568
10
9.5693
20
-32.3121
10
9.5311
20
-32.4645
10
9.4782
20
-32.6123
10
9.4111
20
-32.7542
10
9.3304
20
-32.8889
10
9.2368
20
-33.015
10
9.1314
20
-33.1314
10
9.015
20
-33.2368
10
8.8889
20
-33.3304
10
8.7542
20
-33.4111
10
8.6123
20
-33.4782
10
8.4645
20
-33.5311
10
8.3121
20
-33.5693
10
8.1568
20
-33.5923
10
8
20
-33.6
10
7.8432
20
-33.5923
10
7.6879
20
-33.5693
10
7.5355
20
-33.5311
10
7.3877
20
-33.4782
10
7.2458
20
-33.4111
10
7.1111
20
-33.3304
10
6.985
20
-33.2368
10
6.8686
20
-33.1314
10
6.7632
20
-33.015
10
6.6696
20
-32.8889
10
6.5889
20
-32.7542
10
6.5218
20
-32.6123
10
6.4689
20
-32.4645
10
6.4307
20
-32.3121
10
6.4077
20
-32.1568
10
6.4
20
-32
10
6.4077
20
-31.8432
10
6.4307
20
-31.6879
10
6.4689
20
-31.5355
10
6.5218
20
-31.3877
10
6.5889
20
-31.2458
10
6.6696
20
-31.1111
10
6.7632
20
-30.985
10
6.8686
20
-30.8686
10
6.985
20
-30.7632
10
7.1111
20
-30.6696
10
7.2458
20
-30.5889
0
LWPOLYLINE
8
18_electronics_tray_t3.0
100
AcDbEntity
100
AcDbPolyline
90
65
70
1
43
0.0
10
7.3877
20
33.4782
10
7.5355
20
33.5311
10
7.6879
20
33.5693
10
7.8432
20
33.5923
10
8
20
33.6
10
8.1568
20
33.5923
10
8.3121
20
33.5693
10
8.4645
20
33.5311
10
8.6123
20
33.4782
10
8.7542
20
33.4111
10
8.8889
20
33.3304
10
9.015
20
33.2368
10
9.1314
20
33.1314
10
9.2368
20
33.015
10
9.3304
20
32.8889
10
9.4111
20
32.7542
10
9.4782
20
32.6123
10
9.5311
20
32.4645
10
9.5693
20
32.3121
10
9.5923
20
32.1568
10
9.6
20
32
10
9.5923
20
31.8432
10
9.5693
20
31.6879
10
9.5311
20
31.5355
10
9.4782
20
31.3877
10
9.4111
20
31.2458
10
9.3304
20
31.1111
10
9.2368
20
30.985
10
9.1314
20
30.8686
10
9.015
20
30.7632
10
8.8889
20
30.6696
10
8.7542
20
30.5889
10
8.6123
20
30.5218
10
8.4645
20
30.4689
10
8.3121
20
30.4307
10
8.1568
20
30.4077
10
8
20
30.4
10
7.8432
20
30.4077
10
7.6879
20
30.4307
10
7.5355
20
30.4689
10
7.3877
20
30.5218
10
7.2458
20
30.5889
10
7.1111
20
30.6696
10
6.985
20
30.7632
10
6.8686
20
30.8686
10
6.7632
20
30.985
10
6.6696
20
31.1111
10
6.5889
20
31.2458
10
6.5218
20
31.3877
10
6.4689
20
31.5355
10
6.4307
20
31.6879
10
6.4077
20
31.8432
10
6.4
20
32
10
6.4077
20
32.1568
10
6.4307
20
32.3121
10
6.4689
20
32.4645
10
6.5218
20
32.6123
10
6.5889
20
32.7542
10
6.6696
20
32.8889
10
6.7632
20
33.015
10
6.8686
20
33.1314
10
6.985
20
33.2368
10
7.1111
20
33.3304
10
7.2458
20
33.4111
10
7.3877
20
33.4782
0
LWPOLYLINE
8
18_electronics_tray_t3.0
100
AcDbEntity
100
AcDbPolyline
90
109
70
1
43
0.0
10
101.5355
20
-30.4689
10
101.6879
20
-30.4307
10
101.8432
20
-30.4077
10
102
20
-30.4
10
102.1568
20
-30.4077
10
102.3121
20
-30.4307
10
102.4645
20
-30.4689
10
102.6123
20
-30.5218
10
102.7542
20
-30.5889
10
102.8889
20
-30.6696
10
103.015
20
-30.7632
10
103.1314
20
-30.8686
10
103.2368
20
-30.985
10
103.3304
20
-31.1111
10
103.4111
20
-31.2458
10
103.4782
20
-31.3877
10
103.5311
20
-31.5355
10
103.5693
20
-31.6879
10
103.5923
20
-31.8432
10
103.6
20
-32
10
103.5923
20
-32.1568
10
103.5693
20
-32.3121
10
103.5311
20
-32.4645
10
103.4782
20
-32.6123
10
103.4111
20
-32.7542
10
103.3304
20
-32.8889
10
103.2368
20
-33.015
10
103.1314
20
-33.1314
10
103.015
20
-33.2368
10
102.8889
20
-33.3304
10
102.7542
20
-33.4111
10
102.6123
20
-33.4782
10
102.4645
20
-33.5311
10
102.3121
20
-33.5693
10
102.1568
20
-33.5923
10
102
20
-33.6
10
101.8432
20
-33.5923
10
101.6879
20
-33.5693
10
101.5355
20
-33.5311
10
101.3877
20
-33.4782
10
101.2458
20
-33.4111
10
101.1111
20
-33.3304
10
100.985
20
-33.2368
10
100.8686
20
-33.1314
10
100.8034
20
-33.0594
10
100.7716
20
-33.1481
10
100.6458
20
-33.4142
10
100.4944
20
-33.6667
10
100.319
20
-33.9032
10
100.1213
20
-34.1213
10
99.9032
20
-34.319
10
99.6667
20
-34.4944
10
99.4142
20
-34.6458
10
99.1481
20
-34.7716
10
98.8709
20
-34.8708
10
98.5853
20
-34.9424
10
98.2941
20
-34.9856
10
98
20
-35
10
97.7059
20
-34.9856
10
97.4147
20
-34.9424
10
97.1291
20
-34.8708
10
96.8519
20
-34.7716
10
96.5858
20
-34.6458
10
96.3333
20
-34.4944
10
96.0968
20
-34.319
10
95.8787
20
-34.1213
10
95.681
20
-33.9032
10
95.5056
20
-33.6667
10
95.3542
20
-33.4142
10
95.2284
20
-33.1481
10
95.1292
20
-32.8709
10
95.0576
20
-32.5853
10
95.0144
20
-32.2941
10
95
20
-32
10
95.0144
20
-31.7059
10
95.0576
20
-31.4147
10
95.1292
20
-31.1291
10
95.2284
20
-30.8519
10
95.3542
20
-30.5858
10
95.5056
20
-30.3333
10
95.681
20
-30.0968
10
95.8787
20
-29.8787
10
96.0968
20
-29.681
10
96.3333
20
-29.5056
10
96.5858
20
-29.3542
10
96.8519
20
-29.2284
10
97.1291
20
-29.1292
10
97.4147
20
-29.0576
10
97.7059
20
-29.0144
10
98
20
-29
10
98.2941
20
-29.0144
10
98.5853
20
-29.0576
10
98.8709
20
-29.1292
10
99.1481
20
-29.2284
10
99.4142
20
-29.3542
10
99.6667
20
-29.5056
10
99.9032
20
-29.681
10
100.1213
20
-29.8787
10
100.319
20
-30.0968
10
100.4944
20
-30.3333
10
100.6458
20
-30.5858
10
100.7716
20
-30.8519
10
100.8034
20
-30.9406
10
100.8686
20
-30.8686
10
100.985
20
-30.7632
10
101.1111
20
-30.6696
10
101.2458
20
-30.5889
10
101.3877
20
-30.5218
10
101.5355
20
-30.4689
0
LWPOLYLINE
8
18_electronics_tray_t3.0
100
AcDbEntity
100
AcDbPolyline
90
109
70
1
43
0.0
10
101.6879
20
33.5693
10
101.8432
20
33.5923
10
102
20
33.6
10
102.1568
20
33.5923
10
102.3121
20
33.5693
10
102.4645
20
33.5311
10
102.6123
20
33.4782
10
102.7542
20
33.4111
10
102.8889
20
33.3304
10
103.015
20
33.2368
10
103.1314
20
33.1314
10
103.2368
20
33.015
10
103.3304
20
32.8889
10
103.4111
20
32.7542
10
103.4782
20
32.6123
10
103.5311
20
32.4645
10
103.5693
20
32.3121
10
103.5923
20
32.1568
10
103.6
20
32
10
103.5923
20
31.8432
10
103.5693
20
31.6879
10
103.5311
20
31.5355
10
103.4782
20
31.3877
10
103.4111
20
31.2458
10
103.3304
20
31.1111
10
103.2368
20
30.985
10
103.1314
20
30.8686
10
103.015
20
30.7632
10
102.8889
20
30.6696
10
102.7542
20
30.5889
10
102.6123
20
30.5218
10
102.4645
20
30.4689
10
102.3121
20
30.4307
10
102.1568
20
30.4077
10
102
20
30.4
10
101.8432
20
30.4077
10
101.6879
20
30.4307
10
101.5355
20
30.4689
10
101.3877
20
30.5218
10
101.2458
20
30.5889
10
101.1111
20
30.6696
10
100.985
20
30.7632
10
100.8686
20
30.8686
10
100.8034
20
30.9406
10
100.7716
20
30.8519
10
100.6458
20
30.5858
10
100.4944
20
30.3333
10
100.319
20
30.0968
10
100.1213
20
29.8787
10
99.9032
20
29.681
10
99.6667
20
29.5056
10
99.4142
20
29.3542
10
99.1481
20
29.2284
10
98.8709
20
29.1292
10
98.5853
20
29.0576
10
98.2941
20
29.0144
10
98
20
29
10
97.7059
20
29.0144
10
97.4147
20
29.0576
10
97.1291
20
29.1292
10
96.8519
20
29.2284
10
96.5858
20
29.3542
10
96.3333
20
29.5056
10
96.0968
20
29.681
10
95.8787
20
29.8787
10
95.681
20
30.0968
10
95.5056
20
30.3333
10
95.3542
20
30.5858
10
95.2284
20
30.8519
10
95.1292
20
31.1291
10
95.0576
20
31.4147
10
95.0144
20
31.7059
10
95
20
32
10
95.0144
20
32.2941
10
95.0576
20
32.5853
10
95.1292
20
32.8709
10
95.2284
20
33.1481
10
95.3542
20
33.4142
10
95.5056
20
33.6667
10
95.681
20
33.9032
10
95.8787
20
34.1213
10
96.0968
20
34.319
10
96.3333
20
34.4944
10
96.5858
20
34.6458
10
96.8519
20
34.7716
10
97.1291
20
34.8708
10
97.4147
20
34.9424
10
97.7059
20
34.9856
10
98
20
35
10
98.2941
20
34.9856
10
98.5853
20
34.9424
10
98.8709
20
34.8708
10
99.1481
20
34.7716
10
99.4142
20
34.6458
10
99.6667
20
34.4944
10
99.9032
20
34.319
10
100.1213
20
34.1213
10
100.319
20
33.9032
10
100.4944
20
33.6667
10
100.6458
20
33.4142
10
100.7716
20
33.1481
10
100.8034
20
33.0594
10
100.8686
20
33.1314
10
100.985
20
33.2368
10
101.1111
20
33.3304
10
101.2458
20
33.4111
10
101.3877
20
33.4782
10
101.5355
20
33.5311
10
101.6879
20
33.5693
0
LWPOLYLINE
8
18_electronics_tray_t3.0
100
AcDbEntity
100
AcDbPolyline
90
21
70
1
43
0.0
10
20.2343
20
-21.7657
10
20.0609
20
-21.5061
10
20
20
-21.2
10
20
20
21.2
10
20.0609
20
21.5061
10
20.2343
20
21.7657
10
20.4939
20
21.9391
10
20.8
20
22
10
25.2
20
22
10
25.5061
20
21.9391
10
25.7657
20
21.7657
10
25.9391
20
21.5061
10
26
20
21.2
10
26
20
-21.2
10
25.9391
20
-21.5061
10
25.7657
20
-21.7657
10
25.5061
20
-21.9391
10
25.2
20
-22
10
20.8
20
-22
10
20.4939
20
-21.9391
10
20.2343
20
-21.7657
0
LWPOLYLINE
8
18_electronics_tray_t3.0
100
AcDbEntity
100
AcDbPolyline
90
21
70
1
43
0.0
10
44.0609
20
-21.5061
10
44
20
-21.2
10
44
20
21.2
10
44.0609
20
21.5061
10
44.2343
20
21.7657
10
44.4939
20
21.9391
10
44.8
20
22
10
49.2
20
22
10
49.5061
20
21.9391
10
49.7657
20
21.7657
10
49.9391
20
21.5061
10
50
20
21.2
10
50
20
-21.2
10
49.9391
20
-21.5061
10
49.7657
20
-21.7657
10
49.5061
20
-21.9391
10
49.2
20
-22
10
44.8
20
-22
10
44.4939
20
-21.9391
10
44.2343
20
-21.7657
10
44.0609
20
-21.5061
0
LWPOLYLINE
8
18_electronics_tray_t3.0
100
AcDbEntity
100
AcDbPolyline
90
21
70
1
43
0.0
10
68
20
-21.2
10
68
20
21.2
10
68.0609
20
21.5061
10
68.2343
20
21.7657
10
68.4939
20
21.9391
10
68.8
20
22
10
73.2
20
22
10
73.5061
20
21.9391
10
73.7657
20
21.7657
10
73.9391
20
21.5061
10
74
20
21.2
10
74
20
-21.2
10
73.9391
20
-21.5061
10
73.7657
20
-21.7657
10
73.5061
20
-21.9391
10
73.2
20
-22
10
68.8
20
-22
10
68.4939
20
-21.9391
10
68.2343
20
-21.7657
10
68.0609
20
-21.5061
10
68
20
-21.2
0
LWPOLYLINE
8
18_electronics_tray_t3.0
100
AcDbEntity
100
AcDbPolyline
90
65
70
1
43
0.0
10
14.5853
20
-29.0576
10
14.8709
20
-29.1292
10
15.1481
20
-29.2284
10
15.4142
20
-29.3542
10
15.6667
20
-29.5056
10
15.9032
20
-29.681
10
16.1213
20
-29.8787
10
16.319
20
-30.0968
10
16.4944
20
-30.3333
10
16.6458
20
-30.5858
10
16.7716
20
-30.8519
10
16.8708
20
-31.1291
10
16.9424
20
-31.4147
10
16.9856
20
-31.7059
10
17
20
-32
10
16.9856
20
-32.2941
10
16.9424
20
-32.5853
10
16.8708
20
-32.8709
10
16.7716
20
-33.1481
10
16.6458
20
-33.4142
10
16.4944
20
-33.6667
10
16.319
20
-33.9032
10
16.1213
20
-34.1213
10
15.9032
20
-34.319
10
15.6667
20
-34.4944
10
15.4142
20
-34.6458
10
15.1481
20
-34.7716
10
14.8709
20
-34.8708
10
14.5853
20
-34.9424
10
14.2941
20
-34.9856
10
14
20
-35
10
13.7059
20
-34.9856
10
13.4147
20
-34.9424
10
13.1291
20
-34.8708
10
12.8519
20
-34.7716
10
12.5858
20
-34.6458
10
12.3333
20
-34.4944
10
12.0968
20
-34.319
10
11.8787
20
-34.1213
10
11.681
20
-33.9032
10
11.5056
20
-33.6667
10
11.3542
20
-33.4142
10
11.2284
20
-33.1481
10
11.1292
20
-32.8709
10
11.0576
20
-32.5853
10
11.0144
20
-32.2941
10
11
20
-32
10
11.0144
20
-31.7059
10
11.0576
20
-31.4147
10
11.1292
20
-31.1291
10
11.2284
20
-30.8519
10
11.3542
20
-30.5858
10
11.5056
20
-30.3333
10
11.681
20
-30.0968
10
11.8787
20
-29.8787
10
12.0968
20
-29.681
10
12.3333
20
-29.5056
10
12.5858
20
-29.3542
10
12.8519
20
-29.2284
10
13.1291
20
-29.1292
10
13.4147
20
-29.0576
10
13.7059
20
-29.0144
10
14
20
-29
10
14.2941
20
-29.0144
10
14.5853
20
-29.0576
0
LWPOLYLINE
8
18_electronics_tray_t3.0
100
AcDbEntity
100
AcDbPolyline
90
65
70
1
43
0.0
10
14.8709
20
34.8708
10
15.1481
20
34.7716
10
15.4142
20
34.6458
10
15.6667
20
34.4944
10
15.9032
20
34.319
10
16.1213
20
34.1213
10
16.319
20
33.9032
10
16.4944
20
33.6667
10
16.6458
20
33.4142
10
16.7716
20
33.1481
10
16.8708
20
32.8709
10
16.9424
20
32.5853
10
16.9856
20
32.2941
10
17
20
32
10
16.9856
20
31.7059
10
16.9424
20
31.4147
10
16.8708
20
31.1291
10
16.7716
20
30.8519
10
16.6458
20
30.5858
10
16.4944
20
30.3333
10
16.319
20
30.0968
10
16.1213
20
29.8787
10
15.9032
20
29.681
10
15.6667
20
29.5056
10
15.4142
20
29.3542
10
15.1481
20
29.2284
10
14.8709
20
29.1292
10
14.5853
20
29.0576
10
14.2941
20
29.0144
10
14
20
29
10
13.7059
20
29.0144
10
13.4147
20
29.0576
10
13.1291
20
29.1292
10
12.8519
20
29.2284
10
12.5858
20
29.3542
10
12.3333
20
29.5056
10
12.0968
20
29.681
10
11.8787
20
29.8787
10
11.681
20
30.0968
10
11.5056
20
30.3333
10
11.3542
20
30.5858
10
11.2284
20
30.8519
10
11.1292
20
31.1291
10
11.0576
20
31.4147
10
11.0144
20
31.7059
10
11
20
32
10
11.0144
20
32.2941
10
11.0576
20
32.5853
10
11.1292
20
32.8709
10
11.2284
20
33.1481
10
11.3542
20
33.4142
10
11.5056
20
33.6667
10
11.681
20
33.9032
10
11.8787
20
34.1213
10
12.0968
20
34.319
10
12.3333
20
34.4944
10
12.5858
20
34.6458
10
12.8519
20
34.7716
10
13.1291
20
34.8708
10
13.4147
20
34.9424
10
13.7059
20
34.9856
10
14
20
35
10
14.2941
20
34.9856
10
14.5853
20
34.9424
10
14.8709
20
34.8708
0
LWPOLYLINE
8
18_electronics_tray_t3.0
100
AcDbEntity
100
AcDbPolyline
90
65
70
1
43
0.0
10
29.1481
20
-29.2284
10
29.4142
20
-29.3542
10
29.6667
20
-29.5056
10
29.9032
20
-29.681
10
30.1213
20
-29.8787
10
30.319
20
-30.0968
10
30.4944
20
-30.3333
10
30.6458
20
-30.5858
10
30.7716
20
-30.8519
10
30.8708
20
-31.1291
10
30.9424
20
-31.4147
10
30.9856
20
-31.7059
10
31
20
-32
10
30.9856
20
-32.2941
10
30.9424
20
-32.5853
10
30.8708
20
-32.8709
10
30.7716
20
-33.1481
10
30.6458
20
-33.4142
10
30.4944
20
-33.6667
10
30.319
20
-33.9032
10
30.1213
20
-34.1213
10
29.9032
20
-34.319
10
29.6667
20
-34.4944
10
29.4142
20
-34.6458
10
29.1481
20
-34.7716
10
28.8709
20
-34.8708
10
28.5853
20
-34.9424
10
28.2941
20
-34.9856
10
28
20
-35
10
27.7059
20
-34.9856
10
27.4147
20
-34.9424
10
27.1291
20
-34.8708
10
26.8519
20
-34.7716
10
26.5858
20
-34.6458
10
26.3333
20
-34.4944
10
26.0968
20
-34.319
10
25.8787
20
-34.1213
10
25.681
20
-33.9032
10
25.5056
20
-33.6667
10
25.3542
20
-33.4142
10
25.2284
20
-33.1481
10
25.1292
20
-32.8709
10
25.0576
20
-32.5853
10
25.0144
20
-32.2941
10
25
20
-32
10
25.0144
20
-31.7059
10
25.0576
20
-31.4147
10
25.1292
20
-31.1291
10
25.2284
20
-30.8519
10
25.3542
20
-30.5858
10
25.5056
20
-30.3333
10
25.681
20
-30.0968
10
25.8787
20
-29.8787
10
26.0968
20
-29.681
10
26.3333
20
-29.5056
10
26.5858
20
-29.3542
10
26.8519
20
-29.2284
10
27.1291
20
-29.1292
10
27.4147
20
-29.0576
10
27.7059
20
-29.0144
10
28
20
-29
10
28.2941
20
-29.0144
10
28.5853
20
-29.0576
10
28.8709
20
-29.1292
10
29.1481
20
-29.2284
0
LWPOLYLINE
8
18_electronics_tray_t3.0
100
AcDbEntity
100
AcDbPolyline
90
65
70
1
43
0.0
10
29.4142
20
34.6458
10
29.6667
20
34.4944
10
29.9032
20
34.319
10
30.1213
20
34.1213
10
30.319
20
33.9032
10
30.4944
20
33.6667
10
30.6458
20
33.4142
10
30.7716
20
33.1481
10
30.8708
20
32.8709
10
30.9424
20
32.5853
10
30.9856
20
32.2941
10
31
20
32
10
30.9856
20
31.7059
10
30.9424
20
31.4147
10
30.8708
20
31.1291
10
30.7716
20
30.8519
10
30.6458
20
30.5858
10
30.4944
20
30.3333
10
30.319
20
30.0968
10
30.1213
20
29.8787
10
29.9032
20
29.681
10
29.6667
20
29.5056
10
29.4142
20
29.3542
10
29.1481
20
29.2284
10
28.8709
20
29.1292
10
28.5853
20
29.0576
10
28.2941
20
29.0144
10
28
20
29
10
27.7059
20
29.0144
10
27.4147
20
29.0576
10
27.1291
20
29.1292
10
26.8519
20
29.2284
10
26.5858
20
29.3542
10
26.3333
20
29.5056
10
26.0968
20
29.681
10
25.8787
20
29.8787
10
25.681
20
30.0968
10
25.5056
20
30.3333
10
25.3542
20
30.5858
10
25.2284
20
30.8519
10
25.1292
20
31.1291
10
25.0576
20
31.4147
10
25.0144
20
31.7059
10
25
20
32
10
25.0144
20
32.2941
10
25.0576
20
32.5853
10
25.1292
20
32.8709
10
25.2284
20
33.1481
10
25.3542
20
33.4142
10
25.5056
20
33.6667
10
25.681
20
33.9032
10
25.8787
20
34.1213
10
26.0968
20
34.319
10
26.3333
20
34.4944
10
26.5858
20
34.6458
10
26.8519
20
34.7716
10
27.1291
20
34.8708
10
27.4147
20
34.9424
10
27.7059
20
34.9856
10
28
20
35
10
28.2941
20
34.9856
10
28.5853
20
34.9424
10
28.8709
20
34.8708
10
29.1481
20
34.7716
10
29.4142
20
34.6458
0
LWPOLYLINE
8
18_electronics_tray_t3.0
100
AcDbEntity
100
AcDbPolyline
90
65
70
1
43
0.0
10
43.6667
20
-29.5056
10
43.9032
20
-29.681
10
44.1213
20
-29.8787
10
44.319
20
-30.0968
10
44.4944
20
-30.3333
10
44.6458
20
-30.5858
10
44.7716
20
-30.8519
10
44.8708
20
-31.1291
10
44.9424
20
-31.4147
10
44.9856
20
-31.7059
10
45
20
-32
10
44.9856
20
-32.2941
10
44.9424
20
-32.5853
10
44.8708
20
-32.8709
10
44.7716
20
-33.1481
10
44.6458
20
-33.4142
10
44.4944
20
-33.6667
10
44.319
20
-33.9032
10
44.1213
20
-34.1213
10
43.9032
20
-34.319
10
43.6667
20
-34.4944
10
43.4142
20
-34.6458
10
43.1481
20
-34.7716
10
42.8709
20
-34.8708
10
42.5853
20
-34.9424
10
42.2941
20
-34.9856
10
42
20
-35
10
41.7059
20
-34.9856
10
41.4147
20
-34.9424
10
41.1291
20
-34.8708
10
40.8519
20
-34.7716
10
40.5858
20
-34.6458
10
40.3333
20
-34.4944
10
40.0968
20
-34.319
10
39.8787
20
-34.1213
10
39.681
20
-33.9032
10
39.5056
20
-33.6667
10
39.3542
20
-33.4142
10
39.2284
20
-33.1481
10
39.1292
20
-32.8709
10
39.0576
20
-32.5853
10
39.0144
20
-32.2941
10
39
20
-32
10
39.0144
20
-31.7059
10
39.0576
20
-31.4147
10
39.1292
20
-31.1291
10
39.2284
20
-30.8519
10
39.3542
20
-30.5858
10
39.5056
20
-30.3333
10
39.681
20
-30.0968
10
39.8787
20
-29.8787
10
40.0968
20
-29.681
10
40.3333
20
-29.5056
10
40.5858
20
-29.3542
10
40.8519
20
-29.2284
10
41.1291
20
-29.1292
10
41.4147
20
-29.0576
10
41.7059
20
-29.0144
10
42
20
-29
10
42.2941
20
-29.0144
10
42.5853
20
-29.0576
10
42.8709
20
-29.1292
10
43.1481
20
-29.2284
10
43.4142
20
-29.3542
10
43.6667
20
-29.5056
0
LWPOLYLINE
8
18_electronics_tray_t3.0
100
AcDbEntity
100
AcDbPolyline
90
65
70
1
43
0.0
10
43.9032
20
34.319
10
44.1213
20
34.1213
10
44.319
20
33.9032
10
44.4944
20
33.6667
10
44.6458
20
33.4142
10
44.7716
20
33.1481
10
44.8708
20
32.8709
10
44.9424
20
32.5853
10
44.9856
20
32.2941
10
45
20
32
10
44.9856
20
31.7059
10
44.9424
20
31.4147
10
44.8708
20
31.1291
10
44.7716
20
30.8519
10
44.6458
20
30.5858
10
44.4944
20
30.3333
10
44.319
20
30.0968
10
44.1213
20
29.8787
10
43.9032
20
29.681
10
43.6667
20
29.5056
10
43.4142
20
29.3542
10
43.1481
20
29.2284
10
42.8709
20
29.1292
10
42.5853
20
29.0576
10
42.2941
20
29.0144
10
42
20
29
10
41.7059
20
29.0144
10
41.4147
20
29.0576
10
41.1291
20
29.1292
10
40.8519
20
29.2284
10
40.5858
20
29.3542
10
40.3333
20
29.5056
10
40.0968
20
29.681
10
39.8787
20
29.8787
10
39.681
20
30.0968
10
39.5056
20
30.3333
10
39.3542
20
30.5858
10
39.2284
20
30.8519
10
39.1292
20
31.1291
10
39.0576
20
31.4147
10
39.0144
20
31.7059
10
39
20
32
10
39.0144
20
32.2941
10
39.0576
20
32.5853
10
39.1292
20
32.8709
10
39.2284
20
33.1481
10
39.3542
20
33.4142
10
39.5056
20
33.6667
10
39.681
20
33.9032
10
39.8787
20
34.1213
10
40.0968
20
34.319
10
40.3333
20
34.4944
10
40.5858
20
34.6458
10
40.8519
20
34.7716
10
41.1291
20
34.8708
10
41.4147
20
34.9424
10
41.7059
20
34.9856
10
42
20
35
10
42.2941
20
34.9856
10
42.5853
20
34.9424
10
42.8709
20
34.8708
10
43.1481
20
34.7716
10
43.4142
20
34.6458
10
43.6667
20
34.4944
10
43.9032
20
34.319
0
LWPOLYLINE
8
18_electronics_tray_t3.0
100
AcDbEntity
100
AcDbPolyline
90
65
70
1
43
0.0
10
58.1213
20
-29.8787
10
58.319
20
-30.0968
10
58.4944
20
-30.3333
10
58.6458
20
-30.5858
10
58.7716
20
-30.8519
10
58.8708
20
-31.1291
10
58.9424
20
-31.4147
10
58.9856
20
-31.7059
10
59
20
-32
10
58.9856
20
-32.2941
10
58.9424
20
-32.5853
10
58.8708
20
-32.8709
10
58.7716
20
-33.1481
10
58.6458
20
-33.4142
10
58.4944
20
-33.6667
10
58.319
20
-33.9032
10
58.1213
20
-34.1213
10
57.9032
20
-34.319
10
57.6667
20
-34.4944
10
57.4142
20
-34.6458
10
57.1481
20
-34.7716
10
56.8709
20
-34.8708
10
56.5853
20
-34.9424
10
56.2941
20
-34.9856
10
56
20
-35
10
55.7059
20
-34.9856
10
55.4147
20
-34.9424
10
55.1291
20
-34.8708
10
54.8519
20
-34.7716
10
54.5858
20
-34.6458
10
54.3333
20
-34.4944
10
54.0968
20
-34.319
10
53.8787
20
-34.1213
10
53.681
20
-33.9032
10
53.5056
20
-33.6667
10
53.3542
20
-33.4142
10
53.2284
20
-33.1481
10
53.1292
20
-32.8709
10
53.0576
20
-32.5853
10
53.0144
20
-32.2941
10
53
20
-32
10
53.0144
20
-31.7059
10
53.0576
20
-31.4147
10
53.1292
20
-31.1291
10
53.2284
20
-30.8519
10
53.3542
20
-30.5858
10
53.5056
20
-30.3333
10
53.681
20
-30.0968
10
53.8787
20
-29.8787
10
54.0968
20
-29.681
10
54.3333
20
-29.5056
10
54.5858
20
-29.3542
10
54.8519
20
-29.2284
10
55.1291
20
-29.1292
10
55.4147
20
-29.0576
10
55.7059
20
-29.0144
10
56
20
-29
10
56.2941
20
-29.0144
10
56.5853
20
-29.0576
10
56.8709
20
-29.1292
10
57.1481
20
-29.2284
10
57.4142
20
-29.3542
10
57.6667
20
-29.5056
10
57.9032
20
-29.681
10
58.1213
20
-29.8787
0
LWPOLYLINE
8
18_electronics_tray_t3.0
100
AcDbEntity
100
AcDbPolyline
90
65
70
1
43
0.0
10
58.319
20
33.9032
10
58.4944
20
33.6667
10
58.6458
20
33.4142
10
58.7716
20
33.1481
10
58.8708
20
32.8709
10
58.9424
20
32.5853
10
58.9856
20
32.2941
10
59
20
32
10
58.9856
20
31.7059
10
58.9424
20
31.4147
10
58.8708
20
31.1291
10
58.7716
20
30.8519
10
58.6458
20
30.5858
10
58.4944
20
30.3333
10
58.319
20
30.0968
10
58.1213
20
29.8787
10
57.9032
20
29.681
10
57.6667
20
29.5056
10
57.4142
20
29.3542
10
57.1481
20
29.2284
10
56.8709
20
29.1292
10
56.5853
20
29.0576
10
56.2941
20
29.0144
10
56
20
29
10
55.7059
20
29.0144
10
55.4147
20
29.0576
10
55.1291
20
29.1292
10
54.8519
20
29.2284
10
54.5858
20
29.3542
10
54.3333
20
29.5056
10
54.0968
20
29.681
10
53.8787
20
29.8787
10
53.681
20
30.0968
10
53.5056
20
30.3333
10
53.3542
20
30.5858
10
53.2284
20
30.8519
10
53.1292
20
31.1291
10
53.0576
20
31.4147
10
53.0144
20
31.7059
10
53
20
32
10
53.0144
20
32.2941
10
53.0576
20
32.5853
10
53.1292
20
32.8709
10
53.2284
20
33.1481
10
53.3542
20
33.4142
10
53.5056
20
33.6667
10
53.681
20
33.9032
10
53.8787
20
34.1213
10
54.0968
20
34.319
10
54.3333
20
34.4944
10
54.5858
20
34.6458
10
54.8519
20
34.7716
10
55.1291
20
34.8708
10
55.4147
20
34.9424
10
55.7059
20
34.9856
10
56
20
35
10
56.2941
20
34.9856
10
56.5853
20
34.9424
10
56.8709
20
34.8708
10
57.1481
20
34.7716
10
57.4142
20
34.6458
10
57.6667
20
34.4944
10
57.9032
20
34.319
10
58.1213
20
34.1213
10
58.319
20
33.9032
0
LWPOLYLINE
8
18_electronics_tray_t3.0
100
AcDbEntity
100
AcDbPolyline
90
65
70
1
43
0.0
10
72.4944
20
-30.3333
10
72.6458
20
-30.5858
10
72.7716
20
-30.8519
10
72.8708
20
-31.1291
10
72.9424
20
-31.4147
10
72.9856
20
-31.7059
10
73
20
-32
10
72.9856
20
-32.2941
10
72.9424
20
-32.5853
10
72.8708
20
-32.8709
10
72.7716
20
-33.1481
10
72.6458
20
-33.4142
10
72.4944
20
-33.6667
10
72.319
20
-33.9032
10
72.1213
20
-34.1213
10
71.9032
20
-34.319
10
71.6667
20
-34.4944
10
71.4142
20
-34.6458
10
71.1481
20
-34.7716
10
70.8709
20
-34.8708
10
70.5853
20
-34.9424
10
70.2941
20
-34.9856
10
70
20
-35
10
69.7059
20
-34.9856
10
69.4147
20
-34.9424
10
69.1291
20
-34.8708
10
68.8519
20
-34.7716
10
68.5858
20
-34.6458
10
68.3333
20
-34.4944
10
68.0968
20
-34.319
10
67.8787
20
-34.1213
10
67.681
20
-33.9032
10
67.5056
20
-33.6667
10
67.3542
20
-33.4142
10
67.2284
20
-33.1481
10
67.1292
20
-32.8709
10
67.0576
20
-32.5853
10
67.0144
20
-32.2941
10
67
20
-32
10
67.0144
20
-31.7059
10
67.0576
20
-31.4147
10
67.1292
20
-31.1291
10
67.2284
20
-30.8519
10
67.3542
20
-30.5858
10
67.5056
20
-30.3333
10
67.681
20
-30.0968
10
67.8787
20
-29.8787
10
68.0968
20
-29.681
10
68.3333
20
-29.5056
10
68.5858
20
-29.3542
10
68.8519
20
-29.2284
10
69.1291
20
-29.1292
10
69.4147
20
-29.0576
10
69.7059
20
-29.0144
10
70
20
-29
10
70.2941
20
-29.0144
10
70.5853
20
-29.0576
10
70.8709
20
-29.1292
10
71.1481
20
-29.2284
10
71.4142
20
-29.3542
10
71.6667
20
-29.5056
10
71.9032
20
-29.681
10
72.1213
20
-29.8787
10
72.319
20
-30.0968
10
72.4944
20
-30.3333
0
LWPOLYLINE
8
18_electronics_tray_t3.0
100
AcDbEntity
100
AcDbPolyline
90
65
70
1
43
0.0
10
72.6458
20
33.4142
10
72.7716
20
33.1481
10
72.8708
20
32.8709
10
72.9424
20
32.5853
10
72.9856
20
32.2941
10
73
20
32
10
72.9856
20
31.7059
10
72.9424
20
31.4147
10
72.8708
20
31.1291
10
72.7716
20
30.8519
10
72.6458
20
30.5858
10
72.4944
20
30.3333
10
72.319
20
30.0968
10
72.1213
20
29.8787
10
71.9032
20
29.681
10
71.6667
20
29.5056
10
71.4142
20
29.3542
10
71.1481
20
29.2284
10
70.8709
20
29.1292
10
70.5853
20
29.0576
10
70.2941
20
29.0144
10
70
20
29
10
69.7059
20
29.0144
10
69.4147
20
29.0576
10
69.1291
20
29.1292
10
68.8519
20
29.2284
10
68.5858
20
29.3542
10
68.3333
20
29.5056
10
68.0968
20
29.681
10
67.8787
20
29.8787
10
67.681
20
30.0968
10
67.5056
20
30.3333
10
67.3542
20
30.5858
10
67.2284
20
30.8519
10
67.1292
20
31.1291
10
67.0576
20
31.4147
10
67.0144
20
31.7059
10
67
20
32
10
67.0144
20
32.2941
10
67.0576
20
32.5853
10
67.1292
20
32.8709
10
67.2284
20
33.1481
10
67.3542
20
33.4142
10
67.5056
20
33.6667
10
67.681
20
33.9032
10
67.8787
20
34.1213
10
68.0968
20
34.319
10
68.3333
20
34.4944
10
68.5858
20
34.6458
10
68.8519
20
34.7716
10
69.1291
20
34.8708
10
69.4147
20
34.9424
10
69.7059
20
34.9856
10
70
20
35
10
70.2941
20
34.9856
10
70.5853
20
34.9424
10
70.8709
20
34.8708
10
71.1481
20
34.7716
10
71.4142
20
34.6458
10
71.6667
20
34.4944
10
71.9032
20
34.319
10
72.1213
20
34.1213
10
72.319
20
33.9032
10
72.4944
20
33.6667
10
72.6458
20
33.4142
0
LWPOLYLINE
8
18_electronics_tray_t3.0
100
AcDbEntity
100
AcDbPolyline
90
65
70
1
43
0.0
10
86.7716
20
-30.8519
10
86.8708
20
-31.1291
10
86.9424
20
-31.4147
10
86.9856
20
-31.7059
10
87
20
-32
10
86.9856
20
-32.2941
10
86.9424
20
-32.5853
10
86.8708
20
-32.8709
10
86.7716
20
-33.1481
10
86.6458
20
-33.4142
10
86.4944
20
-33.6667
10
86.319
20
-33.9032
10
86.1213
20
-34.1213
10
85.9032
20
-34.319
10
85.6667
20
-34.4944
10
85.4142
20
-34.6458
10
85.1481
20
-34.7716
10
84.8709
20
-34.8708
10
84.5853
20
-34.9424
10
84.2941
20
-34.9856
10
84
20
-35
10
83.7059
20
-34.9856
10
83.4147
20
-34.9424
10
83.1291
20
-34.8708
10
82.8519
20
-34.7716
10
82.5858
20
-34.6458
10
82.3333
20
-34.4944
10
82.0968
20
-34.319
10
81.8787
20
-34.1213
10
81.681
20
-33.9032
10
81.5056
20
-33.6667
10
81.3542
20
-33.4142
10
81.2284
20
-33.1481
10
81.1292
20
-32.8709
10
81.0576
20
-32.5853
10
81.0144
20
-32.2941
10
81
20
-32
10
81.0144
20
-31.7059
10
81.0576
20
-31.4147
10
81.1292
20
-31.1291
10
81.2284
20
-30.8519
10
81.3542
20
-30.5858
10
81.5056
20
-30.3333
10
81.681
20
-30.0968
10
81.8787
20
-29.8787
10
82.0968
20
-29.681
10
82.3333
20
-29.5056
10
82.5858
20
-29.3542
10
82.8519
20
-29.2284
10
83.1291
20
-29.1292
10
83.4147
20
-29.0576
10
83.7059
20
-29.0144
10
84
20
-29
10
84.2941
20
-29.0144
10
84.5853
20
-29.0576
10
84.8709
20
-29.1292
10
85.1481
20
-29.2284
10
85.4142
20
-29.3542
10
85.6667
20
-29.5056
10
85.9032
20
-29.681
10
86.1213
20
-29.8787
10
86.319
20
-30.0968
10
86.4944
20
-30.3333
10
86.6458
20
-30.5858
10
86.7716
20
-30.8519
0
LWPOLYLINE
8
18_electronics_tray_t3.0
100
AcDbEntity
100
AcDbPolyline
90
65
70
1
43
0.0
10
86.8708
20
32.8709
10
86.9424
20
32.5853
10
86.9856
20
32.2941
10
87
20
32
10
86.9856
20
31.7059
10
86.9424
20
31.4147
10
86.8708
20
31.1291
10
86.7716
20
30.8519
10
86.6458
20
30.5858
10
86.4944
20
30.3333
10
86.319
20
30.0968
10
86.1213
20
29.8787
10
85.9032
20
29.681
10
85.6667
20
29.5056
10
85.4142
20
29.3542
10
85.1481
20
29.2284
10
84.8709
20
29.1292
10
84.5853
20
29.0576
10
84.2941
20
29.0144
10
84
20
29
10
83.7059
20
29.0144
10
83.4147
20
29.0576
10
83.1291
20
29.1292
10
82.8519
20
29.2284
10
82.5858
20
29.3542
10
82.3333
20
29.5056
10
82.0968
20
29.681
10
81.8787
20
29.8787
10
81.681
20
30.0968
10
81.5056
20
30.3333
10
81.3542
20
30.5858
10
81.2284
20
30.8519
10
81.1292
20
31.1291
10
81.0576
20
31.4147
10
81.0144
20
31.7059
10
81
20
32
10
81.0144
20
32.2941
10
81.0576
20
32.5853
10
81.1292
20
32.8709
10
81.2284
20
33.1481
10
81.3542
20
33.4142
10
81.5056
20
33.6667
10
81.681
20
33.9032
10
81.8787
20
34.1213
10
82.0968
20
34.319
10
82.3333
20
34.4944
10
82.5858
20
34.6458
10
82.8519
20
34.7716
10
83.1291
20
34.8708
10
83.4147
20
34.9424
10
83.7059
20
34.9856
10
84
20
35
10
84.2941
20
34.9856
10
84.5853
20
34.9424
10
84.8709
20
34.8708
10
85.1481
20
34.7716
10
85.4142
20
34.6458
10
85.6667
20
34.4944
10
85.9032
20
34.319
10
86.1213
20
34.1213
10
86.319
20
33.9032
10
86.4944
20
33.6667
10
86.6458
20
33.4142
10
86.7716
20
33.1481
10
86.8708
20
32.8709
0
ENDSEC
0
EOF
