0
SECTION
2
HEADER
9
$ACADVER
1
AC1015
9
$INSUNITS
70
4
0
ENDSEC
0
SECTION
2
ENTITIES
0
LWPOLYLINE
8
19_battery_clip_t3.0
100
AcDbEntity
100
AcDbPolyline
90
9
70
1
43
0.0
10
10
20
18
10
54
20
18
10
54
20
26
10
0
20
26
10
0
20
-26
10
54
20
-26
10
54
20
-18
10
10
20
-18
10
10
20
18
0
LWPOLYLINE
8
19_battery_clip_t3.0
100
AcDbEntity
100
AcDbPolyline
90
65
70
1
43
0.0
10
7.4782
20
-21.3877
10
7.5311
20
-21.5355
10
7.5693
20
-21.6879
10
7.5923
20
-21.8432
10
7.6
20
-22
10
7.5923
20
-22.1568
10
7.5693
20
-22.3121
10
7.5311
20
-22.4645
10
7.4782
20
-22.6123
10
7.4111
20
-22.7542
10
7.3304
20
-22.8889
10
7.2368
20
-23.015
10
7.1314
20
-23.1314
10
7.015
20
-23.2368
10
6.8889
20
-23.3304
10
6.7542
20
-23.4111
10
6.6123
20
-23.4782
10
6.4645
20
-23.5311
10
6.3121
20
-23.5693
10
6.1568
20
-23.5923
10
6
20
-23.6
10
5.8432
20
-23.5923
10
5.6879
20
-23.5693
10
5.5355
20
-23.5311
10
5.3877
20
-23.4782
10
5.2458
20
-23.4111
10
5.1111
20
-23.3304
10
4.985
20
-23.2368
10
4.8686
20
-23.1314
10
4.7632
20
-23.015
10
4.6696
20
-22.8889
10
4.5889
20
-22.7542
10
4.5218
20
-22.6123
10
4.4689
20
-22.4645
10
4.4307
20
-22.3121
10
4.4077
20
-22.1568
10
4.4
20
-22
10
4.4077
20
-21.8432
10
4.4307
20
-21.6879
10
4.4689
20
-21.5355
10
4.5218
20
-21.3877
10
4.5889
20
-21.2458
10
4.6696
20
-21.1111
10
4.7632
20
-20.985
10
4.8686
20
-20.8686
10
4.985
20
-20.7632
10
5.1111
20
-20.6696
10
5.2458
20
-20.5889
10
5.3877
20
-20.5218
10
5.5355
20
-20.4689
10
5.6879
20
-20.4307
10
5.8432
20
-20.4077
10
6
20
-20.4
10
6.1568
20
-20.4077
10
6.3121
20
-20.4307
10
6.4645
20
-20.4689
10
6.6123
20
-20.5218
10
6.7542
20
-20.5889
10
6.8889
20
-20.6696
10
7.015
20
-20.7632
10
7.1314
20
-20.8686
10
7.2368
20
-20.985
10
7.3304
20
-21.1111
10
7.4111
20
-21.2458
10
7.4782
20
-21.3877
0
LWPOLYLINE
8
19_battery_clip_t3.0
100
AcDbEntity
100
AcDbPolyline
90
65
70
1
43
0.0
10
7.5311
20
22.4645
10
7.5693
20
22.3121
10
7.5923
20
22.1568
10
7.6
20
22
10
7.5923
20
21.8432
10
7.5693
20
21.6879
10
7.5311
20
21.5355
10
7.4782
20
21.3877
10
7.4111
20
21.2458
10
7.3304
20
21.1111
10
7.2368
20
20.985
10
7.1314
20
20.8686
10
7.015
20
20.7632
10
6.8889
20
20.6696
10
6.7542
20
20.5889
10
6.6123
20
20.5218
10
6.4645
20
20.4689
10
6.3121
20
20.4307
10
6.1568
20
20.4077
10
6
20
20.4
10
5.8432
20
20.4077
10
5.6879
20
20.4307
10
5.5355
20
20.4689
10
5.3877
20
20.5218
10
5.2458
20
20.5889
10
5.1111
20
20.6696
10
4.985
20
20.7632
10
4.8686
20
20.8686
10
4.7632
20
20.985
10
4.6696
20
21.1111
10
4.5889
20
21.2458
10
4.5218
20
21.3877
10
4.4689
20
21.5355
10
4.4307
20
21.6879
10
4.4077
20
21.8432
10
4.4
20
22
10
4.4077
20
22.1568
10
4.4307
20
22.3121
10
4.4689
20
22.4645
10
4.5218
20
22.6123
10
4.5889
20
22.7542
10
4.6696
20
22.8889
10
4.7632
20
23.015
10
4.8686
20
23.1314
10
4.985
20
23.2368
10
5.1111
20
23.3304
10
5.2458
20
23.4111
10
5.3877
20
23.4782
10
5.5355
20
23.5311
10
5.6879
20
23.5693
10
5.8432
20
23.5923
10
6
20
23.6
10
6.1568
20
23.5923
10
6.3121
20
23.5693
10
6.4645
20
23.5311
10
6.6123
20
23.4782
10
6.7542
20
23.4111
10
6.8889
20
23.3304
10
7.015
20
23.2368
10
7.1314
20
23.1314
10
7.2368
20
23.015
10
7.3304
20
22.8889
10
7.4111
20
22.7542
10
7.4782
20
22.6123
10
7.5311
20
22.4645
0
LWPOLYLINE
8
19_battery_clip_t3.0
100
AcDbEntity
100
AcDbPolyline
90
65
70
1
43
0.0
10
45.5693
20
-21.6879
10
45.5923
20
-21.8432
10
45.6
20
-22
10
45.5923
20
-22.1568
10
45.5693
20
-22.3121
10
45.5311
20
-22.4645
10
45.4782
20
-22.6123
10
45.4111
20
-22.7542
10
45.3304
20
-22.8889
10
45.2368
20
-23.015
10
45.1314
20
-23.1314
10
45.015
20
-23.2368
10
44.8889
20
-23.3304
10
44.7542
20
-23.4111
10
44.6123
20
-23.4782
10
44.4645
20
-23.5311
10
44.3121
20
-23.5693
10
44.1568
20
-23.5923
10
44
20
-23.6
10
43.8432
20
-23.5923
10
43.6879
20
-23.5693
10
43.5355
20
-23.5311
10
43.3877
20
-23.4782
10
43.2458
20
-23.4111
10
43.1111
20
-23.3304
10
42.985
20
-23.2368
10
42.8686
20
-23.1314
10
42.7632
20
-23.015
10
42.6696
20
-22.8889
10
42.5889
20
-22.7542
10
42.5218
20
-22.6123
10
42.4689
20
-22.4645
10
42.4307
20
-22.3121
10
42.4077
20
-22.1568
10
42.4
20
-22
10
42.4077
20
-21.8432
10
42.4307
20
-21.6879
10
42.4689
20
-21.5355
10
42.5218
20
-21.3877
10
42.5889
20
-21.2458
10
42.6696
20
-21.1111
10
42.7632
20
-20.985
10
42.8686
20
-20.8686
10
42.985
20
-20.7632
10
43.1111
20
-20.6696
10
43.2458
20
-20.5889
10
43.3877
20
-20.5218
10
43.5355
20
-20.4689
10
43.6879
20
-20.4307
10
43.8432
20
-20.4077
10
44
20
-20.4
10
44.1568
20
-20.4077
10
44.3121
20
-20.4307
10
44.4645
20
-20.4689
10
44.6123
20
-20.5218
10
44.7542
20
-20.5889
10
44.8889
20
-20.6696
10
45.015
20
-20.7632
10
45.1314
20
-20.8686
10
45.2368
20
-20.985
10
45.3304
20
-21.1111
10
45.4111
20
-21.2458
10
45.4782
20
-21.3877
10
45.5311
20
-21.5355
10
45.5693
20
-21.6879
0
LWPOLYLINE
8
19_battery_clip_t3.0
100
AcDbEntity
100
AcDbPolyline
90
65
70
1
43
0.0
10
45.5923
20
22.1568
10
45.6
20
22
10
45.5923
20
21.8432
10
45.5693
20
21.6879
10
45.5311
20
21.5355
10
45.4782
20
21.3877
10
45.4111
20
21.2458
10
45.3304
20
21.1111
10
45.2368
20
20.985
10
45.1314
20
20.8686
10
45.015
20
20.7632
10
44.8889
20
20.6696
10
44.7542
20
20.5889
10
44.6123
20
20.5218
10
44.4645
20
20.4689
10
44.3121
20
20.4307
10
44.1568
20
20.4077
10
44
20
20.4
10
43.8432
20
20.4077
10
43.6879
20
20.4307
10
43.5355
20
20.4689
10
43.3877
20
20.5218
10
43.2458
20
20.5889
10
43.1111
20
20.6696
10
42.985
20
20.7632
10
42.8686
20
20.8686
10
42.7632
20
20.985
10
42.6696
20
21.1111
10
42.5889
20
21.2458
10
42.5218
20
21.3877
10
42.4689
20
21.5355
10
42.4307
20
21.6879
10
42.4077
20
21.8432
10
42.4
20
22
10
42.4077
20
22.1568
10
42.4307
20
22.3121
10
42.4689
20
22.4645
10
42.5218
20
22.6123
10
42.5889
20
22.7542
10
42.6696
20
22.8889
10
42.7632
20
23.015
10
42.8686
20
23.1314
10
42.985
20
23.2368
10
43.1111
20
23.3304
10
43.2458
20
23.4111
10
43.3877
20
23.4782
10
43.5355
20
23.5311
10
43.6879
20
23.5693
10
43.8432
20
23.5923
10
44
20
23.6
10
44.1568
20
23.5923
10
44.3121
20
23.5693
10
44.4645
20
23.5311
10
44.6123
20
23.4782
10
44.7542
20
23.4111
10
44.8889
20
23.3304
10
45.015
20
23.2368
10
45.1314
20
23.1314
10
45.2368
20
23.015
10
45.3304
20
22.8889
10
45.4111
20
22.7542
10
45.4782
20
22.6123
10
45.5311
20
22.4645
10
45.5693
20
22.3121
10
45.5923
20
22.1568
0
ENDSEC
0
EOF
