0
SECTION
2
HEADER
9
$ACADVER
1
AC1015
9
$INSUNITS
70
4
0
ENDSEC
0
SECTION
2
ENTITIES
0
LWPOLYLINE
8
20_bumper_front_t10.0
100
AcDbEntity
100
AcDbPolyline
90
5
70
1
43
0.0
10
16
20
-54
10
16
20
54
10
0
20
54
10
0
20
-54
10
16
20
-54
0
LWPOLYLINE
8
20_bumper_front_t10.0
100
AcDbEntity
100
AcDbPolyline
90
19
70
1
43
0.0
10
2.5858
20
-42.5858
10
3.2346
20
-42.1522
10
4
20
-42
10
12
20
-42
10
12.7654
20
-42.1522
10
13.4142
20
-42.5858
10
13.8478
20
-43.2346
10
14
20
-44
10
13.8478
20
-44.7654
10
13.4142
20
-45.4142
10
12.7654
20
-45.8478
10
12
20
-46
10
4
20
-46
10
3.2346
20
-45.8478
10
2.5858
20
-45.4142
10
2.1522
20
-44.7654
10
2
20
-44
10
2.1522
20
-43.2346
10
2.5858
20
-42.5858
0
LWPOLYLINE
8
20_bumper_front_t10.0
100
AcDbEntity
100
AcDbPolyline
90
19
70
1
43
0.0
10
3.2346
20
45.8478
10
4
20
46
10
12
20
46
10
12.7654
20
45.8478
10
13.4142
20
45.4142
10
13.8478
20
44.7654
10
14
20
44
10
13.8478
20
43.2346
10
13.4142
20
42.5858
10
12.7654
20
42.1522
10
12
20
42
10
4
20
42
10
3.2346
20
42.1522
10
2.5858
20
42.5858
10
2.1522
20
43.2346
10
2
20
44
10
2.1522
20
44.7654
10
2.5858
20
45.4142
10
3.2346
20
45.8478
0
LWPOLYLINE
8
20_bumper_front_t10.0
100
AcDbEntity
100
AcDbPolyline
90
21
70
1
43
0.0
10
10.7654
20
-19.8478
10
10
20
-20
10
6
20
-20
10
5.2346
20
-19.8478
10
4.5858
20
-19.4142
10
4.1522
20
-18.7654
10
4
20
-18
10
4
20
18
10
4.1522
20
18.7654
10
4.5858
20
19.4142
10
5.2346
20
19.8478
10
6
20
20
10
10
20
20
10
10.7654
20
19.8478
10
11.4142
20
19.4142
10
11.8478
20
18.7654
10
12
20
18
10
12
20
-18
10
11.8478
20
-18.7654
10
11.4142
20
-19.4142
10
10.7654
20
-19.8478
0
ENDSEC
0
EOF
