0
SECTION
2
HEADER
9
$ACADVER
1
AC1015
9
$INSUNITS
70
4
0
ENDSEC
0
SECTION
2
ENTITIES
0
LWPOLYLINE
8
21_anti_tip_t5.0
100
AcDbEntity
100
AcDbPolyline
90
7
70
1
43
0.0
10
116
20
-3
10
116
20
3
10
104
20
8
10
0
20
8
10
0
20
-8
10
104
20
-8
10
116
20
-3
0
LWPOLYLINE
8
21_anti_tip_t5.0
100
AcDbEntity
100
AcDbPolyline
90
19
70
1
43
0.0
10
2.1675
20
0.8419
10
2.6444
20
1.5556
10
3.3581
20
2.0325
10
4.2
20
2.2
10
11.8
20
2.2
10
12.6419
20
2.0325
10
13.3556
20
1.5556
10
13.8325
20
0.8419
10
14
20
0
10
13.8325
20
-0.8419
10
13.3556
20
-1.5556
10
12.6419
20
-2.0325
10
11.8
20
-2.2
10
4.2
20
-2.2
10
3.3581
20
-2.0325
10
2.6444
20
-1.5556
10
2.1675
20
-0.8419
10
2
20
0
10
2.1675
20
0.8419
0
LWPOLYLINE
8
21_anti_tip_t5.0
100
AcDbEntity
100
AcDbPolyline
90
65
70
1
43
0.0
10
31.5311
20
0.4645
10
31.5693
20
0.3121
10
31.5923
20
0.1568
10
31.6
20
0
10
31.5923
20
-0.1568
10
31.5693
20
-0.3121
10
31.5311
20
-0.4645
10
31.4782
20
-0.6123
10
31.4111
20
-0.7542
10
31.3304
20
-0.8889
10
31.2368
20
-1.015
10
31.1314
20
-1.1314
10
31.015
20
-1.2368
10
30.8889
20
-1.3304
10
30.7542
20
-1.4111
10
30.6123
20
-1.4782
10
30.4645
20
-1.5311
10
30.3121
20
-1.5693
10
30.1568
20
-1.5923
10
30
20
-1.6
10
29.8432
20
-1.5923
10
29.6879
20
-1.5693
10
29.5355
20
-1.5311
10
29.3877
20
-1.4782
10
29.2458
20
-1.4111
10
29.1111
20
-1.3304
10
28.985
20
-1.2368
10
28.8686
20
-1.1314
10
28.7632
20
-1.015
10
28.6696
20
-0.8889
10
28.5889
20
-0.7542
10
28.5218
20
-0.6123
10
28.4689
20
-0.4645
10
28.4307
20
-0.3121
10
28.4077
20
-0.1568
10
28.4
20
0
10
28.4077
20
0.1568
10
28.4307
20
0.3121
10
28.4689
20
0.4645
10
28.5218
20
0.6123
10
28.5889
20
0.7542
10
28.6696
20
0.8889
10
28.7632
20
1.015
10
28.8686
20
1.1314
10
28.985
20
1.2368
10
29.1111
20
1.3304
10
29.2458
20
1.4111
10
29.3877
20
1.4782
10
29.5355
20
1.5311
10
29.6879
20
1.5693
10
29.8432
20
1.5923
10
30
20
1.6
10
30.1568
20
1.5923
10
30.3121
20
1.5693
10
30.4645
20
1.5311
10
30.6123
20
1.4782
10
30.7542
20
1.4111
10
30.8889
20
1.3304
10
31.015
20
1.2368
10
31.1314
20
1.1314
10
31.2368
20
1.015
10
31.3304
20
0.8889
10
31.4111
20
0.7542
10
31.4782
20
0.6123
10
31.5311
20
0.4645
0
LWPOLYLINE
8
21_anti_tip_t5.0
100
AcDbEntity
100
AcDbPolyline
90
65
70
1
43
0.0
10
97.9231
20
0.7804
10
97.9807
20
0.3921
10
98
20
0
10
97.9807
20
-0.3921
10
97.9231
20
-0.7804
10
97.8278
20
-1.1611
10
97.6955
20
-1.5307
10
97.5277
20
-1.8856
10
97.3259
20
-2.2223
10
97.092
20
-2.5376
10
96.8284
20
-2.8284
10
96.5376
20
-3.092
10
96.2223
20
-3.3259
10
95.8856
20
-3.5277
10
95.5307
20
-3.6955
10
95.1611
20
-3.8278
10
94.7804
20
-3.9231
10
94.3921
20
-3.9807
10
94
20
-4
10
93.6079
20
-3.9807
10
93.2196
20
-3.9231
10
92.8389
20
-3.8278
10
92.4693
20
-3.6955
10
92.1144
20
-3.5277
10
91.7777
20
-3.3259
10
91.4624
20
-3.092
10
91.1716
20
-2.8284
10
90.908
20
-2.5376
10
90.6741
20
-2.2223
10
90.4723
20
-1.8856
10
90.3045
20
-1.5307
10
90.1722
20
-1.1611
10
90.0769
20
-0.7804
10
90.0193
20
-0.3921
10
90
20
0
10
90.0193
20
0.3921
10
90.0769
20
0.7804
10
90.1722
20
1.1611
10
90.3045
20
1.5307
10
90.4723
20
1.8856
10
90.6741
20
2.2223
10
90.908
20
2.5376
10
91.1716
20
2.8284
10
91.4624
20
3.092
10
91.7777
20
3.3259
10
92.1144
20
3.5277
10
92.4693
20
3.6955
10
92.8389
20
3.8278
10
93.2196
20
3.9231
10
93.6079
20
3.9807
10
94
20
4
10
94.3921
20
3.9807
10
94.7804
20
3.9231
10
95.1611
20
3.8278
10
95.5307
20
3.6955
10
95.8856
20
3.5277
10
96.2223
20
3.3259
10
96.5376
20
3.092
10
96.8284
20
2.8284
10
97.092
20
2.5376
10
97.3259
20
2.2223
10
97.5277
20
1.8856
10
97.6955
20
1.5307
10
97.8278
20
1.1611
10
97.9231
20
0.7804
0
LWPOLYLINE
8
21_anti_tip_t5.0
100
AcDbEntity
100
AcDbPolyline
90
65
70
1
43
0.0
10
113.9807
20
0.3921
10
114
20
0
10
113.9807
20
-0.3921
10
113.9231
20
-0.7804
10
113.8278
20
-1.1611
10
113.6955
20
-1.5307
10
113.5277
20
-1.8856
10
113.3259
20
-2.2223
10
113.092
20
-2.5376
10
112.8284
20
-2.8284
10
112.5376
20
-3.092
10
112.2223
20
-3.3259
10
111.8856
20
-3.5277
10
111.5307
20
-3.6955
10
111.1611
20
-3.8278
10
110.7804
20
-3.9231
10
110.3921
20
-3.9807
10
110
20
-4
10
109.6079
20
-3.9807
10
109.2196
20
-3.9231
10
108.8389
20
-3.8278
10
108.4693
20
-3.6955
10
108.1144
20
-3.5277
10
107.7777
20
-3.3259
10
107.4624
20
-3.092
10
107.1716
20
-2.8284
10
106.908
20
-2.5376
10
106.6741
20
-2.2223
10
106.4723
20
-1.8856
10
106.3045
20
-1.5307
10
106.1722
20
-1.1611
10
106.0769
20
-0.7804
10
106.0193
20
-0.3921
10
106
20
0
10
106.0193
20
0.3921
10
106.0769
20
0.7804
10
106.1722
20
1.1611
10
106.3045
20
1.5307
10
106.4723
20
1.8856
10
106.6741
20
2.2223
10
106.908
20
2.5376
10
107.1716
20
2.8284
10
107.4624
20
3.092
10
107.7777
20
3.3259
10
108.1144
20
3.5277
10
108.4693
20
3.6955
10
108.8389
20
3.8278
10
109.2196
20
3.9231
10
109.6079
20
3.9807
10
110
20
4
10
110.3921
20
3.9807
10
110.7804
20
3.9231
10
111.1611
20
3.8278
10
111.5307
20
3.6955
10
111.8856
20
3.5277
10
112.2223
20
3.3259
10
112.5376
20
3.092
10
112.8284
20
2.8284
10
113.092
20
2.5376
10
113.3259
20
2.2223
10
113.5277
20
1.8856
10
113.6955
20
1.5307
10
113.8278
20
1.1611
10
113.9231
20
0.7804
10
113.9807
20
0.3921
0
ENDSEC
0
EOF
