0
SECTION
2
HEADER
9
$ACADVER
1
AC1015
9
$INSUNITS
70
4
0
ENDSEC
0
SECTION
2
ENTITIES
0
LWPOLYLINE
8
22_ramp_anchor_t8.0
100
AcDbEntity
100
AcDbPolyline
90
7
70
1
43
0.0
10
48
20
4
10
40
20
12
10
0
20
12
10
0
20
-12
10
40
20
-12
10
48
20
-4
10
48
20
4
0
LWPOLYLINE
8
22_ramp_anchor_t8.0
100
AcDbEntity
100
AcDbPolyline
90
65
70
1
43
0.0
10
9.5311
20
0.4645
10
9.5693
20
0.3121
10
9.5923
20
0.1568
10
9.6
20
0
10
9.5923
20
-0.1568
10
9.5693
20
-0.3121
10
9.5311
20
-0.4645
10
9.4782
20
-0.6123
10
9.4111
20
-0.7542
10
9.3304
20
-0.8889
10
9.2368
20
-1.015
10
9.1314
20
-1.1314
10
9.015
20
-1.2368
10
8.8889
20
-1.3304
10
8.7542
20
-1.4111
10
8.6123
20
-1.4782
10
8.4645
20
-1.5311
10
8.3121
20
-1.5693
10
8.1568
20
-1.5923
10
8
20
-1.6
10
7.8432
20
-1.5923
10
7.6879
20
-1.5693
10
7.5355
20
-1.5311
10
7.3877
20
-1.4782
10
7.2458
20
-1.4111
10
7.1111
20
-1.3304
10
6.985
20
-1.2368
10
6.8686
20
-1.1314
10
6.7632
20
-1.015
10
6.6696
20
-0.8889
10
6.5889
20
-0.7542
10
6.5218
20
-0.6123
10
6.4689
20
-0.4645
10
6.4307
20
-0.3121
10
6.4077
20
-0.1568
10
6.4
20
0
10
6.4077
20
0.1568
10
6.4307
20
0.3121
10
6.4689
20
0.4645
10
6.5218
20
0.6123
10
6.5889
20
0.7542
10
6.6696
20
0.8889
10
6.7632
20
1.015
10
6.8686
20
1.1314
10
6.985
20
1.2368
10
7.1111
20
1.3304
10
7.2458
20
1.4111
10
7.3877
20
1.4782
10
7.5355
20
1.5311
10
7.6879
20
1.5693
10
7.8432
20
1.5923
10
8
20
1.6
10
8.1568
20
1.5923
10
8.3121
20
1.5693
10
8.4645
20
1.5311
10
8.6123
20
1.4782
10
8.7542
20
1.4111
10
8.8889
20
1.3304
10
9.015
20
1.2368
10
9.1314
20
1.1314
10
9.2368
20
1.015
10
9.3304
20
0.8889
10
9.4111
20
0.7542
10
9.4782
20
0.6123
10
9.5311
20
0.4645
0
LWPOLYLINE
8
22_ramp_anchor_t8.0
100
AcDbEntity
100
AcDbPolyline
90
65
70
1
43
0.0
10
23.5693
20
0.3121
10
23.5923
20
0.1568
10
23.6
20
0
10
23.5923
20
-0.1568
10
23.5693
20
-0.3121
10
23.5311
20
-0.4645
10
23.4782
20
-0.6123
10
23.4111
20
-0.7542
10
23.3304
20
-0.8889
10
23.2368
20
-1.015
10
23.1314
20
-1.1314
10
23.015
20
-1.2368
10
22.8889
20
-1.3304
10
22.7542
20
-1.4111
10
22.6123
20
-1.4782
10
22.4645
20
-1.5311
10
22.3121
20
-1.5693
10
22.1568
20
-1.5923
10
22
20
-1.6
10
21.8432
20
-1.5923
10
21.6879
20
-1.5693
10
21.5355
20
-1.5311
10
21.3877
20
-1.4782
10
21.2458
20
-1.4111
10
21.1111
20
-1.3304
10
20.985
20
-1.2368
10
20.8686
20
-1.1314
10
20.7632
20
-1.015
10
20.6696
20
-0.8889
10
20.5889
20
-0.7542
10
20.5218
20
-0.6123
10
20.4689
20
-0.4645
10
20.4307
20
-0.3121
10
20.4077
20
-0.1568
10
20.4
20
0
10
20.4077
20
0.1568
10
20.4307
20
0.3121
10
20.4689
20
0.4645
10
20.5218
20
0.6123
10
20.5889
20
0.7542
10
20.6696
20
0.8889
10
20.7632
20
1.015
10
20.8686
20
1.1314
10
20.985
20
1.2368
10
21.1111
20
1.3304
10
21.2458
20
1.4111
10
21.3877
20
1.4782
10
21.5355
20
1.5311
10
21.6879
20
1.5693
10
21.8432
20
1.5923
10
22
20
1.6
10
22.1568
20
1.5923
10
22.3121
20
1.5693
10
22.4645
20
1.5311
10
22.6123
20
1.4782
10
22.7542
20
1.4111
10
22.8889
20
1.3304
10
23.015
20
1.2368
10
23.1314
20
1.1314
10
23.2368
20
1.015
10
23.3304
20
0.8889
10
23.4111
20
0.7542
10
23.4782
20
0.6123
10
23.5311
20
0.4645
10
23.5693
20
0.3121
0
LWPOLYLINE
8
22_ramp_anchor_t8.0
100
AcDbEntity
100
AcDbPolyline
90
65
70
1
43
0.0
10
40.9856
20
0.2941
10
41
20
0
10
40.9856
20
-0.2941
10
40.9424
20
-0.5853
10
40.8708
20
-0.8709
10
40.7716
20
-1.1481
10
40.6458
20
-1.4142
10
40.4944
20
-1.6667
10
40.319
20
-1.9032
10
40.1213
20
-2.1213
10
39.9032
20
-2.319
10
39.6667
20
-2.4944
10
39.4142
20
-2.6458
10
39.1481
20
-2.7716
10
38.8709
20
-2.8708
10
38.5853
20
-2.9424
10
38.2941
20
-2.9856
10
38
20
-3
10
37.7059
20
-2.9856
10
37.4147
20
-2.9424
10
37.1291
20
-2.8708
10
36.8519
20
-2.7716
10
36.5858
20
-2.6458
10
36.3333
20
-2.4944
10
36.0968
20
-2.319
10
35.8787
20
-2.1213
10
35.681
20
-1.9032
10
35.5056
20
-1.6667
10
35.3542
20
-1.4142
10
35.2284
20
-1.1481
10
35.1292
20
-0.8709
10
35.0576
20
-0.5853
10
35.0144
20
-0.2941
10
35
20
0
10
35.0144
20
0.2941
10
35.0576
20
0.5853
10
35.1292
20
0.8709
10
35.2284
20
1.1481
10
35.3542
20
1.4142
10
35.5056
20
1.6667
10
35.681
20
1.9032
10
35.8787
20
2.1213
10
36.0968
20
2.319
10
36.3333
20
2.4944
10
36.5858
20
2.6458
10
36.8519
20
2.7716
10
37.1291
20
2.8708
10
37.4147
20
2.9424
10
37.7059
20
2.9856
10
38
20
3
10
38.2941
20
2.9856
10
38.5853
20
2.9424
10
38.8709
20
2.8708
10
39.1481
20
2.7716
10
39.4142
20
2.6458
10
39.6667
20
2.4944
10
39.9032
20
2.319
10
40.1213
20
2.1213
10
40.319
20
1.9032
10
40.4944
20
1.6667
10
40.6458
20
1.4142
10
40.7716
20
1.1481
10
40.8708
20
0.8709
10
40.9424
20
0.5853
10
40.9856
20
0.2941
0
ENDSEC
0
EOF
