0
SECTION
2
HEADER
9
$ACADVER
1
AC1015
9
$INSUNITS
70
4
0
ENDSEC
0
SECTION
2
ENTITIES
0
LWPOLYLINE
8
23_cam_mast_t4.0
100
AcDbEntity
100
AcDbPolyline
90
7
70
1
43
0.0
10
110
20
-18
10
118
20
-10
10
118
20
10
10
110
20
18
10
0
20
18
10
0
20
-18
10
110
20
-18
0
LWPOLYLINE
8
23_cam_mast_t4.0
100
AcDbEntity
100
AcDbPolyline
90
65
70
1
43
0.0
10
9.4111
20
0.7542
10
9.4782
20
0.6123
10
9.5311
20
0.4645
10
9.5693
20
0.3121
10
9.5923
20
0.1568
10
9.6
20
0
10
9.5923
20
-0.1568
10
9.5693
20
-0.3121
10
9.5311
20
-0.4645
10
9.4782
20
-0.6123
10
9.4111
20
-0.7542
10
9.3304
20
-0.8889
10
9.2368
20
-1.015
10
9.1314
20
-1.1314
10
9.015
20
-1.2368
10
8.8889
20
-1.3304
10
8.7542
20
-1.4111
10
8.6123
20
-1.4782
10
8.4645
20
-1.5311
10
8.3121
20
-1.5693
10
8.1568
20
-1.5923
10
8
20
-1.6
10
7.8432
20
-1.5923
10
7.6879
20
-1.5693
10
7.5355
20
-1.5311
10
7.3877
20
-1.4782
10
7.2458
20
-1.4111
10
7.1111
20
-1.3304
10
6.985
20
-1.2368
10
6.8686
20
-1.1314
10
6.7632
20
-1.015
10
6.6696
20
-0.8889
10
6.5889
20
-0.7542
10
6.5218
20
-0.6123
10
6.4689
20
-0.4645
10
6.4307
20
-0.3121
10
6.4077
20
-0.1568
10
6.4
20
0
10
6.4077
20
0.1568
10
6.4307
20
0.3121
10
6.4689
20
0.4645
10
6.5218
20
0.6123
10
6.5889
20
0.7542
10
6.6696
20
0.8889
10
6.7632
20
1.015
10
6.8686
20
1.1314
10
6.985
20
1.2368
10
7.1111
20
1.3304
10
7.2458
20
1.4111
10
7.3877
20
1.4782
10
7.5355
20
1.5311
10
7.6879
20
1.5693
10
7.8432
20
1.5923
10
8
20
1.6
10
8.1568
20
1.5923
10
8.3121
20
1.5693
10
8.4645
20
1.5311
10
8.6123
20
1.4782
10
8.7542
20
1.4111
10
8.8889
20
1.3304
10
9.015
20
1.2368
10
9.1314
20
1.1314
10
9.2368
20
1.015
10
9.3304
20
0.8889
10
9.4111
20
0.7542
0
LWPOLYLINE
8
23_cam_mast_t4.0
100
AcDbEntity
100
AcDbPolyline
90
65
70
1
43
0.0
10
27.4782
20
0.6123
10
27.5311
20
0.4645
10
27.5693
20
0.3121
10
27.5923
20
0.1568
10
27.6
20
0
10
27.5923
20
-0.1568
10
27.5693
20
-0.3121
10
27.5311
20
-0.4645
10
27.4782
20
-0.6123
10
27.4111
20
-0.7542
10
27.3304
20
-0.8889
10
27.2368
20
-1.015
10
27.1314
20
-1.1314
10
27.015
20
-1.2368
10
26.8889
20
-1.3304
10
26.7542
20
-1.4111
10
26.6123
20
-1.4782
10
26.4645
20
-1.5311
10
26.3121
20
-1.5693
10
26.1568
20
-1.5923
10
26
20
-1.6
10
25.8432
20
-1.5923
10
25.6879
20
-1.5693
10
25.5355
20
-1.5311
10
25.3877
20
-1.4782
10
25.2458
20
-1.4111
10
25.1111
20
-1.3304
10
24.985
20
-1.2368
10
24.8686
20
-1.1314
10
24.7632
20
-1.015
10
24.6696
20
-0.8889
10
24.5889
20
-0.7542
10
24.5218
20
-0.6123
10
24.4689
20
-0.4645
10
24.4307
20
-0.3121
10
24.4077
20
-0.1568
10
24.4
20
0
10
24.4077
20
0.1568
10
24.4307
20
0.3121
10
24.4689
20
0.4645
10
24.5218
20
0.6123
10
24.5889
20
0.7542
10
24.6696
20
0.8889
10
24.7632
20
1.015
10
24.8686
20
1.1314
10
24.985
20
1.2368
10
25.1111
20
1.3304
10
25.2458
20
1.4111
10
25.3877
20
1.4782
10
25.5355
20
1.5311
10
25.6879
20
1.5693
10
25.8432
20
1.5923
10
26
20
1.6
10
26.1568
20
1.5923
10
26.3121
20
1.5693
10
26.4645
20
1.5311
10
26.6123
20
1.4782
10
26.7542
20
1.4111
10
26.8889
20
1.3304
10
27.015
20
1.2368
10
27.1314
20
1.1314
10
27.2368
20
1.015
10
27.3304
20
0.8889
10
27.4111
20
0.7542
10
27.4782
20
0.6123
0
LWPOLYLINE
8
23_cam_mast_t4.0
100
AcDbEntity
100
AcDbPolyline
90
21
70
1
43
0.0
10
67.9239
20
-13.3827
10
67.7071
20
-13.7071
10
67.3827
20
-13.9239
10
67
20
-14
10
61
20
-14
10
60.6173
20
-13.9239
10
60.2929
20
-13.7071
10
60.0761
20
-13.3827
10
60
20
-13
10
60
20
13
10
60.0761
20
13.3827
10
60.2929
20
13.7071
10
60.6173
20
13.9239
10
61
20
14
10
67
20
14
10
67.3827
20
13.9239
10
67.7071
20
13.7071
10
67.9239
20
13.3827
10
68
20
13
10
68
20
-13
10
67.9239
20
-13.3827
0
LWPOLYLINE
8
23_cam_mast_t4.0
100
AcDbEntity
100
AcDbPolyline
90
21
70
1
43
0.0
10
91.7071
20
-13.7071
10
91.3827
20
-13.9239
10
91
20
-14
10
85
20
-14
10
84.6173
20
-13.9239
10
84.2929
20
-13.7071
10
84.0761
20
-13.3827
10
84
20
-13
10
84
20
13
10
84.0761
20
13.3827
10
84.2929
20
13.7071
10
84.6173
20
13.9239
10
85
20
14
10
91
20
14
10
91.3827
20
13.9239
10
91.7071
20
13.7071
10
91.9239
20
13.3827
10
92
20
13
10
92
20
-13
10
91.9239
20
-13.3827
10
91.7071
20
-13.7071
0
LWPOLYLINE
8
23_cam_mast_t4.0
100
AcDbEntity
100
AcDbPolyline
90
65
70
1
43
0.0
10
107.9807
20
0.3921
10
108
20
0
10
107.9807
20
-0.3921
10
107.9231
20
-0.7804
10
107.8278
20
-1.1611
10
107.6955
20
-1.5307
10
107.5277
20
-1.8856
10
107.3259
20
-2.2223
10
107.092
20
-2.5376
10
106.8284
20
-2.8284
10
106.5376
20
-3.092
10
106.2223
20
-3.3259
10
105.8856
20
-3.5277
10
105.5307
20
-3.6955
10
105.1611
20
-3.8278
10
104.7804
20
-3.9231
10
104.3921
20
-3.9807
10
104
20
-4
10
103.6079
20
-3.9807
10
103.2196
20
-3.9231
10
102.8389
20
-3.8278
10
102.4693
20
-3.6955
10
102.1144
20
-3.5277
10
101.7777
20
-3.3259
10
101.4624
20
-3.092
10
101.1716
20
-2.8284
10
100.908
20
-2.5376
10
100.6741
20
-2.2223
10
100.4723
20
-1.8856
10
100.3045
20
-1.5307
10
100.1722
20
-1.1611
10
100.0769
20
-0.7804
10
100.0193
20
-0.3921
10
100
20
0
10
100.0193
20
0.3921
10
100.0769
20
0.7804
10
100.1722
20
1.1611
10
100.3045
20
1.5307
10
100.4723
20
1.8856
10
100.6741
20
2.2223
10
100.908
20
2.5376
10
101.1716
20
2.8284
10
101.4624
20
3.092
10
101.7777
20
3.3259
10
102.1144
20
3.5277
10
102.4693
20
3.6955
10
102.8389
20
3.8278
10
103.2196
20
3.9231
10
103.6079
20
3.9807
10
104
20
4
10
104.3921
20
3.9807
10
104.7804
20
3.9231
10
105.1611
20
3.8278
10
105.5307
20
3.6955
10
105.8856
20
3.5277
10
106.2223
20
3.3259
10
106.5376
20
3.092
10
106.8284
20
2.8284
10
107.092
20
2.5376
10
107.3259
20
2.2223
10
107.5277
20
1.8856
10
107.6955
20
1.5307
10
107.8278
20
1.1611
10
107.9231
20
0.7804
10
107.9807
20
0.3921
0
ENDSEC
0
EOF
