0
SECTION
2
HEADER
9
$ACADVER
1
AC1015
9
$INSUNITS
70
4
0
ENDSEC
0
SECTION
2
ENTITIES
0
LWPOLYLINE
8
24a_claw_base_t4.0
100
AcDbEntity
100
AcDbPolyline
90
5
70
1
43
0.0
10
37
20
-28
10
37
20
28
10
-37
20
28
10
-37
20
-28
10
37
20
-28
0
LWPOLYLINE
8
24a_claw_base_t4.0
100
AcDbEntity
100
AcDbPolyline
90
5
70
1
43
0.0
10
35
20
8.2
10
35
20
-8.2
10
-35
20
-8.2
10
-35
20
8.2
10
35
20
8.2
0
LWPOLYLINE
8
24a_claw_base_t4.0
100
AcDbEntity
100
AcDbPolyline
90
19
70
1
43
0.0
10
12.25
20
12.75
10
12.9197
20
12.6168
10
13.4874
20
12.2374
10
13.8668
20
11.6697
10
14
20
11
10
13.8668
20
10.3303
10
13.4874
20
9.7626
10
12.9197
20
9.3832
10
12.25
20
9.25
10
7.75
20
9.25
10
7.0803
20
9.3832
10
6.5126
20
9.7626
10
6.1332
20
10.3303
10
6
20
11
10
6.1332
20
11.6697
10
6.5126
20
12.2374
10
7.0803
20
12.6168
10
7.75
20
12.75
10
12.25
20
12.75
0
LWPOLYLINE
8
24a_claw_base_t4.0
100
AcDbEntity
100
AcDbPolyline
90
19
70
1
43
0.0
10
12.9197
20
-9.3832
10
13.4874
20
-9.7626
10
13.8668
20
-10.3303
10
14
20
-11
10
13.8668
20
-11.6697
10
13.4874
20
-12.2374
10
12.9197
20
-12.6168
10
12.25
20
-12.75
10
7.75
20
-12.75
10
7.0803
20
-12.6168
10
6.5126
20
-12.2374
10
6.1332
20
-11.6697
10
6
20
-11
10
6.1332
20
-10.3303
10
6.5126
20
-9.7626
10
7.0803
20
-9.3832
10
7.75
20
-9.25
10
12.25
20
-9.25
10
12.9197
20
-9.3832
0
LWPOLYLINE
8
24a_claw_base_t4.0
100
AcDbEntity
100
AcDbPolyline
90
19
70
1
43
0.0
10
25.4874
20
12.2374
10
25.8668
20
11.6697
10
26
20
11
10
25.8668
20
10.3303
10
25.4874
20
9.7626
10
24.9197
20
9.3832
10
24.25
20
9.25
10
19.75
20
9.25
10
19.0803
20
9.3832
10
18.5126
20
9.7626
10
18.1332
20
10.3303
10
18
20
11
10
18.1332
20
11.6697
10
18.5126
20
12.2374
10
19.0803
20
12.6168
10
19.75
20
12.75
10
24.25
20
12.75
10
24.9197
20
12.6168
10
25.4874
20
12.2374
0
LWPOLYLINE
8
24a_claw_base_t4.0
100
AcDbEntity
100
AcDbPolyline
90
19
70
1
43
0.0
10
25.8668
20
-10.3303
10
26
20
-11
10
25.8668
20
-11.6697
10
25.4874
20
-12.2374
10
24.9197
20
-12.6168
10
24.25
20
-12.75
10
19.75
20
-12.75
10
19.0803
20
-12.6168
10
18.5126
20
-12.2374
10
18.1332
20
-11.6697
10
18
20
-11
10
18.1332
20
-10.3303
10
18.5126
20
-9.7626
10
19.0803
20
-9.3832
10
19.75
20
-9.25
10
24.25
20
-9.25
10
24.9197
20
-9.3832
10
25.4874
20
-9.7626
10
25.8668
20
-10.3303
0
LWPOLYLINE
8
24a_claw_base_t4.0
100
AcDbEntity
100
AcDbPolyline
90
19
70
1
43
0.0
10
-6
20
11
10
-6.1332
20
10.3303
10
-6.5126
20
9.7626
10
-7.0803
20
9.3832
10
-7.75
20
9.25
10
-12.25
20
9.25
10
-12.9197
20
9.3832
10
-13.4874
20
9.7626
10
-13.8668
20
10.3303
10
-14
20
11
10
-13.8668
20
11.6697
10
-13.4874
20
12.2374
10
-12.9197
20
12.6168
10
-12.25
20
12.75
10
-7.75
20
12.75
10
-7.0803
20
12.6168
10
-6.5126
20
12.2374
10
-6.1332
20
11.6697
10
-6
20
11
0
LWPOLYLINE
8
24a_claw_base_t4.0
100
AcDbEntity
100
AcDbPolyline
90
19
70
1
43
0.0
10
-6.1332
20
-11.6697
10
-6.5126
20
-12.2374
10
-7.0803
20
-12.6168
10
-7.75
20
-12.75
10
-12.25
20
-12.75
10
-12.9197
20
-12.6168
10
-13.4874
20
-12.2374
10
-13.8668
20
-11.6697
10
-14
20
-11
10
-13.8668
20
-10.3303
10
-13.4874
20
-9.7626
10
-12.9197
20
-9.3832
10
-12.25
20
-9.25
10
-7.75
20
-9.25
10
-7.0803
20
-9.3832
10
-6.5126
20
-9.7626
10
-6.1332
20
-10.3303
10
-6
20
-11
10
-6.1332
20
-11.6697
0
LWPOLYLINE
8
24a_claw_base_t4.0
100
AcDbEntity
100
AcDbPolyline
90
19
70
1
43
0.0
10
-18.5126
20
9.7626
10
-19.0803
20
9.3832
10
-19.75
20
9.25
10
-24.25
20
9.25
10
-24.9197
20
9.3832
10
-25.4874
20
9.7626
10
-25.8668
20
10.3303
10
-26
20
11
10
-25.8668
20
11.6697
10
-25.4874
20
12.2374
10
-24.9197
20
12.6168
10
-24.25
20
12.75
10
-19.75
20
12.75
10
-19.0803
20
12.6168
10
-18.5126
20
12.2374
10
-18.1332
20
11.6697
10
-18
20
11
10
-18.1332
20
10.3303
10
-18.5126
20
9.7626
0
LWPOLYLINE
8
24a_claw_base_t4.0
100
AcDbEntity
100
AcDbPolyline
90
19
70
1
43
0.0
10
-19.0803
20
-12.6168
10
-19.75
20
-12.75
10
-24.25
20
-12.75
10
-24.9197
20
-12.6168
10
-25.4874
20
-12.2374
10
-25.8668
20
-11.6697
10
-26
20
-11
10
-25.8668
20
-10.3303
10
-25.4874
20
-9.7626
10
-24.9197
20
-9.3832
10
-24.25
20
-9.25
10
-19.75
20
-9.25
10
-19.0803
20
-9.3832
10
-18.5126
20
-9.7626
10
-18.1332
20
-10.3303
10
-18
20
-11
10
-18.1332
20
-11.6697
10
-18.5126
20
-12.2374
10
-19.0803
20
-12.6168
0
LWPOLYLINE
8
24a_claw_base_t4.0
100
AcDbEntity
100
AcDbPolyline
90
103
70
1
43
0.0
10
8
20
22
10
8
20
24
10
8.1522
20
24.7654
10
8.5858
20
25.4142
10
9.2346
20
25.8478
10
10
20
26
10
10.7654
20
25.8478
10
11.4142
20
25.4142
10
11.8478
20
24.7654
10
12
20
24
10
12
20
22
10
24
20
22
10
24
20
24
10
24.1522
20
24.7654
10
24.5858
20
25.4142
10
25.2346
20
25.8478
10
26
20
26
10
26.7654
20
25.8478
10
27.4142
20
25.4142
10
27.8478
20
24.7654
10
28
20
24
10
28
20
22
10
28.7654
20
21.8478
10
29.4142
20
21.4142
10
29.8478
20
20.7654
10
30
20
20
10
29.8478
20
19.2346
10
29.4142
20
18.5858
10
28.7654
20
18.1522
10
28
20
18
10
28
20
17
10
27.8478
20
16.2346
10
27.4142
20
15.5858
10
26.7654
20
15.1522
10
26
20
15
10
25.2346
20
15.1522
10
24.5858
20
15.5858
10
24.1522
20
16.2346
10
24
20
17
10
24
20
18
10
12
20
18
10
12
20
17
10
11.8478
20
16.2346
10
11.4142
20
15.5858
10
10.7654
20
15.1522
10
10
20
15
10
9.2346
20
15.1522
10
8.5858
20
15.5858
10
8.1522
20
16.2346
10
8
20
17
10
8
20
18
10
-8
20
18
10
-8
20
17
10
-8.1522
20
16.2346
10
-8.5858
20
15.5858
10
-9.2346
20
15.1522
10
-10
20
15
10
-10.7654
20
15.1522
10
-11.4142
20
15.5858
10
-11.8478
20
16.2346
10
-12
20
17
10
-12
20
18
10
-24
20
18
10
-24
20
17
10
-24.1522
20
16.2346
10
-24.5858
20
15.5858
10
-25.2346
20
15.1522
10
-26
20
15
10
-26.7654
20
15.1522
10
-27.4142
20
15.5858
10
-27.8478
20
16.2346
10
-28
20
17
10
-28
20
18
10
-28.7654
20
18.1522
10
-29.4142
20
18.5858
10
-29.8478
20
19.2346
10
-30
20
20
10
-29.8478
20
20.7654
10
-29.4142
20
21.4142
10
-28.7654
20
21.8478
10
-28
20
22
10
-28
20
24
10
-27.8478
20
24.7654
10
-27.4142
20
25.4142
10
-26.7654
20
25.8478
10
-26
20
26
10
-25.2346
20
25.8478
10
-24.5858
20
25.4142
10
-24.1522
20
24.7654
10
-24
20
24
10
-24
20
22
10
-12
20
22
10
-12
20
24
10
-11.8478
20
24.7654
10
-11.4142
20
25.4142
10
-10.7654
20
25.8478
10
-10
20
26
10
-9.2346
20
25.8478
10
-8.5858
20
25.4142
10
-8.1522
20
24.7654
10
-8
20
24
10
-8
20
22
10
8
20
22
0
LWPOLYLINE
8
24a_claw_base_t4.0
100
AcDbEntity
100
AcDbPolyline
90
103
70
1
43
0.0
10
8
20
-17
10
8.1522
20
-16.2346
10
8.5858
20
-15.5858
10
9.2346
20
-15.1522
10
10
20
-15
10
10.7654
20
-15.1522
10
11.4142
20
-15.5858
10
11.8478
20
-16.2346
10
12
20
-17
10
12
20
-18
10
24
20
-18
10
24
20
-17
10
24.1522
20
-16.2346
10
24.5858
20
-15.5858
10
25.2346
20
-15.1522
10
26
20
-15
10
26.7654
20
-15.1522
10
27.4142
20
-15.5858
10
27.8478
20
-16.2346
10
28
20
-17
10
28
20
-18
10
28.7654
20
-18.1522
10
29.4142
20
-18.5858
10
29.8478
20
-19.2346
10
30
20
-20
10
29.8478
20
-20.7654
10
29.4142
20
-21.4142
10
28.7654
20
-21.8478
10
28
20
-22
10
28
20
-24
10
27.8478
20
-24.7654
10
27.4142
20
-25.4142
10
26.7654
20
-25.8478
10
26
20
-26
10
25.2346
20
-25.8478
10
24.5858
20
-25.4142
10
24.1522
20
-24.7654
10
24
20
-24
10
24
20
-22
10
12
20
-22
10
12
20
-24
10
11.8478
20
-24.7654
10
11.4142
20
-25.4142
10
10.7654
20
-25.8478
10
10
20
-26
10
9.2346
20
-25.8478
10
8.5858
20
-25.4142
10
8.1522
20
-24.7654
10
8
20
-24
10
8
20
-22
10
-8
20
-22
10
-8
20
-24
10
-8.1522
20
-24.7654
10
-8.5858
20
-25.4142
10
-9.2346
20
-25.8478
10
-10
20
-26
10
-10.7654
20
-25.8478
10
-11.4142
20
-25.4142
10
-11.8478
20
-24.7654
10
-12
20
-24
10
-12
20
-22
10
-24
20
-22
10
-24
20
-24
10
-24.1522
20
-24.7654
10
-24.5858
20
-25.4142
10
-25.2346
20
-25.8478
10
-26
20
-26
10
-26.7654
20
-25.8478
10
-27.4142
20
-25.4142
10
-27.8478
20
-24.7654
10
-28
20
-24
10
-28
20
-22
10
-28.7654
20
-21.8478
10
-29.4142
20
-21.4142
10
-29.8478
20
-20.7654
10
-30
20
-20
10
-29.8478
20
-19.2346
10
-29.4142
20
-18.5858
10
-28.7654
20
-18.1522
10
-28
20
-18
10
-28
20
-17
10
-27.8478
20
-16.2346
10
-27.4142
20
-15.5858
10
-26.7654
20
-15.1522
10
-26
20
-15
10
-25.2346
20
-15.1522
10
-24.5858
20
-15.5858
10
-24.1522
20
-16.2346
10
-24
20
-17
10
-24
20
-18
10
-12
20
-18
10
-12
20
-17
10
-11.8478
20
-16.2346
10
-11.4142
20
-15.5858
10
-10.7654
20
-15.1522
10
-10
20
-15
10
-9.2346
20
-15.1522
10
-8.5858
20
-15.5858
10
-8.1522
20
-16.2346
10
-8
20
-17
10
-8
20
-18
10
8
20
-18
10
8
20
-17
0
ENDSEC
0
EOF
