0
SECTION
2
HEADER
9
$ACADVER
1
AC1015
9
$INSUNITS
70
4
0
ENDSEC
0
SECTION
2
ENTITIES
0
LWPOLYLINE
8
24b_claw_slider_t12.0
100
AcDbEntity
100
AcDbPolyline
90
5
70
1
43
0.0
10
9
20
-8
10
9
20
8
10
-9
20
8
10
-9
20
-8
10
9
20
-8
0
LWPOLYLINE
8
24b_claw_slider_t12.0
100
AcDbEntity
100
AcDbPolyline
90
65
70
1
43
0.0
10
1.6268
20
0.4935
10
1.6673
20
0.3317
10
1.6918
20
0.1666
10
1.7
20
0
10
1.6918
20
-0.1666
10
1.6673
20
-0.3317
10
1.6268
20
-0.4935
10
1.5706
20
-0.6506
10
1.4993
20
-0.8014
10
1.4135
20
-0.9445
10
1.3141
20
-1.0785
10
1.2021
20
-1.2021
10
1.0785
20
-1.3141
10
0.9445
20
-1.4135
10
0.8014
20
-1.4993
10
0.6506
20
-1.5706
10
0.4935
20
-1.6268
10
0.3317
20
-1.6673
10
0.1666
20
-1.6918
10
0
20
-1.7
10
-0.1666
20
-1.6918
10
-0.3317
20
-1.6673
10
-0.4935
20
-1.6268
10
-0.6506
20
-1.5706
10
-0.8014
20
-1.4993
10
-0.9445
20
-1.4135
10
-1.0785
20
-1.3141
10
-1.2021
20
-1.2021
10
-1.3141
20
-1.0785
10
-1.4135
20
-0.9445
10
-1.4993
20
-0.8014
10
-1.5706
20
-0.6506
10
-1.6268
20
-0.4935
10
-1.6673
20
-0.3317
10
-1.6918
20
-0.1666
10
-1.7
20
0
10
-1.6918
20
0.1666
10
-1.6673
20
0.3317
10
-1.6268
20
0.4935
10
-1.5706
20
0.6506
10
-1.4993
20
0.8014
10
-1.4135
20
0.9445
10
-1.3141
20
1.0785
10
-1.2021
20
1.2021
10
-1.0785
20
1.3141
10
-0.9445
20
1.4135
10
-0.8014
20
1.4993
10
-0.6506
20
1.5706
10
-0.4935
20
1.6268
10
-0.3317
20
1.6673
10
-0.1666
20
1.6918
10
0
20
1.7
10
0.1666
20
1.6918
10
0.3317
20
1.6673
10
0.4935
20
1.6268
10
0.6506
20
1.5706
10
0.8014
20
1.4993
10
0.9445
20
1.4135
10
1.0785
20
1.3141
10
1.2021
20
1.2021
10
1.3141
20
1.0785
10
1.4135
20
0.9445
10
1.4993
20
0.8014
10
1.5706
20
0.6506
10
1.6268
20
0.4935
0
LWPOLYLINE
8
24b_claw_slider_t12.0
100
AcDbEntity
100
AcDbPolyline
90
65
70
1
43
0.0
10
1.3241
20
5.2634
10
1.3435
20
5.1323
10
1.35
20
5
10
1.3435
20
4.8677
10
1.3241
20
4.7366
10
1.2919
20
4.6081
10
1.2472
20
4.4834
10
1.1906
20
4.3636
10
1.1225
20
4.25
10
1.0436
20
4.1436
10
0.9546
20
4.0454
10
0.8564
20
3.9564
10
0.75
20
3.8775
10
0.6364
20
3.8094
10
0.5166
20
3.7528
10
0.3919
20
3.7081
10
0.2634
20
3.6759
10
0.1323
20
3.6565
10
0
20
3.65
10
-0.1323
20
3.6565
10
-0.2634
20
3.6759
10
-0.3919
20
3.7081
10
-0.5166
20
3.7528
10
-0.6364
20
3.8094
10
-0.75
20
3.8775
10
-0.8564
20
3.9564
10
-0.9546
20
4.0454
10
-1.0436
20
4.1436
10
-1.1225
20
4.25
10
-1.1906
20
4.3636
10
-1.2472
20
4.4834
10
-1.2919
20
4.6081
10
-1.3241
20
4.7366
10
-1.3435
20
4.8677
10
-1.35
20
5
10
-1.3435
20
5.1323
10
-1.3241
20
5.2634
10
-1.2919
20
5.3919
10
-1.2472
20
5.5166
10
-1.1906
20
5.6364
10
-1.1225
20
5.75
10
-1.0436
20
5.8564
10
-0.9546
20
5.9546
10
-0.8564
20
6.0436
10
-0.75
20
6.1225
10
-0.6364
20
6.1906
10
-0.5166
20
6.2472
10
-0.3919
20
6.2919
10
-0.2634
20
6.3241
10
-0.1323
20
6.3435
10
0
20
6.35
10
0.1323
20
6.3435
10
0.2634
20
6.3241
10
0.3919
20
6.2919
10
0.5166
20
6.2472
10
0.6364
20
6.1906
10
0.75
20
6.1225
10
0.8564
20
6.0436
10
0.9546
20
5.9546
10
1.0436
20
5.8564
10
1.1225
20
5.75
10
1.1906
20
5.6364
10
1.2472
20
5.5166
10
1.2919
20
5.3919
10
1.3241
20
5.2634
0
LWPOLYLINE
8
24b_claw_slider_t12.0
100
AcDbEntity
100
AcDbPolyline
90
65
70
1
43
0.0
10
1.3435
20
-4.8677
10
1.35
20
-5
10
1.3435
20
-5.1323
10
1.3241
20
-5.2634
10
1.2919
20
-5.3919
10
1.2472
20
-5.5166
10
1.1906
20
-5.6364
10
1.1225
20
-5.75
10
1.0436
20
-5.8564
10
0.9546
20
-5.9546
10
0.8564
20
-6.0436
10
0.75
20
-6.1225
10
0.6364
20
-6.1906
10
0.5166
20
-6.2472
10
0.3919
20
-6.2919
10
0.2634
20
-6.3241
10
0.1323
20
-6.3435
10
0
20
-6.35
10
-0.1323
20
-6.3435
10
-0.2634
20
-6.3241
10
-0.3919
20
-6.2919
10
-0.5166
20
-6.2472
10
-0.6364
20
-6.1906
10
-0.75
20
-6.1225
10
-0.8564
20
-6.0436
10
-0.9546
20
-5.9546
10
-1.0436
20
-5.8564
10
-1.1225
20
-5.75
10
-1.1906
20
-5.6364
10
-1.2472
20
-5.5166
10
-1.2919
20
-5.3919
10
-1.3241
20
-5.2634
10
-1.3435
20
-5.1323
10
-1.35
20
-5
10
-1.3435
20
-4.8677
10
-1.3241
20
-4.7366
10
-1.2919
20
-4.6081
10
-1.2472
20
-4.4834
10
-1.1906
20
-4.3636
10
-1.1225
20
-4.25
10
-1.0436
20
-4.1436
10
-0.9546
20
-4.0454
10
-0.8564
20
-3.9564
10
-0.75
20
-3.8775
10
-0.6364
20
-3.8094
10
-0.5166
20
-3.7528
10
-0.3919
20
-3.7081
10
-0.2634
20
-3.6759
10
-0.1323
20
-3.6565
10
0
20
-3.65
10
0.1323
20
-3.6565
10
0.2634
20
-3.6759
10
0.3919
20
-3.7081
10
0.5166
20
-3.7528
10
0.6364
20
-3.8094
10
0.75
20
-3.8775
10
0.8564
20
-3.9564
10
0.9546
20
-4.0454
10
1.0436
20
-4.1436
10
1.1225
20
-4.25
10
1.1906
20
-4.3636
10
1.2472
20
-4.4834
10
1.2919
20
-4.6081
10
1.3241
20
-4.7366
10
1.3435
20
-4.8677
0
ENDSEC
0
EOF
