0
SECTION
2
HEADER
9
$ACADVER
1
AC1015
9
$INSUNITS
70
4
0
ENDSEC
0
SECTION
2
ENTITIES
0
LWPOLYLINE
8
24d_claw_horn_t3.0
100
AcDbEntity
100
AcDbPolyline
90
67
70
1
43
0.0
10
-14.6481
20
-2.7716
10
-14.3709
20
-2.8708
10
-14.0853
20
-2.9424
10
-13.7941
20
-2.9856
10
-13.5
20
-3
10
13.5
20
-3
10
13.7941
20
-2.9856
10
14.0853
20
-2.9424
10
14.3709
20
-2.8708
10
14.6481
20
-2.7716
10
14.9142
20
-2.6458
10
15.1667
20
-2.4944
10
15.4032
20
-2.319
10
15.6213
20
-2.1213
10
15.819
20
-1.9032
10
15.9944
20
-1.6667
10
16.1458
20
-1.4142
10
16.2716
20
-1.1481
10
16.3708
20
-0.8709
10
16.4424
20
-0.5853
10
16.4856
20
-0.2941
10
16.5
20
0
10
16.4856
20
0.2941
10
16.4424
20
0.5853
10
16.3708
20
0.8709
10
16.2716
20
1.1481
10
16.1458
20
1.4142
10
15.9944
20
1.6667
10
15.819
20
1.9032
10
15.6213
20
2.1213
10
15.4032
20
2.319
10
15.1667
20
2.4944
10
14.9142
20
2.6458
10
14.6481
20
2.7716
10
14.3709
20
2.8708
10
14.0853
20
2.9424
10
13.7941
20
2.9856
10
13.5
20
3
10
-13.5
20
3
10
-13.7941
20
2.9856
10
-14.0853
20
2.9424
10
-14.3709
20
2.8708
10
-14.6481
20
2.7716
10
-14.9142
20
2.6458
10
-15.1667
20
2.4944
10
-15.4032
20
2.319
10
-15.6213
20
2.1213
10
-15.819
20
1.9032
10
-15.9944
20
1.6667
10
-16.1458
20
1.4142
10
-16.2716
20
1.1481
10
-16.3708
20
0.8709
10
-16.4424
20
0.5853
10
-16.4856
20
0.2941
10
-16.5
20
0
10
-16.4856
20
-0.2941
10
-16.4424
20
-0.5853
10
-16.3708
20
-0.8709
10
-16.2716
20
-1.1481
10
-16.1458
20
-1.4142
10
-15.9944
20
-1.6667
10
-15.819
20
-1.9032
10
-15.6213
20
-2.1213
10
-15.4032
20
-2.319
10
-15.1667
20
-2.4944
10
-14.9142
20
-2.6458
10
-14.6481
20
-2.7716
0
LWPOLYLINE
8
24d_claw_horn_t3.0
100
AcDbEntity
100
AcDbPolyline
90
65
70
1
43
0.0
10
1.4354
20
0.4354
10
1.4712
20
0.2926
10
1.4928
20
0.147
10
1.5
20
0
10
1.4928
20
-0.147
10
1.4712
20
-0.2926
10
1.4354
20
-0.4354
10
1.3858
20
-0.574
10
1.3229
20
-0.7071
10
1.2472
20
-0.8334
10
1.1595
20
-0.9516
10
1.0607
20
-1.0607
10
0.9516
20
-1.1595
10
0.8334
20
-1.2472
10
0.7071
20
-1.3229
10
0.574
20
-1.3858
10
0.4354
20
-1.4354
10
0.2926
20
-1.4712
10
0.147
20
-1.4928
10
0
20
-1.5
10
-0.147
20
-1.4928
10
-0.2926
20
-1.4712
10
-0.4354
20
-1.4354
10
-0.574
20
-1.3858
10
-0.7071
20
-1.3229
10
-0.8334
20
-1.2472
10
-0.9516
20
-1.1595
10
-1.0607
20
-1.0607
10
-1.1595
20
-0.9516
10
-1.2472
20
-0.8334
10
-1.3229
20
-0.7071
10
-1.3858
20
-0.574
10
-1.4354
20
-0.4354
10
-1.4712
20
-0.2926
10
-1.4928
20
-0.147
10
-1.5
20
0
10
-1.4928
20
0.147
10
-1.4712
20
0.2926
10
-1.4354
20
0.4354
10
-1.3858
20
0.574
10
-1.3229
20
0.7071
10
-1.2472
20
0.8334
10
-1.1595
20
0.9516
10
-1.0607
20
1.0607
10
-0.9516
20
1.1595
10
-0.8334
20
1.2472
10
-0.7071
20
1.3229
10
-0.574
20
1.3858
10
-0.4354
20
1.4354
10
-0.2926
20
1.4712
10
-0.147
20
1.4928
10
0
20
1.5
10
0.147
20
1.4928
10
0.2926
20
1.4712
10
0.4354
20
1.4354
10
0.574
20
1.3858
10
0.7071
20
1.3229
10
0.8334
20
1.2472
10
0.9516
20
1.1595
10
1.0607
20
1.0607
10
1.1595
20
0.9516
10
1.2472
20
0.8334
10
1.3229
20
0.7071
10
1.3858
20
0.574
10
1.4354
20
0.4354
0
LWPOLYLINE
8
24d_claw_horn_t3.0
100
AcDbEntity
100
AcDbPolyline
90
65
70
1
43
0.0
10
-11.8327
20
0.3317
10
-11.8082
20
0.1666
10
-11.8
20
0
10
-11.8082
20
-0.1666
10
-11.8327
20
-0.3317
10
-11.8732
20
-0.4935
10
-11.9294
20
-0.6506
10
-12.0007
20
-0.8014
10
-12.0865
20
-0.9445
10
-12.1859
20
-1.0785
10
-12.2979
20
-1.2021
10
-12.4215
20
-1.3141
10
-12.5555
20
-1.4135
10
-12.6986
20
-1.4993
10
-12.8494
20
-1.5706
10
-13.0065
20
-1.6268
10
-13.1683
20
-1.6673
10
-13.3334
20
-1.6918
10
-13.5
20
-1.7
10
-13.6666
20
-1.6918
10
-13.8317
20
-1.6673
10
-13.9935
20
-1.6268
10
-14.1506
20
-1.5706
10
-14.3014
20
-1.4993
10
-14.4445
20
-1.4135
10
-14.5785
20
-1.3141
10
-14.7021
20
-1.2021
10
-14.8141
20
-1.0785
10
-14.9135
20
-0.9445
10
-14.9993
20
-0.8014
10
-15.0706
20
-0.6506
10
-15.1268
20
-0.4935
10
-15.1673
20
-0.3317
10
-15.1918
20
-0.1666
10
-15.2
20
0
10
-15.1918
20
0.1666
10
-15.1673
20
0.3317
10
-15.1268
20
0.4935
10
-15.0706
20
0.6506
10
-14.9993
20
0.8014
10
-14.9135
20
0.9445
10
-14.8141
20
1.0785
10
-14.7021
20
1.2021
10
-14.5785
20
1.3141
10
-14.4445
20
1.4135
10
-14.3014
20
1.4993
10
-14.1506
20
1.5706
10
-13.9935
20
1.6268
10
-13.8317
20
1.6673
10
-13.6666
20
1.6918
10
-13.5
20
1.7
10
-13.3334
20
1.6918
10
-13.1683
20
1.6673
10
-13.0065
20
1.6268
10
-12.8494
20
1.5706
10
-12.6986
20
1.4993
10
-12.5555
20
1.4135
10
-12.4215
20
1.3141
10
-12.2979
20
1.2021
10
-12.1859
20
1.0785
10
-12.0865
20
0.9445
10
-12.0007
20
0.8014
10
-11.9294
20
0.6506
10
-11.8732
20
0.4935
10
-11.8327
20
0.3317
0
LWPOLYLINE
8
24d_claw_horn_t3.0
100
AcDbEntity
100
AcDbPolyline
90
65
70
1
43
0.0
10
15.1918
20
0.1666
10
15.2
20
0
10
15.1918
20
-0.1666
10
15.1673
20
-0.3317
10
15.1268
20
-0.4935
10
15.0706
20
-0.6506
10
14.9993
20
-0.8014
10
14.9135
20
-0.9445
10
14.8141
20
-1.0785
10
14.7021
20
-1.2021
10
14.5785
20
-1.3141
10
14.4445
20
-1.4135
10
14.3014
20
-1.4993
10
14.1506
20
-1.5706
10
13.9935
20
-1.6268
10
13.8317
20
-1.6673
10
13.6666
20
-1.6918
10
13.5
20
-1.7
10
13.3334
20
-1.6918
10
13.1683
20
-1.6673
10
13.0065
20
-1.6268
10
12.8494
20
-1.5706
10
12.6986
20
-1.4993
10
12.5555
20
-1.4135
10
12.4215
20
-1.3141
10
12.2979
20
-1.2021
10
12.1859
20
-1.0785
10
12.0865
20
-0.9445
10
12.0007
20
-0.8014
10
11.9294
20
-0.6506
10
11.8732
20
-0.4935
10
11.8327
20
-0.3317
10
11.8082
20
-0.1666
10
11.8
20
0
10
11.8082
20
0.1666
10
11.8327
20
0.3317
10
11.8732
20
0.4935
10
11.9294
20
0.6506
10
12.0007
20
0.8014
10
12.0865
20
0.9445
10
12.1859
20
1.0785
10
12.2979
20
1.2021
10
12.4215
20
1.3141
10
12.5555
20
1.4135
10
12.6986
20
1.4993
10
12.8494
20
1.5706
10
13.0065
20
1.6268
10
13.1683
20
1.6673
10
13.3334
20
1.6918
10
13.5
20
1.7
10
13.6666
20
1.6918
10
13.8317
20
1.6673
10
13.9935
20
1.6268
10
14.1506
20
1.5706
10
14.3014
20
1.4993
10
14.4445
20
1.4135
10
14.5785
20
1.3141
10
14.7021
20
1.2021
10
14.8141
20
1.0785
10
14.9135
20
0.9445
10
14.9993
20
0.8014
10
15.0706
20
0.6506
10
15.1268
20
0.4935
10
15.1673
20
0.3317
10
15.1918
20
0.1666
0
ENDSEC
0
EOF
