0
SECTION
2
HEADER
9
$ACADVER
1
AC1015
9
$INSUNITS
70
4
0
ENDSEC
0
SECTION
2
ENTITIES
0
LWPOLYLINE
8
24e_claw_link_t3.0
100
AcDbEntity
100
AcDbPolyline
90
67
70
1
43
0.0
10
-15.1209
20
-2.8708
10
-14.8353
20
-2.9424
10
-14.5441
20
-2.9856
10
-14.25
20
-3
10
14.25
20
-3
10
14.5441
20
-2.9856
10
14.8353
20
-2.9424
10
15.1209
20
-2.8708
10
15.3981
20
-2.7716
10
15.6642
20
-2.6458
10
15.9167
20
-2.4944
10
16.1532
20
-2.319
10
16.3713
20
-2.1213
10
16.569
20
-1.9032
10
16.7444
20
-1.6667
10
16.8958
20
-1.4142
10
17.0216
20
-1.1481
10
17.1208
20
-0.8709
10
17.1924
20
-0.5853
10
17.2356
20
-0.2941
10
17.25
20
0
10
17.2356
20
0.2941
10
17.1924
20
0.5853
10
17.1208
20
0.8709
10
17.0216
20
1.1481
10
16.8958
20
1.4142
10
16.7444
20
1.6667
10
16.569
20
1.9032
10
16.3713
20
2.1213
10
16.1532
20
2.319
10
15.9167
20
2.4944
10
15.6642
20
2.6458
10
15.3981
20
2.7716
10
15.1209
20
2.8708
10
14.8353
20
2.9424
10
14.5441
20
2.9856
10
14.25
20
3
10
-14.25
20
3
10
-14.5441
20
2.9856
10
-14.8353
20
2.9424
10
-15.1209
20
2.8708
10
-15.3981
20
2.7716
10
-15.6642
20
2.6458
10
-15.9167
20
2.4944
10
-16.1532
20
2.319
10
-16.3713
20
2.1213
10
-16.569
20
1.9032
10
-16.7444
20
1.6667
10
-16.8958
20
1.4142
10
-17.0216
20
1.1481
10
-17.1208
20
0.8709
10
-17.1924
20
0.5853
10
-17.2356
20
0.2941
10
-17.25
20
0
10
-17.2356
20
-0.2941
10
-17.1924
20
-0.5853
10
-17.1208
20
-0.8709
10
-17.0216
20
-1.1481
10
-16.8958
20
-1.4142
10
-16.7444
20
-1.6667
10
-16.569
20
-1.9032
10
-16.3713
20
-2.1213
10
-16.1532
20
-2.319
10
-15.9167
20
-2.4944
10
-15.6642
20
-2.6458
10
-15.3981
20
-2.7716
10
-15.1209
20
-2.8708
0
LWPOLYLINE
8
24e_claw_link_t3.0
100
AcDbEntity
100
AcDbPolyline
90
65
70
1
43
0.0
10
-12.5827
20
0.3317
10
-12.5582
20
0.1666
10
-12.55
20
0
10
-12.5582
20
-0.1666
10
-12.5827
20
-0.3317
10
-12.6232
20
-0.4935
10
-12.6794
20
-0.6506
10
-12.7507
20
-0.8014
10
-12.8365
20
-0.9445
10
-12.9359
20
-1.0785
10
-13.0479
20
-1.2021
10
-13.1715
20
-1.3141
10
-13.3055
20
-1.4135
10
-13.4486
20
-1.4993
10
-13.5994
20
-1.5706
10
-13.7565
20
-1.6268
10
-13.9183
20
-1.6673
10
-14.0834
20
-1.6918
10
-14.25
20
-1.7
10
-14.4166
20
-1.6918
10
-14.5817
20
-1.6673
10
-14.7435
20
-1.6268
10
-14.9006
20
-1.5706
10
-15.0514
20
-1.4993
10
-15.1945
20
-1.4135
10
-15.3285
20
-1.3141
10
-15.4521
20
-1.2021
10
-15.5641
20
-1.0785
10
-15.6635
20
-0.9445
10
-15.7493
20
-0.8014
10
-15.8206
20
-0.6506
10
-15.8768
20
-0.4935
10
-15.9173
20
-0.3317
10
-15.9418
20
-0.1666
10
-15.95
20
0
10
-15.9418
20
0.1666
10
-15.9173
20
0.3317
10
-15.8768
20
0.4935
10
-15.8206
20
0.6506
10
-15.7493
20
0.8014
10
-15.6635
20
0.9445
10
-15.5641
20
1.0785
10
-15.4521
20
1.2021
10
-15.3285
20
1.3141
10
-15.1945
20
1.4135
10
-15.0514
20
1.4993
10
-14.9006
20
1.5706
10
-14.7435
20
1.6268
10
-14.5817
20
1.6673
10
-14.4166
20
1.6918
10
-14.25
20
1.7
10
-14.0834
20
1.6918
10
-13.9183
20
1.6673
10
-13.7565
20
1.6268
10
-13.5994
20
1.5706
10
-13.4486
20
1.4993
10
-13.3055
20
1.4135
10
-13.1715
20
1.3141
10
-13.0479
20
1.2021
10
-12.9359
20
1.0785
10
-12.8365
20
0.9445
10
-12.7507
20
0.8014
10
-12.6794
20
0.6506
10
-12.6232
20
0.4935
10
-12.5827
20
0.3317
0
LWPOLYLINE
8
24e_claw_link_t3.0
100
AcDbEntity
100
AcDbPolyline
90
65
70
1
43
0.0
10
15.9418
20
0.1666
10
15.95
20
0
10
15.9418
20
-0.1666
10
15.9173
20
-0.3317
10
15.8768
20
-0.4935
10
15.8206
20
-0.6506
10
15.7493
20
-0.8014
10
15.6635
20
-0.9445
10
15.5641
20
-1.0785
10
15.4521
20
-1.2021
10
15.3285
20
-1.3141
10
15.1945
20
-1.4135
10
15.0514
20
-1.4993
10
14.9006
20
-1.5706
10
14.7435
20
-1.6268
10
14.5817
20
-1.6673
10
14.4166
20
-1.6918
10
14.25
20
-1.7
10
14.0834
20
-1.6918
10
13.9183
20
-1.6673
10
13.7565
20
-1.6268
10
13.5994
20
-1.5706
10
13.4486
20
-1.4993
10
13.3055
20
-1.4135
10
13.1715
20
-1.3141
10
13.0479
20
-1.2021
10
12.9359
20
-1.0785
10
12.8365
20
-0.9445
10
12.7507
20
-0.8014
10
12.6794
20
-0.6506
10
12.6232
20
-0.4935
10
12.5827
20
-0.3317
10
12.5582
20
-0.1666
10
12.55
20
0
10
12.5582
20
0.1666
10
12.5827
20
0.3317
10
12.6232
20
0.4935
10
12.6794
20
0.6506
10
12.7507
20
0.8014
10
12.8365
20
0.9445
10
12.9359
20
1.0785
10
13.0479
20
1.2021
10
13.1715
20
1.3141
10
13.3055
20
1.4135
10
13.4486
20
1.4993
10
13.5994
20
1.5706
10
13.7565
20
1.6268
10
13.9183
20
1.6673
10
14.0834
20
1.6918
10
14.25
20
1.7
10
14.4166
20
1.6918
10
14.5817
20
1.6673
10
14.7435
20
1.6268
10
14.9006
20
1.5706
10
15.0514
20
1.4993
10
15.1945
20
1.4135
10
15.3285
20
1.3141
10
15.4521
20
1.2021
10
15.5641
20
1.0785
10
15.6635
20
0.9445
10
15.7493
20
0.8014
10
15.8206
20
0.6506
10
15.8768
20
0.4935
10
15.9173
20
0.3317
10
15.9418
20
0.1666
0
ENDSEC
0
EOF
