0
SECTION
2
HEADER
9
$ACADVER
1
AC1015
9
$INSUNITS
70
4
0
ENDSEC
0
SECTION
2
ENTITIES
0
LWPOLYLINE
8
24f_claw_gear_t6.0
100
AcDbEntity
100
AcDbPolyline
90
41
70
1
43
0.0
10
3.811
20
-1.5786
10
4.0457
20
-0.8047
10
7.4642
20
-0.7319
10
7.4642
20
0.7319
10
4.0457
20
0.8047
10
3.811
20
1.5786
10
3.4298
20
2.2917
10
5.7955
20
4.7605
10
4.7605
20
5.7955
10
2.2917
20
3.4298
10
1.5786
20
3.811
10
0.8047
20
4.0457
10
0.7319
20
7.4642
10
-0.7319
20
7.4642
10
-0.8047
20
4.0457
10
-1.5786
20
3.811
10
-2.2917
20
3.4298
10
-4.7605
20
5.7955
10
-5.7955
20
4.7605
10
-3.4298
20
2.2917
10
-3.811
20
1.5786
10
-4.0457
20
0.8047
10
-7.4642
20
0.7319
10
-7.4642
20
-0.7319
10
-4.0457
20
-0.8047
10
-3.811
20
-1.5786
10
-3.4298
20
-2.2917
10
-5.7955
20
-4.7605
10
-4.7605
20
-5.7955
10
-2.2917
20
-3.4298
10
-1.5786
20
-3.811
10
-0.8047
20
-4.0457
10
-0.7319
20
-7.4642
10
0.7319
20
-7.4642
10
0.8047
20
-4.0457
10
1.5786
20
-3.811
10
2.2917
20
-3.4298
10
4.7605
20
-5.7955
10
5.7955
20
-4.7605
10
3.4298
20
-2.2917
10
3.811
20
-1.5786
0
LWPOLYLINE
8
24f_claw_gear_t6.0
100
AcDbEntity
100
AcDbPolyline
90
65
70
1
43
0.0
10
1.6918
20
0.1666
10
1.7
20
0
10
1.6918
20
-0.1666
10
1.6673
20
-0.3317
10
1.6268
20
-0.4935
10
1.5706
20
-0.6506
10
1.4993
20
-0.8014
10
1.4135
20
-0.9445
10
1.3141
20
-1.0785
10
1.2021
20
-1.2021
10
1.0785
20
-1.3141
10
0.9445
20
-1.4135
10
0.8014
20
-1.4993
10
0.6506
20
-1.5706
10
0.4935
20
-1.6268
10
0.3317
20
-1.6673
10
0.1666
20
-1.6918
10
0
20
-1.7
10
-0.1666
20
-1.6918
10
-0.3317
20
-1.6673
10
-0.4935
20
-1.6268
10
-0.6506
20
-1.5706
10
-0.8014
20
-1.4993
10
-0.9445
20
-1.4135
10
-1.0785
20
-1.3141
10
-1.2021
20
-1.2021
10
-1.3141
20
-1.0785
10
-1.4135
20
-0.9445
10
-1.4993
20
-0.8014
10
-1.5706
20
-0.6506
10
-1.6268
20
-0.4935
10
-1.6673
20
-0.3317
10
-1.6918
20
-0.1666
10
-1.7
20
0
10
-1.6918
20
0.1666
10
-1.6673
20
0.3317
10
-1.6268
20
0.4935
10
-1.5706
20
0.6506
10
-1.4993
20
0.8014
10
-1.4135
20
0.9445
10
-1.3141
20
1.0785
10
-1.2021
20
1.2021
10
-1.0785
20
1.3141
10
-0.9445
20
1.4135
10
-0.8014
20
1.4993
10
-0.6506
20
1.5706
10
-0.4935
20
1.6268
10
-0.3317
20
1.6673
10
-0.1666
20
1.6918
10
0
20
1.7
10
0.1666
20
1.6918
10
0.3317
20
1.6673
10
0.4935
20
1.6268
10
0.6506
20
1.5706
10
0.8014
20
1.4993
10
0.9445
20
1.4135
10
1.0785
20
1.3141
10
1.2021
20
1.2021
10
1.3141
20
1.0785
10
1.4135
20
0.9445
10
1.4993
20
0.8014
10
1.5706
20
0.6506
10
1.6268
20
0.4935
10
1.6673
20
0.3317
10
1.6918
20
0.1666
0
ENDSEC
0
EOF
