0
SECTION
2
HEADER
9
$ACADVER
1
AC1015
9
$INSUNITS
70
4
0
ENDSEC
0
SECTION
2
ENTITIES
0
LWPOLYLINE
8
24g_claw_rack_t12.0
100
AcDbEntity
100
AcDbPolyline
90
102
70
1
43
0.0
10
22
20
7.8
10
22
20
19.8
10
-22
20
19.8
10
-22
20
7.8
10
-20.0512
20
7.8
10
-19.6035
20
4.5
10
-18.0956
20
4.5
10
-17.6479
20
7.8
10
-15.3388
20
7.8
10
-14.8911
20
4.5
10
-13.3832
20
4.5
10
-12.9355
20
7.8
10
-10.6264
20
7.8
10
-10.1788
20
4.5
10
-8.6708
20
4.5
10
-8.2231
20
7.8
10
-5.914
20
7.8
10
-5.4664
20
4.5
10
-3.9584
20
4.5
10
-3.5107
20
7.8
10
-1.2017
20
7.8
10
-0.754
20
4.5
10
0.754
20
4.5
10
1.2017
20
7.8
10
3.5107
20
7.8
10
3.9584
20
4.5
10
5.4664
20
4.5
10
5.914
20
7.8
10
8.2231
20
7.8
10
8.6708
20
4.5
10
10.1788
20
4.5
10
10.6264
20
7.8
10
12.3835
20
7.8
10
12.3636
20
7.8094
10
12.25
20
7.8775
10
12.1436
20
7.9564
10
12.0454
20
8.0454
10
11.9564
20
8.1436
10
11.8775
20
8.25
10
11.8094
20
8.3636
10
11.7528
20
8.4834
10
11.7081
20
8.6081
10
11.6759
20
8.7366
10
11.6565
20
8.8677
10
11.65
20
9
10
11.6565
20
9.1323
10
11.6759
20
9.2634
10
11.7081
20
9.3919
10
11.7528
20
9.5166
10
11.8094
20
9.6364
10
11.8775
20
9.75
10
11.9564
20
9.8564
10
12.0454
20
9.9546
10
12.1436
20
10.0436
10
12.25
20
10.1225
10
12.3636
20
10.1906
10
12.4834
20
10.2472
10
12.6081
20
10.2919
10
12.7366
20
10.3241
10
12.8677
20
10.3435
10
13
20
10.35
10
13.1323
20
10.3435
10
13.2634
20
10.3241
10
13.3919
20
10.2919
10
13.5166
20
10.2472
10
13.6364
20
10.1906
10
13.75
20
10.1225
10
13.8564
20
10.0436
10
13.9546
20
9.9546
10
14.0436
20
9.8564
10
14.1225
20
9.75
10
14.1906
20
9.6364
10
14.2472
20
9.5166
10
14.2919
20
9.3919
10
14.3241
20
9.2634
10
14.3435
20
9.1323
10
14.35
20
9
10
14.3435
20
8.8677
10
14.3241
20
8.7366
10
14.2919
20
8.6081
10
14.2472
20
8.4834
10
14.1906
20
8.3636
10
14.1225
20
8.25
10
14.0436
20
8.1436
10
13.9546
20
8.0454
10
13.8564
20
7.9564
10
13.75
20
7.8775
10
13.6364
20
7.8094
10
13.5166
20
7.7528
10
13.3919
20
7.7081
10
13.2634
20
7.6759
10
13.1323
20
7.6565
10
13
20
7.65
10
12.9556
20
7.6522
10
13.3832
20
4.5
10
14.8911
20
4.5
10
15.3388
20
7.8
10
17.6479
20
7.8
10
18.0956
20
4.5
10
19.6035
20
4.5
10
20.0512
20
7.8
10
22
20
7.8
0
LWPOLYLINE
8
24g_claw_rack_t12.0
100
AcDbEntity
100
AcDbPolyline
90
65
70
1
43
0.0
10
14.3435
20
16.6323
10
14.35
20
16.5
10
14.3435
20
16.3677
10
14.3241
20
16.2366
10
14.2919
20
16.1081
10
14.2472
20
15.9834
10
14.1906
20
15.8636
10
14.1225
20
15.75
10
14.0436
20
15.6436
10
13.9546
20
15.5454
10
13.8564
20
15.4564
10
13.75
20
15.3775
10
13.6364
20
15.3094
10
13.5166
20
15.2528
10
13.3919
20
15.2081
10
13.2634
20
15.1759
10
13.1323
20
15.1565
10
13
20
15.15
10
12.8677
20
15.1565
10
12.7366
20
15.1759
10
12.6081
20
15.2081
10
12.4834
20
15.2528
10
12.3636
20
15.3094
10
12.25
20
15.3775
10
12.1436
20
15.4564
10
12.0454
20
15.5454
10
11.9564
20
15.6436
10
11.8775
20
15.75
10
11.8094
20
15.8636
10
11.7528
20
15.9834
10
11.7081
20
16.1081
10
11.6759
20
16.2366
10
11.6565
20
16.3677
10
11.65
20
16.5
10
11.6565
20
16.6323
10
11.6759
20
16.7634
10
11.7081
20
16.8919
10
11.7528
20
17.0166
10
11.8094
20
17.1364
10
11.8775
20
17.25
10
11.9564
20
17.3564
10
12.0454
20
17.4546
10
12.1436
20
17.5436
10
12.25
20
17.6225
10
12.3636
20
17.6906
10
12.4834
20
17.7472
10
12.6081
20
17.7919
10
12.7366
20
17.8241
10
12.8677
20
17.8435
10
13
20
17.85
10
13.1323
20
17.8435
10
13.2634
20
17.8241
10
13.3919
20
17.7919
10
13.5166
20
17.7472
10
13.6364
20
17.6906
10
13.75
20
17.6225
10
13.8564
20
17.5436
10
13.9546
20
17.4546
10
14.0436
20
17.3564
10
14.1225
20
17.25
10
14.1906
20
17.1364
10
14.2472
20
17.0166
10
14.2919
20
16.8919
10
14.3241
20
16.7634
10
14.3435
20
16.6323
0
ENDSEC
0
EOF
