0
SECTION
2
HEADER
9
$ACADVER
1
AC1015
9
$INSUNITS
70
4
0
ENDSEC
0
SECTION
2
ENTITIES
0
LWPOLYLINE
8
24h_claw_base_gear_t4.0
100
AcDbEntity
100
AcDbPolyline
90
5
70
1
43
0.0
10
-37
20
28
10
-37
20
-28
10
37
20
-28
10
37
20
28
10
-37
20
28
0
LWPOLYLINE
8
24h_claw_base_gear_t4.0
100
AcDbEntity
100
AcDbPolyline
90
5
70
1
43
0.0
10
33
20
7.6
10
-33
20
7.6
10
-33
20
20
10
33
20
20
10
33
20
7.6
0
LWPOLYLINE
8
24h_claw_base_gear_t4.0
100
AcDbEntity
100
AcDbPolyline
90
5
70
1
43
0.0
10
-33
20
-20
10
-33
20
-7.6
10
33
20
-7.6
10
33
20
-20
10
-33
20
-20
0
LWPOLYLINE
8
24h_claw_base_gear_t4.0
100
AcDbEntity
100
AcDbPolyline
90
65
70
1
43
0.0
10
2.357
20
4.4096
10
2.7779
20
4.1573
10
3.172
20
3.8651
10
3.5355
20
3.5355
10
3.8651
20
3.172
10
4.1573
20
2.7779
10
4.4096
20
2.357
10
4.6194
20
1.9134
10
4.7847
20
1.4514
10
4.9039
20
0.9755
10
4.9759
20
0.4901
10
5
20
0
10
4.9759
20
-0.4901
10
4.9039
20
-0.9755
10
4.7847
20
-1.4514
10
4.6194
20
-1.9134
10
4.4096
20
-2.357
10
4.1573
20
-2.7779
10
3.8651
20
-3.172
10
3.5355
20
-3.5355
10
3.172
20
-3.8651
10
2.7779
20
-4.1573
10
2.357
20
-4.4096
10
1.9134
20
-4.6194
10
1.4514
20
-4.7847
10
0.9755
20
-4.9039
10
0.4901
20
-4.9759
10
0
20
-5
10
-0.4901
20
-4.9759
10
-0.9755
20
-4.9039
10
-1.4514
20
-4.7847
10
-1.9134
20
-4.6194
10
-2.357
20
-4.4096
10
-2.7779
20
-4.1573
10
-3.172
20
-3.8651
10
-3.5355
20
-3.5355
10
-3.8651
20
-3.172
10
-4.1573
20
-2.7779
10
-4.4096
20
-2.357
10
-4.6194
20
-1.9134
10
-4.7847
20
-1.4514
10
-4.9039
20
-0.9755
10
-4.9759
20
-0.4901
10
-5
20
0
10
-4.9759
20
0.4901
10
-4.9039
20
0.9755
10
-4.7847
20
1.4514
10
-4.6194
20
1.9134
10
-4.4096
20
2.357
10
-4.1573
20
2.7779
10
-3.8651
20
3.172
10
-3.5355
20
3.5355
10
-3.172
20
3.8651
10
-2.7779
20
4.1573
10
-2.357
20
4.4096
10
-1.9134
20
4.6194
10
-1.4514
20
4.7847
10
-0.9755
20
4.9039
10
-0.4901
20
4.9759
10
0
20
5
10
0.4901
20
4.9759
10
0.9755
20
4.9039
10
1.4514
20
4.7847
10
1.9134
20
4.6194
10
2.357
20
4.4096
0
LWPOLYLINE
8
24h_claw_base_gear_t4.0
100
AcDbEntity
100
AcDbPolyline
90
19
70
1
43
0.0
10
16.25
20
2.25
10
11.75
20
2.25
10
11.0803
20
2.3832
10
10.5126
20
2.7626
10
10.1332
20
3.3303
10
10
20
4
10
10.1332
20
4.6697
10
10.5126
20
5.2374
10
11.0803
20
5.6168
10
11.75
20
5.75
10
16.25
20
5.75
10
16.9197
20
5.6168
10
17.4874
20
5.2374
10
17.8668
20
4.6697
10
18
20
4
10
17.8668
20
3.3303
10
17.4874
20
2.7626
10
16.9197
20
2.3832
10
16.25
20
2.25
0
LWPOLYLINE
8
24h_claw_base_gear_t4.0
100
AcDbEntity
100
AcDbPolyline
90
19
70
1
43
0.0
10
11.75
20
-5.75
10
11.0803
20
-5.6168
10
10.5126
20
-5.2374
10
10.1332
20
-4.6697
10
10
20
-4
10
10.1332
20
-3.3303
10
10.5126
20
-2.7626
10
11.0803
20
-2.3832
10
11.75
20
-2.25
10
16.25
20
-2.25
10
16.9197
20
-2.3832
10
17.4874
20
-2.7626
10
17.8668
20
-3.3303
10
18
20
-4
10
17.8668
20
-4.6697
10
17.4874
20
-5.2374
10
16.9197
20
-5.6168
10
16.25
20
-5.75
10
11.75
20
-5.75
0
LWPOLYLINE
8
24h_claw_base_gear_t4.0
100
AcDbEntity
100
AcDbPolyline
90
19
70
1
43
0.0
10
-16.9197
20
2.3832
10
-17.4874
20
2.7626
10
-17.8668
20
3.3303
10
-18
20
4
10
-17.8668
20
4.6697
10
-17.4874
20
5.2374
10
-16.9197
20
5.6168
10
-16.25
20
5.75
10
-11.75
20
5.75
10
-11.0803
20
5.6168
10
-10.5126
20
5.2374
10
-10.1332
20
4.6697
10
-10
20
4
10
-10.1332
20
3.3303
10
-10.5126
20
2.7626
10
-11.0803
20
2.3832
10
-11.75
20
2.25
10
-16.25
20
2.25
10
-16.9197
20
2.3832
0
LWPOLYLINE
8
24h_claw_base_gear_t4.0
100
AcDbEntity
100
AcDbPolyline
90
19
70
1
43
0.0
10
-17.4874
20
-5.2374
10
-17.8668
20
-4.6697
10
-18
20
-4
10
-17.8668
20
-3.3303
10
-17.4874
20
-2.7626
10
-16.9197
20
-2.3832
10
-16.25
20
-2.25
10
-11.75
20
-2.25
10
-11.0803
20
-2.3832
10
-10.5126
20
-2.7626
10
-10.1332
20
-3.3303
10
-10
20
-4
10
-10.1332
20
-4.6697
10
-10.5126
20
-5.2374
10
-11.0803
20
-5.6168
10
-11.75
20
-5.75
10
-16.25
20
-5.75
10
-16.9197
20
-5.6168
10
-17.4874
20
-5.2374
0
LWPOLYLINE
8
24h_claw_base_gear_t4.0
100
AcDbEntity
100
AcDbPolyline
90
47
70
1
43
0.0
10
-29.8478
20
23.2346
10
-30
20
24
10
-29.8478
20
24.7654
10
-29.4142
20
25.4142
10
-28.7654
20
25.8478
10
-28
20
26
10
-15.2858
20
26
10
-14.7654
20
26.3478
10
-14
20
26.5
10
-13.2346
20
26.3478
10
-12.7142
20
26
10
12.7142
20
26
10
13.2346
20
26.3478
10
14
20
26.5
10
14.7654
20
26.3478
10
15.2858
20
26
10
28
20
26
10
28.7654
20
25.8478
10
29.4142
20
25.4142
10
29.8478
20
24.7654
10
30
20
24
10
29.8478
20
23.2346
10
29.4142
20
22.5858
10
28.7654
20
22.1522
10
28
20
22
10
15.9005
20
22
10
15.8478
20
21.7346
10
15.4142
20
21.0858
10
14.7654
20
20.6522
10
14
20
20.5
10
13.2346
20
20.6522
10
12.5858
20
21.0858
10
12.1522
20
21.7346
10
12.0995
20
22
10
-12.0995
20
22
10
-12.1522
20
21.7346
10
-12.5858
20
21.0858
10
-13.2346
20
20.6522
10
-14
20
20.5
10
-14.7654
20
20.6522
10
-15.4142
20
21.0858
10
-15.8478
20
21.7346
10
-15.9005
20
22
10
-28
20
22
10
-28.7654
20
22.1522
10
-29.4142
20
22.5858
10
-29.8478
20
23.2346
0
LWPOLYLINE
8
24h_claw_base_gear_t4.0
100
AcDbEntity
100
AcDbPolyline
90
47
70
1
43
0.0
10
-30
20
-24
10
-29.8478
20
-23.2346
10
-29.4142
20
-22.5858
10
-28.7654
20
-22.1522
10
-28
20
-22
10
-15.9005
20
-22
10
-15.8478
20
-21.7346
10
-15.4142
20
-21.0858
10
-14.7654
20
-20.6522
10
-14
20
-20.5
10
-13.2346
20
-20.6522
10
-12.5858
20
-21.0858
10
-12.1522
20
-21.7346
10
-12.0995
20
-22
10
12.0995
20
-22
10
12.1522
20
-21.7346
10
12.5858
20
-21.0858
10
13.2346
20
-20.6522
10
14
20
-20.5
10
14.7654
20
-20.6522
10
15.4142
20
-21.0858
10
15.8478
20
-21.7346
10
15.9005
20
-22
10
28
20
-22
10
28.7654
20
-22.1522
10
29.4142
20
-22.5858
10
29.8478
20
-23.2346
10
30
20
-24
10
29.8478
20
-24.7654
10
29.4142
20
-25.4142
10
28.7654
20
-25.8478
10
28
20
-26
10
15.2858
20
-26
10
14.7654
20
-26.3478
10
14
20
-26.5
10
13.2346
20
-26.3478
10
12.7142
20
-26
10
-12.7142
20
-26
10
-13.2346
20
-26.3478
10
-14
20
-26.5
10
-14.7654
20
-26.3478
10
-15.2858
20
-26
10
-28
20
-26
10
-28.7654
20
-25.8478
10
-29.4142
20
-25.4142
10
-29.8478
20
-24.7654
10
-30
20
-24
0
ENDSEC
0
EOF
