0
SECTION
2
HEADER
9
$ACADVER
1
AC1015
9
$INSUNITS
70
4
0
ENDSEC
0
SECTION
2
ENTITIES
0
LWPOLYLINE
8
24i_claw_finger_gear_t34.0
100
AcDbEntity
100
AcDbPolyline
90
5
70
1
43
0.0
10
3
20
18
10
-3
20
18
10
-3
20
-18
10
3
20
-18
10
3
20
18
0
LWPOLYLINE
8
24i_claw_finger_gear_t34.0
100
AcDbEntity
100
AcDbPolyline
90
65
70
1
43
0.0
10
1.3241
20
9.2634
10
1.3435
20
9.1323
10
1.35
20
9
10
1.3435
20
8.8677
10
1.3241
20
8.7366
10
1.2919
20
8.6081
10
1.2472
20
8.4834
10
1.1906
20
8.3636
10
1.1225
20
8.25
10
1.0436
20
8.1436
10
0.9546
20
8.0454
10
0.8564
20
7.9564
10
0.75
20
7.8775
10
0.6364
20
7.8094
10
0.5166
20
7.7528
10
0.3919
20
7.7081
10
0.2634
20
7.6759
10
0.1323
20
7.6565
10
0
20
7.65
10
-0.1323
20
7.6565
10
-0.2634
20
7.6759
10
-0.3919
20
7.7081
10
-0.5166
20
7.7528
10
-0.6364
20
7.8094
10
-0.75
20
7.8775
10
-0.8564
20
7.9564
10
-0.9546
20
8.0454
10
-1.0436
20
8.1436
10
-1.1225
20
8.25
10
-1.1906
20
8.3636
10
-1.2472
20
8.4834
10
-1.2919
20
8.6081
10
-1.3241
20
8.7366
10
-1.3435
20
8.8677
10
-1.35
20
9
10
-1.3435
20
9.1323
10
-1.3241
20
9.2634
10
-1.2919
20
9.3919
10
-1.2472
20
9.5166
10
-1.1906
20
9.6364
10
-1.1225
20
9.75
10
-1.0436
20
9.8564
10
-0.9546
20
9.9546
10
-0.8564
20
10.0436
10
-0.75
20
10.1225
10
-0.6364
20
10.1906
10
-0.5166
20
10.2472
10
-0.3919
20
10.2919
10
-0.2634
20
10.3241
10
-0.1323
20
10.3435
10
0
20
10.35
10
0.1323
20
10.3435
10
0.2634
20
10.3241
10
0.3919
20
10.2919
10
0.5166
20
10.2472
10
0.6364
20
10.1906
10
0.75
20
10.1225
10
0.8564
20
10.0436
10
0.9546
20
9.9546
10
1.0436
20
9.8564
10
1.1225
20
9.75
10
1.1906
20
9.6364
10
1.2472
20
9.5166
10
1.2919
20
9.3919
10
1.3241
20
9.2634
0
LWPOLYLINE
8
24i_claw_finger_gear_t34.0
100
AcDbEntity
100
AcDbPolyline
90
65
70
1
43
0.0
10
1.3435
20
16.6323
10
1.35
20
16.5
10
1.3435
20
16.3677
10
1.3241
20
16.2366
10
1.2919
20
16.1081
10
1.2472
20
15.9834
10
1.1906
20
15.8636
10
1.1225
20
15.75
10
1.0436
20
15.6436
10
0.9546
20
15.5454
10
0.8564
20
15.4564
10
0.75
20
15.3775
10
0.6364
20
15.3094
10
0.5166
20
15.2528
10
0.3919
20
15.2081
10
0.2634
20
15.1759
10
0.1323
20
15.1565
10
0
20
15.15
10
-0.1323
20
15.1565
10
-0.2634
20
15.1759
10
-0.3919
20
15.2081
10
-0.5166
20
15.2528
10
-0.6364
20
15.3094
10
-0.75
20
15.3775
10
-0.8564
20
15.4564
10
-0.9546
20
15.5454
10
-1.0436
20
15.6436
10
-1.1225
20
15.75
10
-1.1906
20
15.8636
10
-1.2472
20
15.9834
10
-1.2919
20
16.1081
10
-1.3241
20
16.2366
10
-1.3435
20
16.3677
10
-1.35
20
16.5
10
-1.3435
20
16.6323
10
-1.3241
20
16.7634
10
-1.2919
20
16.8919
10
-1.2472
20
17.0166
10
-1.1906
20
17.1364
10
-1.1225
20
17.25
10
-1.0436
20
17.3564
10
-0.9546
20
17.4546
10
-0.8564
20
17.5436
10
-0.75
20
17.6225
10
-0.6364
20
17.6906
10
-0.5166
20
17.7472
10
-0.3919
20
17.7919
10
-0.2634
20
17.8241
10
-0.1323
20
17.8435
10
0
20
17.85
10
0.1323
20
17.8435
10
0.2634
20
17.8241
10
0.3919
20
17.7919
10
0.5166
20
17.7472
10
0.6364
20
17.6906
10
0.75
20
17.6225
10
0.8564
20
17.5436
10
0.9546
20
17.4546
10
1.0436
20
17.3564
10
1.1225
20
17.25
10
1.1906
20
17.1364
10
1.2472
20
17.0166
10
1.2919
20
16.8919
10
1.3241
20
16.7634
10
1.3435
20
16.6323
0
ENDSEC
0
EOF
