0
SECTION
2
HEADER
9
$ACADVER
1
AC1015
9
$INSUNITS
70
4
0
ENDSEC
0
SECTION
2
ENTITIES
0
LWPOLYLINE
8
30_arm_base_t50.0
100
AcDbEntity
100
AcDbPolyline
90
5
70
1
43
0.0
10
-13
20
-2
10
-17
20
-2
10
-17
20
-20
10
-13
20
-20
10
-13
20
-2
0
LWPOLYLINE
8
30_arm_base_t50.0
100
AcDbEntity
100
AcDbPolyline
90
6
70
1
43
0.0
10
-13
20
33
10
-13
20
37
10
-17
20
37
10
-17
20
24
10
-13
20
24
10
-13
20
33
0
LWPOLYLINE
8
30_arm_base_t50.0
100
AcDbEntity
100
AcDbPolyline
90
5
70
1
43
0.0
10
-13
20
2
10
-13
20
20
10
-17
20
20
10
-17
20
2
10
-13
20
2
0
LWPOLYLINE
8
30_arm_base_t50.0
100
AcDbEntity
100
AcDbPolyline
90
6
70
1
43
0.0
10
-13
20
-24
10
-17
20
-24
10
-17
20
-37
10
-13
20
-37
10
-13
20
-33
10
-13
20
-24
0
LWPOLYLINE
8
30_arm_base_t50.0
100
AcDbEntity
100
AcDbPolyline
90
5
70
1
43
0.0
10
2
20
33
10
9
20
33
10
9
20
37
10
2
20
37
10
2
20
33
0
LWPOLYLINE
8
30_arm_base_t50.0
100
AcDbEntity
100
AcDbPolyline
90
6
70
1
43
0.0
10
13
20
-37
10
17
20
-37
10
17
20
-24
10
13
20
-24
10
13
20
-33
10
13
20
-37
0
LWPOLYLINE
8
30_arm_base_t50.0
100
AcDbEntity
100
AcDbPolyline
90
5
70
1
43
0.0
10
13
20
20
10
13
20
2
10
17
20
2
10
17
20
20
10
13
20
20
0
LWPOLYLINE
8
30_arm_base_t50.0
100
AcDbEntity
100
AcDbPolyline
90
6
70
1
43
0.0
10
13
20
37
10
13
20
33
10
13
20
24
10
17
20
24
10
17
20
37
10
13
20
37
0
LWPOLYLINE
8
30_arm_base_t50.0
100
AcDbEntity
100
AcDbPolyline
90
5
70
1
43
0.0
10
17
20
-2
10
13
20
-2
10
13
20
-20
10
17
20
-20
10
17
20
-2
0
LWPOLYLINE
8
30_arm_base_t50.0
100
AcDbEntity
100
AcDbPolyline
90
5
70
1
43
0.0
10
9
20
-33
10
2
20
-33
10
2
20
-37
10
9
20
-37
10
9
20
-33
0
LWPOLYLINE
8
30_arm_base_t50.0
100
AcDbEntity
100
AcDbPolyline
90
5
70
1
43
0.0
10
-9
20
-37
10
-2
20
-37
10
-2
20
-33
10
-9
20
-33
10
-9
20
-37
0
LWPOLYLINE
8
30_arm_base_t50.0
100
AcDbEntity
100
AcDbPolyline
90
5
70
1
43
0.0
10
-9
20
37
10
-9
20
33
10
-2
20
33
10
-2
20
37
10
-9
20
37
0
ENDSEC
0
EOF
