0
SECTION
2
HEADER
9
$ACADVER
1
AC1015
9
$INSUNITS
70
4
0
ENDSEC
0
SECTION
2
ENTITIES
0
LWPOLYLINE
8
30_arm_base_t40.0
100
AcDbEntity
100
AcDbPolyline
90
7
70
1
43
0.0
10
-17.25
20
-22
10
-17.25
20
-18
10
-28
20
-18
10
-28
20
-11.25
10
-32
20
-11.25
10
-32
20
-22
10
-17.25
20
-22
0
LWPOLYLINE
8
30_arm_base_t40.0
100
AcDbEntity
100
AcDbPolyline
90
7
70
1
43
0.0
10
-28
20
11.25
10
-28
20
18
10
-17.25
20
18
10
-17.25
20
22
10
-32
20
22
10
-32
20
11.25
10
-28
20
11.25
0
LWPOLYLINE
8
30_arm_base_t40.0
100
AcDbEntity
100
AcDbPolyline
90
5
70
1
43
0.0
10
-28
20
1.25
10
-28
20
8.75
10
-32
20
8.75
10
-32
20
1.25
10
-28
20
1.25
0
LWPOLYLINE
8
30_arm_base_t40.0
100
AcDbEntity
100
AcDbPolyline
90
5
70
1
43
0.0
10
-32
20
-1.25
10
-32
20
-8.75
10
-28
20
-8.75
10
-28
20
-1.25
10
-32
20
-1.25
0
LWPOLYLINE
8
30_arm_base_t40.0
100
AcDbEntity
100
AcDbPolyline
90
5
70
1
43
0.0
10
1.25
20
18
10
14.75
20
18
10
14.75
20
22
10
1.25
20
22
10
1.25
20
18
0
LWPOLYLINE
8
30_arm_base_t40.0
100
AcDbEntity
100
AcDbPolyline
90
7
70
1
43
0.0
10
32
20
-22
10
32
20
-11.25
10
28
20
-11.25
10
28
20
-18
10
17.25
20
-18
10
17.25
20
-22
10
32
20
-22
0
LWPOLYLINE
8
30_arm_base_t40.0
100
AcDbEntity
100
AcDbPolyline
90
7
70
1
43
0.0
10
28
20
11.25
10
32
20
11.25
10
32
20
22
10
17.25
20
22
10
17.25
20
18
10
28
20
18
10
28
20
11.25
0
LWPOLYLINE
8
30_arm_base_t40.0
100
AcDbEntity
100
AcDbPolyline
90
5
70
1
43
0.0
10
28
20
1.25
10
32
20
1.25
10
32
20
8.75
10
28
20
8.75
10
28
20
1.25
0
LWPOLYLINE
8
30_arm_base_t40.0
100
AcDbEntity
100
AcDbPolyline
90
5
70
1
43
0.0
10
32
20
-1.25
10
28
20
-1.25
10
28
20
-8.75
10
32
20
-8.75
10
32
20
-1.25
0
LWPOLYLINE
8
30_arm_base_t40.0
100
AcDbEntity
100
AcDbPolyline
90
5
70
1
43
0.0
10
14.75
20
-18
10
1.25
20
-18
10
1.25
20
-22
10
14.75
20
-22
10
14.75
20
-18
0
LWPOLYLINE
8
30_arm_base_t40.0
100
AcDbEntity
100
AcDbPolyline
90
5
70
1
43
0.0
10
-14.75
20
-22
10
-1.25
20
-22
10
-1.25
20
-18
10
-14.75
20
-18
10
-14.75
20
-22
0
LWPOLYLINE
8
30_arm_base_t40.0
100
AcDbEntity
100
AcDbPolyline
90
5
70
1
43
0.0
10
-14.75
20
22
10
-14.75
20
18
10
-1.25
20
18
10
-1.25
20
22
10
-14.75
20
22
0
ENDSEC
0
EOF
