0
SECTION
2
HEADER
9
$ACADVER
1
AC1015
9
$INSUNITS
70
4
0
ENDSEC
0
SECTION
2
ENTITIES
0
LWPOLYLINE
8
31a_arm_turntable_t6.0
100
AcDbEntity
100
AcDbPolyline
90
21
70
1
43
0.0
10
27.0615
20
21.391
10
24
20
22
10
-24
20
22
10
-27.0615
20
21.391
10
-29.6569
20
19.6569
10
-31.391
20
17.0615
10
-32
20
14
10
-32
20
-14
10
-31.391
20
-17.0615
10
-29.6569
20
-19.6569
10
-27.0615
20
-21.391
10
-24
20
-22
10
24
20
-22
10
27.0615
20
-21.391
10
29.6569
20
-19.6569
10
31.391
20
-17.0615
10
32
20
-14
10
32
20
14
10
31.391
20
17.0615
10
29.6569
20
19.6569
10
27.0615
20
21.391
0
LWPOLYLINE
8
31a_arm_turntable_t6.0
100
AcDbEntity
100
AcDbPolyline
90
151
70
1
43
0.0
10
-3.75
20
14.75
10
-3.75
20
13.25
10
3.75
20
13.25
10
3.75
20
14.75
10
3.8452
20
15.2284
10
4.1161
20
15.6339
10
4.5216
20
15.9048
10
5
20
16
10
5.4784
20
15.9048
10
5.8839
20
15.6339
10
6.1548
20
15.2284
10
6.25
20
14.75
10
6.25
20
13.25
10
12.75
20
13.25
10
12.75
20
14.75
10
12.8452
20
15.2284
10
13.1161
20
15.6339
10
13.5216
20
15.9048
10
14
20
16
10
14.4784
20
15.9048
10
14.8839
20
15.6339
10
15.1548
20
15.2284
10
15.25
20
14.75
10
15.25
20
13.25
10
24.75
20
13.25
10
25.2284
20
13.1548
10
25.6339
20
12.8839
10
25.9048
20
12.4784
10
26
20
12
10
25.9048
20
11.5216
10
25.6339
20
11.1161
10
25.2284
20
10.8452
10
24.75
20
10.75
10
15.25
20
10.75
10
15.25
20
1.25
10
24.75
20
1.25
10
25.2284
20
1.1548
10
25.6339
20
0.8839
10
25.9048
20
0.4784
10
26
20
0
10
25.9048
20
-0.4784
10
25.6339
20
-0.8839
10
25.2284
20
-1.1548
10
24.75
20
-1.25
10
15.25
20
-1.25
10
15.25
20
-10.75
10
24.75
20
-10.75
10
25.2284
20
-10.8452
10
25.6339
20
-11.1161
10
25.9048
20
-11.5216
10
26
20
-12
10
25.9048
20
-12.4784
10
25.6339
20
-12.8839
10
25.2284
20
-13.1548
10
24.75
20
-13.25
10
15.25
20
-13.25
10
15.25
20
-14.75
10
15.1548
20
-15.2284
10
14.8839
20
-15.6339
10
14.4784
20
-15.9048
10
14
20
-16
10
13.5216
20
-15.9048
10
13.1161
20
-15.6339
10
12.8452
20
-15.2284
10
12.75
20
-14.75
10
12.75
20
-13.25
10
6.25
20
-13.25
10
6.25
20
-14.75
10
6.1548
20
-15.2284
10
5.8839
20
-15.6339
10
5.4784
20
-15.9048
10
5
20
-16
10
4.5216
20
-15.9048
10
4.1161
20
-15.6339
10
3.8452
20
-15.2284
10
3.75
20
-14.75
10
3.75
20
-13.25
10
-3.75
20
-13.25
10
-3.75
20
-14.75
10
-3.8452
20
-15.2284
10
-4.1161
20
-15.6339
10
-4.5216
20
-15.9048
10
-5
20
-16
10
-5.4784
20
-15.9048
10
-5.8839
20
-15.6339
10
-6.1548
20
-15.2284
10
-6.25
20
-14.75
10
-6.25
20
-13.25
10
-12.75
20
-13.25
10
-12.75
20
-14.75
10
-12.8452
20
-15.2284
10
-13.1161
20
-15.6339
10
-13.5216
20
-15.9048
10
-14
20
-16
10
-14.4784
20
-15.9048
10
-14.8839
20
-15.6339
10
-15.1548
20
-15.2284
10
-15.25
20
-14.75
10
-15.25
20
-13.25
10
-24.75
20
-13.25
10
-25.2284
20
-13.1548
10
-25.6339
20
-12.8839
10
-25.9048
20
-12.4784
10
-26
20
-12
10
-25.9048
20
-11.5216
10
-25.6339
20
-11.1161
10
-25.2284
20
-10.8452
10
-24.75
20
-10.75
10
-15.25
20
-10.75
10
-15.25
20
-1.25
10
-24.75
20
-1.25
10
-25.2284
20
-1.1548
10
-25.6339
20
-0.8839
10
-25.9048
20
-0.4784
10
-26
20
0
10
-25.9048
20
0.4784
10
-25.6339
20
0.8839
10
-25.2284
20
1.1548
10
-24.75
20
1.25
10
-15.25
20
1.25
10
-15.25
20
10.75
10
-24.75
20
10.75
10
-25.2284
20
10.8452
10
-25.6339
20
11.1161
10
-25.9048
20
11.5216
10
-26
20
12
10
-25.9048
20
12.4784
10
-25.6339
20
12.8839
10
-25.2284
20
13.1548
10
-24.75
20
13.25
10
-15.25
20
13.25
10
-15.25
20
14.75
10
-15.1548
20
15.2284
10
-14.8839
20
15.6339
10
-14.4784
20
15.9048
10
-14
20
16
10
-13.5216
20
15.9048
10
-13.1161
20
15.6339
10
-12.8452
20
15.2284
10
-12.75
20
14.75
10
-12.75
20
13.25
10
-6.25
20
13.25
10
-6.25
20
14.75
10
-6.1548
20
15.2284
10
-5.8839
20
15.6339
10
-5.4784
20
15.9048
10
-5
20
16
10
-4.5216
20
15.9048
10
-4.1161
20
15.6339
10
-3.8452
20
15.2284
10
-3.75
20
14.75
0
LWPOLYLINE
8
31a_arm_turntable_t6.0
100
AcDbEntity
100
AcDbPolyline
90
18
70
1
43
0.0
10
1.1705
20
5.8847
10
1.7417
20
5.7416
10
2.2961
20
5.5433
10
2.8284
20
5.2915
10
3.3334
20
4.9888
10
3.75
20
4.6799
10
3.75
20
10.75
10
-3.75
20
10.75
10
-3.75
20
4.6799
10
-3.3334
20
4.9888
10
-2.8284
20
5.2915
10
-2.2961
20
5.5433
10
-1.7417
20
5.7416
10
-1.1705
20
5.8847
10
-0.5881
20
5.9711
10
0
20
6
10
0.5881
20
5.9711
10
1.1705
20
5.8847
0
LWPOLYLINE
8
31a_arm_turntable_t6.0
100
AcDbEntity
100
AcDbPolyline
90
32
70
1
43
0.0
10
-6.25
20
6.8515
10
-6.25
20
10.75
10
-12.75
20
10.75
10
-12.75
20
1.25
10
-6.25
20
1.25
10
-6.25
20
4.8157
10
-6.2546
20
4.8174
10
-6.3522
20
4.8635
10
-6.4448
20
4.919
10
-6.5315
20
4.9833
10
-6.6114
20
5.0558
10
-6.6839
20
5.1358
10
-6.7482
20
5.2225
10
-6.8037
20
5.3151
10
-6.8499
20
5.4127
10
-6.8863
20
5.5143
10
-6.9125
20
5.619
10
-6.9283
20
5.7258
10
-6.9336
20
5.8336
10
-6.9283
20
5.9414
10
-6.9125
20
6.0482
10
-6.8863
20
6.1529
10
-6.8499
20
6.2546
10
-6.8037
20
6.3522
10
-6.7482
20
6.4448
10
-6.6839
20
6.5315
10
-6.6114
20
6.6114
10
-6.5315
20
6.6839
10
-6.4448
20
6.7482
10
-6.3522
20
6.8037
10
-6.2546
20
6.8499
10
-6.25
20
6.8515
0
LWPOLYLINE
8
31a_arm_turntable_t6.0
100
AcDbEntity
100
AcDbPolyline
90
32
70
1
43
0.0
10
12.75
20
1.25
10
12.75
20
10.75
10
6.25
20
10.75
10
6.25
20
6.8515
10
6.2546
20
6.8499
10
6.3522
20
6.8037
10
6.4448
20
6.7482
10
6.5315
20
6.6839
10
6.6114
20
6.6114
10
6.6839
20
6.5315
10
6.7482
20
6.4448
10
6.8037
20
6.3522
10
6.8499
20
6.2546
10
6.8863
20
6.1529
10
6.9125
20
6.0482
10
6.9283
20
5.9414
10
6.9336
20
5.8336
10
6.9283
20
5.7258
10
6.9125
20
5.619
10
6.8863
20
5.5143
10
6.8499
20
5.4127
10
6.8037
20
5.3151
10
6.7482
20
5.2225
10
6.6839
20
5.1358
10
6.6114
20
5.0558
10
6.5315
20
4.9833
10
6.4448
20
4.919
10
6.3522
20
4.8635
10
6.2546
20
4.8174
10
6.25
20
4.8157
10
6.25
20
1.25
10
12.75
20
1.25
0
LWPOLYLINE
8
31a_arm_turntable_t6.0
100
AcDbEntity
100
AcDbPolyline
90
32
70
1
43
0.0
10
-6.2546
20
-4.8174
10
-6.25
20
-4.8157
10
-6.25
20
-1.25
10
-12.75
20
-1.25
10
-12.75
20
-10.75
10
-6.25
20
-10.75
10
-6.25
20
-6.8515
10
-6.2546
20
-6.8499
10
-6.3522
20
-6.8037
10
-6.4448
20
-6.7482
10
-6.5315
20
-6.6839
10
-6.6114
20
-6.6114
10
-6.6839
20
-6.5315
10
-6.7482
20
-6.4448
10
-6.8037
20
-6.3522
10
-6.8499
20
-6.2546
10
-6.8863
20
-6.1529
10
-6.9125
20
-6.0482
10
-6.9283
20
-5.9414
10
-6.9336
20
-5.8336
10
-6.9283
20
-5.7258
10
-6.9125
20
-5.619
10
-6.8863
20
-5.5143
10
-6.8499
20
-5.4127
10
-6.8037
20
-5.3151
10
-6.7482
20
-5.2225
10
-6.6839
20
-5.1358
10
-6.6114
20
-5.0558
10
-6.5315
20
-4.9833
10
-6.4448
20
-4.919
10
-6.3522
20
-4.8635
10
-6.2546
20
-4.8174
0
LWPOLYLINE
8
31a_arm_turntable_t6.0
100
AcDbEntity
100
AcDbPolyline
90
32
70
1
43
0.0
10
6.25
20
-10.75
10
12.75
20
-10.75
10
12.75
20
-1.25
10
6.25
20
-1.25
10
6.25
20
-4.8157
10
6.2546
20
-4.8174
10
6.3522
20
-4.8635
10
6.4448
20
-4.919
10
6.5315
20
-4.9833
10
6.6114
20
-5.0558
10
6.6839
20
-5.1358
10
6.7482
20
-5.2225
10
6.8037
20
-5.3151
10
6.8499
20
-5.4127
10
6.8863
20
-5.5143
10
6.9125
20
-5.619
10
6.9283
20
-5.7258
10
6.9336
20
-5.8336
10
6.9283
20
-5.9414
10
6.9125
20
-6.0482
10
6.8863
20
-6.1529
10
6.8499
20
-6.2546
10
6.8037
20
-6.3522
10
6.7482
20
-6.4448
10
6.6839
20
-6.5315
10
6.6114
20
-6.6114
10
6.5315
20
-6.6839
10
6.4448
20
-6.7482
10
6.3522
20
-6.8037
10
6.2546
20
-6.8499
10
6.25
20
-6.8515
10
6.25
20
-10.75
0
LWPOLYLINE
8
31a_arm_turntable_t6.0
100
AcDbEntity
100
AcDbPolyline
90
18
70
1
43
0.0
10
-2.8284
20
-5.2915
10
-3.3334
20
-4.9888
10
-3.75
20
-4.6799
10
-3.75
20
-10.75
10
3.75
20
-10.75
10
3.75
20
-4.6799
10
3.3334
20
-4.9888
10
2.8284
20
-5.2915
10
2.2961
20
-5.5433
10
1.7417
20
-5.7416
10
1.1705
20
-5.8847
10
0.5881
20
-5.9711
10
0
20
-6
10
-0.5881
20
-5.9711
10
-1.1705
20
-5.8847
10
-1.7417
20
-5.7416
10
-2.2961
20
-5.5433
10
-2.8284
20
-5.2915
0
ENDSEC
0
EOF
