0
SECTION
2
HEADER
9
$ACADVER
1
AC1015
9
$INSUNITS
70
4
0
ENDSEC
0
SECTION
2
ENTITIES
0
LWPOLYLINE
8
31a_arm_turntable_t8.0
100
AcDbEntity
100
AcDbPolyline
90
97
70
1
43
0.0
10
19.799
20
-19.799
10
21.0515
20
-18.4617
10
22.2139
20
-17.0453
10
23.2811
20
-15.556
10
24.2487
20
-14
10
25.1124
20
-12.3841
10
25.8686
20
-10.7151
10
26.514
20
-9.0003
10
27.0459
20
-7.2469
10
27.462
20
-5.4625
10
27.7605
20
-3.6547
10
27.94
20
-1.8313
10
28
20
0
10
27.94
20
1.8313
10
27.7605
20
3.6547
10
27.462
20
5.4625
10
27.0459
20
7.2469
10
26.514
20
9.0003
10
25.8686
20
10.7151
10
25.1124
20
12.3841
10
24.2487
20
14
10
23.2811
20
15.556
10
22.2139
20
17.0453
10
21.0515
20
18.4617
10
19.799
20
19.799
10
18.4617
20
21.0515
10
17.0453
20
22.2139
10
15.556
20
23.2811
10
14
20
24.2487
10
12.3841
20
25.1124
10
10.7151
20
25.8686
10
9.0003
20
26.514
10
7.2469
20
27.0459
10
5.4625
20
27.462
10
3.6547
20
27.7605
10
1.8313
20
27.94
10
0
20
28
10
-1.8313
20
27.94
10
-3.6547
20
27.7605
10
-5.4625
20
27.462
10
-7.2469
20
27.0459
10
-9.0003
20
26.514
10
-10.7151
20
25.8686
10
-12.3841
20
25.1124
10
-14
20
24.2487
10
-15.556
20
23.2811
10
-17.0453
20
22.2139
10
-18.4617
20
21.0515
10
-19.799
20
19.799
10
-21.0515
20
18.4617
10
-22.2139
20
17.0453
10
-23.2811
20
15.556
10
-24.2487
20
14
10
-25.1124
20
12.3841
10
-25.8686
20
10.7151
10
-26.514
20
9.0003
10
-27.0459
20
7.2469
10
-27.462
20
5.4625
10
-27.7605
20
3.6547
10
-27.94
20
1.8313
10
-28
20
0
10
-27.94
20
-1.8313
10
-27.7605
20
-3.6547
10
-27.462
20
-5.4625
10
-27.0459
20
-7.2469
10
-26.514
20
-9.0003
10
-25.8686
20
-10.7151
10
-25.1124
20
-12.3841
10
-24.2487
20
-14
10
-23.2811
20
-15.556
10
-22.2139
20
-17.0453
10
-21.0515
20
-18.4617
10
-19.799
20
-19.799
10
-18.4617
20
-21.0515
10
-17.0453
20
-22.2139
10
-15.556
20
-23.2811
10
-14
20
-24.2487
10
-12.3841
20
-25.1124
10
-10.7151
20
-25.8686
10
-9.0003
20
-26.514
10
-7.2469
20
-27.0459
10
-5.4625
20
-27.462
10
-3.6547
20
-27.7605
10
-1.8313
20
-27.94
10
0
20
-28
10
1.8313
20
-27.94
10
3.6547
20
-27.7605
10
5.4625
20
-27.462
10
7.2469
20
-27.0459
10
9.0003
20
-26.514
10
10.7151
20
-25.8686
10
12.3841
20
-25.1124
10
14
20
-24.2487
10
15.556
20
-23.2811
10
17.0453
20
-22.2139
10
18.4617
20
-21.0515
10
19.799
20
-19.799
0
LWPOLYLINE
8
31a_arm_turntable_t8.0
100
AcDbEntity
100
AcDbPolyline
90
151
70
1
43
0.0
10
-4
20
19
10
-4
20
16
10
4
20
16
10
4
20
19
10
4.1522
20
19.7654
10
4.5858
20
20.4142
10
5.2346
20
20.8478
10
6
20
21
10
6.7654
20
20.8478
10
7.4142
20
20.4142
10
7.8478
20
19.7654
10
8
20
19
10
8
20
16
10
14
20
16
10
14
20
19
10
14.1522
20
19.7654
10
14.5858
20
20.4142
10
15.2346
20
20.8478
10
16
20
21
10
16.7654
20
20.8478
10
17.4142
20
20.4142
10
17.8478
20
19.7654
10
18
20
19
10
18
20
16
10
19
20
16
10
19.7654
20
15.8478
10
20.4142
20
15.4142
10
20.8478
20
14.7654
10
21
20
14
10
20.8478
20
13.2346
10
20.4142
20
12.5858
10
19.7654
20
12.1522
10
19
20
12
10
18
20
12
10
18
20
2
10
19
20
2
10
19.7654
20
1.8478
10
20.4142
20
1.4142
10
20.8478
20
0.7654
10
21
20
0
10
20.8478
20
-0.7654
10
20.4142
20
-1.4142
10
19.7654
20
-1.8478
10
19
20
-2
10
18
20
-2
10
18
20
-12
10
19
20
-12
10
19.7654
20
-12.1522
10
20.4142
20
-12.5858
10
20.8478
20
-13.2346
10
21
20
-14
10
20.8478
20
-14.7654
10
20.4142
20
-15.4142
10
19.7654
20
-15.8478
10
19
20
-16
10
18
20
-16
10
18
20
-19
10
17.8478
20
-19.7654
10
17.4142
20
-20.4142
10
16.7654
20
-20.8478
10
16
20
-21
10
15.2346
20
-20.8478
10
14.5858
20
-20.4142
10
14.1522
20
-19.7654
10
14
20
-19
10
14
20
-16
10
8
20
-16
10
8
20
-19
10
7.8478
20
-19.7654
10
7.4142
20
-20.4142
10
6.7654
20
-20.8478
10
6
20
-21
10
5.2346
20
-20.8478
10
4.5858
20
-20.4142
10
4.1522
20
-19.7654
10
4
20
-19
10
4
20
-16
10
-4
20
-16
10
-4
20
-19
10
-4.1522
20
-19.7654
10
-4.5858
20
-20.4142
10
-5.2346
20
-20.8478
10
-6
20
-21
10
-6.7654
20
-20.8478
10
-7.4142
20
-20.4142
10
-7.8478
20
-19.7654
10
-8
20
-19
10
-8
20
-16
10
-14
20
-16
10
-14
20
-19
10
-14.1522
20
-19.7654
10
-14.5858
20
-20.4142
10
-15.2346
20
-20.8478
10
-16
20
-21
10
-16.7654
20
-20.8478
10
-17.4142
20
-20.4142
10
-17.8478
20
-19.7654
10
-18
20
-19
10
-18
20
-16
10
-19
20
-16
10
-19.7654
20
-15.8478
10
-20.4142
20
-15.4142
10
-20.8478
20
-14.7654
10
-21
20
-14
10
-20.8478
20
-13.2346
10
-20.4142
20
-12.5858
10
-19.7654
20
-12.1522
10
-19
20
-12
10
-18
20
-12
10
-18
20
-2
10
-19
20
-2
10
-19.7654
20
-1.8478
10
-20.4142
20
-1.4142
10
-20.8478
20
-0.7654
10
-21
20
0
10
-20.8478
20
0.7654
10
-20.4142
20
1.4142
10
-19.7654
20
1.8478
10
-19
20
2
10
-18
20
2
10
-18
20
12
10
-19
20
12
10
-19.7654
20
12.1522
10
-20.4142
20
12.5858
10
-20.8478
20
13.2346
10
-21
20
14
10
-20.8478
20
14.7654
10
-20.4142
20
15.4142
10
-19.7654
20
15.8478
10
-19
20
16
10
-18
20
16
10
-18
20
19
10
-17.8478
20
19.7654
10
-17.4142
20
20.4142
10
-16.7654
20
20.8478
10
-16
20
21
10
-15.2346
20
20.8478
10
-14.5858
20
20.4142
10
-14.1522
20
19.7654
10
-14
20
19
10
-14
20
16
10
-8
20
16
10
-8
20
19
10
-7.8478
20
19.7654
10
-7.4142
20
20.4142
10
-6.7654
20
20.8478
10
-6
20
21
10
-5.2346
20
20.8478
10
-4.5858
20
20.4142
10
-4.1522
20
19.7654
10
-4
20
19
0
LWPOLYLINE
8
31a_arm_turntable_t8.0
100
AcDbEntity
100
AcDbPolyline
90
24
70
1
43
0.0
10
1.9134
20
4.6194
10
2.357
20
4.4096
10
2.7779
20
4.1573
10
3.172
20
3.8651
10
3.5355
20
3.5355
10
3.8651
20
3.172
10
4
20
2.99
10
4
20
12
10
-4
20
12
10
-4
20
2.99
10
-3.8651
20
3.172
10
-3.5355
20
3.5355
10
-3.172
20
3.8651
10
-2.7779
20
4.1573
10
-2.357
20
4.4096
10
-1.9134
20
4.6194
10
-1.4514
20
4.7847
10
-0.9755
20
4.9039
10
-0.4901
20
4.9759
10
0
20
5
10
0.4901
20
4.9759
10
0.9755
20
4.9039
10
1.4514
20
4.7847
10
1.9134
20
4.6194
0
LWPOLYLINE
8
31a_arm_turntable_t8.0
100
AcDbEntity
100
AcDbPolyline
90
5
70
1
43
0.0
10
-8
20
2
10
-8
20
12
10
-14
20
12
10
-14
20
2
10
-8
20
2
0
LWPOLYLINE
8
31a_arm_turntable_t8.0
100
AcDbEntity
100
AcDbPolyline
90
5
70
1
43
0.0
10
14
20
2
10
14
20
12
10
8
20
12
10
8
20
2
10
14
20
2
0
LWPOLYLINE
8
31a_arm_turntable_t8.0
100
AcDbEntity
100
AcDbPolyline
90
5
70
1
43
0.0
10
-14
20
-12
10
-8
20
-12
10
-8
20
-2
10
-14
20
-2
10
-14
20
-12
0
LWPOLYLINE
8
31a_arm_turntable_t8.0
100
AcDbEntity
100
AcDbPolyline
90
5
70
1
43
0.0
10
8
20
-12
10
14
20
-12
10
14
20
-2
10
8
20
-2
10
8
20
-12
0
LWPOLYLINE
8
31a_arm_turntable_t8.0
100
AcDbEntity
100
AcDbPolyline
90
24
70
1
43
0.0
10
-3.5355
20
-3.5355
10
-3.8651
20
-3.172
10
-4
20
-2.99
10
-4
20
-12
10
4
20
-12
10
4
20
-2.99
10
3.8651
20
-3.172
10
3.5355
20
-3.5355
10
3.172
20
-3.8651
10
2.7779
20
-4.1573
10
2.357
20
-4.4096
10
1.9134
20
-4.6194
10
1.4514
20
-4.7847
10
0.9755
20
-4.9039
10
0.4901
20
-4.9759
10
0
20
-5
10
-0.4901
20
-4.9759
10
-0.9755
20
-4.9039
10
-1.4514
20
-4.7847
10
-1.9134
20
-4.6194
10
-2.357
20
-4.4096
10
-2.7779
20
-4.1573
10
-3.172
20
-3.8651
10
-3.5355
20
-3.5355
0
ENDSEC
0
EOF
