0
SECTION
2
HEADER
9
$ACADVER
1
AC1015
9
$INSUNITS
70
4
0
ENDSEC
0
SECTION
2
ENTITIES
0
LWPOLYLINE
8
31b_arm_mast_t8.0
100
AcDbEntity
100
AcDbPolyline
90
5
70
1
43
0.0
10
-10
20
50
10
-10
20
0
10
34
20
0
10
34
20
50
10
-10
20
50
0
LWPOLYLINE
8
31b_arm_mast_t8.0
100
AcDbEntity
100
AcDbPolyline
90
65
70
1
43
0.0
10
19.4111
20
18.7542
10
19.4782
20
18.6123
10
19.5311
20
18.4645
10
19.5693
20
18.3121
10
19.5923
20
18.1568
10
19.6
20
18
10
19.5923
20
17.8432
10
19.5693
20
17.6879
10
19.5311
20
17.5355
10
19.4782
20
17.3877
10
19.4111
20
17.2458
10
19.3304
20
17.1111
10
19.2368
20
16.985
10
19.1314
20
16.8686
10
19.015
20
16.7632
10
18.8889
20
16.6696
10
18.7542
20
16.5889
10
18.6123
20
16.5218
10
18.4645
20
16.4689
10
18.3121
20
16.4307
10
18.1568
20
16.4077
10
18
20
16.4
10
17.8432
20
16.4077
10
17.6879
20
16.4307
10
17.5355
20
16.4689
10
17.3877
20
16.5218
10
17.2458
20
16.5889
10
17.1111
20
16.6696
10
16.985
20
16.7632
10
16.8686
20
16.8686
10
16.7632
20
16.985
10
16.6696
20
17.1111
10
16.5889
20
17.2458
10
16.5218
20
17.3877
10
16.4689
20
17.5355
10
16.4307
20
17.6879
10
16.4077
20
17.8432
10
16.4
20
18
10
16.4077
20
18.1568
10
16.4307
20
18.3121
10
16.4689
20
18.4645
10
16.5218
20
18.6123
10
16.5889
20
18.7542
10
16.6696
20
18.8889
10
16.7632
20
19.015
10
16.8686
20
19.1314
10
16.985
20
19.2368
10
17.1111
20
19.3304
10
17.2458
20
19.4111
10
17.3877
20
19.4782
10
17.5355
20
19.5311
10
17.6879
20
19.5693
10
17.8432
20
19.5923
10
18
20
19.6
10
18.1568
20
19.5923
10
18.3121
20
19.5693
10
18.4645
20
19.5311
10
18.6123
20
19.4782
10
18.7542
20
19.4111
10
18.8889
20
19.3304
10
19.015
20
19.2368
10
19.1314
20
19.1314
10
19.2368
20
19.015
10
19.3304
20
18.8889
10
19.4111
20
18.7542
0
LWPOLYLINE
8
31b_arm_mast_t8.0
100
AcDbEntity
100
AcDbPolyline
90
65
70
1
43
0.0
10
19.4782
20
42.6123
10
19.5311
20
42.4645
10
19.5693
20
42.3121
10
19.5923
20
42.1568
10
19.6
20
42
10
19.5923
20
41.8432
10
19.5693
20
41.6879
10
19.5311
20
41.5355
10
19.4782
20
41.3877
10
19.4111
20
41.2458
10
19.3304
20
41.1111
10
19.2368
20
40.985
10
19.1314
20
40.8686
10
19.015
20
40.7632
10
18.8889
20
40.6696
10
18.7542
20
40.5889
10
18.6123
20
40.5218
10
18.4645
20
40.4689
10
18.3121
20
40.4307
10
18.1568
20
40.4077
10
18
20
40.4
10
17.8432
20
40.4077
10
17.6879
20
40.4307
10
17.5355
20
40.4689
10
17.3877
20
40.5218
10
17.2458
20
40.5889
10
17.1111
20
40.6696
10
16.985
20
40.7632
10
16.8686
20
40.8686
10
16.7632
20
40.985
10
16.6696
20
41.1111
10
16.5889
20
41.2458
10
16.5218
20
41.3877
10
16.4689
20
41.5355
10
16.4307
20
41.6879
10
16.4077
20
41.8432
10
16.4
20
42
10
16.4077
20
42.1568
10
16.4307
20
42.3121
10
16.4689
20
42.4645
10
16.5218
20
42.6123
10
16.5889
20
42.7542
10
16.6696
20
42.8889
10
16.7632
20
43.015
10
16.8686
20
43.1314
10
16.985
20
43.2368
10
17.1111
20
43.3304
10
17.2458
20
43.4111
10
17.3877
20
43.4782
10
17.5355
20
43.5311
10
17.6879
20
43.5693
10
17.8432
20
43.5923
10
18
20
43.6
10
18.1568
20
43.5923
10
18.3121
20
43.5693
10
18.4645
20
43.5311
10
18.6123
20
43.4782
10
18.7542
20
43.4111
10
18.8889
20
43.3304
10
19.015
20
43.2368
10
19.1314
20
43.1314
10
19.2368
20
43.015
10
19.3304
20
42.8889
10
19.4111
20
42.7542
10
19.4782
20
42.6123
0
LWPOLYLINE
8
31b_arm_mast_t8.0
100
AcDbEntity
100
AcDbPolyline
90
65
70
1
43
0.0
10
30.7847
20
15.4514
10
30.9039
20
14.9755
10
30.9759
20
14.4901
10
31
20
14
10
30.9759
20
13.5099
10
30.9039
20
13.0245
10
30.7847
20
12.5486
10
30.6194
20
12.0866
10
30.4096
20
11.643
10
30.1573
20
11.2221
10
29.8651
20
10.828
10
29.5355
20
10.4645
10
29.172
20
10.1349
10
28.7779
20
9.8427
10
28.357
20
9.5904
10
27.9134
20
9.3806
10
27.4514
20
9.2153
10
26.9755
20
9.0961
10
26.4901
20
9.0241
10
26
20
9
10
25.5099
20
9.0241
10
25.0245
20
9.0961
10
24.5486
20
9.2153
10
24.0866
20
9.3806
10
23.643
20
9.5904
10
23.2221
20
9.8427
10
22.828
20
10.1349
10
22.4645
20
10.4645
10
22.1349
20
10.828
10
21.8427
20
11.2221
10
21.5904
20
11.643
10
21.3806
20
12.0866
10
21.2153
20
12.5486
10
21.0961
20
13.0245
10
21.0241
20
13.5099
10
21
20
14
10
21.0241
20
14.4901
10
21.0961
20
14.9755
10
21.2153
20
15.4514
10
21.3806
20
15.9134
10
21.5904
20
16.357
10
21.8427
20
16.7779
10
22.1349
20
17.172
10
22.4645
20
17.5355
10
22.828
20
17.8651
10
23.2221
20
18.1573
10
23.643
20
18.4096
10
24.0866
20
18.6194
10
24.5486
20
18.7847
10
25.0245
20
18.9039
10
25.5099
20
18.9759
10
26
20
19
10
26.4901
20
18.9759
10
26.9755
20
18.9039
10
27.4514
20
18.7847
10
27.9134
20
18.6194
10
28.357
20
18.4096
10
28.7779
20
18.1573
10
29.172
20
17.8651
10
29.5355
20
17.5355
10
29.8651
20
17.172
10
30.1573
20
16.7779
10
30.4096
20
16.357
10
30.6194
20
15.9134
10
30.7847
20
15.4514
0
LWPOLYLINE
8
31b_arm_mast_t8.0
100
AcDbEntity
100
AcDbPolyline
90
65
70
1
43
0.0
10
7.9231
20
34.7804
10
7.9807
20
34.3921
10
8
20
34
10
7.9807
20
33.6079
10
7.9231
20
33.2196
10
7.8278
20
32.8389
10
7.6955
20
32.4693
10
7.5277
20
32.1144
10
7.3259
20
31.7777
10
7.092
20
31.4624
10
6.8284
20
31.1716
10
6.5376
20
30.908
10
6.2223
20
30.6741
10
5.8856
20
30.4723
10
5.5307
20
30.3045
10
5.1611
20
30.1722
10
4.7804
20
30.0769
10
4.3921
20
30.0193
10
4
20
30
10
3.6079
20
30.0193
10
3.2196
20
30.0769
10
2.8389
20
30.1722
10
2.4693
20
30.3045
10
2.1144
20
30.4723
10
1.7777
20
30.6741
10
1.4624
20
30.908
10
1.1716
20
31.1716
10
0.908
20
31.4624
10
0.6741
20
31.7777
10
0.4723
20
32.1144
10
0.3045
20
32.4693
10
0.1722
20
32.8389
10
0.0769
20
33.2196
10
0.0193
20
33.6079
10
0
20
34
10
0.0193
20
34.3921
10
0.0769
20
34.7804
10
0.1722
20
35.1611
10
0.3045
20
35.5307
10
0.4723
20
35.8856
10
0.6741
20
36.2223
10
0.908
20
36.5376
10
1.1716
20
36.8284
10
1.4624
20
37.092
10
1.7777
20
37.3259
10
2.1144
20
37.5277
10
2.4693
20
37.6955
10
2.8389
20
37.8278
10
3.2196
20
37.9231
10
3.6079
20
37.9807
10
4
20
38
10
4.3921
20
37.9807
10
4.7804
20
37.9231
10
5.1611
20
37.8278
10
5.5307
20
37.6955
10
5.8856
20
37.5277
10
6.2223
20
37.3259
10
6.5376
20
37.092
10
6.8284
20
36.8284
10
7.092
20
36.5376
10
7.3259
20
36.2223
10
7.5277
20
35.8856
10
7.6955
20
35.5307
10
7.8278
20
35.1611
10
7.9231
20
34.7804
0
LWPOLYLINE
8
31b_arm_mast_t8.0
100
AcDbEntity
100
AcDbPolyline
90
65
70
1
43
0.0
10
29.9807
20
34.3921
10
30
20
34
10
29.9807
20
33.6079
10
29.9231
20
33.2196
10
29.8278
20
32.8389
10
29.6955
20
32.4693
10
29.5277
20
32.1144
10
29.3259
20
31.7777
10
29.092
20
31.4624
10
28.8284
20
31.1716
10
28.5376
20
30.908
10
28.2223
20
30.6741
10
27.8856
20
30.4723
10
27.5307
20
30.3045
10
27.1611
20
30.1722
10
26.7804
20
30.0769
10
26.3921
20
30.0193
10
26
20
30
10
25.6079
20
30.0193
10
25.2196
20
30.0769
10
24.8389
20
30.1722
10
24.4693
20
30.3045
10
24.1144
20
30.4723
10
23.7777
20
30.6741
10
23.4624
20
30.908
10
23.1716
20
31.1716
10
22.908
20
31.4624
10
22.6741
20
31.7777
10
22.4723
20
32.1144
10
22.3045
20
32.4693
10
22.1722
20
32.8389
10
22.0769
20
33.2196
10
22.0193
20
33.6079
10
22
20
34
10
22.0193
20
34.3921
10
22.0769
20
34.7804
10
22.1722
20
35.1611
10
22.3045
20
35.5307
10
22.4723
20
35.8856
10
22.6741
20
36.2223
10
22.908
20
36.5376
10
23.1716
20
36.8284
10
23.4624
20
37.092
10
23.7777
20
37.3259
10
24.1144
20
37.5277
10
24.4693
20
37.6955
10
24.8389
20
37.8278
10
25.2196
20
37.9231
10
25.6079
20
37.9807
10
26
20
38
10
26.3921
20
37.9807
10
26.7804
20
37.9231
10
27.1611
20
37.8278
10
27.5307
20
37.6955
10
27.8856
20
37.5277
10
28.2223
20
37.3259
10
28.5376
20
37.092
10
28.8284
20
36.8284
10
29.092
20
36.5376
10
29.3259
20
36.2223
10
29.5277
20
35.8856
10
29.6955
20
35.5307
10
29.8278
20
35.1611
10
29.9231
20
34.7804
10
29.9807
20
34.3921
0
ENDSEC
0
EOF
