0
SECTION
2
HEADER
9
$ACADVER
1
AC1015
9
$INSUNITS
70
4
0
ENDSEC
0
SECTION
2
ENTITIES
0
LWPOLYLINE
8
32_arm_carriage_t32.0
100
AcDbEntity
100
AcDbPolyline
90
11
70
1
43
0.0
10
-26
20
-15.25
10
-26
20
-26
10
-8
20
-26
10
-8
20
-20.6
10
-20.6
20
-20.6
10
-20.6
20
-8
10
-26
20
-8
10
-26
20
-12.75
10
-23
20
-12.75
10
-23
20
-15.25
10
-26
20
-15.25
0
LWPOLYLINE
8
32_arm_carriage_t32.0
100
AcDbEntity
100
AcDbPolyline
90
11
70
1
43
0.0
10
20.6
20
-20.6
10
8
20
-20.6
10
8
20
-26
10
26
20
-26
10
26
20
-15.25
10
23
20
-15.25
10
23
20
-12.75
10
26
20
-12.75
10
26
20
-8
10
20.6
20
-8
10
20.6
20
-20.6
0
LWPOLYLINE
8
32_arm_carriage_t32.0
100
AcDbEntity
100
AcDbPolyline
90
11
70
1
43
0.0
10
-23
20
15.25
10
-23
20
12.75
10
-26
20
12.75
10
-26
20
8
10
-20.6
20
8
10
-20.6
20
20.6
10
-8
20
20.6
10
-8
20
26
10
-26
20
26
10
-26
20
15.25
10
-23
20
15.25
0
LWPOLYLINE
8
32_arm_carriage_t32.0
100
AcDbEntity
100
AcDbPolyline
90
11
70
1
43
0.0
10
26
20
15.25
10
26
20
26
10
8
20
26
10
8
20
20.6
10
20.6
20
20.6
10
20.6
20
8
10
26
20
8
10
26
20
12.75
10
23
20
12.75
10
23
20
15.25
10
26
20
15.25
0
ENDSEC
0
EOF
