0
SECTION
2
HEADER
9
$ACADVER
1
AC1015
9
$INSUNITS
70
4
0
ENDSEC
0
SECTION
2
ENTITIES
0
LWPOLYLINE
8
32_arm_link_t8.0
100
AcDbEntity
100
AcDbPolyline
90
67
70
1
43
0.0
10
-57.5751
20
-6.1841
10
-56.9446
20
-6.6518
10
-56.2712
20
-7.0554
10
-55.5615
20
-7.391
10
-54.8223
20
-7.6555
10
-54.0607
20
-7.8463
10
-53.2841
20
-7.9615
10
-52.5
20
-8
10
52.5
20
-8
10
53.2841
20
-7.9615
10
54.0607
20
-7.8463
10
54.8223
20
-7.6555
10
55.5615
20
-7.391
10
56.2712
20
-7.0554
10
56.9446
20
-6.6518
10
57.5751
20
-6.1841
10
58.1569
20
-5.6569
10
58.6841
20
-5.0751
10
59.1518
20
-4.4446
10
59.5554
20
-3.7712
10
59.891
20
-3.0615
10
60.1555
20
-2.3223
10
60.3463
20
-1.5607
10
60.4615
20
-0.7841
10
60.5
20
0
10
60.4615
20
0.7841
10
60.3463
20
1.5607
10
60.1555
20
2.3223
10
59.891
20
3.0615
10
59.5554
20
3.7712
10
59.1518
20
4.4446
10
58.6841
20
5.0751
10
58.1569
20
5.6569
10
57.5751
20
6.1841
10
56.9446
20
6.6518
10
56.2712
20
7.0554
10
55.5615
20
7.391
10
54.8223
20
7.6555
10
54.0607
20
7.8463
10
53.2841
20
7.9615
10
52.5
20
8
10
-52.5
20
8
10
-53.2841
20
7.9615
10
-54.0607
20
7.8463
10
-54.8223
20
7.6555
10
-55.5615
20
7.391
10
-56.2712
20
7.0554
10
-56.9446
20
6.6518
10
-57.5751
20
6.1841
10
-58.1569
20
5.6569
10
-58.6841
20
5.0751
10
-59.1518
20
4.4446
10
-59.5554
20
3.7712
10
-59.891
20
3.0615
10
-60.1555
20
2.3223
10
-60.3463
20
1.5607
10
-60.4615
20
0.7841
10
-60.5
20
0
10
-60.4615
20
-0.7841
10
-60.3463
20
-1.5607
10
-60.1555
20
-2.3223
10
-59.891
20
-3.0615
10
-59.5554
20
-3.7712
10
-59.1518
20
-4.4446
10
-58.6841
20
-5.0751
10
-58.1569
20
-5.6569
10
-57.5751
20
-6.1841
0
LWPOLYLINE
8
32_arm_link_t8.0
100
AcDbEntity
100
AcDbPolyline
90
65
70
1
43
0.0
10
-51.1696
20
0.8889
10
-51.0889
20
0.7542
10
-51.0218
20
0.6123
10
-50.9689
20
0.4645
10
-50.9307
20
0.3121
10
-50.9077
20
0.1568
10
-50.9
20
0
10
-50.9077
20
-0.1568
10
-50.9307
20
-0.3121
10
-50.9689
20
-0.4645
10
-51.0218
20
-0.6123
10
-51.0889
20
-0.7542
10
-51.1696
20
-0.8889
10
-51.2632
20
-1.015
10
-51.3686
20
-1.1314
10
-51.485
20
-1.2368
10
-51.6111
20
-1.3304
10
-51.7458
20
-1.4111
10
-51.8877
20
-1.4782
10
-52.0355
20
-1.5311
10
-52.1879
20
-1.5693
10
-52.3432
20
-1.5923
10
-52.5
20
-1.6
10
-52.6568
20
-1.5923
10
-52.8121
20
-1.5693
10
-52.9645
20
-1.5311
10
-53.1123
20
-1.4782
10
-53.2542
20
-1.4111
10
-53.3889
20
-1.3304
10
-53.515
20
-1.2368
10
-53.6314
20
-1.1314
10
-53.7368
20
-1.015
10
-53.8304
20
-0.8889
10
-53.9111
20
-0.7542
10
-53.9782
20
-0.6123
10
-54.0311
20
-0.4645
10
-54.0693
20
-0.3121
10
-54.0923
20
-0.1568
10
-54.1
20
0
10
-54.0923
20
0.1568
10
-54.0693
20
0.3121
10
-54.0311
20
0.4645
10
-53.9782
20
0.6123
10
-53.9111
20
0.7542
10
-53.8304
20
0.8889
10
-53.7368
20
1.015
10
-53.6314
20
1.1314
10
-53.515
20
1.2368
10
-53.3889
20
1.3304
10
-53.2542
20
1.4111
10
-53.1123
20
1.4782
10
-52.9645
20
1.5311
10
-52.8121
20
1.5693
10
-52.6568
20
1.5923
10
-52.5
20
1.6
10
-52.3432
20
1.5923
10
-52.1879
20
1.5693
10
-52.0355
20
1.5311
10
-51.8877
20
1.4782
10
-51.7458
20
1.4111
10
-51.6111
20
1.3304
10
-51.485
20
1.2368
10
-51.3686
20
1.1314
10
-51.2632
20
1.015
10
-51.1696
20
0.8889
0
LWPOLYLINE
8
32_arm_link_t8.0
100
AcDbEntity
100
AcDbPolyline
90
65
70
1
43
0.0
10
53.9111
20
0.7542
10
53.9782
20
0.6123
10
54.0311
20
0.4645
10
54.0693
20
0.3121
10
54.0923
20
0.1568
10
54.1
20
0
10
54.0923
20
-0.1568
10
54.0693
20
-0.3121
10
54.0311
20
-0.4645
10
53.9782
20
-0.6123
10
53.9111
20
-0.7542
10
53.8304
20
-0.8889
10
53.7368
20
-1.015
10
53.6314
20
-1.1314
10
53.515
20
-1.2368
10
53.3889
20
-1.3304
10
53.2542
20
-1.4111
10
53.1123
20
-1.4782
10
52.9645
20
-1.5311
10
52.8121
20
-1.5693
10
52.6568
20
-1.5923
10
52.5
20
-1.6
10
52.3432
20
-1.5923
10
52.1879
20
-1.5693
10
52.0355
20
-1.5311
10
51.8877
20
-1.4782
10
51.7458
20
-1.4111
10
51.6111
20
-1.3304
10
51.485
20
-1.2368
10
51.3686
20
-1.1314
10
51.2632
20
-1.015
10
51.1696
20
-0.8889
10
51.0889
20
-0.7542
10
51.0218
20
-0.6123
10
50.9689
20
-0.4645
10
50.9307
20
-0.3121
10
50.9077
20
-0.1568
10
50.9
20
0
10
50.9077
20
0.1568
10
50.9307
20
0.3121
10
50.9689
20
0.4645
10
51.0218
20
0.6123
10
51.0889
20
0.7542
10
51.1696
20
0.8889
10
51.2632
20
1.015
10
51.3686
20
1.1314
10
51.485
20
1.2368
10
51.6111
20
1.3304
10
51.7458
20
1.4111
10
51.8877
20
1.4782
10
52.0355
20
1.5311
10
52.1879
20
1.5693
10
52.3432
20
1.5923
10
52.5
20
1.6
10
52.6568
20
1.5923
10
52.8121
20
1.5693
10
52.9645
20
1.5311
10
53.1123
20
1.4782
10
53.2542
20
1.4111
10
53.3889
20
1.3304
10
53.515
20
1.2368
10
53.6314
20
1.1314
10
53.7368
20
1.015
10
53.8304
20
0.8889
10
53.9111
20
0.7542
0
LWPOLYLINE
8
32_arm_link_t8.0
100
AcDbEntity
100
AcDbPolyline
90
65
70
1
43
0.0
10
-29.3045
20
1.5307
10
-29.1722
20
1.1611
10
-29.0769
20
0.7804
10
-29.0193
20
0.3921
10
-29
20
0
10
-29.0193
20
-0.3921
10
-29.0769
20
-0.7804
10
-29.1722
20
-1.1611
10
-29.3045
20
-1.5307
10
-29.4723
20
-1.8856
10
-29.6741
20
-2.2223
10
-29.908
20
-2.5376
10
-30.1716
20
-2.8284
10
-30.4624
20
-3.092
10
-30.7777
20
-3.3259
10
-31.1144
20
-3.5277
10
-31.4693
20
-3.6955
10
-31.8389
20
-3.8278
10
-32.2196
20
-3.9231
10
-32.6079
20
-3.9807
10
-33
20
-4
10
-33.3921
20
-3.9807
10
-33.7804
20
-3.9231
10
-34.1611
20
-3.8278
10
-34.5307
20
-3.6955
10
-34.8856
20
-3.5277
10
-35.2223
20
-3.3259
10
-35.5376
20
-3.092
10
-35.8284
20
-2.8284
10
-36.092
20
-2.5376
10
-36.3259
20
-2.2223
10
-36.5277
20
-1.8856
10
-36.6955
20
-1.5307
10
-36.8278
20
-1.1611
10
-36.9231
20
-0.7804
10
-36.9807
20
-0.3921
10
-37
20
0
10
-36.9807
20
0.3921
10
-36.9231
20
0.7804
10
-36.8278
20
1.1611
10
-36.6955
20
1.5307
10
-36.5277
20
1.8856
10
-36.3259
20
2.2223
10
-36.092
20
2.5376
10
-35.8284
20
2.8284
10
-35.5376
20
3.092
10
-35.2223
20
3.3259
10
-34.8856
20
3.5277
10
-34.5307
20
3.6955
10
-34.1611
20
3.8278
10
-33.7804
20
3.9231
10
-33.3921
20
3.9807
10
-33
20
4
10
-32.6079
20
3.9807
10
-32.2196
20
3.9231
10
-31.8389
20
3.8278
10
-31.4693
20
3.6955
10
-31.1144
20
3.5277
10
-30.7777
20
3.3259
10
-30.4624
20
3.092
10
-30.1716
20
2.8284
10
-29.908
20
2.5376
10
-29.6741
20
2.2223
10
-29.4723
20
1.8856
10
-29.3045
20
1.5307
0
LWPOLYLINE
8
32_arm_link_t8.0
100
AcDbEntity
100
AcDbPolyline
90
65
70
1
43
0.0
10
-7.1722
20
1.1611
10
-7.0769
20
0.7804
10
-7.0193
20
0.3921
10
-7
20
0
10
-7.0193
20
-0.3921
10
-7.0769
20
-0.7804
10
-7.1722
20
-1.1611
10
-7.3045
20
-1.5307
10
-7.4723
20
-1.8856
10
-7.6741
20
-2.2223
10
-7.908
20
-2.5376
10
-8.1716
20
-2.8284
10
-8.4624
20
-3.092
10
-8.7777
20
-3.3259
10
-9.1144
20
-3.5277
10
-9.4693
20
-3.6955
10
-9.8389
20
-3.8278
10
-10.2196
20
-3.9231
10
-10.6079
20
-3.9807
10
-11
20
-4
10
-11.3921
20
-3.9807
10
-11.7804
20
-3.9231
10
-12.1611
20
-3.8278
10
-12.5307
20
-3.6955
10
-12.8856
20
-3.5277
10
-13.2223
20
-3.3259
10
-13.5376
20
-3.092
10
-13.8284
20
-2.8284
10
-14.092
20
-2.5376
10
-14.3259
20
-2.2223
10
-14.5277
20
-1.8856
10
-14.6955
20
-1.5307
10
-14.8278
20
-1.1611
10
-14.9231
20
-0.7804
10
-14.9807
20
-0.3921
10
-15
20
0
10
-14.9807
20
0.3921
10
-14.9231
20
0.7804
10
-14.8278
20
1.1611
10
-14.6955
20
1.5307
10
-14.5277
20
1.8856
10
-14.3259
20
2.2223
10
-14.092
20
2.5376
10
-13.8284
20
2.8284
10
-13.5376
20
3.092
10
-13.2223
20
3.3259
10
-12.8856
20
3.5277
10
-12.5307
20
3.6955
10
-12.1611
20
3.8278
10
-11.7804
20
3.9231
10
-11.3921
20
3.9807
10
-11
20
4
10
-10.6079
20
3.9807
10
-10.2196
20
3.9231
10
-9.8389
20
3.8278
10
-9.4693
20
3.6955
10
-9.1144
20
3.5277
10
-8.7777
20
3.3259
10
-8.4624
20
3.092
10
-8.1716
20
2.8284
10
-7.908
20
2.5376
10
-7.6741
20
2.2223
10
-7.4723
20
1.8856
10
-7.3045
20
1.5307
10
-7.1722
20
1.1611
0
LWPOLYLINE
8
32_arm_link_t8.0
100
AcDbEntity
100
AcDbPolyline
90
65
70
1
43
0.0
10
14.9231
20
0.7804
10
14.9807
20
0.3921
10
15
20
0
10
14.9807
20
-0.3921
10
14.9231
20
-0.7804
10
14.8278
20
-1.1611
10
14.6955
20
-1.5307
10
14.5277
20
-1.8856
10
14.3259
20
-2.2223
10
14.092
20
-2.5376
10
13.8284
20
-2.8284
10
13.5376
20
-3.092
10
13.2223
20
-3.3259
10
12.8856
20
-3.5277
10
12.5307
20
-3.6955
10
12.1611
20
-3.8278
10
11.7804
20
-3.9231
10
11.3921
20
-3.9807
10
11
20
-4
10
10.6079
20
-3.9807
10
10.2196
20
-3.9231
10
9.8389
20
-3.8278
10
9.4693
20
-3.6955
10
9.1144
20
-3.5277
10
8.7777
20
-3.3259
10
8.4624
20
-3.092
10
8.1716
20
-2.8284
10
7.908
20
-2.5376
10
7.6741
20
-2.2223
10
7.4723
20
-1.8856
10
7.3045
20
-1.5307
10
7.1722
20
-1.1611
10
7.0769
20
-0.7804
10
7.0193
20
-0.3921
10
7
20
0
10
7.0193
20
0.3921
10
7.0769
20
0.7804
10
7.1722
20
1.1611
10
7.3045
20
1.5307
10
7.4723
20
1.8856
10
7.6741
20
2.2223
10
7.908
20
2.5376
10
8.1716
20
2.8284
10
8.4624
20
3.092
10
8.7777
20
3.3259
10
9.1144
20
3.5277
10
9.4693
20
3.6955
10
9.8389
20
3.8278
10
10.2196
20
3.9231
10
10.6079
20
3.9807
10
11
20
4
10
11.3921
20
3.9807
10
11.7804
20
3.9231
10
12.1611
20
3.8278
10
12.5307
20
3.6955
10
12.8856
20
3.5277
10
13.2223
20
3.3259
10
13.5376
20
3.092
10
13.8284
20
2.8284
10
14.092
20
2.5376
10
14.3259
20
2.2223
10
14.5277
20
1.8856
10
14.6955
20
1.5307
10
14.8278
20
1.1611
10
14.9231
20
0.7804
0
LWPOLYLINE
8
32_arm_link_t8.0
100
AcDbEntity
100
AcDbPolyline
90
65
70
1
43
0.0
10
36.9807
20
0.3921
10
37
20
0
10
36.9807
20
-0.3921
10
36.9231
20
-0.7804
10
36.8278
20
-1.1611
10
36.6955
20
-1.5307
10
36.5277
20
-1.8856
10
36.3259
20
-2.2223
10
36.092
20
-2.5376
10
35.8284
20
-2.8284
10
35.5376
20
-3.092
10
35.2223
20
-3.3259
10
34.8856
20
-3.5277
10
34.5307
20
-3.6955
10
34.1611
20
-3.8278
10
33.7804
20
-3.9231
10
33.3921
20
-3.9807
10
33
20
-4
10
32.6079
20
-3.9807
10
32.2196
20
-3.9231
10
31.8389
20
-3.8278
10
31.4693
20
-3.6955
10
31.1144
20
-3.5277
10
30.7777
20
-3.3259
10
30.4624
20
-3.092
10
30.1716
20
-2.8284
10
29.908
20
-2.5376
10
29.6741
20
-2.2223
10
29.4723
20
-1.8856
10
29.3045
20
-1.5307
10
29.1722
20
-1.1611
10
29.0769
20
-0.7804
10
29.0193
20
-0.3921
10
29
20
0
10
29.0193
20
0.3921
10
29.0769
20
0.7804
10
29.1722
20
1.1611
10
29.3045
20
1.5307
10
29.4723
20
1.8856
10
29.6741
20
2.2223
10
29.908
20
2.5376
10
30.1716
20
2.8284
10
30.4624
20
3.092
10
30.7777
20
3.3259
10
31.1144
20
3.5277
10
31.4693
20
3.6955
10
31.8389
20
3.8278
10
32.2196
20
3.9231
10
32.6079
20
3.9807
10
33
20
4
10
33.3921
20
3.9807
10
33.7804
20
3.9231
10
34.1611
20
3.8278
10
34.5307
20
3.6955
10
34.8856
20
3.5277
10
35.2223
20
3.3259
10
35.5376
20
3.092
10
35.8284
20
2.8284
10
36.092
20
2.5376
10
36.3259
20
2.2223
10
36.5277
20
1.8856
10
36.6955
20
1.5307
10
36.8278
20
1.1611
10
36.9231
20
0.7804
10
36.9807
20
0.3921
0
ENDSEC
0
EOF
