0
SECTION
2
HEADER
9
$ACADVER
1
AC1015
9
$INSUNITS
70
4
0
ENDSEC
0
SECTION
2
ENTITIES
0
LWPOLYLINE
8
33_arm_elbow_t8.0
100
AcDbEntity
100
AcDbPolyline
90
5
70
1
43
0.0
10
-22
20
-17
10
22
20
-17
10
22
20
17
10
-22
20
17
10
-22
20
-17
0
LWPOLYLINE
8
33_arm_elbow_t8.0
100
AcDbEntity
100
AcDbPolyline
90
65
70
1
43
0.0
10
1.1314
20
13.1314
10
1.2368
20
13.015
10
1.3304
20
12.8889
10
1.4111
20
12.7542
10
1.4782
20
12.6123
10
1.5311
20
12.4645
10
1.5693
20
12.3121
10
1.5923
20
12.1568
10
1.6
20
12
10
1.5923
20
11.8432
10
1.5693
20
11.6879
10
1.5311
20
11.5355
10
1.4782
20
11.3877
10
1.4111
20
11.2458
10
1.3304
20
11.1111
10
1.2368
20
10.985
10
1.1314
20
10.8686
10
1.015
20
10.7632
10
0.8889
20
10.6696
10
0.7542
20
10.5889
10
0.6123
20
10.5218
10
0.4645
20
10.4689
10
0.3121
20
10.4307
10
0.1568
20
10.4077
10
0
20
10.4
10
-0.1568
20
10.4077
10
-0.3121
20
10.4307
10
-0.4645
20
10.4689
10
-0.6123
20
10.5218
10
-0.7542
20
10.5889
10
-0.8889
20
10.6696
10
-1.015
20
10.7632
10
-1.1314
20
10.8686
10
-1.2368
20
10.985
10
-1.3304
20
11.1111
10
-1.4111
20
11.2458
10
-1.4782
20
11.3877
10
-1.5311
20
11.5355
10
-1.5693
20
11.6879
10
-1.5923
20
11.8432
10
-1.6
20
12
10
-1.5923
20
12.1568
10
-1.5693
20
12.3121
10
-1.5311
20
12.4645
10
-1.4782
20
12.6123
10
-1.4111
20
12.7542
10
-1.3304
20
12.8889
10
-1.2368
20
13.015
10
-1.1314
20
13.1314
10
-1.015
20
13.2368
10
-0.8889
20
13.3304
10
-0.7542
20
13.4111
10
-0.6123
20
13.4782
10
-0.4645
20
13.5311
10
-0.3121
20
13.5693
10
-0.1568
20
13.5923
10
0
20
13.6
10
0.1568
20
13.5923
10
0.3121
20
13.5693
10
0.4645
20
13.5311
10
0.6123
20
13.4782
10
0.7542
20
13.4111
10
0.8889
20
13.3304
10
1.015
20
13.2368
10
1.1314
20
13.1314
0
LWPOLYLINE
8
33_arm_elbow_t8.0
100
AcDbEntity
100
AcDbPolyline
90
65
70
1
43
0.0
10
1.2368
20
-10.985
10
1.3304
20
-11.1111
10
1.4111
20
-11.2458
10
1.4782
20
-11.3877
10
1.5311
20
-11.5355
10
1.5693
20
-11.6879
10
1.5923
20
-11.8432
10
1.6
20
-12
10
1.5923
20
-12.1568
10
1.5693
20
-12.3121
10
1.5311
20
-12.4645
10
1.4782
20
-12.6123
10
1.4111
20
-12.7542
10
1.3304
20
-12.8889
10
1.2368
20
-13.015
10
1.1314
20
-13.1314
10
1.015
20
-13.2368
10
0.8889
20
-13.3304
10
0.7542
20
-13.4111
10
0.6123
20
-13.4782
10
0.4645
20
-13.5311
10
0.3121
20
-13.5693
10
0.1568
20
-13.5923
10
0
20
-13.6
10
-0.1568
20
-13.5923
10
-0.3121
20
-13.5693
10
-0.4645
20
-13.5311
10
-0.6123
20
-13.4782
10
-0.7542
20
-13.4111
10
-0.8889
20
-13.3304
10
-1.015
20
-13.2368
10
-1.1314
20
-13.1314
10
-1.2368
20
-13.015
10
-1.3304
20
-12.8889
10
-1.4111
20
-12.7542
10
-1.4782
20
-12.6123
10
-1.5311
20
-12.4645
10
-1.5693
20
-12.3121
10
-1.5923
20
-12.1568
10
-1.6
20
-12
10
-1.5923
20
-11.8432
10
-1.5693
20
-11.6879
10
-1.5311
20
-11.5355
10
-1.4782
20
-11.3877
10
-1.4111
20
-11.2458
10
-1.3304
20
-11.1111
10
-1.2368
20
-10.985
10
-1.1314
20
-10.8686
10
-1.015
20
-10.7632
10
-0.8889
20
-10.6696
10
-0.7542
20
-10.5889
10
-0.6123
20
-10.5218
10
-0.4645
20
-10.4689
10
-0.3121
20
-10.4307
10
-0.1568
20
-10.4077
10
0
20
-10.4
10
0.1568
20
-10.4077
10
0.3121
20
-10.4307
10
0.4645
20
-10.4689
10
0.6123
20
-10.5218
10
0.7542
20
-10.5889
10
0.8889
20
-10.6696
10
1.015
20
-10.7632
10
1.1314
20
-10.8686
10
1.2368
20
-10.985
0
LWPOLYLINE
8
33_arm_elbow_t8.0
100
AcDbEntity
100
AcDbPolyline
90
17
70
1
43
0.0
10
-17.4142
20
-12.5858
10
-16.7654
20
-12.1522
10
-16
20
-12
10
-15.2346
20
-12.1522
10
-14.5858
20
-12.5858
10
-14.1522
20
-13.2346
10
-14
20
-14
10
-14.1522
20
-14.7654
10
-14.5858
20
-15.4142
10
-15.2346
20
-15.8478
10
-16
20
-16
10
-16.7654
20
-15.8478
10
-17.4142
20
-15.4142
10
-17.8478
20
-14.7654
10
-18
20
-14
10
-17.8478
20
-13.2346
10
-17.4142
20
-12.5858
0
LWPOLYLINE
8
33_arm_elbow_t8.0
100
AcDbEntity
100
AcDbPolyline
90
17
70
1
43
0.0
10
-8.7654
20
-12.1522
10
-8
20
-12
10
-7.2346
20
-12.1522
10
-6.5858
20
-12.5858
10
-6.1522
20
-13.2346
10
-6
20
-14
10
-6.1522
20
-14.7654
10
-6.5858
20
-15.4142
10
-7.2346
20
-15.8478
10
-8
20
-16
10
-8.7654
20
-15.8478
10
-9.4142
20
-15.4142
10
-9.8478
20
-14.7654
10
-10
20
-14
10
-9.8478
20
-13.2346
10
-9.4142
20
-12.5858
10
-8.7654
20
-12.1522
0
LWPOLYLINE
8
33_arm_elbow_t8.0
100
AcDbEntity
100
AcDbPolyline
90
17
70
1
43
0.0
10
8
20
-12
10
8.7654
20
-12.1522
10
9.4142
20
-12.5858
10
9.8478
20
-13.2346
10
10
20
-14
10
9.8478
20
-14.7654
10
9.4142
20
-15.4142
10
8.7654
20
-15.8478
10
8
20
-16
10
7.2346
20
-15.8478
10
6.5858
20
-15.4142
10
6.1522
20
-14.7654
10
6
20
-14
10
6.1522
20
-13.2346
10
6.5858
20
-12.5858
10
7.2346
20
-12.1522
10
8
20
-12
0
LWPOLYLINE
8
33_arm_elbow_t8.0
100
AcDbEntity
100
AcDbPolyline
90
17
70
1
43
0.0
10
16.7654
20
-12.1522
10
17.4142
20
-12.5858
10
17.8478
20
-13.2346
10
18
20
-14
10
17.8478
20
-14.7654
10
17.4142
20
-15.4142
10
16.7654
20
-15.8478
10
16
20
-16
10
15.2346
20
-15.8478
10
14.5858
20
-15.4142
10
14.1522
20
-14.7654
10
14
20
-14
10
14.1522
20
-13.2346
10
14.5858
20
-12.5858
10
15.2346
20
-12.1522
10
16
20
-12
10
16.7654
20
-12.1522
0
LWPOLYLINE
8
33_arm_elbow_t8.0
100
AcDbEntity
100
AcDbPolyline
90
65
70
1
43
0.0
10
-12.0769
20
0.7804
10
-12.0193
20
0.3921
10
-12
20
0
10
-12.0193
20
-0.3921
10
-12.0769
20
-0.7804
10
-12.1722
20
-1.1611
10
-12.3045
20
-1.5307
10
-12.4723
20
-1.8856
10
-12.6741
20
-2.2223
10
-12.908
20
-2.5376
10
-13.1716
20
-2.8284
10
-13.4624
20
-3.092
10
-13.7777
20
-3.3259
10
-14.1144
20
-3.5277
10
-14.4693
20
-3.6955
10
-14.8389
20
-3.8278
10
-15.2196
20
-3.9231
10
-15.6079
20
-3.9807
10
-16
20
-4
10
-16.3921
20
-3.9807
10
-16.7804
20
-3.9231
10
-17.1611
20
-3.8278
10
-17.5307
20
-3.6955
10
-17.8856
20
-3.5277
10
-18.2223
20
-3.3259
10
-18.5376
20
-3.092
10
-18.8284
20
-2.8284
10
-19.092
20
-2.5376
10
-19.3259
20
-2.2223
10
-19.5277
20
-1.8856
10
-19.6955
20
-1.5307
10
-19.8278
20
-1.1611
10
-19.9231
20
-0.7804
10
-19.9807
20
-0.3921
10
-20
20
0
10
-19.9807
20
0.3921
10
-19.9231
20
0.7804
10
-19.8278
20
1.1611
10
-19.6955
20
1.5307
10
-19.5277
20
1.8856
10
-19.3259
20
2.2223
10
-19.092
20
2.5376
10
-18.8284
20
2.8284
10
-18.5376
20
3.092
10
-18.2223
20
3.3259
10
-17.8856
20
3.5277
10
-17.5307
20
3.6955
10
-17.1611
20
3.8278
10
-16.7804
20
3.9231
10
-16.3921
20
3.9807
10
-16
20
4
10
-15.6079
20
3.9807
10
-15.2196
20
3.9231
10
-14.8389
20
3.8278
10
-14.4693
20
3.6955
10
-14.1144
20
3.5277
10
-13.7777
20
3.3259
10
-13.4624
20
3.092
10
-13.1716
20
2.8284
10
-12.908
20
2.5376
10
-12.6741
20
2.2223
10
-12.4723
20
1.8856
10
-12.3045
20
1.5307
10
-12.1722
20
1.1611
10
-12.0769
20
0.7804
0
LWPOLYLINE
8
33_arm_elbow_t8.0
100
AcDbEntity
100
AcDbPolyline
90
65
70
1
43
0.0
10
19.9807
20
0.3921
10
20
20
0
10
19.9807
20
-0.3921
10
19.9231
20
-0.7804
10
19.8278
20
-1.1611
10
19.6955
20
-1.5307
10
19.5277
20
-1.8856
10
19.3259
20
-2.2223
10
19.092
20
-2.5376
10
18.8284
20
-2.8284
10
18.5376
20
-3.092
10
18.2223
20
-3.3259
10
17.8856
20
-3.5277
10
17.5307
20
-3.6955
10
17.1611
20
-3.8278
10
16.7804
20
-3.9231
10
16.3921
20
-3.9807
10
16
20
-4
10
15.6079
20
-3.9807
10
15.2196
20
-3.9231
10
14.8389
20
-3.8278
10
14.4693
20
-3.6955
10
14.1144
20
-3.5277
10
13.7777
20
-3.3259
10
13.4624
20
-3.092
10
13.1716
20
-2.8284
10
12.908
20
-2.5376
10
12.6741
20
-2.2223
10
12.4723
20
-1.8856
10
12.3045
20
-1.5307
10
12.1722
20
-1.1611
10
12.0769
20
-0.7804
10
12.0193
20
-0.3921
10
12
20
0
10
12.0193
20
0.3921
10
12.0769
20
0.7804
10
12.1722
20
1.1611
10
12.3045
20
1.5307
10
12.4723
20
1.8856
10
12.6741
20
2.2223
10
12.908
20
2.5376
10
13.1716
20
2.8284
10
13.4624
20
3.092
10
13.7777
20
3.3259
10
14.1144
20
3.5277
10
14.4693
20
3.6955
10
14.8389
20
3.8278
10
15.2196
20
3.9231
10
15.6079
20
3.9807
10
16
20
4
10
16.3921
20
3.9807
10
16.7804
20
3.9231
10
17.1611
20
3.8278
10
17.5307
20
3.6955
10
17.8856
20
3.5277
10
18.2223
20
3.3259
10
18.5376
20
3.092
10
18.8284
20
2.8284
10
19.092
20
2.5376
10
19.3259
20
2.2223
10
19.5277
20
1.8856
10
19.6955
20
1.5307
10
19.8278
20
1.1611
10
19.9231
20
0.7804
10
19.9807
20
0.3921
0
ENDSEC
0
EOF
