0
SECTION
2
HEADER
9
$ACADVER
1
AC1015
9
$INSUNITS
70
4
0
ENDSEC
0
SECTION
2
ENTITIES
0
LWPOLYLINE
8
33_arm_boom_t8.0
100
AcDbEntity
100
AcDbPolyline
90
5
70
1
43
0.0
10
26
20
12
10
26
20
-12
10
64
20
-12
10
64
20
12
10
26
20
12
0
LWPOLYLINE
8
33_arm_boom_t8.0
100
AcDbEntity
100
AcDbPolyline
90
65
70
1
43
0.0
10
37.5923
20
0.1568
10
37.6
20
0
10
37.5923
20
-0.1568
10
37.5693
20
-0.3121
10
37.5311
20
-0.4645
10
37.4782
20
-0.6123
10
37.4111
20
-0.7542
10
37.3304
20
-0.8889
10
37.2368
20
-1.015
10
37.1314
20
-1.1314
10
37.015
20
-1.2368
10
36.8889
20
-1.3304
10
36.7542
20
-1.4111
10
36.6123
20
-1.4782
10
36.4645
20
-1.5311
10
36.3121
20
-1.5693
10
36.1568
20
-1.5923
10
36
20
-1.6
10
35.8432
20
-1.5923
10
35.6879
20
-1.5693
10
35.5355
20
-1.5311
10
35.3877
20
-1.4782
10
35.2458
20
-1.4111
10
35.1111
20
-1.3304
10
34.985
20
-1.2368
10
34.8686
20
-1.1314
10
34.7632
20
-1.015
10
34.6696
20
-0.8889
10
34.5889
20
-0.7542
10
34.5218
20
-0.6123
10
34.4689
20
-0.4645
10
34.4307
20
-0.3121
10
34.4077
20
-0.1568
10
34.4
20
0
10
34.4077
20
0.1568
10
34.4307
20
0.3121
10
34.4689
20
0.4645
10
34.5218
20
0.6123
10
34.5889
20
0.7542
10
34.6696
20
0.8889
10
34.7632
20
1.015
10
34.8686
20
1.1314
10
34.985
20
1.2368
10
35.1111
20
1.3304
10
35.2458
20
1.4111
10
35.3877
20
1.4782
10
35.5355
20
1.5311
10
35.6879
20
1.5693
10
35.8432
20
1.5923
10
36
20
1.6
10
36.1568
20
1.5923
10
36.3121
20
1.5693
10
36.4645
20
1.5311
10
36.6123
20
1.4782
10
36.7542
20
1.4111
10
36.8889
20
1.3304
10
37.015
20
1.2368
10
37.1314
20
1.1314
10
37.2368
20
1.015
10
37.3304
20
0.8889
10
37.4111
20
0.7542
10
37.4782
20
0.6123
10
37.5311
20
0.4645
10
37.5693
20
0.3121
10
37.5923
20
0.1568
0
ENDSEC
0
EOF
