0
SECTION
2
HEADER
9
$ACADVER
1
AC1015
9
$INSUNITS
70
4
0
ENDSEC
0
SECTION
2
ENTITIES
0
LWPOLYLINE
8
34_arm_lift_crank_t8.0
100
AcDbEntity
100
AcDbPolyline
90
93
70
1
43
0.0
10
8.6125
20
-2.6126
10
8.8271
20
-1.7558
10
8.9567
20
-0.8822
10
9
20
0
10
8.9567
20
0.8822
10
8.8271
20
1.7558
10
8.6125
20
2.6126
10
8.3149
20
3.4442
10
7.9373
20
4.2426
10
7.4832
20
5.0001
10
6.9571
20
5.7095
10
6.364
20
6.364
10
5.7095
20
6.9571
10
5.0001
20
7.4832
10
4.2426
20
7.9373
10
4
20
8.052
10
4
20
15.25
10
3.6
20
15.25
10
3.5827
20
15.6029
10
3.5308
20
15.9523
10
3.445
20
16.295
10
3.326
20
16.6277
10
3.1749
20
16.947
10
2.9933
20
17.2501
10
2.7828
20
17.5338
10
2.5456
20
17.7956
10
2.2838
20
18.0328
10
2.0001
20
18.2433
10
1.697
20
18.4249
10
1.3777
20
18.576
10
1.045
20
18.695
10
0.7023
20
18.7808
10
0.3529
20
18.8327
10
0
20
18.85
10
-0.3529
20
18.8327
10
-0.7023
20
18.7808
10
-1.045
20
18.695
10
-1.3777
20
18.576
10
-1.697
20
18.4249
10
-2.0001
20
18.2433
10
-2.2838
20
18.0328
10
-2.5456
20
17.7956
10
-2.7828
20
17.5338
10
-2.9933
20
17.2501
10
-3.1749
20
16.947
10
-3.326
20
16.6277
10
-3.445
20
16.295
10
-3.5308
20
15.9523
10
-3.5827
20
15.6029
10
-3.6
20
15.25
10
-4
20
15.25
10
-4
20
8.052
10
-4.2426
20
7.9373
10
-5.0001
20
7.4832
10
-5.7095
20
6.9571
10
-6.364
20
6.364
10
-6.9571
20
5.7095
10
-7.4832
20
5.0001
10
-7.9373
20
4.2426
10
-8.3149
20
3.4442
10
-8.6125
20
2.6126
10
-8.8271
20
1.7558
10
-8.9567
20
0.8822
10
-9
20
0
10
-8.9567
20
-0.8822
10
-8.8271
20
-1.7558
10
-8.6125
20
-2.6126
10
-8.3149
20
-3.4442
10
-7.9373
20
-4.2426
10
-7.4832
20
-5.0001
10
-6.9571
20
-5.7095
10
-6.364
20
-6.364
10
-5.7095
20
-6.9571
10
-5.0001
20
-7.4832
10
-4.2426
20
-7.9373
10
-3.4442
20
-8.3149
10
-2.6126
20
-8.6125
10
-1.7558
20
-8.8271
10
-0.8822
20
-8.9567
10
0
20
-9
10
0.8822
20
-8.9567
10
1.7558
20
-8.8271
10
2.6126
20
-8.6125
10
3.4442
20
-8.3149
10
4.2426
20
-7.9373
10
5.0001
20
-7.4832
10
5.7095
20
-6.9571
10
6.364
20
-6.364
10
6.9571
20
-5.7095
10
7.4832
20
-5.0001
10
7.9373
20
-4.2426
10
8.3149
20
-3.4442
10
8.6125
20
-2.6126
0
LWPOLYLINE
8
34_arm_lift_crank_t8.0
100
AcDbEntity
100
AcDbPolyline
90
65
70
1
43
0.0
10
1.0789
20
0.2146
10
1.0947
20
0.1078
10
1.1
20
0
10
1.0947
20
-0.1078
10
1.0789
20
-0.2146
10
1.0526
20
-0.3193
10
1.0163
20
-0.421
10
0.9701
20
-0.5185
10
0.9146
20
-0.6111
10
0.8503
20
-0.6978
10
0.7778
20
-0.7778
10
0.6978
20
-0.8503
10
0.6111
20
-0.9146
10
0.5185
20
-0.9701
10
0.421
20
-1.0163
10
0.3193
20
-1.0526
10
0.2146
20
-1.0789
10
0.1078
20
-1.0947
10
0
20
-1.1
10
-0.1078
20
-1.0947
10
-0.2146
20
-1.0789
10
-0.3193
20
-1.0526
10
-0.421
20
-1.0163
10
-0.5185
20
-0.9701
10
-0.6111
20
-0.9146
10
-0.6978
20
-0.8503
10
-0.7778
20
-0.7778
10
-0.8503
20
-0.6978
10
-0.9146
20
-0.6111
10
-0.9701
20
-0.5185
10
-1.0163
20
-0.421
10
-1.0526
20
-0.3193
10
-1.0789
20
-0.2146
10
-1.0947
20
-0.1078
10
-1.1
20
0
10
-1.0947
20
0.1078
10
-1.0789
20
0.2146
10
-1.0526
20
0.3193
10
-1.0163
20
0.421
10
-0.9701
20
0.5185
10
-0.9146
20
0.6111
10
-0.8503
20
0.6978
10
-0.7778
20
0.7778
10
-0.6978
20
0.8503
10
-0.6111
20
0.9146
10
-0.5185
20
0.9701
10
-0.421
20
1.0163
10
-0.3193
20
1.0526
10
-0.2146
20
1.0789
10
-0.1078
20
1.0947
10
0
20
1.1
10
0.1078
20
1.0947
10
0.2146
20
1.0789
10
0.3193
20
1.0526
10
0.421
20
1.0163
10
0.5185
20
0.9701
10
0.6111
20
0.9146
10
0.6978
20
0.8503
10
0.7778
20
0.7778
10
0.8503
20
0.6978
10
0.9146
20
0.6111
10
0.9701
20
0.5185
10
1.0163
20
0.421
10
1.0526
20
0.3193
10
1.0789
20
0.2146
0
LWPOLYLINE
8
34_arm_lift_crank_t8.0
100
AcDbEntity
100
AcDbPolyline
90
65
70
1
43
0.0
10
1.5923
20
15.4068
10
1.6
20
15.25
10
1.5923
20
15.0932
10
1.5693
20
14.9379
10
1.5311
20
14.7855
10
1.4782
20
14.6377
10
1.4111
20
14.4958
10
1.3304
20
14.3611
10
1.2368
20
14.235
10
1.1314
20
14.1186
10
1.015
20
14.0132
10
0.8889
20
13.9196
10
0.7542
20
13.8389
10
0.6123
20
13.7718
10
0.4645
20
13.7189
10
0.3121
20
13.6807
10
0.1568
20
13.6577
10
0
20
13.65
10
-0.1568
20
13.6577
10
-0.3121
20
13.6807
10
-0.4645
20
13.7189
10
-0.6123
20
13.7718
10
-0.7542
20
13.8389
10
-0.8889
20
13.9196
10
-1.015
20
14.0132
10
-1.1314
20
14.1186
10
-1.2368
20
14.235
10
-1.3304
20
14.3611
10
-1.4111
20
14.4958
10
-1.4782
20
14.6377
10
-1.5311
20
14.7855
10
-1.5693
20
14.9379
10
-1.5923
20
15.0932
10
-1.6
20
15.25
10
-1.5923
20
15.4068
10
-1.5693
20
15.5621
10
-1.5311
20
15.7145
10
-1.4782
20
15.8623
10
-1.4111
20
16.0042
10
-1.3304
20
16.1389
10
-1.2368
20
16.265
10
-1.1314
20
16.3814
10
-1.015
20
16.4868
10
-0.8889
20
16.5804
10
-0.7542
20
16.6611
10
-0.6123
20
16.7282
10
-0.4645
20
16.7811
10
-0.3121
20
16.8193
10
-0.1568
20
16.8423
10
0
20
16.85
10
0.1568
20
16.8423
10
0.3121
20
16.8193
10
0.4645
20
16.7811
10
0.6123
20
16.7282
10
0.7542
20
16.6611
10
0.8889
20
16.5804
10
1.015
20
16.4868
10
1.1314
20
16.3814
10
1.2368
20
16.265
10
1.3304
20
16.1389
10
1.4111
20
16.0042
10
1.4782
20
15.8623
10
1.5311
20
15.7145
10
1.5693
20
15.5621
10
1.5923
20
15.4068
0
ENDSEC
0
EOF
