0
SECTION
2
HEADER
9
$ACADVER
1
AC1015
9
$INSUNITS
70
4
0
ENDSEC
0
SECTION
2
ENTITIES
0
LWPOLYLINE
8
35_arm_lift_link_t6.0
100
AcDbEntity
100
AcDbPolyline
90
91
70
1
43
0.0
10
-22.8389
20
-3.8278
10
-22.4693
20
-3.6955
10
-22.1144
20
-3.5277
10
-22.0682
20
-3.5
10
22.0682
20
-3.5
10
22.1144
20
-3.5277
10
22.4693
20
-3.6955
10
22.8389
20
-3.8278
10
23.2196
20
-3.9231
10
23.6079
20
-3.9807
10
24
20
-4
10
24.3921
20
-3.9807
10
24.7804
20
-3.9231
10
25.1611
20
-3.8278
10
25.5307
20
-3.6955
10
25.8856
20
-3.5277
10
26.2223
20
-3.3259
10
26.5376
20
-3.092
10
26.8284
20
-2.8284
10
27.092
20
-2.5376
10
27.3259
20
-2.2223
10
27.5277
20
-1.8856
10
27.6955
20
-1.5307
10
27.8278
20
-1.1611
10
27.9231
20
-0.7804
10
27.9807
20
-0.3921
10
28
20
0
10
27.9807
20
0.3921
10
27.9231
20
0.7804
10
27.8278
20
1.1611
10
27.6955
20
1.5307
10
27.5277
20
1.8856
10
27.3259
20
2.2223
10
27.092
20
2.5376
10
26.8284
20
2.8284
10
26.5376
20
3.092
10
26.2223
20
3.3259
10
25.8856
20
3.5277
10
25.5307
20
3.6955
10
25.1611
20
3.8278
10
24.7804
20
3.9231
10
24.3921
20
3.9807
10
24
20
4
10
23.6079
20
3.9807
10
23.2196
20
3.9231
10
22.8389
20
3.8278
10
22.4693
20
3.6955
10
22.1144
20
3.5277
10
22.0682
20
3.5
10
-22.0682
20
3.5
10
-22.1144
20
3.5277
10
-22.4693
20
3.6955
10
-22.8389
20
3.8278
10
-23.2196
20
3.9231
10
-23.6079
20
3.9807
10
-24
20
4
10
-24.3921
20
3.9807
10
-24.7804
20
3.9231
10
-25.1611
20
3.8278
10
-25.5307
20
3.6955
10
-25.8856
20
3.5277
10
-26.2223
20
3.3259
10
-26.5376
20
3.092
10
-26.8284
20
2.8284
10
-27.092
20
2.5376
10
-27.3259
20
2.2223
10
-27.5277
20
1.8856
10
-27.6955
20
1.5307
10
-27.8278
20
1.1611
10
-27.9231
20
0.7804
10
-27.9807
20
0.3921
10
-28
20
0
10
-27.9807
20
-0.3921
10
-27.9231
20
-0.7804
10
-27.8278
20
-1.1611
10
-27.6955
20
-1.5307
10
-27.5277
20
-1.8856
10
-27.3259
20
-2.2223
10
-27.092
20
-2.5376
10
-26.8284
20
-2.8284
10
-26.5376
20
-3.092
10
-26.2223
20
-3.3259
10
-25.8856
20
-3.5277
10
-25.5307
20
-3.6955
10
-25.1611
20
-3.8278
10
-24.7804
20
-3.9231
10
-24.3921
20
-3.9807
10
-24
20
-4
10
-23.6079
20
-3.9807
10
-23.2196
20
-3.9231
10
-22.8389
20
-3.8278
0
LWPOLYLINE
8
35_arm_lift_link_t6.0
100
AcDbEntity
100
AcDbPolyline
90
65
70
1
43
0.0
10
-22.4307
20
0.3121
10
-22.4077
20
0.1568
10
-22.4
20
0
10
-22.4077
20
-0.1568
10
-22.4307
20
-0.3121
10
-22.4689
20
-0.4645
10
-22.5218
20
-0.6123
10
-22.5889
20
-0.7542
10
-22.6696
20
-0.8889
10
-22.7632
20
-1.015
10
-22.8686
20
-1.1314
10
-22.985
20
-1.2368
10
-23.1111
20
-1.3304
10
-23.2458
20
-1.4111
10
-23.3877
20
-1.4782
10
-23.5355
20
-1.5311
10
-23.6879
20
-1.5693
10
-23.8432
20
-1.5923
10
-24
20
-1.6
10
-24.1568
20
-1.5923
10
-24.3121
20
-1.5693
10
-24.4645
20
-1.5311
10
-24.6123
20
-1.4782
10
-24.7542
20
-1.4111
10
-24.8889
20
-1.3304
10
-25.015
20
-1.2368
10
-25.1314
20
-1.1314
10
-25.2368
20
-1.015
10
-25.3304
20
-0.8889
10
-25.4111
20
-0.7542
10
-25.4782
20
-0.6123
10
-25.5311
20
-0.4645
10
-25.5693
20
-0.3121
10
-25.5923
20
-0.1568
10
-25.6
20
0
10
-25.5923
20
0.1568
10
-25.5693
20
0.3121
10
-25.5311
20
0.4645
10
-25.4782
20
0.6123
10
-25.4111
20
0.7542
10
-25.3304
20
0.8889
10
-25.2368
20
1.015
10
-25.1314
20
1.1314
10
-25.015
20
1.2368
10
-24.8889
20
1.3304
10
-24.7542
20
1.4111
10
-24.6123
20
1.4782
10
-24.4645
20
1.5311
10
-24.3121
20
1.5693
10
-24.1568
20
1.5923
10
-24
20
1.6
10
-23.8432
20
1.5923
10
-23.6879
20
1.5693
10
-23.5355
20
1.5311
10
-23.3877
20
1.4782
10
-23.2458
20
1.4111
10
-23.1111
20
1.3304
10
-22.985
20
1.2368
10
-22.8686
20
1.1314
10
-22.7632
20
1.015
10
-22.6696
20
0.8889
10
-22.5889
20
0.7542
10
-22.5218
20
0.6123
10
-22.4689
20
0.4645
10
-22.4307
20
0.3121
0
LWPOLYLINE
8
35_arm_lift_link_t6.0
100
AcDbEntity
100
AcDbPolyline
90
65
70
1
43
0.0
10
25.5923
20
0.1568
10
25.6
20
0
10
25.5923
20
-0.1568
10
25.5693
20
-0.3121
10
25.5311
20
-0.4645
10
25.4782
20
-0.6123
10
25.4111
20
-0.7542
10
25.3304
20
-0.8889
10
25.2368
20
-1.015
10
25.1314
20
-1.1314
10
25.015
20
-1.2368
10
24.8889
20
-1.3304
10
24.7542
20
-1.4111
10
24.6123
20
-1.4782
10
24.4645
20
-1.5311
10
24.3121
20
-1.5693
10
24.1568
20
-1.5923
10
24
20
-1.6
10
23.8432
20
-1.5923
10
23.6879
20
-1.5693
10
23.5355
20
-1.5311
10
23.3877
20
-1.4782
10
23.2458
20
-1.4111
10
23.1111
20
-1.3304
10
22.985
20
-1.2368
10
22.8686
20
-1.1314
10
22.7632
20
-1.015
10
22.6696
20
-0.8889
10
22.5889
20
-0.7542
10
22.5218
20
-0.6123
10
22.4689
20
-0.4645
10
22.4307
20
-0.3121
10
22.4077
20
-0.1568
10
22.4
20
0
10
22.4077
20
0.1568
10
22.4307
20
0.3121
10
22.4689
20
0.4645
10
22.5218
20
0.6123
10
22.5889
20
0.7542
10
22.6696
20
0.8889
10
22.7632
20
1.015
10
22.8686
20
1.1314
10
22.985
20
1.2368
10
23.1111
20
1.3304
10
23.2458
20
1.4111
10
23.3877
20
1.4782
10
23.5355
20
1.5311
10
23.6879
20
1.5693
10
23.8432
20
1.5923
10
24
20
1.6
10
24.1568
20
1.5923
10
24.3121
20
1.5693
10
24.4645
20
1.5311
10
24.6123
20
1.4782
10
24.7542
20
1.4111
10
24.8889
20
1.3304
10
25.015
20
1.2368
10
25.1314
20
1.1314
10
25.2368
20
1.015
10
25.3304
20
0.8889
10
25.4111
20
0.7542
10
25.4782
20
0.6123
10
25.5311
20
0.4645
10
25.5693
20
0.3121
10
25.5923
20
0.1568
0
ENDSEC
0
EOF
