0
SECTION
2
HEADER
9
$ACADVER
1
AC1015
9
$INSUNITS
70
4
0
ENDSEC
0
SECTION
2
ENTITIES
0
LWPOLYLINE
8
36_arm_lift_cap_t6.0
100
AcDbEntity
100
AcDbPolyline
90
13
70
1
43
0.0
10
17.3
20
-17.3
10
-17.3
20
-17.3
10
-17.3
20
17.3
10
17
20
17.3
10
17
20
22
10
30
20
22
10
30
20
30
10
-30
20
30
10
-30
20
-30
10
30
20
-30
10
30
20
8
10
17.3
20
8
10
17.3
20
-17.3
0
LWPOLYLINE
8
36_arm_lift_cap_t6.0
100
AcDbEntity
100
AcDbPolyline
90
5
70
1
43
0.0
10
-24.75
20
6
10
-24.75
20
-6
10
-27.25
20
-6
10
-27.25
20
6
10
-24.75
20
6
0
LWPOLYLINE
8
36_arm_lift_cap_t6.0
100
AcDbEntity
100
AcDbPolyline
90
5
70
1
43
0.0
10
27.25
20
-6
10
24.75
20
-6
10
24.75
20
6
10
27.25
20
6
10
27.25
20
-6
0
LWPOLYLINE
8
36_arm_lift_cap_t6.0
100
AcDbEntity
100
AcDbPolyline
90
65
70
1
43
0.0
10
1.0163
20
19.071
10
1.0526
20
18.9693
10
1.0789
20
18.8646
10
1.0947
20
18.7578
10
1.1
20
18.65
10
1.0947
20
18.5422
10
1.0789
20
18.4354
10
1.0526
20
18.3307
10
1.0163
20
18.229
10
0.9701
20
18.1315
10
0.9146
20
18.0389
10
0.8503
20
17.9522
10
0.7778
20
17.8722
10
0.6978
20
17.7997
10
0.6111
20
17.7354
10
0.5185
20
17.6799
10
0.421
20
17.6337
10
0.3193
20
17.5974
10
0.2146
20
17.5711
10
0.1078
20
17.5553
10
0
20
17.55
10
-0.1078
20
17.5553
10
-0.2146
20
17.5711
10
-0.3193
20
17.5974
10
-0.421
20
17.6337
10
-0.5185
20
17.6799
10
-0.6111
20
17.7354
10
-0.6978
20
17.7997
10
-0.7778
20
17.8722
10
-0.8503
20
17.9522
10
-0.9146
20
18.0389
10
-0.9701
20
18.1315
10
-1.0163
20
18.229
10
-1.0526
20
18.3307
10
-1.0789
20
18.4354
10
-1.0947
20
18.5422
10
-1.1
20
18.65
10
-1.0947
20
18.7578
10
-1.0789
20
18.8646
10
-1.0526
20
18.9693
10
-1.0163
20
19.071
10
-0.9701
20
19.1685
10
-0.9146
20
19.2611
10
-0.8503
20
19.3478
10
-0.7778
20
19.4278
10
-0.6978
20
19.5003
10
-0.6111
20
19.5646
10
-0.5185
20
19.6201
10
-0.421
20
19.6663
10
-0.3193
20
19.7026
10
-0.2146
20
19.7289
10
-0.1078
20
19.7447
10
0
20
19.75
10
0.1078
20
19.7447
10
0.2146
20
19.7289
10
0.3193
20
19.7026
10
0.421
20
19.6663
10
0.5185
20
19.6201
10
0.6111
20
19.5646
10
0.6978
20
19.5003
10
0.7778
20
19.4278
10
0.8503
20
19.3478
10
0.9146
20
19.2611
10
0.9701
20
19.1685
10
1.0163
20
19.071
0
LWPOLYLINE
8
36_arm_lift_cap_t6.0
100
AcDbEntity
100
AcDbPolyline
90
65
70
1
43
0.0
10
1.0526
20
-18.3307
10
1.0789
20
-18.4354
10
1.0947
20
-18.5422
10
1.1
20
-18.65
10
1.0947
20
-18.7578
10
1.0789
20
-18.8646
10
1.0526
20
-18.9693
10
1.0163
20
-19.071
10
0.9701
20
-19.1685
10
0.9146
20
-19.2611
10
0.8503
20
-19.3478
10
0.7778
20
-19.4278
10
0.6978
20
-19.5003
10
0.6111
20
-19.5646
10
0.5185
20
-19.6201
10
0.421
20
-19.6663
10
0.3193
20
-19.7026
10
0.2146
20
-19.7289
10
0.1078
20
-19.7447
10
0
20
-19.75
10
-0.1078
20
-19.7447
10
-0.2146
20
-19.7289
10
-0.3193
20
-19.7026
10
-0.421
20
-19.6663
10
-0.5185
20
-19.6201
10
-0.6111
20
-19.5646
10
-0.6978
20
-19.5003
10
-0.7778
20
-19.4278
10
-0.8503
20
-19.3478
10
-0.9146
20
-19.2611
10
-0.9701
20
-19.1685
10
-1.0163
20
-19.071
10
-1.0526
20
-18.9693
10
-1.0789
20
-18.8646
10
-1.0947
20
-18.7578
10
-1.1
20
-18.65
10
-1.0947
20
-18.5422
10
-1.0789
20
-18.4354
10
-1.0526
20
-18.3307
10
-1.0163
20
-18.229
10
-0.9701
20
-18.1315
10
-0.9146
20
-18.0389
10
-0.8503
20
-17.9522
10
-0.7778
20
-17.8722
10
-0.6978
20
-17.7997
10
-0.6111
20
-17.7354
10
-0.5185
20
-17.6799
10
-0.421
20
-17.6337
10
-0.3193
20
-17.5974
10
-0.2146
20
-17.5711
10
-0.1078
20
-17.5553
10
0
20
-17.55
10
0.1078
20
-17.5553
10
0.2146
20
-17.5711
10
0.3193
20
-17.5974
10
0.421
20
-17.6337
10
0.5185
20
-17.6799
10
0.6111
20
-17.7354
10
0.6978
20
-17.7997
10
0.7778
20
-17.8722
10
0.8503
20
-17.9522
10
0.9146
20
-18.0389
10
0.9701
20
-18.1315
10
1.0163
20
-18.229
10
1.0526
20
-18.3307
0
LWPOLYLINE
8
36_arm_lift_cap_t6.0
100
AcDbEntity
100
AcDbPolyline
90
65
70
1
43
0.0
10
19.7289
20
0.2146
10
19.7447
20
0.1078
10
19.75
20
0
10
19.7447
20
-0.1078
10
19.7289
20
-0.2146
10
19.7026
20
-0.3193
10
19.6663
20
-0.421
10
19.6201
20
-0.5185
10
19.5646
20
-0.6111
10
19.5003
20
-0.6978
10
19.4278
20
-0.7778
10
19.3478
20
-0.8503
10
19.2611
20
-0.9146
10
19.1685
20
-0.9701
10
19.071
20
-1.0163
10
18.9693
20
-1.0526
10
18.8646
20
-1.0789
10
18.7578
20
-1.0947
10
18.65
20
-1.1
10
18.5422
20
-1.0947
10
18.4354
20
-1.0789
10
18.3307
20
-1.0526
10
18.229
20
-1.0163
10
18.1315
20
-0.9701
10
18.0389
20
-0.9146
10
17.9522
20
-0.8503
10
17.8722
20
-0.7778
10
17.7997
20
-0.6978
10
17.7354
20
-0.6111
10
17.6799
20
-0.5185
10
17.6337
20
-0.421
10
17.5974
20
-0.3193
10
17.5711
20
-0.2146
10
17.5553
20
-0.1078
10
17.55
20
0
10
17.5553
20
0.1078
10
17.5711
20
0.2146
10
17.5974
20
0.3193
10
17.6337
20
0.421
10
17.6799
20
0.5185
10
17.7354
20
0.6111
10
17.7997
20
0.6978
10
17.8722
20
0.7778
10
17.9522
20
0.8503
10
18.0389
20
0.9146
10
18.1315
20
0.9701
10
18.229
20
1.0163
10
18.3307
20
1.0526
10
18.4354
20
1.0789
10
18.5422
20
1.0947
10
18.65
20
1.1
10
18.7578
20
1.0947
10
18.8646
20
1.0789
10
18.9693
20
1.0526
10
19.071
20
1.0163
10
19.1685
20
0.9701
10
19.2611
20
0.9146
10
19.3478
20
0.8503
10
19.4278
20
0.7778
10
19.5003
20
0.6978
10
19.5646
20
0.6111
10
19.6201
20
0.5185
10
19.6663
20
0.421
10
19.7026
20
0.3193
10
19.7289
20
0.2146
0
LWPOLYLINE
8
36_arm_lift_cap_t6.0
100
AcDbEntity
100
AcDbPolyline
90
65
70
1
43
0.0
10
-17.5553
20
0.1078
10
-17.55
20
0
10
-17.5553
20
-0.1078
10
-17.5711
20
-0.2146
10
-17.5974
20
-0.3193
10
-17.6337
20
-0.421
10
-17.6799
20
-0.5185
10
-17.7354
20
-0.6111
10
-17.7997
20
-0.6978
10
-17.8722
20
-0.7778
10
-17.9522
20
-0.8503
10
-18.0389
20
-0.9146
10
-18.1315
20
-0.9701
10
-18.229
20
-1.0163
10
-18.3307
20
-1.0526
10
-18.4354
20
-1.0789
10
-18.5422
20
-1.0947
10
-18.65
20
-1.1
10
-18.7578
20
-1.0947
10
-18.8646
20
-1.0789
10
-18.9693
20
-1.0526
10
-19.071
20
-1.0163
10
-19.1685
20
-0.9701
10
-19.2611
20
-0.9146
10
-19.3478
20
-0.8503
10
-19.4278
20
-0.7778
10
-19.5003
20
-0.6978
10
-19.5646
20
-0.6111
10
-19.6201
20
-0.5185
10
-19.6663
20
-0.421
10
-19.7026
20
-0.3193
10
-19.7289
20
-0.2146
10
-19.7447
20
-0.1078
10
-19.75
20
0
10
-19.7447
20
0.1078
10
-19.7289
20
0.2146
10
-19.7026
20
0.3193
10
-19.6663
20
0.421
10
-19.6201
20
0.5185
10
-19.5646
20
0.6111
10
-19.5003
20
0.6978
10
-19.4278
20
0.7778
10
-19.3478
20
0.8503
10
-19.2611
20
0.9146
10
-19.1685
20
0.9701
10
-19.071
20
1.0163
10
-18.9693
20
1.0526
10
-18.8646
20
1.0789
10
-18.7578
20
1.0947
10
-18.65
20
1.1
10
-18.5422
20
1.0947
10
-18.4354
20
1.0789
10
-18.3307
20
1.0526
10
-18.229
20
1.0163
10
-18.1315
20
0.9701
10
-18.0389
20
0.9146
10
-17.9522
20
0.8503
10
-17.8722
20
0.7778
10
-17.7997
20
0.6978
10
-17.7354
20
0.6111
10
-17.6799
20
0.5185
10
-17.6337
20
0.421
10
-17.5974
20
0.3193
10
-17.5711
20
0.2146
10
-17.5553
20
0.1078
0
ENDSEC
0
EOF
